<?xml version="1.0" encoding="UTF-8" standalone="no"?>
<!DOCTYPE svg PUBLIC "-//W3C//DTD SVG 1.1//EN"
 "http://www.w3.org/Graphics/SVG/1.1/DTD/svg11.dtd">
<!-- Generated by graphviz version 12.1.2 (20240928.0832)
 -->
<!-- Title: SSB_Combined_BuildUp Pages: 1 -->
<svg width="2171pt" height="669pt"
 viewBox="0.00 0.00 2171.15 669.44" xmlns="http://www.w3.org/2000/svg" xmlns:xlink="http://www.w3.org/1999/xlink">
<g id="graph0" class="graph" transform="scale(1 1) rotate(0) translate(36 633.44)">
<title>SSB_Combined_BuildUp</title>
<polygon fill="#fafafa" stroke="none" points="-36,36 -36,-633.44 2135.15,-633.44 2135.15,36 -36,36"/>
<!-- tier_def -->
<g id="node1" class="node">
<title>tier_def</title>
<path fill="lightgrey" stroke="none" d="M72.9,-175.82C72.9,-175.82 12,-175.82 12,-175.82 6,-175.82 0,-169.82 0,-163.82 0,-163.82 0,-151.82 0,-151.82 0,-145.82 6,-139.82 12,-139.82 12,-139.82 72.9,-139.82 72.9,-139.82 78.9,-139.82 84.9,-145.82 84.9,-151.82 84.9,-151.82 84.9,-163.82 84.9,-163.82 84.9,-169.82 78.9,-175.82 72.9,-175.82"/>
<text text-anchor="start" x="7.2" y="-154.37" font-family="Helvetica,sans-Serif" font-weight="bold" font-size="11.00" fill="#666666">DEFINITIONS</text>
</g>
<!-- tier_lemma -->
<g id="node2" class="node">
<title>tier_lemma</title>
<path fill="lightgrey" stroke="none" d="M61.65,-442.14C61.65,-442.14 23.25,-442.14 23.25,-442.14 17.25,-442.14 11.25,-436.14 11.25,-430.14 11.25,-430.14 11.25,-418.14 11.25,-418.14 11.25,-412.14 17.25,-406.14 23.25,-406.14 23.25,-406.14 61.65,-406.14 61.65,-406.14 67.65,-406.14 73.65,-412.14 73.65,-418.14 73.65,-418.14 73.65,-430.14 73.65,-430.14 73.65,-436.14 67.65,-442.14 61.65,-442.14"/>
<text text-anchor="start" x="18.45" y="-420.69" font-family="Helvetica,sans-Serif" font-weight="bold" font-size="11.00" fill="#666666">LEMMAS</text>
</g>
<!-- tier_def&#45;&gt;tier_lemma -->
<!-- tier_thm -->
<g id="node3" class="node">
<title>tier_thm</title>
<path fill="lightgrey" stroke="none" d="M69.15,-583.04C69.15,-583.04 15.75,-583.04 15.75,-583.04 9.75,-583.04 3.75,-577.04 3.75,-571.04 3.75,-571.04 3.75,-559.04 3.75,-559.04 3.75,-553.04 9.75,-547.04 15.75,-547.04 15.75,-547.04 69.15,-547.04 69.15,-547.04 75.15,-547.04 81.15,-553.04 81.15,-559.04 81.15,-559.04 81.15,-571.04 81.15,-571.04 81.15,-577.04 75.15,-583.04 69.15,-583.04"/>
<text text-anchor="start" x="10.95" y="-561.59" font-family="Helvetica,sans-Serif" font-weight="bold" font-size="11.00" fill="#666666">THEOREMS</text>
</g>
<!-- tier_lemma&#45;&gt;tier_thm -->
<!-- maxAndBranch -->
<g id="node4" class="node">
<title>maxAndBranch</title>
<path fill="#cfe2f3" stroke="#1f4e79" d="M325.03,-175.82C325.03,-175.82 255.88,-175.82 255.88,-175.82 249.88,-175.82 243.88,-169.82 243.88,-163.82 243.88,-163.82 243.88,-151.82 243.88,-151.82 243.88,-145.82 249.88,-139.82 255.88,-139.82 255.88,-139.82 325.03,-139.82 325.03,-139.82 331.03,-139.82 337.03,-145.82 337.03,-151.82 337.03,-151.82 337.03,-163.82 337.03,-163.82 337.03,-169.82 331.03,-175.82 325.03,-175.82"/>
<text text-anchor="start" x="251.08" y="-158.32" font-family="Helvetica,sans-Serif" font-weight="bold" font-size="10.00">max AND&#45;branch</text>
<text text-anchor="start" x="254.08" y="-150.22" font-family="Helvetica,sans-Serif" font-size="8.00" fill="#666666">maxAndBranch t ≤ b</text>
</g>
<!-- lemma_t1 -->
<g id="node15" class="node">
<title>lemma_t1</title>
<path fill="#fff2cc" stroke="#996600" d="M436.78,-442.14C436.78,-442.14 360.13,-442.14 360.13,-442.14 354.13,-442.14 348.13,-436.14 348.13,-430.14 348.13,-430.14 348.13,-418.14 348.13,-418.14 348.13,-412.14 354.13,-406.14 360.13,-406.14 360.13,-406.14 436.78,-406.14 436.78,-406.14 442.78,-406.14 448.78,-412.14 448.78,-418.14 448.78,-418.14 448.78,-430.14 448.78,-430.14 448.78,-436.14 442.78,-442.14 436.78,-442.14"/>
<text text-anchor="start" x="372.95" y="-428.64" font-family="Helvetica,sans-Serif" font-weight="bold" font-size="10.00">Lemma 1.1</text>
<text text-anchor="start" x="355.33" y="-419.59" font-family="Helvetica,sans-Serif" font-size="9.00">sp(π,t,0) ≥ (pmin/b)^d</text>
<text text-anchor="start" x="356.83" y="-412.49" font-family="Helvetica,sans-Serif" font-size="7.00" fill="#666666">successProb_lower_bound</text>
</g>
<!-- maxAndBranch&#45;&gt;lemma_t1 -->
<g id="edge5" class="edge">
<title>maxAndBranch&#45;&gt;lemma_t1</title>
<path fill="none" stroke="#1f4e79" stroke-width="1.2" d="M296.45,-175.91C306.72,-204.88 328.58,-265.41 349.45,-315.64 361.57,-344.82 376.85,-377.81 387.1,-399.46"/>
<polygon fill="#1f4e79" stroke="#1f4e79" stroke-width="1.2" points="385.23,-400.01 389.33,-404.16 388.71,-398.36 385.23,-400.01"/>
</g>
<!-- proofDepth -->
<g id="node5" class="node">
<title>proofDepth</title>
<path fill="#cfe2f3" stroke="#1f4e79" d="M422.9,-175.82C422.9,-175.82 374,-175.82 374,-175.82 368,-175.82 362,-169.82 362,-163.82 362,-163.82 362,-151.82 362,-151.82 362,-145.82 368,-139.82 374,-139.82 374,-139.82 422.9,-139.82 422.9,-139.82 428.9,-139.82 434.9,-145.82 434.9,-151.82 434.9,-151.82 434.9,-163.82 434.9,-163.82 434.9,-169.82 428.9,-175.82 422.9,-175.82"/>
<text text-anchor="start" x="371.45" y="-158.32" font-family="Helvetica,sans-Serif" font-weight="bold" font-size="10.00">proof depth</text>
<text text-anchor="start" x="369.2" y="-150.22" font-family="Helvetica,sans-Serif" font-size="8.00" fill="#666666">proofDepth t ≤ d</text>
</g>
<!-- proofDepth&#45;&gt;lemma_t1 -->
<g id="edge6" class="edge">
<title>proofDepth&#45;&gt;lemma_t1</title>
<path fill="none" stroke="#1f4e79" stroke-width="1.2" d="M398.45,-176.16C398.45,-221.81 398.45,-345.42 398.45,-398.44"/>
<polygon fill="#1f4e79" stroke="#1f4e79" stroke-width="1.2" points="396.53,-398.42 398.45,-403.92 400.38,-398.42 396.53,-398.42"/>
</g>
<!-- isProvable -->
<g id="node6" class="node">
<title>isProvable</title>
<path fill="#fff8f0" stroke="#cc6666" stroke-dasharray="5,2" d="M206.65,-175.82C206.65,-175.82 144.25,-175.82 144.25,-175.82 138.25,-175.82 132.25,-169.82 132.25,-163.82 132.25,-163.82 132.25,-151.82 132.25,-151.82 132.25,-145.82 138.25,-139.82 144.25,-139.82 144.25,-139.82 206.65,-139.82 206.65,-139.82 212.65,-139.82 218.65,-145.82 218.65,-151.82 218.65,-151.82 218.65,-163.82 218.65,-163.82 218.65,-169.82 212.65,-175.82 206.65,-175.82"/>
<text text-anchor="start" x="139.45" y="-161.82" font-family="Helvetica,sans-Serif" font-weight="bold" font-size="10.00">tree is provable</text>
<text text-anchor="start" x="143.2" y="-153.72" font-family="Helvetica,sans-Serif" font-size="8.00" fill="#666666">isProvable t = true</text>
<text text-anchor="start" x="150.7" y="-146.67" font-family="Helvetica,sans-Serif" font-style="italic" font-size="7.00" fill="#cc6666">⚠ unused in T1</text>
</g>
<!-- thm_t1 -->
<g id="node20" class="node">
<title>thm_t1</title>
<path fill="#fff2cc" stroke="#996600" stroke-width="2.5" d="M274.45,-597.44C274.45,-597.44 118.45,-597.44 118.45,-597.44 112.45,-597.44 106.45,-591.44 106.45,-585.44 106.45,-585.44 106.45,-544.64 106.45,-544.64 106.45,-538.64 112.45,-532.64 118.45,-532.64 118.45,-532.64 274.45,-532.64 274.45,-532.64 280.45,-532.64 286.45,-538.64 286.45,-544.64 286.45,-544.64 286.45,-585.44 286.45,-585.44 286.45,-591.44 280.45,-597.44 274.45,-597.44"/>
<text text-anchor="start" x="168.7" y="-571.09" font-family="Helvetica,sans-Serif" font-weight="bold" font-size="11.00">Theorem 1</text>
<text text-anchor="start" x="121.45" y="-560.09" font-family="Helvetica,sans-Serif" font-size="11.00">1 / sp(π,t,0) &#160;≤ &#160;(1/pmin)^d · b^d</text>
<text text-anchor="start" x="146.58" y="-550.99" font-family="Helvetica,sans-Serif" font-style="italic" font-size="9.00">hitting&#45;time upper bound</text>
</g>
<!-- isProvable&#45;&gt;thm_t1 -->
<g id="edge14" class="edge">
<title>isProvable&#45;&gt;thm_t1</title>
<path fill="none" stroke="#cc6666" stroke-dasharray="5,2" d="M176.35,-176.23C179.49,-236.72 189.95,-438.71 194.41,-524.72"/>
<polygon fill="#cc6666" stroke="#cc6666" points="192.49,-524.79 194.7,-530.18 196.33,-524.59 192.49,-524.79"/>
<text text-anchor="middle" x="200.93" y="-421.42" font-family="Times,serif" font-size="8.00" fill="#cc6666">unused</text>
</g>
<!-- AOTree -->
<g id="node7" class="node">
<title>AOTree</title>
<path fill="#cfe2f3" stroke="#1f4e79" d="M614.62,-163.4C614.62,-163.4 594.47,-173.99 594.47,-173.99 589.16,-176.78 577.85,-179.57 571.85,-179.57 571.85,-179.57 513.05,-179.57 513.05,-179.57 507.05,-179.57 495.74,-176.78 490.43,-173.99 490.43,-173.99 470.28,-163.4 470.28,-163.4 464.97,-160.61 464.97,-155.03 470.28,-152.24 470.28,-152.24 490.43,-141.65 490.43,-141.65 495.74,-138.86 507.05,-136.07 513.05,-136.07 513.05,-136.07 571.85,-136.07 571.85,-136.07 577.85,-136.07 589.16,-138.86 594.47,-141.65 594.47,-141.65 614.62,-152.24 614.62,-152.24 619.93,-155.03 619.93,-160.61 614.62,-163.4"/>
<text text-anchor="start" x="498.95" y="-158.32" font-family="Helvetica,sans-Serif" font-weight="bold" font-size="10.00">AND&#45;OR hypertree</text>
<text text-anchor="start" x="525.2" y="-150.22" font-family="Helvetica,sans-Serif" font-size="8.00" fill="#666666">AOTree α</text>
</g>
<!-- AOTree&#45;&gt;lemma_t1 -->
<g id="edge3" class="edge">
<title>AOTree&#45;&gt;lemma_t1</title>
<path fill="none" stroke="#1f4e79" stroke-width="1.2" d="M530.91,-180C504.35,-228.76 439.05,-348.62 411.28,-399.59"/>
<polygon fill="#1f4e79" stroke="#1f4e79" stroke-width="1.2" points="409.74,-398.39 408.8,-404.15 413.12,-400.24 409.74,-398.39"/>
</g>
<!-- lemma_t2 -->
<g id="node16" class="node">
<title>lemma_t2</title>
<path fill="#fff2cc" stroke="#996600" d="M894.53,-442.14C894.53,-442.14 810.38,-442.14 810.38,-442.14 804.38,-442.14 798.38,-436.14 798.38,-430.14 798.38,-430.14 798.38,-418.14 798.38,-418.14 798.38,-412.14 804.38,-406.14 810.38,-406.14 810.38,-406.14 894.53,-406.14 894.53,-406.14 900.53,-406.14 906.53,-412.14 906.53,-418.14 906.53,-418.14 906.53,-430.14 906.53,-430.14 906.53,-436.14 900.53,-442.14 894.53,-442.14"/>
<text text-anchor="start" x="826.95" y="-428.64" font-family="Helvetica,sans-Serif" font-weight="bold" font-size="10.00">Lemma 2.1</text>
<text text-anchor="start" x="805.58" y="-419.59" font-family="Helvetica,sans-Serif" font-size="9.00">π ≼ π&#39; &#160;⇒ &#160;sp(π) ≤ sp(π&#39;)</text>
<text text-anchor="start" x="821.7" y="-412.49" font-family="Helvetica,sans-Serif" font-size="7.00" fill="#666666">successProb_mono</text>
</g>
<!-- AOTree&#45;&gt;lemma_t2 -->
<g id="edge7" class="edge">
<title>AOTree&#45;&gt;lemma_t2</title>
<path fill="none" stroke="#1f4e79" stroke-width="1.2" d="M550.66,-179.9C564.32,-212.64 594.51,-276.04 637.45,-315.64 682.04,-356.76 745.31,-385.84 791.67,-403.3"/>
<polygon fill="#1f4e79" stroke="#1f4e79" stroke-width="1.2" points="790.85,-405.05 796.68,-405.16 792.19,-401.44 790.85,-405.05"/>
</g>
<!-- thm_t3 -->
<g id="node22" class="node">
<title>thm_t3</title>
<path fill="#fff2cc" stroke="#996600" stroke-width="2.5" d="M749.45,-597.44C749.45,-597.44 593.45,-597.44 593.45,-597.44 587.45,-597.44 581.45,-591.44 581.45,-585.44 581.45,-585.44 581.45,-544.64 581.45,-544.64 581.45,-538.64 587.45,-532.64 593.45,-532.64 593.45,-532.64 749.45,-532.64 749.45,-532.64 755.45,-532.64 761.45,-538.64 761.45,-544.64 761.45,-544.64 761.45,-585.44 761.45,-585.44 761.45,-591.44 755.45,-597.44 749.45,-597.44"/>
<text text-anchor="start" x="643.7" y="-571.09" font-family="Helvetica,sans-Serif" font-weight="bold" font-size="11.00">Theorem 3</text>
<text text-anchor="start" x="608.08" y="-560.09" font-family="Helvetica,sans-Serif" font-size="11.00">1 / sp(π,t,0) &#160;≥ &#160;(1/(1−ε))^b</text>
<text text-anchor="start" x="612.95" y="-550.99" font-family="Helvetica,sans-Serif" font-style="italic" font-size="9.00">AND&#45;branching lower bound</text>
</g>
<!-- AOTree&#45;&gt;thm_t3 -->
<g id="edge10" class="edge">
<title>AOTree&#45;&gt;thm_t3</title>
<path fill="none" stroke="#1f4e79" stroke-width="1.2" d="M549.2,-180.04C569.83,-244.82 632.2,-440.76 659,-524.93"/>
<polygon fill="#1f4e79" stroke="#1f4e79" stroke-width="1.2" points="657.12,-525.37 660.62,-530.03 660.79,-524.2 657.12,-525.37"/>
</g>
<!-- successProb -->
<g id="node8" class="node">
<title>successProb</title>
<path fill="#cfe2f3" stroke="#1f4e79" d="M743.03,-175.82C743.03,-175.82 661.88,-175.82 661.88,-175.82 655.88,-175.82 649.88,-169.82 649.88,-163.82 649.88,-163.82 649.88,-151.82 649.88,-151.82 649.88,-145.82 655.88,-139.82 661.88,-139.82 661.88,-139.82 743.03,-139.82 743.03,-139.82 749.03,-139.82 755.03,-145.82 755.03,-151.82 755.03,-151.82 755.03,-163.82 755.03,-163.82 755.03,-169.82 749.03,-175.82 743.03,-175.82"/>
<text text-anchor="start" x="657.08" y="-158.32" font-family="Helvetica,sans-Serif" font-weight="bold" font-size="10.00">success probability</text>
<text text-anchor="start" x="667.95" y="-150.22" font-family="Helvetica,sans-Serif" font-size="8.00" fill="#666666">successProb π t nid</text>
</g>
<!-- successProb&#45;&gt;lemma_t1 -->
<g id="edge4" class="edge">
<title>successProb&#45;&gt;lemma_t1</title>
<path fill="none" stroke="#1f4e79" stroke-width="1.2" d="M699.59,-176.2C693.54,-207.83 676.66,-275.25 637.45,-315.64 587.86,-366.72 509.6,-395.52 456.25,-410.19"/>
<polygon fill="#1f4e79" stroke="#1f4e79" stroke-width="1.2" points="455.78,-408.32 450.97,-411.61 456.78,-412.04 455.78,-408.32"/>
</g>
<!-- successProb&#45;&gt;lemma_t2 -->
<g id="edge8" class="edge">
<title>successProb&#45;&gt;lemma_t2</title>
<path fill="none" stroke="#1f4e79" stroke-width="1.2" d="M707.83,-176.02C717.49,-205.68 739.39,-267.86 767.45,-315.64 786.03,-347.28 813.07,-379.81 831.64,-400.68"/>
<polygon fill="#1f4e79" stroke="#1f4e79" stroke-width="1.2" points="830.08,-401.82 835.19,-404.63 832.94,-399.25 830.08,-401.82"/>
</g>
<!-- successProb&#45;&gt;thm_t3 -->
<g id="edge11" class="edge">
<title>successProb&#45;&gt;thm_t3</title>
<path fill="none" stroke="#1f4e79" stroke-width="1.2" d="M701.12,-176.23C696.5,-236.66 681.07,-438.3 674.48,-524.46"/>
<polygon fill="#1f4e79" stroke="#1f4e79" stroke-width="1.2" points="672.56,-524.25 674.06,-529.88 676.4,-524.54 672.56,-524.25"/>
</g>
<!-- weightedSum -->
<g id="node9" class="node">
<title>weightedSum</title>
<path fill="#cfe2f3" stroke="#1f4e79" d="M912.53,-175.82C912.53,-175.82 792.38,-175.82 792.38,-175.82 786.38,-175.82 780.38,-169.82 780.38,-163.82 780.38,-163.82 780.38,-151.82 780.38,-151.82 780.38,-145.82 786.38,-139.82 792.38,-139.82 792.38,-139.82 912.53,-139.82 912.53,-139.82 918.53,-139.82 924.53,-145.82 924.53,-151.82 924.53,-151.82 924.53,-163.82 924.53,-163.82 924.53,-169.82 918.53,-175.82 912.53,-175.82"/>
<text text-anchor="start" x="787.58" y="-158.32" font-family="Helvetica,sans-Serif" font-weight="bold" font-size="10.00">weighted&#45;sum monotonicity</text>
<text text-anchor="start" x="798.83" y="-150.22" font-family="Helvetica,sans-Serif" font-size="8.00" fill="#666666">NNReal.weighted_sum_mono</text>
</g>
<!-- weightedSum&#45;&gt;lemma_t2 -->
<g id="edge19" class="edge">
<title>weightedSum&#45;&gt;lemma_t2</title>
<path fill="none" stroke="#990000" stroke-width="2.4" d="M852.45,-176.16C852.45,-221.34 852.45,-342.89 852.45,-396.79"/>
<polygon fill="#990000" stroke="#990000" stroke-width="2.4" points="850.53,-396.6 852.45,-402.1 854.38,-396.6 850.53,-396.6"/>
<text text-anchor="middle" x="889.58" y="-357.59" font-family="Times,serif" font-size="9.00" fill="#990000"> &#160;applied (cross&#45;file!)</text>
</g>
<!-- PolicyDom -->
<g id="node10" class="node">
<title>PolicyDom</title>
<path fill="#fff2cc" stroke="#996600" d="M1122.58,-162.95C1122.58,-162.95 1098.29,-174.44 1098.29,-174.44 1092.86,-177.01 1081.44,-179.57 1075.44,-179.57 1075.44,-179.57 1007.46,-179.57 1007.46,-179.57 1001.46,-179.57 990.04,-177.01 984.61,-174.44 984.61,-174.44 960.32,-162.95 960.32,-162.95 954.9,-160.39 954.9,-155.25 960.32,-152.69 960.32,-152.69 984.61,-141.2 984.61,-141.2 990.04,-138.63 1001.46,-136.07 1007.46,-136.07 1007.46,-136.07 1075.44,-136.07 1075.44,-136.07 1081.44,-136.07 1092.86,-138.63 1098.29,-141.2 1098.29,-141.2 1122.58,-152.69 1122.58,-152.69 1128,-155.25 1128,-160.39 1122.58,-162.95"/>
<text text-anchor="start" x="999.08" y="-158.32" font-family="Helvetica,sans-Serif" font-weight="bold" font-size="10.00">policy domination</text>
<text text-anchor="start" x="992.33" y="-150.22" font-family="Helvetica,sans-Serif" font-size="8.00" fill="#666666">PolicyDominates (T2 struct)</text>
</g>
<!-- PolicyDom&#45;&gt;lemma_t2 -->
<g id="edge9" class="edge">
<title>PolicyDom&#45;&gt;lemma_t2</title>
<path fill="none" stroke="#996600" stroke-width="1.2" d="M1034.16,-179.88C1019.63,-219.66 983.94,-307.18 932.45,-366.14 920.38,-379.96 904.32,-392.24 889.75,-401.82"/>
<polygon fill="#996600" stroke="#996600" stroke-width="1.2" points="888.74,-400.19 885.15,-404.78 890.82,-403.43 888.74,-400.19"/>
</g>
<!-- hasAndNode -->
<g id="node11" class="node">
<title>hasAndNode</title>
<path fill="#fff2cc" stroke="#996600" d="M1395.56,-161.78C1395.56,-161.78 1355.99,-175.61 1355.99,-175.61 1350.33,-177.59 1338.67,-179.57 1332.67,-179.57 1332.67,-179.57 1232.23,-179.57 1232.23,-179.57 1226.23,-179.57 1214.57,-177.59 1208.91,-175.61 1208.91,-175.61 1169.34,-161.78 1169.34,-161.78 1163.68,-159.8 1163.68,-155.84 1169.34,-153.86 1169.34,-153.86 1208.91,-140.03 1208.91,-140.03 1214.57,-138.05 1226.23,-136.07 1232.23,-136.07 1232.23,-136.07 1332.67,-136.07 1332.67,-136.07 1338.67,-136.07 1350.33,-138.05 1355.99,-140.03 1355.99,-140.03 1395.56,-153.86 1395.56,-153.86 1401.22,-155.84 1401.22,-159.8 1395.56,-161.78"/>
<text text-anchor="start" x="1213.45" y="-158.32" font-family="Helvetica,sans-Serif" font-weight="bold" font-size="10.00">has AND&#45;node of branching b</text>
<text text-anchor="start" x="1221.33" y="-150.22" font-family="Helvetica,sans-Serif" font-size="8.00" fill="#666666">hasAndNodeOfBranching (T3 def)</text>
</g>
<!-- hasAndNode&#45;&gt;thm_t3 -->
<g id="edge12" class="edge">
<title>hasAndNode&#45;&gt;thm_t3</title>
<path fill="none" stroke="#996600" stroke-width="1.2" d="M1266.52,-179.96C1242.27,-211.42 1193.81,-271.56 1145.45,-315.64 1046.18,-406.14 1020.58,-432.53 900.45,-492.64 897.21,-494.26 829.81,-515.22 768.96,-534.02"/>
<polygon fill="#996600" stroke="#996600" stroke-width="1.2" points="768.77,-532.06 764.08,-535.53 769.9,-535.74 768.77,-532.06"/>
</g>
<!-- mathlibOnly -->
<g id="node12" class="node">
<title>mathlibOnly</title>
<polygon fill="#f5f5f5" stroke="#999999" points="1515.15,-175.82 1431.75,-175.82 1431.75,-139.82 1521.15,-139.82 1521.15,-169.82 1515.15,-175.82"/>
<polyline fill="none" stroke="#999999" points="1515.15,-175.82 1515.15,-169.82"/>
<polyline fill="none" stroke="#999999" points="1521.15,-169.82 1515.15,-169.82"/>
<text text-anchor="start" x="1450.95" y="-158.77" font-family="Helvetica,sans-Serif" font-weight="bold" font-size="9.00">Mathlib only</text>
<text text-anchor="start" x="1438.95" y="-150.72" font-family="Helvetica,sans-Serif" font-size="8.00">Fin · NNReal · Finset</text>
</g>
<!-- lemma_t4 -->
<g id="node19" class="node">
<title>lemma_t4</title>
<path fill="#fff2cc" stroke="#996600" d="M1517.78,-442.14C1517.78,-442.14 1435.12,-442.14 1435.12,-442.14 1429.12,-442.14 1423.12,-436.14 1423.12,-430.14 1423.12,-430.14 1423.12,-418.14 1423.12,-418.14 1423.12,-412.14 1429.12,-406.14 1435.12,-406.14 1435.12,-406.14 1517.78,-406.14 1517.78,-406.14 1523.78,-406.14 1529.78,-412.14 1529.78,-418.14 1529.78,-418.14 1529.78,-430.14 1529.78,-430.14 1529.78,-436.14 1523.78,-442.14 1517.78,-442.14"/>
<text text-anchor="start" x="1431.83" y="-428.64" font-family="Helvetica,sans-Serif" font-weight="bold" font-size="10.00">sum&#45;prod&#45;erase ≤ 1</text>
<text text-anchor="start" x="1443.08" y="-419.59" font-family="Helvetica,sans-Serif" font-size="9.00">∑ᵢ ∏_{j≠i} qⱼ ≤ 1</text>
<text text-anchor="start" x="1430.33" y="-412.49" font-family="Helvetica,sans-Serif" font-size="7.00" fill="#666666">sum_prod_erase_le_one&#39; (T4)</text>
</g>
<!-- mathlibOnly&#45;&gt;lemma_t4 -->
<g id="edge13" class="edge">
<title>mathlibOnly&#45;&gt;lemma_t4</title>
<path fill="none" stroke="#999999" stroke-dasharray="5,2" d="M1476.45,-176.16C1476.45,-221.9 1476.45,-345.92 1476.45,-398.77"/>
<polygon fill="#999999" stroke="#999999" points="1474.53,-398.72 1476.45,-404.22 1478.38,-398.72 1474.53,-398.72"/>
</g>
<!-- deadProdLe -->
<g id="node13" class="node">
<title>deadProdLe</title>
<path fill="#ffffff" stroke="#cc6666" stroke-dasharray="5,2" d="M1654.9,-175.82C1654.9,-175.82 1558,-175.82 1558,-175.82 1552,-175.82 1546,-169.82 1546,-163.82 1546,-163.82 1546,-151.82 1546,-151.82 1546,-145.82 1552,-139.82 1558,-139.82 1558,-139.82 1654.9,-139.82 1654.9,-139.82 1660.9,-139.82 1666.9,-145.82 1666.9,-151.82 1666.9,-151.82 1666.9,-163.82 1666.9,-163.82 1666.9,-169.82 1660.9,-175.82 1654.9,-175.82"/>
<text text-anchor="start" x="1553.2" y="-158.72" font-family="Helvetica,sans-Serif" font-weight="bold" font-size="8.00">NNReal.prod_le_pow_of_le</text>
<text text-anchor="start" x="1554.7" y="-151.67" font-family="Helvetica,sans-Serif" font-style="italic" font-size="7.00" fill="#cc6666">⚠ used only by a dead T3 helper</text>
</g>
<!-- deadSumProd -->
<g id="node14" class="node">
<title>deadSumProd</title>
<path fill="#ffffff" stroke="#cc6666" stroke-dasharray="5,2" d="M1790.65,-175.82C1790.65,-175.82 1704.25,-175.82 1704.25,-175.82 1698.25,-175.82 1692.25,-169.82 1692.25,-163.82 1692.25,-163.82 1692.25,-151.82 1692.25,-151.82 1692.25,-145.82 1698.25,-139.82 1704.25,-139.82 1704.25,-139.82 1790.65,-139.82 1790.65,-139.82 1796.65,-139.82 1802.65,-145.82 1802.65,-151.82 1802.65,-151.82 1802.65,-163.82 1802.65,-163.82 1802.65,-169.82 1796.65,-175.82 1790.65,-175.82"/>
<text text-anchor="start" x="1699.45" y="-158.72" font-family="Helvetica,sans-Serif" font-weight="bold" font-size="8.00">sum_prod_erase_le_one</text>
<text text-anchor="start" x="1710.33" y="-151.67" font-family="Helvetica,sans-Serif" font-style="italic" font-size="7.00" fill="#cc6666">⚠ dead — T4 reinvents</text>
</g>
<!-- lemma_t1&#45;&gt;thm_t1 -->
<g id="edge16" class="edge">
<title>lemma_t1&#45;&gt;thm_t1</title>
<path fill="none" stroke="#990000" stroke-width="2.4" d="M373.27,-442.45C342.71,-463.47 290.31,-499.5 250.46,-526.9"/>
<polygon fill="#990000" stroke="#990000" stroke-width="2.4" points="249.61,-525.15 246.17,-529.85 251.79,-528.32 249.61,-525.15"/>
<text text-anchor="middle" x="329.42" y="-484.09" font-family="Times,serif" font-size="9.00" fill="#990000"> applied</text>
</g>
<!-- thm_t2 -->
<g id="node21" class="node">
<title>thm_t2</title>
<path fill="#fff2cc" stroke="#996600" stroke-width="2.5" d="M968.65,-597.44C968.65,-597.44 798.25,-597.44 798.25,-597.44 792.25,-597.44 786.25,-591.44 786.25,-585.44 786.25,-585.44 786.25,-544.64 786.25,-544.64 786.25,-538.64 792.25,-532.64 798.25,-532.64 798.25,-532.64 968.65,-532.64 968.65,-532.64 974.65,-532.64 980.65,-538.64 980.65,-544.64 980.65,-544.64 980.65,-585.44 980.65,-585.44 980.65,-591.44 974.65,-597.44 968.65,-597.44"/>
<text text-anchor="start" x="855.7" y="-571.09" font-family="Helvetica,sans-Serif" font-weight="bold" font-size="11.00">Theorem 2</text>
<text text-anchor="start" x="818.58" y="-560.09" font-family="Helvetica,sans-Serif" font-size="11.00">1 / sp(π&#39;,t,0) &#160;≤ &#160;1 / sp(π,t,0)</text>
<text text-anchor="start" x="802.83" y="-550.99" font-family="Helvetica,sans-Serif" font-style="italic" font-size="9.00">policy improvement reduces hitting time</text>
</g>
<!-- lemma_t2&#45;&gt;thm_t2 -->
<g id="edge17" class="edge">
<title>lemma_t2&#45;&gt;thm_t2</title>
<path fill="none" stroke="#990000" stroke-width="2.4" d="M856.31,-442.45C860.79,-462.51 868.32,-496.24 874.31,-523.1"/>
<polygon fill="#990000" stroke="#990000" stroke-width="2.4" points="872.41,-523.42 875.49,-528.36 876.17,-522.58 872.41,-523.42"/>
<text text-anchor="middle" x="880.9" y="-484.09" font-family="Times,serif" font-size="9.00" fill="#990000"> applied</text>
</g>
<!-- dead_t3_eq -->
<g id="node17" class="node">
<title>dead_t3_eq</title>
<path fill="#ffffff" stroke="#cc6666" stroke-dasharray="5,2" d="M1704.53,-442.14C1704.53,-442.14 1566.38,-442.14 1566.38,-442.14 1560.38,-442.14 1554.38,-436.14 1554.38,-430.14 1554.38,-430.14 1554.38,-418.14 1554.38,-418.14 1554.38,-412.14 1560.38,-406.14 1566.38,-406.14 1566.38,-406.14 1704.53,-406.14 1704.53,-406.14 1710.53,-406.14 1716.53,-412.14 1716.53,-418.14 1716.53,-418.14 1716.53,-430.14 1716.53,-430.14 1716.53,-436.14 1710.53,-442.14 1704.53,-442.14"/>
<text text-anchor="start" x="1561.58" y="-425.04" font-family="Helvetica,sans-Serif" font-weight="bold" font-size="8.00">AND&#45;node sp = product over children</text>
<text text-anchor="start" x="1607.7" y="-417.99" font-family="Helvetica,sans-Serif" font-style="italic" font-size="7.00" fill="#cc6666">⚠ T3 dead helper</text>
</g>
<!-- dead_t3_le -->
<g id="node18" class="node">
<title>dead_t3_le</title>
<path fill="#ffffff" stroke="#cc6666" stroke-dasharray="5,2" d="M1844.9,-442.14C1844.9,-442.14 1778,-442.14 1778,-442.14 1772,-442.14 1766,-436.14 1766,-430.14 1766,-430.14 1766,-418.14 1766,-418.14 1766,-412.14 1772,-406.14 1778,-406.14 1778,-406.14 1844.9,-406.14 1844.9,-406.14 1850.9,-406.14 1856.9,-412.14 1856.9,-418.14 1856.9,-418.14 1856.9,-430.14 1856.9,-430.14 1856.9,-436.14 1850.9,-442.14 1844.9,-442.14"/>
<text text-anchor="start" x="1773.2" y="-425.04" font-family="Helvetica,sans-Serif" font-weight="bold" font-size="8.00">AND&#45;node sp ≤ c^n</text>
<text text-anchor="start" x="1783.7" y="-417.99" font-family="Helvetica,sans-Serif" font-style="italic" font-size="7.00" fill="#cc6666">⚠ T3 dead helper</text>
</g>
<!-- dead_t3_eq&#45;&gt;dead_t3_le -->
<g id="edge15" class="edge">
<title>dead_t3_eq&#45;&gt;dead_t3_le</title>
<path fill="none" stroke="#cc6666" stroke-width="0.8" stroke-dasharray="5,2" d="M1717.01,-424.14C1731.38,-424.14 1745.99,-424.14 1759.28,-424.14"/>
<polygon fill="#cc6666" stroke="#cc6666" stroke-width="0.8" points="1758.98,-426.07 1764.48,-424.14 1758.98,-422.22 1758.98,-426.07"/>
<text text-anchor="middle" x="1741.26" y="-414.49" font-family="Times,serif" font-size="7.00" fill="#cc6666">uses</text>
</g>
<!-- thm_t4 -->
<g id="node23" class="node">
<title>thm_t4</title>
<path fill="#fff2cc" stroke="#996600" stroke-width="2.5" d="M1554.45,-597.44C1554.45,-597.44 1398.45,-597.44 1398.45,-597.44 1392.45,-597.44 1386.45,-591.44 1386.45,-585.44 1386.45,-585.44 1386.45,-544.64 1386.45,-544.64 1386.45,-538.64 1392.45,-532.64 1398.45,-532.64 1398.45,-532.64 1554.45,-532.64 1554.45,-532.64 1560.45,-532.64 1566.45,-538.64 1566.45,-544.64 1566.45,-544.64 1566.45,-585.44 1566.45,-585.44 1566.45,-591.44 1560.45,-597.44 1554.45,-597.44"/>
<text text-anchor="start" x="1448.7" y="-571.09" font-family="Helvetica,sans-Serif" font-weight="bold" font-size="11.00">Theorem 4</text>
<text text-anchor="start" x="1438.2" y="-560.09" font-family="Helvetica,sans-Serif" font-size="11.00">∑ᵢ 1/qᵢ &#160;≤ &#160;∏ᵢ 1/qᵢ</text>
<text text-anchor="start" x="1434.83" y="-550.99" font-family="Helvetica,sans-Serif" font-style="italic" font-size="9.00">sequential ≤ parallel</text>
</g>
<!-- lemma_t4&#45;&gt;thm_t4 -->
<g id="edge18" class="edge">
<title>lemma_t4&#45;&gt;thm_t4</title>
<path fill="none" stroke="#990000" stroke-width="2.4" d="M1476.45,-442.45C1476.45,-462.51 1476.45,-496.24 1476.45,-523.1"/>
<polygon fill="#990000" stroke="#990000" stroke-width="2.4" points="1474.53,-522.78 1476.45,-528.28 1478.38,-522.78 1474.53,-522.78"/>
<text text-anchor="middle" x="1490.33" y="-484.09" font-family="Times,serif" font-size="9.00" fill="#990000"> applied</text>
</g>
<!-- legend -->
<g id="node24" class="node">
<title>legend</title>
<path fill="lightgrey" stroke="none" d="M2087.15,-315.64C2087.15,-315.64 1839.75,-315.64 1839.75,-315.64 1833.75,-315.64 1827.75,-309.64 1827.75,-303.64 1827.75,-303.64 1827.75,-12 1827.75,-12 1827.75,-6 1833.75,0 1839.75,0 1839.75,0 2087.15,0 2087.15,0 2093.15,0 2099.15,-6 2099.15,-12 2099.15,-12 2099.15,-303.64 2099.15,-303.64 2099.15,-309.64 2093.15,-315.64 2087.15,-315.64"/>
<polygon fill="#ffffff" stroke="none" points="1834.95,-4.32 1834.95,-311.32 2091.95,-311.32 2091.95,-4.32 1834.95,-4.32"/>
<text text-anchor="start" x="1841.95" y="-295.82" font-family="Helvetica,sans-Serif" font-weight="bold" font-size="10.00">SSB math build&#45;up (all 4 theorems)</text>
<text text-anchor="start" x="1841.95" y="-275.77" font-family="Helvetica,sans-Serif" font-size="9.00">read bottom → top</text>
<text text-anchor="start" x="1909.45" y="-255.77" font-family="Helvetica,sans-Serif" font-size="9.00">────────────</text>
<polygon fill="#cfe2f3" stroke="none" points="1838.95,-234.32 1838.95,-249.32 1915.95,-249.32 1915.95,-234.32 1838.95,-234.32"/>
<text text-anchor="start" x="1921.95" y="-237.77" font-family="Helvetica,sans-Serif" font-size="9.00">from Defs.lean</text>
<polygon fill="#fff2cc" stroke="none" points="1838.95,-216.32 1838.95,-231.32 1915.95,-231.32 1915.95,-216.32 1838.95,-216.32"/>
<text text-anchor="start" x="1921.95" y="-219.77" font-family="Helvetica,sans-Serif" font-size="9.00">from a Theorem*.lean</text>
<polygon fill="#f5f5f5" stroke="none" points="1838.95,-198.32 1838.95,-213.32 1915.95,-213.32 1915.95,-198.32 1838.95,-198.32"/>
<text text-anchor="start" x="1921.95" y="-201.77" font-family="Helvetica,sans-Serif" font-size="9.00">external (Mathlib)</text>
<text text-anchor="start" x="1909.45" y="-183.77" font-family="Helvetica,sans-Serif" font-size="9.00">────────────</text>
<text text-anchor="start" x="1841.95" y="-165.82" font-family="Helvetica,sans-Serif" font-weight="bold" font-size="10.00" fill="#990000">━━</text>
<text text-anchor="start" x="1921.95" y="-165.15" font-family="Helvetica,sans-Serif" font-size="9.00">proof&#45;step (lemma applied)</text>
<text text-anchor="start" x="1841.95" y="-145.82" font-family="Helvetica,sans-Serif" font-weight="bold" font-size="10.00" fill="#1f4e79">──</text>
<text text-anchor="start" x="1921.95" y="-145.15" font-family="Helvetica,sans-Serif" font-size="9.00">definitional dep</text>
<text text-anchor="start" x="1841.95" y="-124.82" font-family="Helvetica,sans-Serif" font-size="10.00" fill="#cc6666">┄┄</text>
<text text-anchor="start" x="1921.95" y="-123.15" font-family="Helvetica,sans-Serif" font-size="9.00">unused / dead</text>
<text text-anchor="start" x="1909.45" y="-101.77" font-family="Helvetica,sans-Serif" font-size="9.00">────────────</text>
<text text-anchor="start" x="1841.95" y="-84.77" font-family="Helvetica,sans-Serif" font-weight="bold" font-size="9.00">Things to spot:</text>
<text text-anchor="start" x="1841.95" y="-66.72" font-family="Helvetica,sans-Serif" font-size="8.00">• T1&#39;s unused isProvable hypothesis</text>
<text text-anchor="start" x="1841.95" y="-48.72" font-family="Helvetica,sans-Serif" font-size="8.00">• T2&#39;s unique cross&#45;file proof step</text>
<text text-anchor="start" x="1841.95" y="-30.72" font-family="Helvetica,sans-Serif" font-size="8.00">• T3 reaches definitions directly; two dead helpers float in lemma tier</text>
<text text-anchor="start" x="1841.95" y="-12.72" font-family="Helvetica,sans-Serif" font-size="8.00">• T4 uses no Defs; near&#45;duplicate sits dead</text>
<polygon fill="none" stroke="#bbbbbb" points="1834.95,-4.32 1834.95,-311.32 2091.95,-311.32 2091.95,-4.32 1834.95,-4.32"/>
</g>
</g>
</svg>
