<?xml version="1.0" encoding="UTF-8" standalone="no"?>
<!DOCTYPE svg PUBLIC "-//W3C//DTD SVG 1.1//EN"
 "http://www.w3.org/Graphics/SVG/1.1/DTD/svg11.dtd">
<!-- Generated by graphviz version 12.1.2 (20240928.0832)
 -->
<!-- Title: SSB_T1_BuildUp Pages: 1 -->
<svg width="1286pt" height="551pt"
 viewBox="0.00 0.00 1286.03 551.41" xmlns="http://www.w3.org/2000/svg" xmlns:xlink="http://www.w3.org/1999/xlink">
<g id="graph0" class="graph" transform="scale(1 1) rotate(0) translate(36 515.41)">
<title>SSB_T1_BuildUp</title>
<polygon fill="#fafafa" stroke="none" points="-36,36 -36,-515.41 1250.03,-515.41 1250.03,36 -36,36"/>
<!-- tier_def -->
<g id="node1" class="node">
<title>tier_def</title>
<path fill="lightgrey" stroke="none" d="M69.78,-127.54C69.78,-127.54 12,-127.54 12,-127.54 6,-127.54 0,-121.54 0,-115.54 0,-115.54 0,-103.54 0,-103.54 0,-97.54 6,-91.54 12,-91.54 12,-91.54 69.78,-91.54 69.78,-91.54 75.78,-91.54 81.78,-97.54 81.78,-103.54 81.78,-103.54 81.78,-115.54 81.78,-115.54 81.78,-121.54 75.78,-127.54 69.78,-127.54"/>
<text text-anchor="start" x="8.64" y="-106.67" font-family="Helvetica,sans-Serif" font-weight="bold" font-size="10.00" fill="#666666">DEFINITIONS</text>
</g>
<!-- tier_lemma -->
<g id="node2" class="node">
<title>tier_lemma</title>
<path fill="lightgrey" stroke="none" d="M55.9,-326.12C55.9,-326.12 25.87,-326.12 25.87,-326.12 19.87,-326.12 13.87,-320.12 13.87,-314.12 13.87,-314.12 13.87,-302.12 13.87,-302.12 13.87,-296.12 19.87,-290.12 25.87,-290.12 25.87,-290.12 55.9,-290.12 55.9,-290.12 61.9,-290.12 67.9,-296.12 67.9,-302.12 67.9,-302.12 67.9,-314.12 67.9,-314.12 67.9,-320.12 61.9,-326.12 55.9,-326.12"/>
<text text-anchor="start" x="22.51" y="-305.25" font-family="Helvetica,sans-Serif" font-weight="bold" font-size="10.00" fill="#666666">LEMMA</text>
</g>
<!-- tier_def&#45;&gt;tier_lemma -->
<!-- tier_thm -->
<g id="node3" class="node">
<title>tier_thm</title>
<path fill="lightgrey" stroke="none" d="M62.65,-461.41C62.65,-461.41 19.12,-461.41 19.12,-461.41 13.12,-461.41 7.12,-455.41 7.12,-449.41 7.12,-449.41 7.12,-437.41 7.12,-437.41 7.12,-431.41 13.12,-425.41 19.12,-425.41 19.12,-425.41 62.65,-425.41 62.65,-425.41 68.65,-425.41 74.65,-431.41 74.65,-437.41 74.65,-437.41 74.65,-449.41 74.65,-449.41 74.65,-455.41 68.65,-461.41 62.65,-461.41"/>
<text text-anchor="start" x="15.76" y="-440.54" font-family="Helvetica,sans-Serif" font-weight="bold" font-size="10.00" fill="#666666">THEOREM</text>
</g>
<!-- tier_lemma&#45;&gt;tier_thm -->
<!-- AOTree -->
<g id="node4" class="node">
<title>AOTree</title>
<path fill="#cfe2f3" stroke="#1f4e79" d="M993.55,-115.39C993.55,-115.39 971.94,-127.44 971.94,-127.44 966.7,-130.36 955.46,-133.28 949.46,-133.28 949.46,-133.28 888.32,-133.28 888.32,-133.28 882.32,-133.28 871.08,-130.36 865.84,-127.44 865.84,-127.44 844.23,-115.39 844.23,-115.39 838.99,-112.46 838.99,-106.62 844.23,-103.69 844.23,-103.69 865.84,-91.64 865.84,-91.64 871.08,-88.72 882.32,-85.8 888.32,-85.8 888.32,-85.8 949.46,-85.8 949.46,-85.8 955.46,-85.8 966.7,-88.72 971.94,-91.64 971.94,-91.64 993.55,-103.69 993.55,-103.69 998.79,-106.62 998.79,-112.46 993.55,-115.39"/>
<text text-anchor="start" x="875.39" y="-110.54" font-family="Helvetica,sans-Serif" font-weight="bold" font-size="10.00">AND&#45;OR hypertree</text>
<text text-anchor="start" x="899.39" y="-101.49" font-family="Helvetica,sans-Serif" font-size="9.00" fill="#666666">AOTree α</text>
</g>
<!-- lemma_sp_lb -->
<g id="node9" class="node">
<title>lemma_sp_lb</title>
<path fill="#fff2cc" stroke="#996600" d="M636.53,-328.16C636.53,-328.16 499.25,-328.16 499.25,-328.16 493.25,-328.16 487.25,-322.16 487.25,-316.16 487.25,-316.16 487.25,-300.08 487.25,-300.08 487.25,-294.08 493.25,-288.08 499.25,-288.08 499.25,-288.08 636.53,-288.08 636.53,-288.08 642.53,-288.08 648.53,-294.08 648.53,-300.08 648.53,-300.08 648.53,-316.16 648.53,-316.16 648.53,-322.16 642.53,-328.16 636.53,-328.16"/>
<text text-anchor="start" x="495.89" y="-313.67" font-family="Helvetica,sans-Serif" font-weight="bold" font-size="11.00">Lemma 1.1: sp lower bound</text>
<text text-anchor="start" x="518.76" y="-303.62" font-family="Helvetica,sans-Serif" font-size="10.00">sp(π,t,0) ≥ (pmin / b)^d</text>
<text text-anchor="start" x="512.01" y="-294.57" font-family="Helvetica,sans-Serif" font-size="9.00" fill="#666666">successProb_lower_bound</text>
</g>
<!-- AOTree&#45;&gt;lemma_sp_lb -->
<g id="edge3" class="edge">
<title>AOTree&#45;&gt;lemma_sp_lb</title>
<path fill="none" stroke="#1f4e79" stroke-width="1.4" d="M902.38,-133.52C883.84,-157.85 851.61,-195.86 815.89,-219.08 767.65,-250.44 706.85,-272.25 657.53,-286.32"/>
<polygon fill="#1f4e79" stroke="#1f4e79" stroke-width="1.4" points="656.89,-283.95 650.81,-288.2 658.21,-288.67 656.89,-283.95"/>
</g>
<!-- successProb -->
<g id="node5" class="node">
<title>successProb</title>
<path fill="#cfe2f3" stroke="#1f4e79" d="M449.78,-127.54C449.78,-127.54 296,-127.54 296,-127.54 290,-127.54 284,-121.54 284,-115.54 284,-115.54 284,-103.54 284,-103.54 284,-97.54 290,-91.54 296,-91.54 296,-91.54 449.78,-91.54 449.78,-91.54 455.78,-91.54 461.78,-97.54 461.78,-103.54 461.78,-103.54 461.78,-115.54 461.78,-115.54 461.78,-121.54 455.78,-127.54 449.78,-127.54"/>
<text text-anchor="start" x="292.64" y="-110.54" font-family="Helvetica,sans-Serif" font-weight="bold" font-size="10.00">success probability under policy π</text>
<text text-anchor="start" x="333.14" y="-101.49" font-family="Helvetica,sans-Serif" font-size="9.00" fill="#666666">successProb π t nid</text>
</g>
<!-- successProb&#45;&gt;lemma_sp_lb -->
<g id="edge4" class="edge">
<title>successProb&#45;&gt;lemma_sp_lb</title>
<path fill="none" stroke="#1f4e79" stroke-width="1.4" d="M389.9,-127.87C410.98,-149.33 448.01,-186.97 479.89,-219.08 500.91,-240.25 524.85,-264.19 542.45,-281.76"/>
<polygon fill="#1f4e79" stroke="#1f4e79" stroke-width="1.4" points="540.44,-283.22 547.13,-286.43 543.9,-279.75 540.44,-283.22"/>
</g>
<!-- maxAndBranch -->
<g id="node6" class="node">
<title>maxAndBranch</title>
<path fill="#cfe2f3" stroke="#1f4e79" d="M626.03,-127.54C626.03,-127.54 509.75,-127.54 509.75,-127.54 503.75,-127.54 497.75,-121.54 497.75,-115.54 497.75,-115.54 497.75,-103.54 497.75,-103.54 497.75,-97.54 503.75,-91.54 509.75,-91.54 509.75,-91.54 626.03,-91.54 626.03,-91.54 632.03,-91.54 638.03,-97.54 638.03,-103.54 638.03,-103.54 638.03,-115.54 638.03,-115.54 638.03,-121.54 632.03,-127.54 626.03,-127.54"/>
<text text-anchor="start" x="506.39" y="-110.54" font-family="Helvetica,sans-Serif" font-weight="bold" font-size="10.00">max AND&#45;branching factor</text>
<text text-anchor="start" x="526.64" y="-101.49" font-family="Helvetica,sans-Serif" font-size="9.00" fill="#666666">maxAndBranch t ≤ b</text>
</g>
<!-- maxAndBranch&#45;&gt;lemma_sp_lb -->
<g id="edge5" class="edge">
<title>maxAndBranch&#45;&gt;lemma_sp_lb</title>
<path fill="none" stroke="#1f4e79" stroke-width="1.4" d="M567.89,-127.99C567.89,-161.98 567.89,-237.39 567.89,-278.7"/>
<polygon fill="#1f4e79" stroke="#1f4e79" stroke-width="1.4" points="565.44,-278.58 567.89,-285.58 570.34,-278.58 565.44,-278.58"/>
</g>
<!-- proofDepth -->
<g id="node7" class="node">
<title>proofDepth</title>
<path fill="#cfe2f3" stroke="#1f4e79" d="M785.78,-127.54C785.78,-127.54 686,-127.54 686,-127.54 680,-127.54 674,-121.54 674,-115.54 674,-115.54 674,-103.54 674,-103.54 674,-97.54 680,-91.54 686,-91.54 686,-91.54 785.78,-91.54 785.78,-91.54 791.78,-91.54 797.78,-97.54 797.78,-103.54 797.78,-103.54 797.78,-115.54 797.78,-115.54 797.78,-121.54 791.78,-127.54 785.78,-127.54"/>
<text text-anchor="start" x="682.64" y="-110.54" font-family="Helvetica,sans-Serif" font-weight="bold" font-size="10.00">shallowest proof depth</text>
<text text-anchor="start" x="703.26" y="-101.49" font-family="Helvetica,sans-Serif" font-size="9.00" fill="#666666">proofDepth t ≤ d</text>
</g>
<!-- proofDepth&#45;&gt;lemma_sp_lb -->
<g id="edge6" class="edge">
<title>proofDepth&#45;&gt;lemma_sp_lb</title>
<path fill="none" stroke="#1f4e79" stroke-width="1.4" d="M724.44,-127.69C709.55,-149.6 682.29,-188.37 655.89,-219.08 636.82,-241.26 613.31,-264.6 595.39,-281.68"/>
<polygon fill="#1f4e79" stroke="#1f4e79" stroke-width="1.4" points="594,-279.62 590.6,-286.21 597.36,-283.18 594,-279.62"/>
</g>
<!-- isProvable -->
<g id="node8" class="node">
<title>isProvable</title>
<path fill="#fff8f0" stroke="#cc6666" stroke-dasharray="5,2" d="M235.78,-128.08C235.78,-128.08 130,-128.08 130,-128.08 124,-128.08 118,-122.08 118,-116.08 118,-116.08 118,-103 118,-103 118,-97 124,-91 130,-91 130,-91 235.78,-91 235.78,-91 241.78,-91 247.78,-97 247.78,-103 247.78,-103 247.78,-116.08 247.78,-116.08 247.78,-122.08 241.78,-128.08 235.78,-128.08"/>
<text text-anchor="start" x="146.89" y="-114.54" font-family="Helvetica,sans-Serif" font-weight="bold" font-size="10.00">tree is provable</text>
<text text-anchor="start" x="146.14" y="-105.49" font-family="Helvetica,sans-Serif" font-size="9.00" fill="#666666">isProvable t = true</text>
<text text-anchor="start" x="126.64" y="-97.44" font-family="Helvetica,sans-Serif" font-style="italic" font-size="8.00" fill="#cc6666">⚠ declared but unused in proof</text>
</g>
<!-- thm_main -->
<g id="node10" class="node">
<title>thm_main</title>
<path fill="#fff2cc" stroke="#996600" stroke-width="3" d="M440.49,-479.41C440.49,-479.41 205.29,-479.41 205.29,-479.41 199.29,-479.41 193.29,-473.41 193.29,-467.41 193.29,-467.41 193.29,-419.41 193.29,-419.41 193.29,-413.41 199.29,-407.41 205.29,-407.41 205.29,-407.41 440.49,-407.41 440.49,-407.41 446.49,-407.41 452.49,-413.41 452.49,-419.41 452.49,-419.41 452.49,-467.41 452.49,-467.41 452.49,-473.41 446.49,-479.41 440.49,-479.41"/>
<text text-anchor="start" x="205.51" y="-448.56" font-family="Helvetica,sans-Serif" font-weight="bold" font-size="13.00">Theorem 1: hitting&#45;time upper bound</text>
<text text-anchor="start" x="247.89" y="-437.46" font-family="Helvetica,sans-Serif" font-size="11.00">1 / sp(π,t,0) &#160;≤ &#160;(1/pmin)^d · b^d</text>
<text text-anchor="start" x="268.89" y="-428.36" font-family="Helvetica,sans-Serif" font-size="9.00" fill="#666666">hitting_time_upper_bound</text>
</g>
<!-- isProvable&#45;&gt;thm_main -->
<g id="edge7" class="edge">
<title>isProvable&#45;&gt;thm_main</title>
<path fill="none" stroke="#cc6666" stroke-dasharray="5,2" d="M190.42,-128.38C211.76,-178.98 273.14,-324.48 304.29,-398.31"/>
<polygon fill="#cc6666" stroke="#cc6666" points="302,-399.2 306.98,-404.69 306.52,-397.29 302,-399.2"/>
<text text-anchor="middle" x="285.32" y="-305.39" font-family="Times,serif" font-size="8.00" fill="#cc6666">unused</text>
</g>
<!-- lemma_sp_lb&#45;&gt;thm_main -->
<g id="edge8" class="edge">
<title>lemma_sp_lb&#45;&gt;thm_main</title>
<path fill="none" stroke="#990000" stroke-width="2.8" d="M532,-328.64C497.4,-347.47 443.93,-376.56 399.72,-400.61"/>
<polygon fill="#990000" stroke="#990000" stroke-width="2.8" points="398.56,-398.45 393.59,-403.95 400.91,-402.76 398.56,-398.45"/>
<text text-anchor="middle" x="502.21" y="-363.91" font-family="Times,serif" font-size="10.00" fill="#990000"> &#160;applied in proof</text>
</g>
<!-- legend -->
<g id="node11" class="node">
<title>legend</title>
<path fill="lightgrey" stroke="none" d="M1202.03,-219.08C1202.03,-219.08 1051.75,-219.08 1051.75,-219.08 1045.75,-219.08 1039.75,-213.08 1039.75,-207.08 1039.75,-207.08 1039.75,-12 1039.75,-12 1039.75,-6 1045.75,0 1051.75,0 1051.75,0 1202.03,0 1202.03,0 1208.03,0 1214.03,-6 1214.03,-12 1214.03,-12 1214.03,-207.08 1214.03,-207.08 1214.03,-213.08 1208.03,-219.08 1202.03,-219.08"/>
<polygon fill="#ffffff" stroke="none" points="1048.39,-5.04 1048.39,-214.04 1205.39,-214.04 1205.39,-5.04 1048.39,-5.04"/>
<text text-anchor="start" x="1055.39" y="-197.59" font-family="Helvetica,sans-Serif" font-weight="bold" font-size="11.00">Per&#45;theorem build&#45;up</text>
<text text-anchor="start" x="1055.39" y="-177.49" font-family="Helvetica,sans-Serif" font-size="9.00">read bottom → top</text>
<text text-anchor="start" x="1055.39" y="-158.49" font-family="Helvetica,sans-Serif" font-size="9.00">edges = </text>
<text text-anchor="start" x="1090.64" y="-158.49" font-family="Helvetica,sans-Serif" font-weight="bold" font-size="9.00">direct</text>
<text text-anchor="start" x="1115.39" y="-158.49" font-family="Helvetica,sans-Serif" font-size="9.00"> dependencies only</text>
<text text-anchor="start" x="1059.89" y="-149.49" font-family="Helvetica,sans-Serif" font-size="9.00">(transitive deps follow the chain)</text>
<text text-anchor="start" x="1072.89" y="-130.49" font-family="Helvetica,sans-Serif" font-size="9.00">────────────</text>
<polygon fill="#cfe2f3" stroke="none" points="1052.39,-109.04 1052.39,-124.04 1079.39,-124.04 1079.39,-109.04 1052.39,-109.04"/>
<text text-anchor="start" x="1085.39" y="-112.49" font-family="Helvetica,sans-Serif" font-size="9.00">from Defs.lean</text>
<polygon fill="#fff2cc" stroke="none" points="1052.39,-91.04 1052.39,-106.04 1079.39,-106.04 1079.39,-91.04 1052.39,-91.04"/>
<text text-anchor="start" x="1085.39" y="-94.49" font-family="Helvetica,sans-Serif" font-size="9.00">from Theorem1.lean</text>
<text text-anchor="start" x="1072.89" y="-76.49" font-family="Helvetica,sans-Serif" font-size="9.00">────────────</text>
<text text-anchor="start" x="1055.39" y="-58.54" font-family="Helvetica,sans-Serif" font-weight="bold" font-size="10.00" fill="#990000">━━</text>
<text text-anchor="start" x="1085.39" y="-57.87" font-family="Helvetica,sans-Serif" font-size="9.00">proof&#45;step (lemma applied)</text>
<text text-anchor="start" x="1055.39" y="-38.54" font-family="Helvetica,sans-Serif" font-weight="bold" font-size="10.00" fill="#1f4e79">──</text>
<text text-anchor="start" x="1085.39" y="-37.87" font-family="Helvetica,sans-Serif" font-size="9.00">definitional dep</text>
<text text-anchor="start" x="1055.39" y="-17.54" font-family="Helvetica,sans-Serif" font-size="10.00" fill="#cc6666">┄┄</text>
<text text-anchor="start" x="1085.39" y="-15.87" font-family="Helvetica,sans-Serif" font-size="9.00">declared but unused</text>
<polygon fill="none" stroke="#bbbbbb" points="1048.39,-5.04 1048.39,-214.04 1205.39,-214.04 1205.39,-5.04 1048.39,-5.04"/>
</g>
</g>
</svg>
