<?xml version="1.0" encoding="UTF-8" standalone="no"?>
<!DOCTYPE svg PUBLIC "-//W3C//DTD SVG 1.1//EN"
 "http://www.w3.org/Graphics/SVG/1.1/DTD/svg11.dtd">
<!-- Generated by graphviz version 12.1.2 (20240928.0832)
 -->
<!-- Title: SSB_T3_BuildUp Pages: 1 -->
<svg width="1373pt" height="554pt"
 viewBox="0.00 0.00 1372.65 554.16" xmlns="http://www.w3.org/2000/svg" xmlns:xlink="http://www.w3.org/1999/xlink">
<g id="graph0" class="graph" transform="scale(1 1) rotate(0) translate(36 518.16)">
<title>SSB_T3_BuildUp</title>
<polygon fill="#fafafa" stroke="none" points="-36,36 -36,-518.16 1336.65,-518.16 1336.65,36 -36,36"/>
<!-- tier_def -->
<g id="node1" class="node">
<title>tier_def</title>
<path fill="lightgrey" stroke="none" d="M69.78,-135.54C69.78,-135.54 12,-135.54 12,-135.54 6,-135.54 0,-129.54 0,-123.54 0,-123.54 0,-111.54 0,-111.54 0,-105.54 6,-99.54 12,-99.54 12,-99.54 69.78,-99.54 69.78,-99.54 75.78,-99.54 81.78,-105.54 81.78,-111.54 81.78,-111.54 81.78,-123.54 81.78,-123.54 81.78,-129.54 75.78,-135.54 69.78,-135.54"/>
<text text-anchor="start" x="8.64" y="-114.67" font-family="Helvetica,sans-Serif" font-weight="bold" font-size="10.00" fill="#666666">DEFINITIONS</text>
</g>
<!-- tier_lemma -->
<g id="node2" class="node">
<title>tier_lemma</title>
<path fill="lightgrey" stroke="none" d="M55.9,-340.62C55.9,-340.62 25.87,-340.62 25.87,-340.62 19.87,-340.62 13.87,-334.62 13.87,-328.62 13.87,-328.62 13.87,-316.62 13.87,-316.62 13.87,-310.62 19.87,-304.62 25.87,-304.62 25.87,-304.62 55.9,-304.62 55.9,-304.62 61.9,-304.62 67.9,-310.62 67.9,-316.62 67.9,-316.62 67.9,-328.62 67.9,-328.62 67.9,-334.62 61.9,-340.62 55.9,-340.62"/>
<text text-anchor="start" x="22.51" y="-319.75" font-family="Helvetica,sans-Serif" font-weight="bold" font-size="10.00" fill="#666666">LEMMA</text>
</g>
<!-- tier_def&#45;&gt;tier_lemma -->
<!-- tier_thm -->
<g id="node3" class="node">
<title>tier_thm</title>
<path fill="lightgrey" stroke="none" d="M62.65,-464.16C62.65,-464.16 19.12,-464.16 19.12,-464.16 13.12,-464.16 7.12,-458.16 7.12,-452.16 7.12,-452.16 7.12,-440.16 7.12,-440.16 7.12,-434.16 13.12,-428.16 19.12,-428.16 19.12,-428.16 62.65,-428.16 62.65,-428.16 68.65,-428.16 74.65,-434.16 74.65,-440.16 74.65,-440.16 74.65,-452.16 74.65,-452.16 74.65,-458.16 68.65,-464.16 62.65,-464.16"/>
<text text-anchor="start" x="15.76" y="-443.29" font-family="Helvetica,sans-Serif" font-weight="bold" font-size="10.00" fill="#666666">THEOREM</text>
</g>
<!-- tier_lemma&#45;&gt;tier_thm -->
<!-- AOTree -->
<g id="node4" class="node">
<title>AOTree</title>
<path fill="#cfe2f3" stroke="#1f4e79" d="M277.55,-123.39C277.55,-123.39 255.94,-135.44 255.94,-135.44 250.7,-138.36 239.46,-141.28 233.46,-141.28 233.46,-141.28 172.32,-141.28 172.32,-141.28 166.32,-141.28 155.08,-138.36 149.84,-135.44 149.84,-135.44 128.23,-123.39 128.23,-123.39 122.99,-120.46 122.99,-114.62 128.23,-111.69 128.23,-111.69 149.84,-99.64 149.84,-99.64 155.08,-96.72 166.32,-93.8 172.32,-93.8 172.32,-93.8 233.46,-93.8 233.46,-93.8 239.46,-93.8 250.7,-96.72 255.94,-99.64 255.94,-99.64 277.55,-111.69 277.55,-111.69 282.79,-114.62 282.79,-120.46 277.55,-123.39"/>
<text text-anchor="start" x="159.39" y="-118.54" font-family="Helvetica,sans-Serif" font-weight="bold" font-size="10.00">AND&#45;OR hypertree</text>
<text text-anchor="start" x="183.39" y="-109.49" font-family="Helvetica,sans-Serif" font-size="9.00" fill="#666666">AOTree α</text>
</g>
<!-- thm_main -->
<g id="node9" class="node">
<title>thm_main</title>
<path fill="#fff2cc" stroke="#996600" stroke-width="3" d="M544.89,-482.16C544.89,-482.16 280.89,-482.16 280.89,-482.16 274.89,-482.16 268.89,-476.16 268.89,-470.16 268.89,-470.16 268.89,-422.16 268.89,-422.16 268.89,-416.16 274.89,-410.16 280.89,-410.16 280.89,-410.16 544.89,-410.16 544.89,-410.16 550.89,-410.16 556.89,-416.16 556.89,-422.16 556.89,-422.16 556.89,-470.16 556.89,-470.16 556.89,-476.16 550.89,-482.16 544.89,-482.16"/>
<text text-anchor="start" x="284.64" y="-451.31" font-family="Helvetica,sans-Serif" font-weight="bold" font-size="13.00">Theorem 3: AND&#45;branching lower bound</text>
<text text-anchor="start" x="289.89" y="-440.21" font-family="Helvetica,sans-Serif" font-size="11.00">sp(π,t,nid) ≤ (1−ε)^b &#160;&#160;⇒ &#160;&#160;1 / sp(π,t,0) ≥ (1/(1−ε))^b</text>
<text text-anchor="start" x="352.14" y="-431.11" font-family="Helvetica,sans-Serif" font-size="9.00" fill="#666666">and_branching_lower_bound</text>
</g>
<!-- AOTree&#45;&gt;thm_main -->
<g id="edge4" class="edge">
<title>AOTree&#45;&gt;thm_main</title>
<path fill="none" stroke="#1f4e79" stroke-width="1.4" d="M217.82,-141.77C252.63,-195.91 339.61,-331.19 384.74,-401.37"/>
<polygon fill="#1f4e79" stroke="#1f4e79" stroke-width="1.4" points="382.5,-402.43 388.35,-406.99 386.63,-399.78 382.5,-402.43"/>
</g>
<!-- successProb -->
<g id="node5" class="node">
<title>successProb</title>
<path fill="#cfe2f3" stroke="#1f4e79" d="M489.78,-135.54C489.78,-135.54 336,-135.54 336,-135.54 330,-135.54 324,-129.54 324,-123.54 324,-123.54 324,-111.54 324,-111.54 324,-105.54 330,-99.54 336,-99.54 336,-99.54 489.78,-99.54 489.78,-99.54 495.78,-99.54 501.78,-105.54 501.78,-111.54 501.78,-111.54 501.78,-123.54 501.78,-123.54 501.78,-129.54 495.78,-135.54 489.78,-135.54"/>
<text text-anchor="start" x="332.64" y="-118.54" font-family="Helvetica,sans-Serif" font-weight="bold" font-size="10.00">success probability under policy π</text>
<text text-anchor="start" x="373.14" y="-109.49" font-family="Helvetica,sans-Serif" font-size="9.00" fill="#666666">successProb π t nid</text>
</g>
<!-- successProb&#45;&gt;thm_main -->
<g id="edge5" class="edge">
<title>successProb&#45;&gt;thm_main</title>
<path fill="none" stroke="#1f4e79" stroke-width="1.4" d="M412.89,-135.64C412.89,-184.54 412.89,-326.17 412.89,-399.68"/>
<polygon fill="#1f4e79" stroke="#1f4e79" stroke-width="1.4" points="410.44,-399.6 412.89,-406.6 415.34,-399.6 410.44,-399.6"/>
</g>
<!-- hasAndNode -->
<g id="node6" class="node">
<title>hasAndNode</title>
<path fill="#fff2cc" stroke="#996600" d="M842.41,-120.99C842.41,-120.99 786.39,-137.83 786.39,-137.83 780.64,-139.56 768.9,-141.28 762.9,-141.28 762.9,-141.28 628.88,-141.28 628.88,-141.28 622.88,-141.28 611.14,-139.56 605.39,-137.83 605.39,-137.83 549.37,-120.99 549.37,-120.99 543.62,-119.27 543.62,-115.81 549.37,-114.09 549.37,-114.09 605.39,-97.25 605.39,-97.25 611.14,-95.52 622.88,-93.8 628.88,-93.8 628.88,-93.8 762.9,-93.8 762.9,-93.8 768.9,-93.8 780.64,-95.52 786.39,-97.25 786.39,-97.25 842.41,-114.09 842.41,-114.09 848.16,-115.81 848.16,-119.27 842.41,-120.99"/>
<text text-anchor="start" x="608.14" y="-118.54" font-family="Helvetica,sans-Serif" font-weight="bold" font-size="10.00">contains an AND node of branching b</text>
<text text-anchor="start" x="607.76" y="-109.49" font-family="Helvetica,sans-Serif" font-size="9.00" fill="#666666">hasAndNodeOfBranching b t (T3 predicate)</text>
</g>
<!-- hasAndNode&#45;&gt;thm_main -->
<g id="edge6" class="edge">
<title>hasAndNode&#45;&gt;thm_main</title>
<path fill="none" stroke="#996600" stroke-width="1.4" d="M675.76,-141.77C628.67,-196.12 510.69,-332.28 450.1,-402.22"/>
<polygon fill="#996600" stroke="#996600" stroke-width="1.4" points="448.53,-400.28 445.8,-407.18 452.24,-403.49 448.53,-400.28"/>
</g>
<!-- dead_eq -->
<g id="node7" class="node">
<title>dead_eq</title>
<path fill="#ffffff" stroke="#cc6666" stroke-dasharray="5,2" d="M958.4,-341.16C958.4,-341.16 763.38,-341.16 763.38,-341.16 757.38,-341.16 751.38,-335.16 751.38,-329.16 751.38,-329.16 751.38,-316.08 751.38,-316.08 751.38,-310.08 757.38,-304.08 763.38,-304.08 763.38,-304.08 958.4,-304.08 958.4,-304.08 964.4,-304.08 970.4,-310.08 970.4,-316.08 970.4,-316.08 970.4,-329.16 970.4,-329.16 970.4,-335.16 964.4,-341.16 958.4,-341.16"/>
<text text-anchor="start" x="760.01" y="-327.62" font-family="Helvetica,sans-Serif" font-weight="bold" font-size="10.00">AND&#45;node success = product over children</text>
<text text-anchor="start" x="805.01" y="-318.57" font-family="Helvetica,sans-Serif" font-size="9.00" fill="#666666">successProb_andNode_eq</text>
<text text-anchor="start" x="793.01" y="-310.52" font-family="Helvetica,sans-Serif" font-style="italic" font-size="8.00" fill="#cc6666">⚠ documented helper but not invoked</text>
</g>
<!-- dead_le -->
<g id="node8" class="node">
<title>dead_le</title>
<path fill="#ffffff" stroke="#cc6666" stroke-dasharray="5,2" d="M1288.65,-341.16C1288.65,-341.16 1101.12,-341.16 1101.12,-341.16 1095.12,-341.16 1089.12,-335.16 1089.12,-329.16 1089.12,-329.16 1089.12,-316.08 1089.12,-316.08 1089.12,-310.08 1095.12,-304.08 1101.12,-304.08 1101.12,-304.08 1288.65,-304.08 1288.65,-304.08 1294.65,-304.08 1300.65,-310.08 1300.65,-316.08 1300.65,-316.08 1300.65,-329.16 1300.65,-329.16 1300.65,-335.16 1294.65,-341.16 1288.65,-341.16"/>
<text text-anchor="start" x="1097.76" y="-327.62" font-family="Helvetica,sans-Serif" font-weight="bold" font-size="10.00">AND&#45;node success ≤ c^n if each child ≤ c</text>
<text text-anchor="start" x="1140.51" y="-318.57" font-family="Helvetica,sans-Serif" font-size="9.00" fill="#666666">andNode_successProb_le</text>
<text text-anchor="start" x="1127.01" y="-310.52" font-family="Helvetica,sans-Serif" font-style="italic" font-size="8.00" fill="#cc6666">⚠ documented helper but not invoked</text>
</g>
<!-- dead_eq&#45;&gt;dead_le -->
<g id="edge3" class="edge">
<title>dead_eq&#45;&gt;dead_le</title>
<path fill="none" stroke="#cc6666" stroke-width="0.9" stroke-dasharray="5,2" d="M970.72,-322.62C1005.98,-322.62 1045.11,-322.62 1080.68,-322.62"/>
<polygon fill="#cc6666" stroke="#cc6666" stroke-width="0.9" points="1080.33,-325.07 1087.33,-322.62 1080.33,-320.17 1080.33,-325.07"/>
<text text-anchor="middle" x="1029.76" y="-312.02" font-family="Times,serif" font-size="8.00" fill="#cc6666">uses (but le itself unused)</text>
</g>
<!-- legend -->
<g id="node10" class="node">
<title>legend</title>
<path fill="lightgrey" stroke="none" d="M1041.53,-235.08C1041.53,-235.08 902.25,-235.08 902.25,-235.08 896.25,-235.08 890.25,-229.08 890.25,-223.08 890.25,-223.08 890.25,-12 890.25,-12 890.25,-6 896.25,0 902.25,0 902.25,0 1041.53,0 1041.53,0 1047.53,0 1053.53,-6 1053.53,-12 1053.53,-12 1053.53,-223.08 1053.53,-223.08 1053.53,-229.08 1047.53,-235.08 1041.53,-235.08"/>
<polygon fill="#ffffff" stroke="none" points="898.89,-5.04 898.89,-230.04 1044.89,-230.04 1044.89,-5.04 898.89,-5.04"/>
<text text-anchor="start" x="905.89" y="-213.59" font-family="Helvetica,sans-Serif" font-weight="bold" font-size="11.00">Per&#45;theorem build&#45;up</text>
<text text-anchor="start" x="905.89" y="-193.49" font-family="Helvetica,sans-Serif" font-size="9.00">read bottom → top</text>
<text text-anchor="start" x="917.89" y="-173.49" font-family="Helvetica,sans-Serif" font-size="9.00">────────────</text>
<polygon fill="#cfe2f3" stroke="none" points="902.89,-152.04 902.89,-167.04 938.89,-167.04 938.89,-152.04 902.89,-152.04"/>
<text text-anchor="start" x="944.89" y="-155.49" font-family="Helvetica,sans-Serif" font-size="9.00">from Defs.lean</text>
<polygon fill="#fff2cc" stroke="none" points="902.89,-134.04 902.89,-149.04 938.89,-149.04 938.89,-134.04 902.89,-134.04"/>
<text text-anchor="start" x="944.89" y="-137.49" font-family="Helvetica,sans-Serif" font-size="9.00">from Theorem3.lean</text>
<text text-anchor="start" x="917.89" y="-119.49" font-family="Helvetica,sans-Serif" font-size="9.00">────────────</text>
<text text-anchor="start" x="905.89" y="-101.54" font-family="Helvetica,sans-Serif" font-weight="bold" font-size="10.00" fill="#1f4e79">──</text>
<text text-anchor="start" x="944.89" y="-100.87" font-family="Helvetica,sans-Serif" font-size="9.00">definitional dep</text>
<text text-anchor="start" x="905.89" y="-80.54" font-family="Helvetica,sans-Serif" font-size="10.00" fill="#cc6666">┄┄</text>
<text text-anchor="start" x="944.89" y="-78.87" font-family="Helvetica,sans-Serif" font-size="9.00">dead code</text>
<text text-anchor="start" x="917.89" y="-57.49" font-family="Helvetica,sans-Serif" font-size="9.00">────────────</text>
<text text-anchor="start" x="917.14" y="-40.49" font-family="Helvetica,sans-Serif" font-weight="bold" font-size="9.00">Striking:</text>
<text text-anchor="start" x="953.14" y="-40.49" font-family="Helvetica,sans-Serif" font-size="9.00"> theorem uses no</text>
<text text-anchor="start" x="909.26" y="-31.49" font-family="Helvetica,sans-Serif" font-size="9.00">lemma at all — the hypothesis</text>
<text text-anchor="start" x="917.89" y="-22.49" font-family="Helvetica,sans-Serif" font-style="italic" font-size="9.00">hpmax</text>
<text text-anchor="start" x="945.64" y="-22.49" font-family="Helvetica,sans-Serif" font-size="9.00"> is invoked directly.</text>
<text text-anchor="start" x="905.89" y="-13.49" font-family="Helvetica,sans-Serif" font-size="9.00">Two declared helpers are dead.</text>
<polygon fill="none" stroke="#bbbbbb" points="898.89,-5.04 898.89,-230.04 1044.89,-230.04 1044.89,-5.04 898.89,-5.04"/>
</g>
</g>
</svg>
