<?xml version="1.0" encoding="UTF-8" standalone="no"?>
<!DOCTYPE svg PUBLIC "-//W3C//DTD SVG 1.1//EN"
 "http://www.w3.org/Graphics/SVG/1.1/DTD/svg11.dtd">
<!-- Generated by graphviz version 12.1.2 (20240928.0832)
 -->
<!-- Title: SSB_T4_BuildUp Pages: 1 -->
<svg width="897pt" height="600pt"
 viewBox="0.00 0.00 896.53 600.41" xmlns="http://www.w3.org/2000/svg" xmlns:xlink="http://www.w3.org/1999/xlink">
<g id="graph0" class="graph" transform="scale(1 1) rotate(0) translate(36 564.41)">
<title>SSB_T4_BuildUp</title>
<polygon fill="#fafafa" stroke="none" points="-36,36 -36,-564.41 860.53,-564.41 860.53,36 -36,36"/>
<!-- tier_def -->
<g id="node1" class="node">
<title>tier_def</title>
<path fill="lightgrey" stroke="none" d="M69.78,-152.04C69.78,-152.04 12,-152.04 12,-152.04 6,-152.04 0,-146.04 0,-140.04 0,-140.04 0,-128.04 0,-128.04 0,-122.04 6,-116.04 12,-116.04 12,-116.04 69.78,-116.04 69.78,-116.04 75.78,-116.04 81.78,-122.04 81.78,-128.04 81.78,-128.04 81.78,-140.04 81.78,-140.04 81.78,-146.04 75.78,-152.04 69.78,-152.04"/>
<text text-anchor="start" x="8.64" y="-131.16" font-family="Helvetica,sans-Serif" font-weight="bold" font-size="10.00" fill="#666666">DEFINITIONS</text>
</g>
<!-- tier_lemma -->
<g id="node2" class="node">
<title>tier_lemma</title>
<path fill="lightgrey" stroke="none" d="M55.9,-375.12C55.9,-375.12 25.87,-375.12 25.87,-375.12 19.87,-375.12 13.87,-369.12 13.87,-363.12 13.87,-363.12 13.87,-351.12 13.87,-351.12 13.87,-345.12 19.87,-339.12 25.87,-339.12 25.87,-339.12 55.9,-339.12 55.9,-339.12 61.9,-339.12 67.9,-345.12 67.9,-351.12 67.9,-351.12 67.9,-363.12 67.9,-363.12 67.9,-369.12 61.9,-375.12 55.9,-375.12"/>
<text text-anchor="start" x="22.51" y="-354.25" font-family="Helvetica,sans-Serif" font-weight="bold" font-size="10.00" fill="#666666">LEMMA</text>
</g>
<!-- tier_def&#45;&gt;tier_lemma -->
<!-- tier_thm -->
<g id="node3" class="node">
<title>tier_thm</title>
<path fill="lightgrey" stroke="none" d="M62.65,-510.41C62.65,-510.41 19.12,-510.41 19.12,-510.41 13.12,-510.41 7.12,-504.41 7.12,-498.41 7.12,-498.41 7.12,-486.41 7.12,-486.41 7.12,-480.41 13.12,-474.41 19.12,-474.41 19.12,-474.41 62.65,-474.41 62.65,-474.41 68.65,-474.41 74.65,-480.41 74.65,-486.41 74.65,-486.41 74.65,-498.41 74.65,-498.41 74.65,-504.41 68.65,-510.41 62.65,-510.41"/>
<text text-anchor="start" x="15.76" y="-489.53" font-family="Helvetica,sans-Serif" font-weight="bold" font-size="10.00" fill="#666666">THEOREM</text>
</g>
<!-- tier_lemma&#45;&gt;tier_thm -->
<!-- mathlib_box -->
<g id="node4" class="node">
<title>mathlib_box</title>
<polygon fill="#f5f5f5" stroke="#999999" points="310.03,-153.08 163.75,-153.08 163.75,-115 316.03,-115 316.03,-147.08 310.03,-153.08"/>
<polyline fill="none" stroke="#999999" points="310.03,-153.08 310.03,-147.08"/>
<polyline fill="none" stroke="#999999" points="316.03,-147.08 310.03,-147.08"/>
<text text-anchor="start" x="211.01" y="-139.54" font-family="Helvetica,sans-Serif" font-weight="bold" font-size="10.00">Mathlib only</text>
<text text-anchor="start" x="173.51" y="-130.49" font-family="Helvetica,sans-Serif" font-size="9.00">Fin · NNReal · Finset (sum, prod)</text>
<text text-anchor="start" x="172.39" y="-121.49" font-family="Helvetica,sans-Serif" font-size="9.00" fill="#666666">no symbol from Defs.lean is used</text>
</g>
<!-- lemma_spe -->
<g id="node6" class="node">
<title>lemma_spe</title>
<path fill="#fff2cc" stroke="#996600" d="M335.53,-377.16C335.53,-377.16 144.25,-377.16 144.25,-377.16 138.25,-377.16 132.25,-371.16 132.25,-365.16 132.25,-365.16 132.25,-349.08 132.25,-349.08 132.25,-343.08 138.25,-337.08 144.25,-337.08 144.25,-337.08 335.53,-337.08 335.53,-337.08 341.53,-337.08 347.53,-343.08 347.53,-349.08 347.53,-349.08 347.53,-365.16 347.53,-365.16 347.53,-371.16 341.53,-377.16 335.53,-377.16"/>
<text text-anchor="start" x="140.89" y="-362.67" font-family="Helvetica,sans-Serif" font-weight="bold" font-size="11.00">sum&#45;prod&#45;erase ≤ 1 &#160;(T4&#39;s reinvention)</text>
<text text-anchor="start" x="200.89" y="-352.62" font-family="Helvetica,sans-Serif" font-size="10.00">∑ᵢ ∏_{j≠i} qⱼ &#160;≤ &#160;1</text>
<text text-anchor="start" x="187.39" y="-343.57" font-family="Helvetica,sans-Serif" font-size="9.00" fill="#666666">sum_prod_erase_le_one&#39;</text>
</g>
<!-- mathlib_box&#45;&gt;lemma_spe -->
<g id="edge3" class="edge">
<title>mathlib_box&#45;&gt;lemma_spe</title>
<path fill="none" stroke="#999999" stroke-dasharray="5,2" d="M239.89,-153.51C239.89,-192.31 239.89,-282.49 239.89,-328.32"/>
<polygon fill="#999999" stroke="#999999" points="237.44,-328.09 239.89,-335.09 242.34,-328.09 237.44,-328.09"/>
</g>
<!-- dead_defs_lemma -->
<g id="node5" class="node">
<title>dead_defs_lemma</title>
<path fill="#ffffff" stroke="#cc6666" stroke-dasharray="5,2" d="M607.4,-152.58C607.4,-152.58 364.38,-152.58 364.38,-152.58 358.38,-152.58 352.38,-146.58 352.38,-140.58 352.38,-140.58 352.38,-127.5 352.38,-127.5 352.38,-121.5 358.38,-115.5 364.38,-115.5 364.38,-115.5 607.4,-115.5 607.4,-115.5 613.4,-115.5 619.4,-121.5 619.4,-127.5 619.4,-127.5 619.4,-140.58 619.4,-140.58 619.4,-146.58 613.4,-152.58 607.4,-152.58"/>
<text text-anchor="start" x="407.14" y="-139.04" font-family="Helvetica,sans-Serif" font-weight="bold" font-size="10.00">sum&#45;prod&#45;erase ≤ 1 &#160;(n ≥ 2, qᵢ ≤ ½)</text>
<text text-anchor="start" x="423.64" y="-129.99" font-family="Helvetica,sans-Serif" font-size="9.00" fill="#666666">Defs.sum_prod_erase_le_one</text>
<text text-anchor="start" x="361.01" y="-121.94" font-family="Helvetica,sans-Serif" font-style="italic" font-size="8.00" fill="#cc6666">⚠ dead — T4 reinvents the same lemma as sum_prod_erase_le_one&#39;</text>
</g>
<!-- thm_main -->
<g id="node7" class="node">
<title>thm_main</title>
<path fill="#fff2cc" stroke="#996600" stroke-width="3" d="M357.49,-528.41C357.49,-528.41 122.29,-528.41 122.29,-528.41 116.29,-528.41 110.29,-522.41 110.29,-516.41 110.29,-516.41 110.29,-468.41 110.29,-468.41 110.29,-462.41 116.29,-456.41 122.29,-456.41 122.29,-456.41 357.49,-456.41 357.49,-456.41 363.49,-456.41 369.49,-462.41 369.49,-468.41 369.49,-468.41 369.49,-516.41 369.49,-516.41 369.49,-522.41 363.49,-528.41 357.49,-528.41"/>
<text text-anchor="start" x="137.51" y="-497.56" font-family="Helvetica,sans-Serif" font-weight="bold" font-size="13.00">Theorem 4: sequential ≤ parallel</text>
<text text-anchor="start" x="156.26" y="-486.46" font-family="Helvetica,sans-Serif" font-size="11.00">∑ᵢ 1/qᵢ &#160;≤ &#160;∏ᵢ 1/qᵢ &#160;&#160;(for n ≥ 2, qᵢ ≤ ½)</text>
<text text-anchor="start" x="194.14" y="-477.36" font-family="Helvetica,sans-Serif" font-size="9.00" fill="#666666">sequential_le_parallel</text>
</g>
<!-- lemma_spe&#45;&gt;thm_main -->
<g id="edge4" class="edge">
<title>lemma_spe&#45;&gt;thm_main</title>
<path fill="none" stroke="#990000" stroke-width="2.8" d="M239.89,-377.5C239.89,-394.94 239.89,-421.27 239.89,-444.22"/>
<polygon fill="#990000" stroke="#990000" stroke-width="2.8" points="237.44,-443.92 239.89,-450.92 242.34,-443.92 237.44,-443.92"/>
<text text-anchor="middle" x="274.76" y="-412.91" font-family="Times,serif" font-size="10.00" fill="#990000"> &#160;applied in proof</text>
</g>
<!-- legend -->
<g id="node8" class="node">
<title>legend</title>
<path fill="lightgrey" stroke="none" d="M812.53,-268.08C812.53,-268.08 667.25,-268.08 667.25,-268.08 661.25,-268.08 655.25,-262.08 655.25,-256.08 655.25,-256.08 655.25,-12 655.25,-12 655.25,-6 661.25,0 667.25,0 667.25,0 812.53,0 812.53,0 818.53,0 824.53,-6 824.53,-12 824.53,-12 824.53,-256.08 824.53,-256.08 824.53,-262.08 818.53,-268.08 812.53,-268.08"/>
<polygon fill="#ffffff" stroke="none" points="663.89,-5.04 663.89,-263.04 815.89,-263.04 815.89,-5.04 663.89,-5.04"/>
<text text-anchor="start" x="670.89" y="-246.59" font-family="Helvetica,sans-Serif" font-weight="bold" font-size="11.00">Per&#45;theorem build&#45;up</text>
<text text-anchor="start" x="670.89" y="-226.49" font-family="Helvetica,sans-Serif" font-size="9.00">read bottom → top</text>
<text text-anchor="start" x="685.89" y="-206.49" font-family="Helvetica,sans-Serif" font-size="9.00">────────────</text>
<polygon fill="#fff2cc" stroke="none" points="667.89,-185.04 667.89,-200.04 692.89,-200.04 692.89,-185.04 667.89,-185.04"/>
<text text-anchor="start" x="698.89" y="-188.49" font-family="Helvetica,sans-Serif" font-size="9.00">from Theorem4.lean</text>
<polygon fill="#f5f5f5" stroke="none" points="667.89,-167.04 667.89,-182.04 692.89,-182.04 692.89,-167.04 667.89,-167.04"/>
<text text-anchor="start" x="698.89" y="-170.49" font-family="Helvetica,sans-Serif" font-size="9.00">external (Mathlib)</text>
<text text-anchor="start" x="685.89" y="-152.49" font-family="Helvetica,sans-Serif" font-size="9.00">────────────</text>
<text text-anchor="start" x="670.64" y="-134.54" font-family="Helvetica,sans-Serif" font-weight="bold" font-size="10.00" fill="#990000">━━</text>
<text text-anchor="start" x="698.76" y="-133.86" font-family="Helvetica,sans-Serif" font-size="9.00">proof&#45;step (lemma applied)</text>
<text text-anchor="start" x="670.64" y="-113.54" font-family="Helvetica,sans-Serif" font-size="10.00" fill="#999999">┄┄</text>
<text text-anchor="start" x="698.89" y="-111.86" font-family="Helvetica,sans-Serif" font-size="9.00">Mathlib dep</text>
<text text-anchor="start" x="670.64" y="-89.54" font-family="Helvetica,sans-Serif" font-size="10.00" fill="#cc6666">┄┄</text>
<text text-anchor="start" x="698.89" y="-87.86" font-family="Helvetica,sans-Serif" font-size="9.00">dead code</text>
<text text-anchor="start" x="685.89" y="-66.49" font-family="Helvetica,sans-Serif" font-size="9.00">────────────</text>
<text text-anchor="start" x="679.89" y="-49.49" font-family="Helvetica,sans-Serif" font-weight="bold" font-size="9.00">Striking:</text>
<text text-anchor="start" x="715.89" y="-49.49" font-family="Helvetica,sans-Serif" font-size="9.00"> no Defs.lean</text>
<text text-anchor="start" x="679.89" y="-40.49" font-family="Helvetica,sans-Serif" font-size="9.00">symbol is used. Yet T4</text>
<text text-anchor="start" x="672.39" y="-31.49" font-family="Helvetica,sans-Serif" font-size="9.00">imports Defs anyway, and</text>
<text text-anchor="start" x="672.39" y="-22.49" font-family="Helvetica,sans-Serif" font-size="9.00">Defs has a near&#45;duplicate</text>
<text text-anchor="start" x="670.89" y="-13.49" font-family="Helvetica,sans-Serif" font-size="9.00">of T4&#39;s lemma sitting dead.</text>
<polygon fill="none" stroke="#bbbbbb" points="663.89,-5.04 663.89,-263.04 815.89,-263.04 815.89,-5.04 663.89,-5.04"/>
</g>
</g>
</svg>
