<?xml version="1.0" encoding="UTF-8" standalone="no"?>
<!DOCTYPE svg PUBLIC "-//W3C//DTD SVG 1.1//EN"
 "http://www.w3.org/Graphics/SVG/1.1/DTD/svg11.dtd">
<!-- Generated by graphviz version 12.1.2 (20240928.0832)
 -->
<!-- Title: SimplicialLatentGeometry_Import_PostSplit Pages: 1 -->
<svg width="1572pt" height="1194pt"
 viewBox="0.00 0.00 1571.50 1193.75" xmlns="http://www.w3.org/2000/svg" xmlns:xlink="http://www.w3.org/1999/xlink">
<g id="graph0" class="graph" transform="scale(1 1) rotate(0) translate(36 1157.75)">
<title>SimplicialLatentGeometry_Import_PostSplit</title>
<polygon fill="#fafafa" stroke="none" points="-36,36 -36,-1157.75 1535.5,-1157.75 1535.5,36 -36,36"/>
<g id="clust1" class="cluster">
<title>cluster_det_core</title>
<path fill="#fafafa" stroke="#1f4e79" stroke-dasharray="5,2" d="M394,-850.5C394,-850.5 637,-850.5 637,-850.5 643,-850.5 649,-856.5 649,-862.5 649,-862.5 649,-1022.75 649,-1022.75 649,-1028.75 643,-1034.75 637,-1034.75 637,-1034.75 394,-1034.75 394,-1034.75 388,-1034.75 382,-1028.75 382,-1022.75 382,-1022.75 382,-862.5 382,-862.5 382,-856.5 388,-850.5 394,-850.5"/>
<text text-anchor="middle" x="515.5" y="-856.25" font-family="Helvetica,sans-Serif" font-size="10.00">Detection/Core/ &#160;(foundation)</text>
</g>
<g id="clust2" class="cluster">
<title>cluster_det_deep</title>
<path fill="#fafafa" stroke="#666666" stroke-dasharray="5,2" d="M341,-611.05C341,-611.05 505,-611.05 505,-611.05 511,-611.05 517,-617.05 517,-623.05 517,-623.05 517,-808.5 517,-808.5 517,-814.5 511,-820.5 505,-820.5 505,-820.5 341,-820.5 341,-820.5 335,-820.5 329,-814.5 329,-808.5 329,-808.5 329,-623.05 329,-623.05 329,-617.05 335,-611.05 341,-611.05"/>
<text text-anchor="middle" x="423" y="-616.8" font-family="Helvetica,sans-Serif" font-size="10.00">Detection/DeepRegime/ &#160;(low&#45;r Čech)</text>
</g>
<g id="clust3" class="cluster">
<title>cluster_det_mid</title>
<path fill="#fafafa" stroke="#666666" stroke-dasharray="5,2" d="M20,-502.6C20,-502.6 228,-502.6 228,-502.6 234,-502.6 240,-508.6 240,-514.6 240,-514.6 240,-799.5 240,-799.5 240,-805.5 234,-811.5 228,-811.5 228,-811.5 20,-811.5 20,-811.5 14,-811.5 8,-805.5 8,-799.5 8,-799.5 8,-514.6 8,-514.6 8,-508.6 14,-502.6 20,-502.6"/>
<text text-anchor="middle" x="124" y="-508.35" font-family="Helvetica,sans-Serif" font-size="10.00">Detection/MidRegime/ &#160;(r∈(1/3,1/2], Rips refactor)</text>
</g>
<g id="clust4" class="cluster">
<title>cluster_det_indep</title>
<path fill="#fafafa" stroke="#666666" stroke-dasharray="5,2" d="M735,-499C735,-499 930,-499 930,-499 936,-499 942,-505 942,-511 942,-511 942,-803.1 942,-803.1 942,-809.1 936,-815.1 930,-815.1 930,-815.1 735,-815.1 735,-815.1 729,-815.1 723,-809.1 723,-803.1 723,-803.1 723,-511 723,-511 723,-505 729,-499 735,-499"/>
<text text-anchor="middle" x="832.5" y="-504.75" font-family="Helvetica,sans-Serif" font-size="10.00">Detection/Independence/ &#160;(covariance + indep)</text>
</g>
<g id="clust5" class="cluster">
<title>cluster_det_pt</title>
<path fill="#fafafa" stroke="#996600" stroke-dasharray="5,2" d="M458,-86.65C458,-86.65 646,-86.65 646,-86.65 652,-86.65 658,-92.65 658,-98.65 658,-98.65 658,-457 658,-457 658,-463 652,-469 646,-469 646,-469 458,-469 458,-469 452,-469 446,-463 446,-457 446,-457 446,-98.65 446,-98.65 446,-92.65 452,-86.65 458,-86.65"/>
<text text-anchor="middle" x="552" y="-92.4" font-family="Helvetica,sans-Serif" font-size="10.00">Detection/PhaseTransition/ &#160;(detection chain)</text>
</g>
<!-- Core_Statistic -->
<g id="node1" class="node">
<title>Core_Statistic</title>
<path fill="#cfe2f3" stroke="#1f4e79" stroke-width="3.5" d="M462.5,-1121.75C462.5,-1121.75 389.5,-1121.75 389.5,-1121.75 383.5,-1121.75 377.5,-1115.75 377.5,-1109.75 377.5,-1109.75 377.5,-1097.75 377.5,-1097.75 377.5,-1091.75 383.5,-1085.75 389.5,-1085.75 389.5,-1085.75 462.5,-1085.75 462.5,-1085.75 468.5,-1085.75 474.5,-1091.75 474.5,-1097.75 474.5,-1097.75 474.5,-1109.75 474.5,-1109.75 474.5,-1115.75 468.5,-1121.75 462.5,-1121.75"/>
<text text-anchor="middle" x="426" y="-1105.5" font-family="Helvetica,sans-Serif" font-size="10.00">Core/Statistic.lean</text>
<text text-anchor="middle" x="426" y="-1094.25" font-family="Helvetica,sans-Serif" font-size="10.00">83 LOC</text>
</g>
<!-- Core_Detection_old -->
<g id="node2" class="node">
<title>Core_Detection_old</title>
<path fill="#efefef" stroke="#666666" stroke-width="2" d="M348.5,-1026.75C348.5,-1026.75 269.5,-1026.75 269.5,-1026.75 263.5,-1026.75 257.5,-1020.75 257.5,-1014.75 257.5,-1014.75 257.5,-995.55 257.5,-995.55 257.5,-989.55 263.5,-983.55 269.5,-983.55 269.5,-983.55 348.5,-983.55 348.5,-983.55 354.5,-983.55 360.5,-989.55 360.5,-995.55 360.5,-995.55 360.5,-1014.75 360.5,-1014.75 360.5,-1020.75 354.5,-1026.75 348.5,-1026.75"/>
<text text-anchor="middle" x="309" y="-1006.9" font-family="Helvetica,sans-Serif" font-size="10.00">Core/Detection.lean</text>
<text text-anchor="middle" x="309" y="-995.65" font-family="Helvetica,sans-Serif" font-size="10.00">669 LOC</text>
</g>
<!-- Core_Detection_old&#45;&gt;Core_Statistic -->
<g id="edge25" class="edge">
<title>Core_Detection_old&#45;&gt;Core_Statistic</title>
<path fill="none" stroke="#666666" d="M334.97,-1027.59C353.64,-1043 378.79,-1063.77 397.92,-1079.57"/>
<polygon fill="#666666" stroke="#666666" points="396.52,-1081.14 402.49,-1083.34 399.2,-1077.9 396.52,-1081.14"/>
</g>
<!-- DisjointTriangles -->
<g id="node3" class="node">
<title>DisjointTriangles</title>
<path fill="#efefef" stroke="#666666" stroke-width="1.5" d="M744.21,-150.75C744.21,-150.75 675.79,-150.75 675.79,-150.75 670.71,-150.75 665.62,-145.67 665.62,-140.58 665.62,-140.58 665.62,-130.42 665.62,-130.42 665.62,-125.33 670.71,-120.25 675.79,-120.25 675.79,-120.25 744.21,-120.25 744.21,-120.25 749.29,-120.25 754.38,-125.33 754.38,-130.42 754.38,-130.42 754.38,-140.58 754.38,-140.58 754.38,-145.67 749.29,-150.75 744.21,-150.75"/>
<text text-anchor="middle" x="710" y="-137.25" font-family="Helvetica,sans-Serif" font-size="10.00">DisjointTriangles</text>
<text text-anchor="middle" x="710" y="-126" font-family="Helvetica,sans-Serif" font-size="10.00">73 LOC</text>
</g>
<!-- TorusIntegrals -->
<g id="node4" class="node">
<title>TorusIntegrals</title>
<path fill="#f4cccc" stroke="#cc0000" stroke-width="2" d="M943,-164.3C943,-164.3 795,-164.3 795,-164.3 789,-164.3 783,-158.3 783,-152.3 783,-152.3 783,-118.7 783,-118.7 783,-112.7 789,-106.7 795,-106.7 795,-106.7 943,-106.7 943,-106.7 949,-106.7 955,-112.7 955,-118.7 955,-118.7 955,-152.3 955,-152.3 955,-158.3 949,-164.3 943,-164.3"/>
<text text-anchor="middle" x="869" y="-143.25" font-family="Helvetica,sans-Serif" font-size="10.00">TorusIntegrals.lean</text>
<text text-anchor="middle" x="869" y="-132" font-family="Helvetica,sans-Serif" font-size="10.00">1834 LOC ⚠</text>
<text text-anchor="middle" x="869" y="-120" font-family="Helvetica,sans-Serif" font-size="10.00">(untouched — separate audit target)</text>
</g>
<!-- Det_Core_Types -->
<g id="node5" class="node">
<title>Det_Core_Types</title>
<path fill="#cfe2f3" stroke="#1f4e79" stroke-width="3.5" d="M450,-1026.75C450,-1026.75 402,-1026.75 402,-1026.75 396,-1026.75 390,-1020.75 390,-1014.75 390,-1014.75 390,-995.55 390,-995.55 390,-989.55 396,-983.55 402,-983.55 402,-983.55 450,-983.55 450,-983.55 456,-983.55 462,-989.55 462,-995.55 462,-995.55 462,-1014.75 462,-1014.75 462,-1020.75 456,-1026.75 450,-1026.75"/>
<text text-anchor="middle" x="426" y="-1006.9" font-family="Helvetica,sans-Serif" font-size="10.00">Core/Types</text>
<text text-anchor="middle" x="426" y="-995.65" font-family="Helvetica,sans-Serif" font-size="10.00">418 LOC</text>
</g>
<!-- Det_Core_Types&#45;&gt;Core_Statistic -->
<g id="edge1" class="edge">
<title>Det_Core_Types&#45;&gt;Core_Statistic</title>
<path fill="none" stroke="#666666" d="M426,-1028.07C426,-1042.71 426,-1062.01 426,-1077.32"/>
<polygon fill="#666666" stroke="#666666" points="423.9,-1076.97 426,-1082.97 428.1,-1076.97 423.9,-1076.97"/>
</g>
<!-- Det_Core_Meas -->
<g id="node6" class="node">
<title>Det_Core_Meas</title>
<path fill="#cfe2f3" stroke="#1f4e79" stroke-width="2.5" d="M491.75,-924.55C491.75,-924.55 402.25,-924.55 402.25,-924.55 396.25,-924.55 390.25,-918.55 390.25,-912.55 390.25,-912.55 390.25,-889.75 390.25,-889.75 390.25,-883.75 396.25,-877.75 402.25,-877.75 402.25,-877.75 491.75,-877.75 491.75,-877.75 497.75,-877.75 503.75,-883.75 503.75,-889.75 503.75,-889.75 503.75,-912.55 503.75,-912.55 503.75,-918.55 497.75,-924.55 491.75,-924.55"/>
<text text-anchor="middle" x="447" y="-902.9" font-family="Helvetica,sans-Serif" font-size="10.00">Core/MeasureScaffold</text>
<text text-anchor="middle" x="447" y="-891.65" font-family="Helvetica,sans-Serif" font-size="10.00">610 LOC</text>
</g>
<!-- Det_Core_Meas&#45;&gt;Det_Core_Types -->
<g id="edge2" class="edge">
<title>Det_Core_Meas&#45;&gt;Det_Core_Types</title>
<path fill="none" stroke="#666666" d="M442.23,-925.3C439.19,-940.08 435.22,-959.36 431.97,-975.16"/>
<polygon fill="#666666" stroke="#666666" points="429.99,-974.36 430.84,-980.66 434.1,-975.21 429.99,-974.36"/>
</g>
<!-- Det_Core_Beta -->
<g id="node7" class="node">
<title>Det_Core_Beta</title>
<path fill="#efefef" stroke="#666666" stroke-width="1.5" d="M629.12,-922.75C629.12,-922.75 544.88,-922.75 544.88,-922.75 538.88,-922.75 532.88,-916.75 532.88,-910.75 532.88,-910.75 532.88,-891.55 532.88,-891.55 532.88,-885.55 538.88,-879.55 544.88,-879.55 544.88,-879.55 629.12,-879.55 629.12,-879.55 635.12,-879.55 641.12,-885.55 641.12,-891.55 641.12,-891.55 641.12,-910.75 641.12,-910.75 641.12,-916.75 635.12,-922.75 629.12,-922.75"/>
<text text-anchor="middle" x="587" y="-902.9" font-family="Helvetica,sans-Serif" font-size="10.00">Core/BetaIncomplete</text>
<text text-anchor="middle" x="587" y="-891.65" font-family="Helvetica,sans-Serif" font-size="10.00">354 LOC</text>
</g>
<!-- Det_Core_Beta&#45;&gt;Det_Core_Types -->
<g id="edge3" class="edge">
<title>Det_Core_Beta&#45;&gt;Det_Core_Types</title>
<path fill="none" stroke="#666666" d="M554.03,-923.04C528.91,-938.96 494.16,-960.97 467.2,-978.05"/>
<polygon fill="#666666" stroke="#666666" points="466.1,-976.26 462.15,-981.25 468.35,-979.81 466.1,-976.26"/>
</g>
<!-- Det_Deep_IM -->
<g id="node8" class="node">
<title>Det_Deep_IM</title>
<path fill="#efefef" stroke="#666666" stroke-width="2" d="M496.62,-812.5C496.62,-812.5 349.38,-812.5 349.38,-812.5 343.38,-812.5 337.38,-806.5 337.38,-800.5 337.38,-800.5 337.38,-770.5 337.38,-770.5 337.38,-764.5 343.38,-758.5 349.38,-758.5 349.38,-758.5 496.62,-758.5 496.62,-758.5 502.62,-758.5 508.62,-764.5 508.62,-770.5 508.62,-770.5 508.62,-800.5 508.62,-800.5 508.62,-806.5 502.62,-812.5 496.62,-812.5"/>
<text text-anchor="middle" x="423" y="-792.88" font-family="Helvetica,sans-Serif" font-size="10.00">DeepRegime/IntegralsAndMoments</text>
<text text-anchor="middle" x="423" y="-781.62" font-family="Helvetica,sans-Serif" font-size="10.00">720 LOC</text>
<text text-anchor="middle" x="423" y="-770.38" font-family="Helvetica,sans-Serif" font-size="10.00">(16&#45;edge bond merge)</text>
</g>
<!-- Det_Deep_IM&#45;&gt;Det_Core_Types -->
<g id="edge4" class="edge">
<title>Det_Deep_IM&#45;&gt;Det_Core_Types</title>
<path fill="none" stroke="#666666" d="M397.44,-813.3C388.89,-824.01 380.42,-837.01 376,-850.5 365.75,-881.77 366.89,-892.92 376,-924.55 381.37,-943.21 392.56,-961.72 402.99,-976.19"/>
<polygon fill="#666666" stroke="#666666" points="401.23,-977.35 406.49,-980.92 404.6,-974.85 401.23,-977.35"/>
</g>
<!-- Det_Deep_IM&#45;&gt;Det_Core_Meas -->
<g id="edge5" class="edge">
<title>Det_Deep_IM&#45;&gt;Det_Core_Meas</title>
<path fill="none" stroke="#666666" d="M428.69,-813.43C432.25,-830.32 436.86,-852.13 440.56,-869.65"/>
<polygon fill="#666666" stroke="#666666" points="438.48,-869.95 441.77,-875.39 442.59,-869.09 438.48,-869.95"/>
</g>
<!-- Det_Deep_GCov -->
<g id="node9" class="node">
<title>Det_Deep_GCov</title>
<path fill="#f4cccc" stroke="#cc0000" stroke-width="2.5" d="M480.5,-699.5C480.5,-699.5 365.5,-699.5 365.5,-699.5 359.5,-699.5 353.5,-693.5 353.5,-687.5 353.5,-687.5 353.5,-650.3 353.5,-650.3 353.5,-644.3 359.5,-638.3 365.5,-638.3 365.5,-638.3 480.5,-638.3 480.5,-638.3 486.5,-638.3 492.5,-644.3 492.5,-650.3 492.5,-650.3 492.5,-687.5 492.5,-687.5 492.5,-693.5 486.5,-699.5 480.5,-699.5"/>
<text text-anchor="middle" x="423" y="-676.65" font-family="Helvetica,sans-Serif" font-size="10.00">DeepRegime/GeometricCov</text>
<text text-anchor="middle" x="423" y="-665.4" font-family="Helvetica,sans-Serif" font-size="10.00">1035 LOC ⚠</text>
<text text-anchor="middle" x="423" y="-653.4" font-family="Helvetica,sans-Serif" font-size="10.00">(headline closed form)</text>
</g>
<!-- Det_Deep_GCov&#45;&gt;Det_Core_Meas -->
<g id="edge7" class="edge">
<title>Det_Deep_GCov&#45;&gt;Det_Core_Meas</title>
<path fill="none" stroke="#666666" d="M472.73,-700.38C492.23,-715.25 512.43,-735.02 523,-758.5 534.31,-783.63 533.25,-794.92 523,-820.5 514.96,-840.57 499.19,-858.45 484.09,-872.16"/>
<polygon fill="#666666" stroke="#666666" points="482.82,-870.48 479.71,-876.02 485.6,-873.63 482.82,-870.48"/>
</g>
<!-- Det_Deep_GCov&#45;&gt;Det_Deep_IM -->
<g id="edge6" class="edge">
<title>Det_Deep_GCov&#45;&gt;Det_Deep_IM</title>
<path fill="none" stroke="#666666" d="M423,-700.31C423,-715.84 423,-734.77 423,-750.74"/>
<polygon fill="#666666" stroke="#666666" points="420.9,-750.34 423,-756.34 425.1,-750.34 420.9,-750.34"/>
</g>
<!-- Det_Mid_Scaf -->
<g id="node10" class="node">
<title>Det_Mid_Scaf</title>
<path fill="#efefef" stroke="#666666" stroke-width="1.5" d="M217.25,-803.5C217.25,-803.5 136.75,-803.5 136.75,-803.5 130.75,-803.5 124.75,-797.5 124.75,-791.5 124.75,-791.5 124.75,-779.5 124.75,-779.5 124.75,-773.5 130.75,-767.5 136.75,-767.5 136.75,-767.5 217.25,-767.5 217.25,-767.5 223.25,-767.5 229.25,-773.5 229.25,-779.5 229.25,-779.5 229.25,-791.5 229.25,-791.5 229.25,-797.5 223.25,-803.5 217.25,-803.5"/>
<text text-anchor="middle" x="177" y="-787.25" font-family="Helvetica,sans-Serif" font-size="10.00">MidRegime/Scaffold</text>
<text text-anchor="middle" x="177" y="-776" font-family="Helvetica,sans-Serif" font-size="10.00">196 LOC</text>
</g>
<!-- Det_Mid_Scaf&#45;&gt;Det_Core_Types -->
<g id="edge8" class="edge">
<title>Det_Mid_Scaf&#45;&gt;Det_Core_Types</title>
<path fill="none" stroke="#666666" d="M181.06,-803.76C190.01,-837.97 214.79,-914.51 265,-954.55 304.53,-986.07 327.02,-967.61 375,-983.55 377.22,-984.29 379.48,-985.07 381.76,-985.89"/>
<polygon fill="#666666" stroke="#666666" points="380.82,-987.78 387.18,-987.89 382.28,-983.84 380.82,-987.78"/>
</g>
<!-- Det_Mid_FI -->
<g id="node11" class="node">
<title>Det_Mid_FI</title>
<path fill="#efefef" stroke="#666666" stroke-width="2" d="M208.75,-690.5C208.75,-690.5 107.25,-690.5 107.25,-690.5 101.25,-690.5 95.25,-684.5 95.25,-678.5 95.25,-678.5 95.25,-659.3 95.25,-659.3 95.25,-653.3 101.25,-647.3 107.25,-647.3 107.25,-647.3 208.75,-647.3 208.75,-647.3 214.75,-647.3 220.75,-653.3 220.75,-659.3 220.75,-659.3 220.75,-678.5 220.75,-678.5 220.75,-684.5 214.75,-690.5 208.75,-690.5"/>
<text text-anchor="middle" x="158" y="-670.65" font-family="Helvetica,sans-Serif" font-size="10.00">MidRegime/FreeIntegrals</text>
<text text-anchor="middle" x="158" y="-659.4" font-family="Helvetica,sans-Serif" font-size="10.00">518 LOC</text>
</g>
<!-- Det_Mid_FI&#45;&gt;Det_Core_Types -->
<g id="edge9" class="edge">
<title>Det_Mid_FI&#45;&gt;Det_Core_Types</title>
<path fill="none" stroke="#666666" d="M142.51,-691.2C131.01,-708.41 116.28,-733.74 110,-758.5 103.23,-785.21 101.21,-794.38 110,-820.5 128.52,-875.53 143.34,-888.69 189,-924.55 257.21,-978.12 292.5,-956.81 375,-983.55 377.23,-984.27 379.49,-985.04 381.77,-985.85"/>
<polygon fill="#666666" stroke="#666666" points="380.84,-987.75 387.2,-987.83 382.29,-983.8 380.84,-987.75"/>
</g>
<!-- Det_Mid_FI&#45;&gt;Det_Mid_Scaf -->
<g id="edge10" class="edge">
<title>Det_Mid_FI&#45;&gt;Det_Mid_Scaf</title>
<path fill="none" stroke="#666666" d="M161.57,-691.46C164.8,-710.89 169.53,-739.45 172.9,-759.8"/>
<polygon fill="#666666" stroke="#666666" points="170.82,-760.09 173.88,-765.67 174.97,-759.4 170.82,-760.09"/>
</g>
<!-- Det_Mid_GCF -->
<g id="node12" class="node">
<title>Det_Mid_GCF</title>
<path fill="#efefef" stroke="#666666" stroke-width="1.5" d="M212.12,-565.85C212.12,-565.85 103.88,-565.85 103.88,-565.85 97.88,-565.85 91.88,-559.85 91.88,-553.85 91.88,-553.85 91.88,-541.85 91.88,-541.85 91.88,-535.85 97.88,-529.85 103.88,-529.85 103.88,-529.85 212.12,-529.85 212.12,-529.85 218.12,-529.85 224.12,-535.85 224.12,-541.85 224.12,-541.85 224.12,-553.85 224.12,-553.85 224.12,-559.85 218.12,-565.85 212.12,-565.85"/>
<text text-anchor="middle" x="158" y="-549.6" font-family="Helvetica,sans-Serif" font-size="10.00">MidRegime/GeomCovFree</text>
<text text-anchor="middle" x="158" y="-538.35" font-family="Helvetica,sans-Serif" font-size="10.00">160 LOC</text>
</g>
<!-- Det_Mid_GCF&#45;&gt;Det_Deep_GCov -->
<g id="edge11" class="edge">
<title>Det_Mid_GCF&#45;&gt;Det_Deep_GCov</title>
<path fill="none" stroke="#666666" d="M196.82,-566.29C236.51,-584.12 299.17,-612.27 348.48,-634.42"/>
<polygon fill="#666666" stroke="#666666" points="347.32,-636.21 353.66,-636.75 349.05,-632.37 347.32,-636.21"/>
</g>
<!-- Det_Mid_GCF&#45;&gt;Det_Mid_FI -->
<g id="edge12" class="edge">
<title>Det_Mid_GCF&#45;&gt;Det_Mid_FI</title>
<path fill="none" stroke="#666666" d="M158,-566.16C158,-585.28 158,-616.37 158,-639.16"/>
<polygon fill="#666666" stroke="#666666" points="155.9,-639.03 158,-645.03 160.1,-639.03 155.9,-639.03"/>
</g>
<!-- Det_Ind_TI -->
<g id="node13" class="node">
<title>Det_Ind_TI</title>
<path fill="#efefef" stroke="#666666" stroke-width="2" d="M812.62,-807.1C812.62,-807.1 743.38,-807.1 743.38,-807.1 737.38,-807.1 731.38,-801.1 731.38,-795.1 731.38,-795.1 731.38,-775.9 731.38,-775.9 731.38,-769.9 737.38,-763.9 743.38,-763.9 743.38,-763.9 812.62,-763.9 812.62,-763.9 818.62,-763.9 824.62,-769.9 824.62,-775.9 824.62,-775.9 824.62,-795.1 824.62,-795.1 824.62,-801.1 818.62,-807.1 812.62,-807.1"/>
<text text-anchor="middle" x="778" y="-787.25" font-family="Helvetica,sans-Serif" font-size="10.00">TriangleIndicators</text>
<text text-anchor="middle" x="778" y="-776" font-family="Helvetica,sans-Serif" font-size="10.00">332 LOC</text>
</g>
<!-- Det_Ind_TI&#45;&gt;Det_Core_Meas -->
<g id="edge13" class="edge">
<title>Det_Ind_TI&#45;&gt;Det_Core_Meas</title>
<path fill="none" stroke="#666666" d="M730.44,-801.51C689.57,-813.94 628.88,-831.34 575,-842.5 549.95,-847.69 541.81,-841.13 518,-850.5 504.53,-855.8 491.16,-864.13 479.71,-872.46"/>
<polygon fill="#666666" stroke="#666666" points="478.66,-870.62 475.12,-875.9 481.18,-873.99 478.66,-870.62"/>
</g>
<!-- Det_Ind_VI -->
<g id="node14" class="node">
<title>Det_Ind_VI</title>
<path fill="#efefef" stroke="#666666" stroke-width="1.5" d="M866,-686.9C866,-686.9 818,-686.9 818,-686.9 812,-686.9 806,-680.9 806,-674.9 806,-674.9 806,-662.9 806,-662.9 806,-656.9 812,-650.9 818,-650.9 818,-650.9 866,-650.9 866,-650.9 872,-650.9 878,-656.9 878,-662.9 878,-662.9 878,-674.9 878,-674.9 878,-680.9 872,-686.9 866,-686.9"/>
<text text-anchor="middle" x="842" y="-670.65" font-family="Helvetica,sans-Serif" font-size="10.00">VertexIndep</text>
<text text-anchor="middle" x="842" y="-659.4" font-family="Helvetica,sans-Serif" font-size="10.00">248 LOC</text>
</g>
<!-- Det_Ind_VI&#45;&gt;Det_Ind_TI -->
<g id="edge14" class="edge">
<title>Det_Ind_VI&#45;&gt;Det_Ind_TI</title>
<path fill="none" stroke="#666666" d="M832.28,-687.31C822.01,-705.69 805.67,-734.95 793.6,-756.57"/>
<polygon fill="#666666" stroke="#666666" points="791.83,-755.43 790.74,-761.69 795.49,-757.48 791.83,-755.43"/>
</g>
<!-- Det_Ind_ES -->
<g id="node15" class="node">
<title>Det_Ind_ES</title>
<path fill="#efefef" stroke="#666666" stroke-width="2" d="M810.6,-569.45C810.6,-569.45 755.4,-569.45 755.4,-569.45 749.4,-569.45 743.4,-563.45 743.4,-557.45 743.4,-557.45 743.4,-538.25 743.4,-538.25 743.4,-532.25 749.4,-526.25 755.4,-526.25 755.4,-526.25 810.6,-526.25 810.6,-526.25 816.6,-526.25 822.6,-532.25 822.6,-538.25 822.6,-538.25 822.6,-557.45 822.6,-557.45 822.6,-563.45 816.6,-569.45 810.6,-569.45"/>
<text text-anchor="middle" x="783" y="-549.6" font-family="Helvetica,sans-Serif" font-size="10.00">EdgeSharing</text>
<text text-anchor="middle" x="783" y="-538.35" font-family="Helvetica,sans-Serif" font-size="10.00">461 LOC</text>
</g>
<!-- Det_Ind_ES&#45;&gt;Det_Ind_TI -->
<g id="edge15" class="edge">
<title>Det_Ind_ES&#45;&gt;Det_Ind_TI</title>
<path fill="none" stroke="#666666" d="M782.55,-570.18C781.65,-612.66 779.63,-707.86 778.61,-755.78"/>
<polygon fill="#666666" stroke="#666666" points="776.52,-755.49 778.49,-761.54 780.71,-755.58 776.52,-755.49"/>
</g>
<!-- Det_Ind_ES&#45;&gt;Det_Ind_VI -->
<g id="edge16" class="edge">
<title>Det_Ind_ES&#45;&gt;Det_Ind_VI</title>
<path fill="none" stroke="#666666" d="M793.68,-570.41C803.99,-591.21 819.56,-622.62 830.22,-644.13"/>
<polygon fill="#666666" stroke="#666666" points="828.28,-644.94 832.83,-649.39 832.04,-643.08 828.28,-644.94"/>
</g>
<!-- Det_PT_SM -->
<g id="node16" class="node">
<title>Det_PT_SM</title>
<path fill="#efefef" stroke="#666666" stroke-width="1.5" d="M637.12,-461C637.12,-461 576.88,-461 576.88,-461 570.88,-461 564.88,-455 564.88,-449 564.88,-449 564.88,-437 564.88,-437 564.88,-431 570.88,-425 576.88,-425 576.88,-425 637.12,-425 637.12,-425 643.12,-425 649.12,-431 649.12,-437 649.12,-437 649.12,-449 649.12,-449 649.12,-455 643.12,-461 637.12,-461"/>
<text text-anchor="middle" x="607" y="-444.75" font-family="Helvetica,sans-Serif" font-size="10.00">SecondMoment</text>
<text text-anchor="middle" x="607" y="-433.5" font-family="Helvetica,sans-Serif" font-size="10.00">362 LOC</text>
</g>
<!-- Det_PT_SM&#45;&gt;Det_Deep_GCov -->
<g id="edge19" class="edge">
<title>Det_PT_SM&#45;&gt;Det_Deep_GCov</title>
<path fill="none" stroke="#666666" d="M597.33,-461.32C579.9,-491.76 541.09,-556.06 499,-603.05 489.74,-613.39 478.84,-623.61 468.23,-632.76"/>
<polygon fill="#666666" stroke="#666666" points="467.08,-630.98 463.87,-636.47 469.8,-634.18 467.08,-630.98"/>
</g>
<!-- Det_PT_SM&#45;&gt;Det_Ind_ES -->
<g id="edge18" class="edge">
<title>Det_PT_SM&#45;&gt;Det_Ind_ES</title>
<path fill="none" stroke="#666666" d="M649.56,-459.5C673.77,-469.2 704.13,-482.91 729,-499 738.67,-505.26 748.35,-513.19 756.8,-520.79"/>
<polygon fill="#666666" stroke="#666666" points="754.93,-521.92 760.77,-524.43 757.77,-518.83 754.93,-521.92"/>
</g>
<!-- Det_PT_PZ -->
<g id="node17" class="node">
<title>Det_PT_PZ</title>
<path fill="#efefef" stroke="#666666" stroke-width="1.5" d="M635.62,-366C635.62,-366 578.38,-366 578.38,-366 572.38,-366 566.38,-360 566.38,-354 566.38,-354 566.38,-342 566.38,-342 566.38,-336 572.38,-330 578.38,-330 578.38,-330 635.62,-330 635.62,-330 641.62,-330 647.62,-336 647.62,-342 647.62,-342 647.62,-354 647.62,-354 647.62,-360 641.62,-366 635.62,-366"/>
<text text-anchor="middle" x="607" y="-349.75" font-family="Helvetica,sans-Serif" font-size="10.00">PaleyZygmund</text>
<text text-anchor="middle" x="607" y="-338.5" font-family="Helvetica,sans-Serif" font-size="10.00">264 LOC</text>
</g>
<!-- Det_PT_PZ&#45;&gt;Det_Ind_ES -->
<g id="edge21" class="edge">
<title>Det_PT_PZ&#45;&gt;Det_Ind_ES</title>
<path fill="none" stroke="#666666" d="M622.31,-366.21C652.98,-400.69 722.16,-478.46 758.95,-519.81"/>
<polygon fill="#666666" stroke="#666666" points="757.35,-521.18 762.91,-524.26 760.49,-518.38 757.35,-521.18"/>
</g>
<!-- Det_PT_PZ&#45;&gt;Det_PT_SM -->
<g id="edge20" class="edge">
<title>Det_PT_PZ&#45;&gt;Det_PT_SM</title>
<path fill="none" stroke="#666666" d="M607,-366.49C607,-380.78 607,-401.15 607,-417.14"/>
<polygon fill="#666666" stroke="#666666" points="604.9,-417.07 607,-423.07 609.1,-417.07 604.9,-417.07"/>
</g>
<!-- Det_PT_Cheb -->
<g id="node18" class="node">
<title>Det_PT_Cheb</title>
<path fill="#efefef" stroke="#666666" stroke-width="1.5" d="M525,-366C525,-366 477,-366 477,-366 471,-366 465,-360 465,-354 465,-354 465,-342 465,-342 465,-336 471,-330 477,-330 477,-330 525,-330 525,-330 531,-330 537,-336 537,-342 537,-342 537,-354 537,-354 537,-360 531,-366 525,-366"/>
<text text-anchor="middle" x="501" y="-349.75" font-family="Helvetica,sans-Serif" font-size="10.00">Chebyshev</text>
<text text-anchor="middle" x="501" y="-338.5" font-family="Helvetica,sans-Serif" font-size="10.00">163 LOC</text>
</g>
<!-- Det_PT_Cheb&#45;&gt;Det_Deep_GCov -->
<g id="edge17" class="edge">
<title>Det_PT_Cheb&#45;&gt;Det_Deep_GCov</title>
<path fill="none" stroke="#666666" d="M497.5,-366.36C489.09,-407.63 466.65,-514.78 443,-603.05 440.62,-611.94 437.83,-621.44 435.1,-630.36"/>
<polygon fill="#666666" stroke="#666666" points="433.15,-629.56 433.38,-635.91 437.16,-630.8 433.15,-629.56"/>
</g>
<!-- Det_PT_Head -->
<g id="node19" class="node">
<title>Det_PT_Head</title>
<path fill="#fff2cc" stroke="#996600" stroke-width="2.5" d="M535.62,-157.1C535.62,-157.1 466.38,-157.1 466.38,-157.1 460.38,-157.1 454.38,-151.1 454.38,-145.1 454.38,-145.1 454.38,-125.9 454.38,-125.9 454.38,-119.9 460.38,-113.9 466.38,-113.9 466.38,-113.9 535.62,-113.9 535.62,-113.9 541.62,-113.9 547.62,-119.9 547.62,-125.9 547.62,-125.9 547.62,-145.1 547.62,-145.1 547.62,-151.1 541.62,-157.1 535.62,-157.1"/>
<text text-anchor="middle" x="501" y="-142.87" font-family="Helvetica,sans-Serif" font-size="10.00">Headline</text>
<text text-anchor="middle" x="501" y="-131.62" font-family="Helvetica,sans-Serif" font-size="10.00">317 LOC</text>
<text text-anchor="middle" x="501" y="-120.37" font-family="Helvetica,sans-Serif" font-size="10.00">(phase_transition)</text>
</g>
<!-- Det_PT_Head&#45;&gt;Det_Deep_GCov -->
<g id="edge24" class="edge">
<title>Det_PT_Head&#45;&gt;Det_Deep_GCov</title>
<path fill="none" stroke="#666666" d="M486.88,-157.9C463.92,-194.85 421,-273.7 421,-347 421,-347 421,-347 421,-548.85 421,-576.08 421.53,-606.81 422.04,-630.23"/>
<polygon fill="#666666" stroke="#666666" points="419.94,-630.1 422.18,-636.05 424.14,-630.01 419.94,-630.1"/>
</g>
<!-- Det_PT_Head&#45;&gt;Det_PT_PZ -->
<g id="edge22" class="edge">
<title>Det_PT_Head&#45;&gt;Det_PT_PZ</title>
<path fill="none" stroke="#666666" d="M511.75,-157.84C531.64,-197.35 574.07,-281.61 594.92,-323.02"/>
<polygon fill="#666666" stroke="#666666" points="592.94,-323.75 597.52,-328.17 596.69,-321.86 592.94,-323.75"/>
</g>
<!-- Det_PT_Head&#45;&gt;Det_PT_Cheb -->
<g id="edge23" class="edge">
<title>Det_PT_Head&#45;&gt;Det_PT_Cheb</title>
<path fill="none" stroke="#666666" d="M501,-157.84C501,-197.1 501,-280.57 501,-322.24"/>
<polygon fill="#666666" stroke="#666666" points="498.9,-322.01 501,-328.01 503.1,-322.01 498.9,-322.01"/>
</g>
<!-- Geom_Common -->
<g id="node20" class="node">
<title>Geom_Common</title>
<path fill="#efefef" stroke="#666666" stroke-width="2" d="M702.25,-688.7C702.25,-688.7 603.75,-688.7 603.75,-688.7 597.75,-688.7 591.75,-682.7 591.75,-676.7 591.75,-676.7 591.75,-661.1 591.75,-661.1 591.75,-655.1 597.75,-649.1 603.75,-649.1 603.75,-649.1 702.25,-649.1 702.25,-649.1 708.25,-649.1 714.25,-655.1 714.25,-661.1 714.25,-661.1 714.25,-676.7 714.25,-676.7 714.25,-682.7 708.25,-688.7 702.25,-688.7"/>
<text text-anchor="middle" x="653" y="-670.65" font-family="Helvetica,sans-Serif" font-size="10.00">Geometry/Common.lean</text>
<text text-anchor="middle" x="653" y="-659.4" font-family="Helvetica,sans-Serif" font-size="10.00">177 LOC</text>
</g>
<!-- Geom_Common&#45;&gt;Core_Statistic -->
<g id="edge26" class="edge">
<title>Geom_Common&#45;&gt;Core_Statistic</title>
<path fill="none" stroke="#666666" d="M661.91,-689.31C671.38,-711.75 685,-750 685,-784.5 685,-784.5 685,-784.5 685,-1006.15 685,-1048.92 559.43,-1078.96 483.16,-1093.27"/>
<polygon fill="#666666" stroke="#666666" points="482.94,-1091.17 477.43,-1094.33 483.71,-1095.3 482.94,-1091.17"/>
</g>
<!-- Geom_Sphere -->
<g id="node21" class="node">
<title>Geom_Sphere</title>
<path fill="#f4cccc" stroke="#cc0000" stroke-width="1.5" stroke-dasharray="5,2" d="M702.62,-573.05C702.62,-573.05 603.38,-573.05 603.38,-573.05 597.38,-573.05 591.38,-567.05 591.38,-561.05 591.38,-561.05 591.38,-534.65 591.38,-534.65 591.38,-528.65 597.38,-522.65 603.38,-522.65 603.38,-522.65 702.62,-522.65 702.62,-522.65 708.62,-522.65 714.62,-528.65 714.62,-534.65 714.62,-534.65 714.62,-561.05 714.62,-561.05 714.62,-567.05 708.62,-573.05 702.62,-573.05"/>
<text text-anchor="middle" x="653" y="-555.6" font-family="Helvetica,sans-Serif" font-size="10.00">Geometry/Sphere.lean</text>
<text text-anchor="middle" x="653" y="-544.35" font-family="Helvetica,sans-Serif" font-size="10.00">881 LOC ⚠</text>
<text text-anchor="middle" x="653" y="-532.35" font-family="Helvetica,sans-Serif" font-size="10.00">(orphan — Paper&#45;2 WIP)</text>
</g>
<!-- Geom_Sphere&#45;&gt;Geom_Common -->
<g id="edge27" class="edge">
<title>Geom_Sphere&#45;&gt;Geom_Common</title>
<path fill="none" stroke="#666666" d="M653,-573.52C653,-593.2 653,-620.75 653,-641"/>
<polygon fill="#666666" stroke="#666666" points="650.9,-640.86 653,-646.86 655.1,-640.86 650.9,-640.86"/>
</g>
<!-- Geom_TorusLInf -->
<g id="node22" class="node">
<title>Geom_TorusLInf</title>
<path fill="#ffffff" stroke="#666666" stroke-dasharray="5,2" d="M364.62,-568.72C364.62,-568.72 265.38,-568.72 265.38,-568.72 259.38,-568.72 253.38,-562.72 253.38,-556.72 253.38,-556.72 253.38,-538.97 253.38,-538.97 253.38,-532.97 259.38,-526.97 265.38,-526.97 265.38,-526.97 364.62,-526.97 364.62,-526.97 370.62,-526.97 376.62,-532.97 376.62,-538.97 376.62,-538.97 376.62,-556.72 376.62,-556.72 376.62,-562.72 370.62,-568.72 364.62,-568.72"/>
<text text-anchor="middle" x="315" y="-555.22" font-family="Helvetica,sans-Serif" font-size="10.00">Geometry/TorusLInf.lean</text>
<text text-anchor="middle" x="315" y="-543.97" font-family="Helvetica,sans-Serif" font-size="10.00">51 LOC</text>
<text text-anchor="middle" x="315" y="-532.72" font-family="Helvetica,sans-Serif" font-size="10.00">(A5 cycle resolved)</text>
</g>
<!-- Geom_TorusLInf&#45;&gt;Det_Core_Types -->
<g id="edge29" class="edge">
<title>Geom_TorusLInf&#45;&gt;Det_Core_Types</title>
<path fill="none" stroke="#7ba6c9" d="M307.2,-569.16C298.92,-592.58 287,-632.44 287,-667.9 287,-667.9 287,-667.9 287,-902.15 287,-926.16 341.58,-960.13 382.34,-982.15"/>
<polygon fill="#7ba6c9" stroke="#7ba6c9" points="381.13,-983.89 387.42,-984.87 383.11,-980.18 381.13,-983.89"/>
<text text-anchor="middle" x="297.5" y="-782.77" font-family="Times,serif" font-size="8.00" fill="#1f4e79">A5 fix</text>
</g>
<!-- Geom_TorusLInf&#45;&gt;Det_Deep_GCov -->
<g id="edge30" class="edge">
<title>Geom_TorusLInf&#45;&gt;Det_Deep_GCov</title>
<path fill="none" stroke="#7ba6c9" d="M333.32,-569.05C348.9,-586.22 371.65,-611.3 390.34,-631.9"/>
<polygon fill="#7ba6c9" stroke="#7ba6c9" points="388.64,-633.15 394.23,-636.18 391.75,-630.33 388.64,-633.15"/>
</g>
<!-- Geom_TorusLInf&#45;&gt;Geom_Common -->
<g id="edge28" class="edge">
<title>Geom_TorusLInf&#45;&gt;Geom_Common</title>
<path fill="none" stroke="#666666" d="M376.94,-565.08C418.89,-576.6 475.32,-593.16 524,-611.05 551.3,-621.08 581.05,-634.05 605.09,-645.07"/>
<polygon fill="#666666" stroke="#666666" points="604.01,-646.88 610.34,-647.48 605.77,-643.07 604.01,-646.88"/>
</g>
<!-- SD_shim -->
<g id="node23" class="node">
<title>SD_shim</title>
<path fill="#ffffff" stroke="#999999" stroke-dasharray="5,2" d="M1093.5,-156.37C1093.5,-156.37 996.5,-156.37 996.5,-156.37 990.5,-156.37 984.5,-150.37 984.5,-144.37 984.5,-144.37 984.5,-126.62 984.5,-126.62 984.5,-120.62 990.5,-114.62 996.5,-114.62 996.5,-114.62 1093.5,-114.62 1093.5,-114.62 1099.5,-114.62 1105.5,-120.62 1105.5,-126.62 1105.5,-126.62 1105.5,-144.37 1105.5,-144.37 1105.5,-150.37 1099.5,-156.37 1093.5,-156.37"/>
<text text-anchor="middle" x="1045" y="-142.87" font-family="Helvetica,sans-Serif" font-size="10.00">SimplicialDetection.lean</text>
<text text-anchor="middle" x="1045" y="-131.62" font-family="Helvetica,sans-Serif" font-size="10.00">41 LOC</text>
<text text-anchor="middle" x="1045" y="-120.37" font-family="Helvetica,sans-Serif" font-size="10.00">(vestigial shim)</text>
</g>
<!-- legend -->
<g id="node24" class="node">
<title>legend</title>
<path fill="lightgrey" stroke="none" d="M1487.5,-271C1487.5,-271 1146.5,-271 1146.5,-271 1140.5,-271 1134.5,-265 1134.5,-259 1134.5,-259 1134.5,-12 1134.5,-12 1134.5,-6 1140.5,0 1146.5,0 1146.5,0 1487.5,0 1487.5,0 1493.5,0 1499.5,-6 1499.5,-12 1499.5,-12 1499.5,-259 1499.5,-259 1499.5,-265 1493.5,-271 1487.5,-271"/>
<polygon fill="#ffffff" stroke="none" points="1142.5,-4 1142.5,-267 1491.5,-267 1491.5,-4 1142.5,-4"/>
<text text-anchor="start" x="1151.5" y="-249.5" font-family="Helvetica,sans-Serif" font-weight="bold" font-size="10.00">Post&#45;split tier&#45;1 (session 96)</text>
<polygon fill="#cfe2f3" stroke="none" points="1147.5,-220 1147.5,-239 1274.5,-239 1274.5,-220 1147.5,-220"/>
<text text-anchor="start" x="1282.5" y="-225.5" font-family="Helvetica,sans-Serif" font-size="10.00">foundation</text>
<polygon fill="#fff2cc" stroke="none" points="1147.5,-197 1147.5,-216 1274.5,-216 1274.5,-197 1147.5,-197"/>
<text text-anchor="start" x="1282.5" y="-202.5" font-family="Helvetica,sans-Serif" font-size="10.00">headline</text>
<polygon fill="#efefef" stroke="none" points="1147.5,-174 1147.5,-193 1274.5,-193 1274.5,-174 1147.5,-174"/>
<text text-anchor="start" x="1282.5" y="-179.5" font-family="Helvetica,sans-Serif" font-size="10.00">helper</text>
<polygon fill="#f4cccc" stroke="none" points="1147.5,-151 1147.5,-170 1274.5,-170 1274.5,-151 1147.5,-151"/>
<text text-anchor="start" x="1282.5" y="-156.5" font-family="Helvetica,sans-Serif" font-size="10.00">over 800 LOC</text>
<polygon fill="#ffffff" stroke="none" points="1147.5,-124 1147.5,-147 1274.5,-147 1274.5,-124 1147.5,-124"/>
<text text-anchor="start" x="1201.25" y="-133.5" font-family="Helvetica,sans-Serif" font-size="10.00">┄┄</text>
<text text-anchor="start" x="1282.5" y="-131.62" font-family="Helvetica,sans-Serif" font-size="10.00">orphan / leaf / vestigial</text>
<text text-anchor="start" x="1258.5" y="-106.5" font-family="Helvetica,sans-Serif" font-size="10.00">────────────</text>
<text text-anchor="start" x="1244.5" y="-84.5" font-family="Helvetica,sans-Serif" font-weight="bold" font-size="10.00">Was: 1 god&#45;module 5606 LOC.</text>
<text text-anchor="start" x="1232.12" y="-74.5" font-family="Helvetica,sans-Serif" font-weight="bold" font-size="10.00">Now: 15 sub&#45;modules, largest 1035.</text>
<text text-anchor="start" x="1207" y="-64.5" font-family="Helvetica,sans-Serif" font-size="10.00">3 red files remain: TorusIntegrals (separate audit),</text>
<text text-anchor="start" x="1198.38" y="-54.5" font-family="Helvetica,sans-Serif" font-size="10.00">Sphere (Paper&#45;2 WIP, OK), GeometricCov (new ⚠ —</text>
<text text-anchor="start" x="1205.88" y="-44.5" font-family="Helvetica,sans-Serif" font-size="10.00">cechDoublySigned_triangle_integral 310&#45;LOC decl</text>
<text text-anchor="start" x="1253.88" y="-34.5" font-family="Helvetica,sans-Serif" font-size="10.00">could split further; deferred).</text>
<text text-anchor="start" x="1151.5" y="-24.5" font-family="Helvetica,sans-Serif" font-size="10.00">A5 cycle resolved: TorusLInf → Core/Types + DeepRegime/GeometricCov.</text>
<text text-anchor="start" x="1200.62" y="-14.5" font-family="Helvetica,sans-Serif" font-size="10.00">SimplicialDetection.lean now 41&#45;LOC vestigial shim.</text>
<polygon fill="none" stroke="#bbbbbb" points="1142.5,-4 1142.5,-267 1491.5,-267 1491.5,-4 1142.5,-4"/>
</g>
</g>
</svg>
