<?xml version="1.0" encoding="UTF-8" standalone="no"?>
<!DOCTYPE svg PUBLIC "-//W3C//DTD SVG 1.1//EN"
 "http://www.w3.org/Graphics/SVG/1.1/DTD/svg11.dtd">
<!-- Generated by graphviz version 12.1.2 (20240928.0832)
 -->
<!-- Title: Simplicial_ClusterSummary Pages: 1 -->
<svg width="1416pt" height="1118pt"
 viewBox="0.00 0.00 1415.90 1117.65" xmlns="http://www.w3.org/2000/svg" xmlns:xlink="http://www.w3.org/1999/xlink">
<g id="graph0" class="graph" transform="scale(1 1) rotate(0) translate(36 1081.65)">
<title>Simplicial_ClusterSummary</title>
<polygon fill="#fafafa" stroke="none" points="-36,36 -36,-1081.65 1379.9,-1081.65 1379.9,36 -36,36"/>
<g id="clust1" class="cluster">
<title>cluster_deep</title>
<path fill="#fafafa" stroke="#999999" stroke-dasharray="5,2" d="M371.4,-561.25C371.4,-561.25 518.4,-561.25 518.4,-561.25 524.4,-561.25 530.4,-567.25 530.4,-573.25 530.4,-573.25 530.4,-918.25 530.4,-918.25 530.4,-924.25 524.4,-930.25 518.4,-930.25 518.4,-930.25 371.4,-930.25 371.4,-930.25 365.4,-930.25 359.4,-924.25 359.4,-918.25 359.4,-918.25 359.4,-573.25 359.4,-573.25 359.4,-567.25 365.4,-561.25 371.4,-561.25"/>
<text text-anchor="middle" x="444.9" y="-567" font-family="Helvetica,sans-Serif" font-size="10.00">DeepRegime/ &#160;(low&#45;r, original Čech)</text>
</g>
<g id="clust2" class="cluster">
<title>cluster_mid</title>
<path fill="#fafafa" stroke="#999999" stroke-dasharray="5,2" d="M611.4,-844.6C611.4,-844.6 977.4,-844.6 977.4,-844.6 983.4,-844.6 989.4,-850.6 989.4,-856.6 989.4,-856.6 989.4,-918.25 989.4,-918.25 989.4,-924.25 983.4,-930.25 977.4,-930.25 977.4,-930.25 611.4,-930.25 611.4,-930.25 605.4,-930.25 599.4,-924.25 599.4,-918.25 599.4,-918.25 599.4,-856.6 599.4,-856.6 599.4,-850.6 605.4,-844.6 611.4,-844.6"/>
<text text-anchor="middle" x="794.4" y="-850.35" font-family="Helvetica,sans-Serif" font-size="10.00">MidRegime/ &#160;(r in (1/3, 1/2], Rips refactor)</text>
</g>
<g id="clust3" class="cluster">
<title>cluster_indep</title>
<path fill="#fafafa" stroke="#999999" stroke-dasharray="5,2" d="M146.4,-279.85C146.4,-279.85 378.4,-279.85 378.4,-279.85 384.4,-279.85 390.4,-285.85 390.4,-291.85 390.4,-291.85 390.4,-496 390.4,-496 390.4,-502 384.4,-508 378.4,-508 378.4,-508 146.4,-508 146.4,-508 140.4,-508 134.4,-502 134.4,-496 134.4,-496 134.4,-291.85 134.4,-291.85 134.4,-285.85 140.4,-279.85 146.4,-279.85"/>
<text text-anchor="middle" x="262.4" y="-285.6" font-family="Helvetica,sans-Serif" font-size="10.00">Independence/ &#160;(vertex/edge sharing, indep covariance)</text>
</g>
<g id="clust4" class="cluster">
<title>cluster_det</title>
<path fill="#fafafa" stroke="#999999" stroke-dasharray="5,2" d="M287.4,-55.05C287.4,-55.05 790.4,-55.05 790.4,-55.05 796.4,-55.05 802.4,-61.05 802.4,-67.05 802.4,-67.05 802.4,-128.7 802.4,-128.7 802.4,-134.7 796.4,-140.7 790.4,-140.7 790.4,-140.7 287.4,-140.7 287.4,-140.7 281.4,-140.7 275.4,-134.7 275.4,-128.7 275.4,-128.7 275.4,-67.05 275.4,-67.05 275.4,-61.05 281.4,-55.05 287.4,-55.05"/>
<text text-anchor="middle" x="538.9" y="-60.8" font-family="Helvetica,sans-Serif" font-size="10.00">Detection/ &#160;(Chebyshev + Paley&#45;Zygmund + phase transition)</text>
</g>
<!-- Types -->
<g id="node1" class="node">
<title>Types</title>
<path fill="#cfe2f3" stroke="#1f4e79" stroke-width="4" d="M464.27,-1045.65C464.27,-1045.65 390.52,-1045.65 390.52,-1045.65 384.52,-1045.65 378.52,-1039.65 378.52,-1033.65 378.52,-1033.65 378.52,-1007.25 378.52,-1007.25 378.52,-1001.25 384.52,-995.25 390.52,-995.25 390.52,-995.25 464.27,-995.25 464.27,-995.25 470.27,-995.25 476.27,-1001.25 476.27,-1007.25 476.27,-1007.25 476.27,-1033.65 476.27,-1033.65 476.27,-1039.65 470.27,-1045.65 464.27,-1045.65"/>
<text text-anchor="middle" x="427.4" y="-1022.2" font-family="Helvetica,sans-Serif" font-size="10.00">Types</text>
<text text-anchor="middle" x="427.4" y="-1010.95" font-family="Helvetica,sans-Serif" font-size="10.00">303 LOC, 19 decls</text>
</g>
<!-- MeasureScaffold -->
<g id="node2" class="node">
<title>MeasureScaffold</title>
<path fill="#cfe2f3" stroke="#1f4e79" stroke-width="3" d="M88.8,-361.1C88.8,-361.1 12,-361.1 12,-361.1 6,-361.1 0,-355.1 0,-349.1 0,-349.1 0,-315.5 0,-315.5 0,-309.5 6,-303.5 12,-303.5 12,-303.5 88.8,-303.5 88.8,-303.5 94.8,-303.5 100.8,-309.5 100.8,-315.5 100.8,-315.5 100.8,-349.1 100.8,-349.1 100.8,-355.1 94.8,-361.1 88.8,-361.1"/>
<text text-anchor="middle" x="50.4" y="-334.05" font-family="Helvetica,sans-Serif" font-size="10.00">MeasureScaffold</text>
<text text-anchor="middle" x="50.4" y="-322.8" font-family="Helvetica,sans-Serif" font-size="10.00">464 LOC, 17 decls</text>
</g>
<!-- BetaIncomplete -->
<g id="node3" class="node">
<title>BetaIncomplete</title>
<path fill="#efefef" stroke="#666666" stroke-width="2" d="M943.4,-136.3C943.4,-136.3 849.4,-136.3 849.4,-136.3 843.4,-136.3 837.4,-130.3 837.4,-124.3 837.4,-124.3 837.4,-90.7 837.4,-90.7 837.4,-84.7 843.4,-78.7 849.4,-78.7 849.4,-78.7 943.4,-78.7 943.4,-78.7 949.4,-78.7 955.4,-84.7 955.4,-90.7 955.4,-90.7 955.4,-124.3 955.4,-124.3 955.4,-130.3 949.4,-136.3 943.4,-136.3"/>
<text text-anchor="middle" x="896.4" y="-114.88" font-family="Helvetica,sans-Serif" font-size="10.00">BetaIncomplete</text>
<text text-anchor="middle" x="896.4" y="-103.63" font-family="Helvetica,sans-Serif" font-size="10.00">243 LOC, 13 decls</text>
<text text-anchor="middle" x="896.4" y="-92.38" font-family="Helvetica,sans-Serif" font-size="10.00">(resolves OQ&#45;6 fwd&#45;ref)</text>
</g>
<!-- DeepIntegrals -->
<g id="node4" class="node">
<title>DeepIntegrals</title>
<path fill="#efefef" stroke="#666666" stroke-width="2" d="M465.8,-922.25C465.8,-922.25 389,-922.25 389,-922.25 383,-922.25 377,-916.25 377,-910.25 377,-910.25 377,-883.85 377,-883.85 377,-877.85 383,-871.85 389,-871.85 389,-871.85 465.8,-871.85 465.8,-871.85 471.8,-871.85 477.8,-877.85 477.8,-883.85 477.8,-883.85 477.8,-910.25 477.8,-910.25 477.8,-916.25 471.8,-922.25 465.8,-922.25"/>
<text text-anchor="middle" x="427.4" y="-898.8" font-family="Helvetica,sans-Serif" font-size="10.00">DeepIntegrals</text>
<text text-anchor="middle" x="427.4" y="-887.55" font-family="Helvetica,sans-Serif" font-size="10.00">430 LOC, 13 decls</text>
</g>
<!-- DeepIntegrals&#45;&gt;Types -->
<g id="edge9" class="edge">
<title>DeepIntegrals&#45;&gt;Types</title>
<path fill="none" stroke="#7ba6c9" stroke-dasharray="5,2" d="M427.4,-923.2C427.4,-941.11 427.4,-965.39 427.4,-985.08"/>
<polygon fill="#7ba6c9" stroke="#7ba6c9" points="424.95,-984.98 427.4,-991.98 429.85,-984.98 424.95,-984.98"/>
</g>
<!-- DeepCentered -->
<g id="node5" class="node">
<title>DeepCentered</title>
<path fill="#efefef" stroke="#666666" stroke-width="2" d="M465.8,-788.6C465.8,-788.6 389,-788.6 389,-788.6 383,-788.6 377,-782.6 377,-776.6 377,-776.6 377,-750.2 377,-750.2 377,-744.2 383,-738.2 389,-738.2 389,-738.2 465.8,-738.2 465.8,-738.2 471.8,-738.2 477.8,-744.2 477.8,-750.2 477.8,-750.2 477.8,-776.6 477.8,-776.6 477.8,-782.6 471.8,-788.6 465.8,-788.6"/>
<text text-anchor="middle" x="427.4" y="-765.15" font-family="Helvetica,sans-Serif" font-size="10.00">DeepCentered</text>
<text text-anchor="middle" x="427.4" y="-753.9" font-family="Helvetica,sans-Serif" font-size="10.00">536 LOC, 3 decls</text>
</g>
<!-- DeepCentered&#45;&gt;DeepIntegrals -->
<g id="edge1" class="edge">
<title>DeepCentered&#45;&gt;DeepIntegrals</title>
<path fill="none" stroke="#cc0000" stroke-width="5" d="M427.4,-789.47C427.4,-808.87 427.4,-836.06 427.4,-858.11"/>
<polygon fill="#cc0000" stroke="#cc0000" stroke-width="5" points="424.34,-857.83 427.4,-864.83 430.46,-857.83 424.34,-857.83"/>
<text text-anchor="middle" x="438.65" y="-826.35" font-family="Times,serif" font-size="10.00" fill="#cc0000">16 ⚠</text>
</g>
<!-- GeometricCov -->
<g id="node6" class="node">
<title>GeometricCov</title>
<path fill="#fff2cc" stroke="#996600" stroke-width="2.5" d="M500.4,-649.7C500.4,-649.7 412.4,-649.7 412.4,-649.7 406.4,-649.7 400.4,-643.7 400.4,-637.7 400.4,-637.7 400.4,-600.5 400.4,-600.5 400.4,-594.5 406.4,-588.5 412.4,-588.5 412.4,-588.5 500.4,-588.5 500.4,-588.5 506.4,-588.5 512.4,-594.5 512.4,-600.5 512.4,-600.5 512.4,-637.7 512.4,-637.7 512.4,-643.7 506.4,-649.7 500.4,-649.7"/>
<text text-anchor="middle" x="456.4" y="-626.48" font-family="Helvetica,sans-Serif" font-size="10.00">GeometricCov</text>
<text text-anchor="middle" x="456.4" y="-615.23" font-family="Helvetica,sans-Serif" font-size="10.00">762 LOC, 8 decls</text>
<text text-anchor="middle" x="456.4" y="-603.98" font-family="Helvetica,sans-Serif" font-size="10.00">(headline closed form)</text>
</g>
<!-- GeometricCov&#45;&gt;Types -->
<g id="edge12" class="edge">
<title>GeometricCov&#45;&gt;Types</title>
<path fill="none" stroke="#7ba6c9" stroke-dasharray="5,2" d="M470.76,-650.37C481.02,-673.76 493.94,-707.26 499.4,-738.2 514.23,-822.26 527.83,-849.77 499.4,-930.25 491.79,-951.79 476.54,-971.94 462.02,-987.62"/>
<polygon fill="#7ba6c9" stroke="#7ba6c9" points="460.4,-985.77 457.34,-992.53 463.94,-989.15 460.4,-985.77"/>
</g>
<!-- GeometricCov&#45;&gt;DeepCentered -->
<g id="edge6" class="edge">
<title>GeometricCov&#45;&gt;DeepCentered</title>
<path fill="none" stroke="#888888" stroke-width="1.5" d="M450.18,-650.63C445.51,-673.55 439.11,-704.94 434.28,-728.62"/>
<polygon fill="#888888" stroke="#888888" stroke-width="1.5" points="431.9,-728.03 432.91,-735.38 436.71,-729.01 431.9,-728.03"/>
<text text-anchor="middle" x="446.14" y="-688.9" font-family="Times,serif" font-size="14.00">4</text>
</g>
<!-- MidScaffold -->
<g id="node7" class="node">
<title>MidScaffold</title>
<path fill="#efefef" stroke="#666666" stroke-width="1.5" d="M689.2,-918.65C689.2,-918.65 619.6,-918.65 619.6,-918.65 613.6,-918.65 607.6,-912.65 607.6,-906.65 607.6,-906.65 607.6,-887.45 607.6,-887.45 607.6,-881.45 613.6,-875.45 619.6,-875.45 619.6,-875.45 689.2,-875.45 689.2,-875.45 695.2,-875.45 701.2,-881.45 701.2,-887.45 701.2,-887.45 701.2,-906.65 701.2,-906.65 701.2,-912.65 695.2,-918.65 689.2,-918.65"/>
<text text-anchor="middle" x="654.4" y="-898.8" font-family="Helvetica,sans-Serif" font-size="10.00">MidScaffold</text>
<text text-anchor="middle" x="654.4" y="-887.55" font-family="Helvetica,sans-Serif" font-size="10.00">195 LOC, 6 decls</text>
</g>
<!-- FreeIntegrals -->
<g id="node8" class="node">
<title>FreeIntegrals</title>
<path fill="#efefef" stroke="#666666" stroke-width="2" d="M832.8,-922.25C832.8,-922.25 756,-922.25 756,-922.25 750,-922.25 744,-916.25 744,-910.25 744,-910.25 744,-883.85 744,-883.85 744,-877.85 750,-871.85 756,-871.85 756,-871.85 832.8,-871.85 832.8,-871.85 838.8,-871.85 844.8,-877.85 844.8,-883.85 844.8,-883.85 844.8,-910.25 844.8,-910.25 844.8,-916.25 838.8,-922.25 832.8,-922.25"/>
<text text-anchor="middle" x="794.4" y="-898.8" font-family="Helvetica,sans-Serif" font-size="10.00">FreeIntegrals</text>
<text text-anchor="middle" x="794.4" y="-887.55" font-family="Helvetica,sans-Serif" font-size="10.00">474 LOC, 16 decls</text>
</g>
<!-- FreeIntegrals&#45;&gt;Types -->
<g id="edge13" class="edge">
<title>FreeIntegrals&#45;&gt;Types</title>
<path fill="none" stroke="#7ba6c9" stroke-dasharray="5,2" d="M743.21,-921.9C736.27,-924.85 729.2,-927.71 722.4,-930.25 641.8,-960.32 546.08,-987.8 486.02,-1004.09"/>
<polygon fill="#7ba6c9" stroke="#7ba6c9" points="485.74,-1001.63 479.62,-1005.82 487.01,-1006.36 485.74,-1001.63"/>
</g>
<!-- GeomCovFree -->
<g id="node9" class="node">
<title>GeomCovFree</title>
<path fill="#efefef" stroke="#666666" stroke-width="1.5" d="M969.2,-918.65C969.2,-918.65 899.6,-918.65 899.6,-918.65 893.6,-918.65 887.6,-912.65 887.6,-906.65 887.6,-906.65 887.6,-887.45 887.6,-887.45 887.6,-881.45 893.6,-875.45 899.6,-875.45 899.6,-875.45 969.2,-875.45 969.2,-875.45 975.2,-875.45 981.2,-881.45 981.2,-887.45 981.2,-887.45 981.2,-906.65 981.2,-906.65 981.2,-912.65 975.2,-918.65 969.2,-918.65"/>
<text text-anchor="middle" x="934.4" y="-898.8" font-family="Helvetica,sans-Serif" font-size="10.00">GeomCovFree</text>
<text text-anchor="middle" x="934.4" y="-887.55" font-family="Helvetica,sans-Serif" font-size="10.00">156 LOC, 3 decls</text>
</g>
<!-- TriangleIndicators -->
<g id="node10" class="node">
<title>TriangleIndicators</title>
<path fill="#efefef" stroke="#666666" stroke-width="2" d="M368.8,-500C368.8,-500 292,-500 292,-500 286,-500 280,-494 280,-488 280,-488 280,-461.6 280,-461.6 280,-455.6 286,-449.6 292,-449.6 292,-449.6 368.8,-449.6 368.8,-449.6 374.8,-449.6 380.8,-455.6 380.8,-461.6 380.8,-461.6 380.8,-488 380.8,-488 380.8,-494 374.8,-500 368.8,-500"/>
<text text-anchor="middle" x="330.4" y="-476.55" font-family="Helvetica,sans-Serif" font-size="10.00">TriangleIndicators</text>
<text text-anchor="middle" x="330.4" y="-465.3" font-family="Helvetica,sans-Serif" font-size="10.00">373 LOC, 7 decls</text>
</g>
<!-- TriangleIndicators&#45;&gt;Types -->
<g id="edge10" class="edge">
<title>TriangleIndicators&#45;&gt;Types</title>
<path fill="none" stroke="#7ba6c9" stroke-dasharray="5,2" d="M325.29,-500.87C319.97,-529.2 312.4,-576.76 312.4,-618.1 312.4,-618.1 312.4,-618.1 312.4,-898.05 312.4,-936.51 343.2,-967.68 372.92,-988.8"/>
<polygon fill="#7ba6c9" stroke="#7ba6c9" points="371.23,-990.61 378.38,-992.56 374,-986.57 371.23,-990.61"/>
</g>
<!-- TriangleIndicators&#45;&gt;GeometricCov -->
<g id="edge7" class="edge">
<title>TriangleIndicators&#45;&gt;GeometricCov</title>
<path fill="none" stroke="#888888" stroke-width="1.5" d="M352.64,-500.91C372.2,-523.01 400.96,-555.49 423.25,-580.66"/>
<polygon fill="#888888" stroke="#888888" stroke-width="1.5" points="421.37,-582.23 427.84,-585.85 425.03,-578.98 421.37,-582.23"/>
<text text-anchor="middle" x="400.55" y="-539.2" font-family="Times,serif" font-size="14.00">4</text>
</g>
<!-- VertexIndep -->
<g id="node11" class="node">
<title>VertexIndep</title>
<path fill="#efefef" stroke="#666666" stroke-width="1.5" d="M225.2,-353.9C225.2,-353.9 155.6,-353.9 155.6,-353.9 149.6,-353.9 143.6,-347.9 143.6,-341.9 143.6,-341.9 143.6,-322.7 143.6,-322.7 143.6,-316.7 149.6,-310.7 155.6,-310.7 155.6,-310.7 225.2,-310.7 225.2,-310.7 231.2,-310.7 237.2,-316.7 237.2,-322.7 237.2,-322.7 237.2,-341.9 237.2,-341.9 237.2,-347.9 231.2,-353.9 225.2,-353.9"/>
<text text-anchor="middle" x="190.4" y="-334.05" font-family="Helvetica,sans-Serif" font-size="10.00">VertexIndep</text>
<text text-anchor="middle" x="190.4" y="-322.8" font-family="Helvetica,sans-Serif" font-size="10.00">162 LOC, 6 decls</text>
</g>
<!-- EdgeSharing -->
<g id="node12" class="node">
<title>EdgeSharing</title>
<path fill="#efefef" stroke="#666666" stroke-width="2" d="M368.8,-357.5C368.8,-357.5 292,-357.5 292,-357.5 286,-357.5 280,-351.5 280,-345.5 280,-345.5 280,-319.1 280,-319.1 280,-313.1 286,-307.1 292,-307.1 292,-307.1 368.8,-307.1 368.8,-307.1 374.8,-307.1 380.8,-313.1 380.8,-319.1 380.8,-319.1 380.8,-345.5 380.8,-345.5 380.8,-351.5 374.8,-357.5 368.8,-357.5"/>
<text text-anchor="middle" x="330.4" y="-334.05" font-family="Helvetica,sans-Serif" font-size="10.00">EdgeSharing</text>
<text text-anchor="middle" x="330.4" y="-322.8" font-family="Helvetica,sans-Serif" font-size="10.00">453 LOC, 6 decls</text>
</g>
<!-- EdgeSharing&#45;&gt;Types -->
<g id="edge11" class="edge">
<title>EdgeSharing&#45;&gt;Types</title>
<path fill="none" stroke="#7ba6c9" stroke-dasharray="5,2" d="M291.47,-358.36C258.1,-383.21 215.4,-424.63 215.4,-473.8 215.4,-473.8 215.4,-473.8 215.4,-898.05 215.4,-968.88 305.62,-998.96 368.35,-1011.32"/>
<polygon fill="#7ba6c9" stroke="#7ba6c9" points="367.8,-1013.71 375.13,-1012.59 368.71,-1008.89 367.8,-1013.71"/>
</g>
<!-- EdgeSharing&#45;&gt;TriangleIndicators -->
<g id="edge3" class="edge">
<title>EdgeSharing&#45;&gt;TriangleIndicators</title>
<path fill="none" stroke="#444444" stroke-width="2" d="M330.4,-358.42C330.4,-380.9 330.4,-414.06 330.4,-439.07"/>
<polygon fill="#444444" stroke="#444444" stroke-width="2" points="327.95,-438.87 330.4,-445.87 332.85,-438.87 327.95,-438.87"/>
<text text-anchor="middle" x="333.77" y="-400.3" font-family="Times,serif" font-size="14.00">5</text>
</g>
<!-- SecondMoment -->
<g id="node13" class="node">
<title>SecondMoment</title>
<path fill="#efefef" stroke="#666666" stroke-width="1.5" d="M365.2,-129.1C365.2,-129.1 295.6,-129.1 295.6,-129.1 289.6,-129.1 283.6,-123.1 283.6,-117.1 283.6,-117.1 283.6,-97.9 283.6,-97.9 283.6,-91.9 289.6,-85.9 295.6,-85.9 295.6,-85.9 365.2,-85.9 365.2,-85.9 371.2,-85.9 377.2,-91.9 377.2,-97.9 377.2,-97.9 377.2,-117.1 377.2,-117.1 377.2,-123.1 371.2,-129.1 365.2,-129.1"/>
<text text-anchor="middle" x="330.4" y="-109.25" font-family="Helvetica,sans-Serif" font-size="10.00">SecondMoment</text>
<text text-anchor="middle" x="330.4" y="-98" font-family="Helvetica,sans-Serif" font-size="10.00">293 LOC, 4 decls</text>
</g>
<!-- SecondMoment&#45;&gt;MeasureScaffold -->
<g id="edge14" class="edge">
<title>SecondMoment&#45;&gt;MeasureScaffold</title>
<path fill="none" stroke="#7ba6c9" stroke-dasharray="5,2" d="M304.06,-129.46C255.69,-167.95 152.3,-250.22 93.54,-296.97"/>
<polygon fill="#7ba6c9" stroke="#7ba6c9" points="92.09,-295 88.14,-301.27 95.14,-298.83 92.09,-295"/>
</g>
<!-- SecondMoment&#45;&gt;GeometricCov -->
<g id="edge2" class="edge">
<title>SecondMoment&#45;&gt;GeometricCov</title>
<path fill="none" stroke="#444444" stroke-width="2.5" d="M340.82,-129.59C356.12,-161.4 384.55,-223.89 400.4,-279.85 430.14,-384.88 446.01,-513.01 452.62,-577.25"/>
<polygon fill="#444444" stroke="#444444" stroke-width="2.5" points="450.16,-577.26 453.29,-583.98 455.03,-576.77 450.16,-577.26"/>
<text text-anchor="middle" x="432.94" y="-400.3" font-family="Times,serif" font-size="14.00">7</text>
</g>
<!-- SecondMoment&#45;&gt;EdgeSharing -->
<g id="edge4" class="edge">
<title>SecondMoment&#45;&gt;EdgeSharing</title>
<path fill="none" stroke="#444444" stroke-width="2" d="M330.4,-129.46C330.4,-167.73 330.4,-249.28 330.4,-296.17"/>
<polygon fill="#444444" stroke="#444444" stroke-width="2" points="327.95,-296.15 330.4,-303.15 332.85,-296.15 327.95,-296.15"/>
<text text-anchor="middle" x="333.77" y="-254.2" font-family="Times,serif" font-size="14.00">5</text>
</g>
<!-- PaleyZygmund -->
<g id="node14" class="node">
<title>PaleyZygmund</title>
<path fill="#efefef" stroke="#666666" stroke-width="1.5" d="M502.2,-129.1C502.2,-129.1 432.6,-129.1 432.6,-129.1 426.6,-129.1 420.6,-123.1 420.6,-117.1 420.6,-117.1 420.6,-97.9 420.6,-97.9 420.6,-91.9 426.6,-85.9 432.6,-85.9 432.6,-85.9 502.2,-85.9 502.2,-85.9 508.2,-85.9 514.2,-91.9 514.2,-97.9 514.2,-97.9 514.2,-117.1 514.2,-117.1 514.2,-123.1 508.2,-129.1 502.2,-129.1"/>
<text text-anchor="middle" x="467.4" y="-109.25" font-family="Helvetica,sans-Serif" font-size="10.00">PaleyZygmund</text>
<text text-anchor="middle" x="467.4" y="-98" font-family="Helvetica,sans-Serif" font-size="10.00">301 LOC, 3 decls</text>
</g>
<!-- PaleyZygmund&#45;&gt;GeometricCov -->
<g id="edge8" class="edge">
<title>PaleyZygmund&#45;&gt;GeometricCov</title>
<path fill="none" stroke="#888888" stroke-width="1.5" d="M469.31,-129.24C471.77,-156.96 475.88,-207.63 477.4,-251 482.09,-384.92 498.07,-420.1 477.4,-552.5 476.04,-561.18 473.74,-570.28 471.14,-578.85"/>
<polygon fill="#888888" stroke="#888888" stroke-width="1.5" points="468.85,-577.97 469.04,-585.38 473.51,-579.46 468.85,-577.97"/>
<text text-anchor="middle" x="490.69" y="-400.3" font-family="Times,serif" font-size="14.00">4</text>
</g>
<!-- Chebyshev -->
<g id="node15" class="node">
<title>Chebyshev</title>
<path fill="#efefef" stroke="#666666" stroke-width="1.5" d="M639.2,-129.1C639.2,-129.1 569.6,-129.1 569.6,-129.1 563.6,-129.1 557.6,-123.1 557.6,-117.1 557.6,-117.1 557.6,-97.9 557.6,-97.9 557.6,-91.9 563.6,-85.9 569.6,-85.9 569.6,-85.9 639.2,-85.9 639.2,-85.9 645.2,-85.9 651.2,-91.9 651.2,-97.9 651.2,-97.9 651.2,-117.1 651.2,-117.1 651.2,-123.1 645.2,-129.1 639.2,-129.1"/>
<text text-anchor="middle" x="604.4" y="-109.25" font-family="Helvetica,sans-Serif" font-size="10.00">Chebyshev</text>
<text text-anchor="middle" x="604.4" y="-98" font-family="Helvetica,sans-Serif" font-size="10.00">189 LOC, 3 decls</text>
</g>
<!-- Headline -->
<g id="node16" class="node">
<title>Headline</title>
<path fill="#fff2cc" stroke="#996600" stroke-width="2" d="M782.8,-132.7C782.8,-132.7 706,-132.7 706,-132.7 700,-132.7 694,-126.7 694,-120.7 694,-120.7 694,-94.3 694,-94.3 694,-88.3 700,-82.3 706,-82.3 706,-82.3 782.8,-82.3 782.8,-82.3 788.8,-82.3 794.8,-88.3 794.8,-94.3 794.8,-94.3 794.8,-120.7 794.8,-120.7 794.8,-126.7 788.8,-132.7 782.8,-132.7"/>
<text text-anchor="middle" x="744.4" y="-114.88" font-family="Helvetica,sans-Serif" font-size="10.00">Headline</text>
<text text-anchor="middle" x="744.4" y="-103.63" font-family="Helvetica,sans-Serif" font-size="10.00">250 LOC, 5 decls</text>
<text text-anchor="middle" x="744.4" y="-92.38" font-family="Helvetica,sans-Serif" font-size="10.00">(phase_transition)</text>
</g>
<!-- Headline&#45;&gt;GeometricCov -->
<g id="edge5" class="edge">
<title>Headline&#45;&gt;GeometricCov</title>
<path fill="none" stroke="#444444" stroke-width="2" d="M733.39,-133.56C702.51,-202.8 610.76,-401.59 510.4,-552.5 504.21,-561.81 496.95,-571.36 489.8,-580.19"/>
<polygon fill="#444444" stroke="#444444" stroke-width="2" points="488.06,-578.44 485.5,-585.4 491.84,-581.56 488.06,-578.44"/>
<text text-anchor="middle" x="606.27" y="-400.3" font-family="Times,serif" font-size="14.00">5</text>
</g>
<!-- legend -->
<g id="node17" class="node">
<title>legend</title>
<path fill="lightgrey" stroke="none" d="M1331.9,-215C1331.9,-215 1010.9,-215 1010.9,-215 1004.9,-215 998.9,-209 998.9,-203 998.9,-203 998.9,-12 998.9,-12 998.9,-6 1004.9,0 1010.9,0 1010.9,0 1331.9,0 1331.9,0 1337.9,0 1343.9,-6 1343.9,-12 1343.9,-12 1343.9,-203 1343.9,-203 1343.9,-209 1337.9,-215 1331.9,-215"/>
<polygon fill="#ffffff" stroke="none" points="1006.9,-4 1006.9,-211 1335.9,-211 1335.9,-4 1006.9,-4"/>
<text text-anchor="start" x="1015.9" y="-193.5" font-family="Helvetica,sans-Serif" font-weight="bold" font-size="10.00">Cluster summary — SimplicialDetection.lean (5606 LOC)</text>
<polygon fill="#cfe2f3" stroke="none" points="1011.9,-164 1011.9,-183 1140.9,-183 1140.9,-164 1011.9,-164"/>
<text text-anchor="start" x="1148.9" y="-169.5" font-family="Helvetica,sans-Serif" font-size="10.00">foundation</text>
<polygon fill="#fff2cc" stroke="none" points="1011.9,-141 1011.9,-160 1140.9,-160 1140.9,-141 1011.9,-141"/>
<text text-anchor="start" x="1148.9" y="-146.5" font-family="Helvetica,sans-Serif" font-size="10.00">headline&#45;bearing</text>
<polygon fill="#efefef" stroke="none" points="1011.9,-118 1011.9,-137 1140.9,-137 1140.9,-118 1011.9,-118"/>
<text text-anchor="start" x="1148.9" y="-123.5" font-family="Helvetica,sans-Serif" font-size="10.00">helper cluster</text>
<text text-anchor="start" x="1112.9" y="-100.5" font-family="Helvetica,sans-Serif" font-size="10.00">────────────</text>
<text text-anchor="start" x="1053.4" y="-78.5" font-family="Helvetica,sans-Serif" font-weight="bold" font-size="10.00">16 candidate sub&#45;files</text>
<text text-anchor="start" x="1154.65" y="-78.5" font-family="Helvetica,sans-Serif" font-size="10.00"> grouped into 4 sub&#45;packages.</text>
<text text-anchor="start" x="1015.9" y="-68.5" font-family="Helvetica,sans-Serif" font-weight="bold" font-size="10.00">1 mandatory merge: DeepCentered+DeepIntegrals (16&#45;edge bond).</text>
<text text-anchor="start" x="1069.15" y="-58.5" font-family="Helvetica,sans-Serif" font-size="10.00">All other inter&#45;cluster edges ≤ 7, partition&#45;safe.</text>
<text text-anchor="start" x="1044.4" y="-48.5" font-family="Helvetica,sans-Serif" font-size="10.00">Foundation edges (dashed blue) are the expected pattern.</text>
<text text-anchor="start" x="1015.9" y="-25.5" font-family="Helvetica,sans-Serif" font-size="10.00">edge weight = # cross&#45;cluster math edges (only ≥4 drawn).</text>
<text text-anchor="start" x="1107.03" y="-14.25" font-family="Helvetica,sans-Serif" font-size="10.00">node size ∝ LOC</text>
<polygon fill="none" stroke="#bbbbbb" points="1006.9,-4 1006.9,-211 1335.9,-211 1335.9,-4 1006.9,-4"/>
</g>
</g>
</svg>
