<?xml version="1.0" encoding="UTF-8" standalone="no"?>
<!DOCTYPE svg PUBLIC "-//W3C//DTD SVG 1.1//EN"
 "http://www.w3.org/Graphics/SVG/1.1/DTD/svg11.dtd">
<!-- Generated by graphviz version 12.1.2 (20240928.0832)
 -->
<!-- Title: SimplicialLatentGeometry_Import_Tier1 Pages: 1 -->
<svg width="813pt" height="722pt"
 viewBox="0.00 0.00 812.50 722.10" xmlns="http://www.w3.org/2000/svg" xmlns:xlink="http://www.w3.org/1999/xlink">
<g id="graph0" class="graph" transform="scale(1 1) rotate(0) translate(36 686.1)">
<title>SimplicialLatentGeometry_Import_Tier1</title>
<polygon fill="#fafafa" stroke="none" points="-36,36 -36,-686.1 776.5,-686.1 776.5,36 -36,36"/>
<g id="clust1" class="cluster">
<title>cluster_geom</title>
<path fill="#fafafa" stroke="#999999" stroke-dasharray="5,2" d="M20,-74.8C20,-74.8 296,-74.8 296,-74.8 302,-74.8 308,-80.8 308,-86.8 308,-86.8 308,-389.7 308,-389.7 308,-395.7 302,-401.7 296,-401.7 296,-401.7 20,-401.7 20,-401.7 14,-401.7 8,-395.7 8,-389.7 8,-389.7 8,-86.8 8,-86.8 8,-80.8 14,-74.8 20,-74.8"/>
<text text-anchor="middle" x="158" y="-80.35" font-family="Helvetica,sans-Serif" font-size="11.00">Geometry/ &#160;(typeclass + per&#45;geometry instances)</text>
</g>
<!-- Core_Statistic -->
<g id="node1" class="node">
<title>Core_Statistic</title>
<path fill="#cfe2f3" stroke="#1f4e79" stroke-width="3.5" d="M224.88,-650.1C224.88,-650.1 145.12,-650.1 145.12,-650.1 139.12,-650.1 133.12,-644.1 133.12,-638.1 133.12,-638.1 133.12,-618.9 133.12,-618.9 133.12,-612.9 139.12,-606.9 145.12,-606.9 145.12,-606.9 224.88,-606.9 224.88,-606.9 230.88,-606.9 236.88,-612.9 236.88,-618.9 236.88,-618.9 236.88,-638.1 236.88,-638.1 236.88,-644.1 230.88,-650.1 224.88,-650.1"/>
<text text-anchor="middle" x="185" y="-630.05" font-family="Helvetica,sans-Serif" font-size="11.00">Core/Statistic.lean</text>
<text text-anchor="middle" x="185" y="-618.05" font-family="Helvetica,sans-Serif" font-size="11.00">83 LOC</text>
</g>
<!-- Core_Detection -->
<g id="node2" class="node">
<title>Core_Detection</title>
<path fill="#efefef" stroke="#666666" stroke-width="2" d="M340,-534.5C340,-534.5 252,-534.5 252,-534.5 246,-534.5 240,-528.5 240,-522.5 240,-522.5 240,-496.1 240,-496.1 240,-490.1 246,-484.1 252,-484.1 252,-484.1 340,-484.1 340,-484.1 346,-484.1 352,-490.1 352,-496.1 352,-496.1 352,-522.5 352,-522.5 352,-528.5 346,-534.5 340,-534.5"/>
<text text-anchor="middle" x="296" y="-510.85" font-family="Helvetica,sans-Serif" font-size="11.00">Core/Detection.lean</text>
<text text-anchor="middle" x="296" y="-498.85" font-family="Helvetica,sans-Serif" font-size="11.00">669 LOC</text>
</g>
<!-- Core_Detection&#45;&gt;Core_Statistic -->
<g id="edge1" class="edge">
<title>Core_Detection&#45;&gt;Core_Statistic</title>
<path fill="none" stroke="#666666" d="M272.19,-535.44C254.37,-554.26 230,-579.99 211.55,-599.47"/>
<polygon fill="#666666" stroke="#666666" points="209.86,-597.69 206.82,-604.46 213.42,-601.06 209.86,-597.69"/>
</g>
<!-- Geometry_Common -->
<g id="node3" class="node">
<title>Geometry_Common</title>
<path fill="#efefef" stroke="#666666" stroke-width="2.5" d="M165.88,-393.7C165.88,-393.7 56.12,-393.7 56.12,-393.7 50.12,-393.7 44.12,-387.7 44.12,-381.7 44.12,-381.7 44.12,-362.5 44.12,-362.5 44.12,-356.5 50.12,-350.5 56.12,-350.5 56.12,-350.5 165.88,-350.5 165.88,-350.5 171.88,-350.5 177.88,-356.5 177.88,-362.5 177.88,-362.5 177.88,-381.7 177.88,-381.7 177.88,-387.7 171.88,-393.7 165.88,-393.7"/>
<text text-anchor="middle" x="111" y="-373.65" font-family="Helvetica,sans-Serif" font-size="11.00">Geometry/Common.lean</text>
<text text-anchor="middle" x="111" y="-361.65" font-family="Helvetica,sans-Serif" font-size="11.00">177 LOC</text>
</g>
<!-- Geometry_Common&#45;&gt;Core_Statistic -->
<g id="edge2" class="edge">
<title>Geometry_Common&#45;&gt;Core_Statistic</title>
<path fill="none" stroke="#666666" d="M114.04,-394.43C119.76,-431.68 133.67,-510.65 157,-573.9 160,-582.03 163.97,-590.48 167.98,-598.21"/>
<polygon fill="#666666" stroke="#666666" points="165.79,-599.31 171.25,-604.32 170.11,-596.99 165.79,-599.31"/>
</g>
<!-- Geometry_Sphere -->
<g id="node4" class="node">
<title>Geometry_Sphere</title>
<path fill="#f4cccc" stroke="#cc0000" stroke-width="2" stroke-dasharray="5,2" d="M128.38,-153.2C128.38,-153.2 27.62,-153.2 27.62,-153.2 21.63,-153.2 15.63,-147.2 15.63,-141.2 15.63,-141.2 15.63,-114.8 15.63,-114.8 15.63,-108.8 21.63,-102.8 27.63,-102.8 27.63,-102.8 128.38,-102.8 128.38,-102.8 134.38,-102.8 140.38,-108.8 140.38,-114.8 140.38,-114.8 140.38,-141.2 140.38,-141.2 140.38,-147.2 134.38,-153.2 128.38,-153.2"/>
<text text-anchor="middle" x="78" y="-129.93" font-family="Helvetica,sans-Serif" font-size="11.00">Geometry/Sphere.lean</text>
<text text-anchor="middle" x="78" y="-117.92" font-family="Helvetica,sans-Serif" font-size="11.00">881 LOC ⚠</text>
</g>
<!-- Geometry_Sphere&#45;&gt;Geometry_Common -->
<g id="edge3" class="edge">
<title>Geometry_Sphere&#45;&gt;Geometry_Common</title>
<path fill="none" stroke="#666666" d="M81.41,-154C87.54,-199.02 100.42,-293.5 106.98,-341.6"/>
<polygon fill="#666666" stroke="#666666" points="104.51,-341.64 107.88,-348.25 109.37,-340.98 104.51,-341.64"/>
</g>
<!-- Geometry_TorusLInf -->
<g id="node5" class="node">
<title>Geometry_TorusLInf</title>
<path fill="#ffffff" stroke="#999999" stroke-dasharray="5,2" d="M287.62,-147.8C287.62,-147.8 188.38,-147.8 188.38,-147.8 182.38,-147.8 176.38,-141.8 176.38,-135.8 176.38,-135.8 176.38,-120.2 176.38,-120.2 176.38,-114.2 182.38,-108.2 188.38,-108.2 188.38,-108.2 287.62,-108.2 287.62,-108.2 293.62,-108.2 299.62,-114.2 299.62,-120.2 299.62,-120.2 299.62,-135.8 299.62,-135.8 299.62,-141.8 293.62,-147.8 287.62,-147.8"/>
<text text-anchor="middle" x="238" y="-129.75" font-family="Helvetica,sans-Serif" font-size="10.00">Geometry/TorusLInf.lean</text>
<text text-anchor="middle" x="238" y="-118.5" font-family="Helvetica,sans-Serif" font-size="10.00">50 LOC</text>
</g>
<!-- Geometry_TorusLInf&#45;&gt;Geometry_Common -->
<g id="edge4" class="edge">
<title>Geometry_TorusLInf&#45;&gt;Geometry_Common</title>
<path fill="none" stroke="#666666" d="M228.03,-148C205.84,-190.3 152.25,-292.47 126,-342.51"/>
<polygon fill="#666666" stroke="#666666" points="123.96,-341.12 122.88,-348.45 128.3,-343.39 123.96,-341.12"/>
</g>
<!-- SimplicialDetection -->
<g id="node8" class="node">
<title>SimplicialDetection</title>
<path fill="#f4cccc" stroke="#cc0000" stroke-width="3" d="M463.62,-411.7C463.62,-411.7 328.38,-411.7 328.38,-411.7 322.38,-411.7 316.38,-405.7 316.38,-399.7 316.38,-399.7 316.38,-344.5 316.38,-344.5 316.38,-338.5 322.38,-332.5 328.38,-332.5 328.38,-332.5 463.62,-332.5 463.62,-332.5 469.62,-332.5 475.62,-338.5 475.62,-344.5 475.62,-344.5 475.62,-399.7 475.62,-399.7 475.62,-405.7 469.62,-411.7 463.62,-411.7"/>
<text text-anchor="middle" x="396" y="-386.03" font-family="Helvetica,sans-Serif" font-size="11.00">SimplicialDetection.lean</text>
<text text-anchor="middle" x="396" y="-374.03" font-family="Helvetica,sans-Serif" font-size="11.00">5606 LOC ⚠⚠</text>
<text text-anchor="middle" x="396" y="-361.28" font-family="Helvetica,sans-Serif" font-size="11.00">132 decls, 530 intra&#45;file edges</text>
<text text-anchor="middle" x="396" y="-349.28" font-family="Helvetica,sans-Serif" font-size="11.00">(7× JEPA.lean pre&#45;split)</text>
</g>
<!-- Geometry_TorusLInf&#45;&gt;SimplicialDetection -->
<g id="edge9" class="edge">
<title>Geometry_TorusLInf&#45;&gt;SimplicialDetection</title>
<path fill="none" stroke="#cc0000" stroke-width="2" d="M249.73,-148.06C265.15,-173.01 293.2,-218.04 318,-256 332.45,-278.11 348.8,-302.35 362.78,-322.86"/>
<polygon fill="#cc0000" stroke="#cc0000" stroke-width="2" points="360.74,-324.21 366.71,-328.6 364.78,-321.44 360.74,-324.21"/>
<text text-anchor="middle" x="360.52" y="-290.95" font-family="Times,serif" font-size="9.00" fill="#cc0000">anomaly</text>
</g>
<!-- TorusIntegrals -->
<g id="node6" class="node">
<title>TorusIntegrals</title>
<path fill="#f4cccc" stroke="#cc0000" stroke-width="2" d="M482.38,-539.9C482.38,-539.9 399.62,-539.9 399.62,-539.9 393.62,-539.9 387.62,-533.9 387.62,-527.9 387.62,-527.9 387.62,-490.7 387.62,-490.7 387.62,-484.7 393.62,-478.7 399.62,-478.7 399.62,-478.7 482.38,-478.7 482.38,-478.7 488.38,-478.7 494.38,-484.7 494.38,-490.7 494.38,-490.7 494.38,-527.9 494.38,-527.9 494.38,-533.9 488.38,-539.9 482.38,-539.9"/>
<text text-anchor="middle" x="441" y="-511.23" font-family="Helvetica,sans-Serif" font-size="11.00">TorusIntegrals.lean</text>
<text text-anchor="middle" x="441" y="-499.23" font-family="Helvetica,sans-Serif" font-size="11.00">1834 LOC ⚠</text>
</g>
<!-- DisjointTriangles -->
<g id="node7" class="node">
<title>DisjointTriangles</title>
<path fill="#efefef" stroke="#666666" stroke-width="1.5" d="M637.38,-527.3C637.38,-527.3 542.62,-527.3 542.62,-527.3 536.62,-527.3 530.62,-521.3 530.62,-515.3 530.62,-515.3 530.62,-503.3 530.62,-503.3 530.62,-497.3 536.62,-491.3 542.62,-491.3 542.62,-491.3 637.38,-491.3 637.38,-491.3 643.38,-491.3 649.38,-497.3 649.38,-503.3 649.38,-503.3 649.38,-515.3 649.38,-515.3 649.38,-521.3 643.38,-527.3 637.38,-527.3"/>
<text text-anchor="middle" x="590" y="-510.85" font-family="Helvetica,sans-Serif" font-size="11.00">DisjointTriangles.lean</text>
<text text-anchor="middle" x="590" y="-498.85" font-family="Helvetica,sans-Serif" font-size="11.00">73 LOC</text>
</g>
<!-- SimplicialDetection&#45;&gt;Core_Statistic -->
<g id="edge5" class="edge">
<title>SimplicialDetection&#45;&gt;Core_Statistic</title>
<path fill="none" stroke="#666666" d="M317.64,-413.01C277.89,-434.7 235.25,-460.7 222,-478.7 196.07,-513.93 188.18,-565.24 185.86,-597.47"/>
<polygon fill="#666666" stroke="#666666" points="183.44,-596.98 185.45,-604.12 188.33,-597.28 183.44,-596.98"/>
</g>
<!-- SimplicialDetection&#45;&gt;Core_Detection -->
<g id="edge6" class="edge">
<title>SimplicialDetection&#45;&gt;Core_Detection</title>
<path fill="none" stroke="#666666" d="M366.54,-412.93C351.55,-433.19 333.59,-457.47 319.55,-476.47"/>
<polygon fill="#666666" stroke="#666666" points="317.65,-474.9 315.46,-481.99 321.59,-477.82 317.65,-474.9"/>
</g>
<!-- SimplicialDetection&#45;&gt;TorusIntegrals -->
<g id="edge8" class="edge">
<title>SimplicialDetection&#45;&gt;TorusIntegrals</title>
<path fill="none" stroke="#666666" d="M409.26,-412.93C415.24,-430.9 422.27,-452.04 428.2,-469.84"/>
<polygon fill="#666666" stroke="#666666" points="425.82,-470.45 430.36,-476.32 430.47,-468.91 425.82,-470.45"/>
</g>
<!-- SimplicialDetection&#45;&gt;DisjointTriangles -->
<g id="edge7" class="edge">
<title>SimplicialDetection&#45;&gt;DisjointTriangles</title>
<path fill="none" stroke="#666666" d="M453.42,-413.12C487.62,-436.95 529.73,-466.3 558.08,-486.06"/>
<polygon fill="#666666" stroke="#666666" points="556.6,-488.01 563.74,-490 559.4,-483.99 556.6,-488.01"/>
</g>
<!-- legend -->
<g id="node9" class="node">
<title>legend</title>
<path fill="lightgrey" stroke="none" d="M728.5,-256C728.5,-256 347.5,-256 347.5,-256 341.5,-256 335.5,-250 335.5,-244 335.5,-244 335.5,-12 335.5,-12 335.5,-6 341.5,0 347.5,0 347.5,0 728.5,0 728.5,0 734.5,0 740.5,-6 740.5,-12 740.5,-12 740.5,-244 740.5,-244 740.5,-250 734.5,-256 728.5,-256"/>
<polygon fill="#ffffff" stroke="none" points="343.5,-4 343.5,-252 732.5,-252 732.5,-4 343.5,-4"/>
<text text-anchor="start" x="352.5" y="-233.55" font-family="Helvetica,sans-Serif" font-weight="bold" font-size="11.00">Legend</text>
<polygon fill="#cfe2f3" stroke="none" points="348.5,-203 348.5,-223 456.5,-223 456.5,-203 348.5,-203"/>
<text text-anchor="start" x="464.5" y="-208.55" font-family="Helvetica,sans-Serif" font-size="11.00">foundation (fan&#45;in ≥ 3)</text>
<polygon fill="#f4cccc" stroke="none" points="348.5,-179 348.5,-199 456.5,-199 456.5,-179 348.5,-179"/>
<text text-anchor="start" x="464.5" y="-184.55" font-family="Helvetica,sans-Serif" font-size="11.00">god&#45;module (LOC ≥ 800)</text>
<polygon fill="#efefef" stroke="none" points="348.5,-155 348.5,-175 456.5,-175 456.5,-155 348.5,-155"/>
<text text-anchor="start" x="464.5" y="-160.55" font-family="Helvetica,sans-Serif" font-size="11.00">helper</text>
<polygon fill="#ffffff" stroke="none" points="348.5,-128 348.5,-151 456.5,-151 456.5,-128 348.5,-128"/>
<text text-anchor="start" x="392.75" y="-137.5" font-family="Helvetica,sans-Serif" font-size="10.00">┄┄</text>
<text text-anchor="start" x="464.5" y="-135.05" font-family="Helvetica,sans-Serif" font-size="11.00">orphan / leaf (fan&#45;in 0 — verify intent)</text>
<text text-anchor="start" x="479.5" y="-110.5" font-family="Helvetica,sans-Serif" font-size="10.00">────────────</text>
<text text-anchor="start" x="352.5" y="-88.5" font-family="Helvetica,sans-Serif" font-weight="bold" font-size="10.00">3 god&#45;modules: SimplicialDetection (5606), TorusIntegrals (1834), Sphere (881).</text>
<text text-anchor="start" x="362.62" y="-78.5" font-family="Helvetica,sans-Serif" font-size="10.00">Depth: 4 (Core/Statistic → Core/Detection → SimplicialDetection → TorusLInf).</text>
<text text-anchor="start" x="428.62" y="-68.5" font-family="Helvetica,sans-Serif" font-size="10.00">Fan&#45;in concentration: Core/Statistic (3 importers).</text>
<text text-anchor="start" x="396.75" y="-58.5" font-family="Helvetica,sans-Serif" font-size="10.00">Sphere is a fan&#45;in&#45;0 leaf — Paper&#45;2 work&#45;in&#45;progress per OQ&#45;18.</text>
<text text-anchor="start" x="361.12" y="-48.5" font-family="Helvetica,sans-Serif" font-size="10.00">TorusLInf 50 LOC importing SimplicialDetection = A5&#45;cycle (known, see OQ&#45;18).</text>
<text text-anchor="start" x="369.38" y="-25.5" font-family="Helvetica,sans-Serif" font-size="10.00">node size ∝ LOC</text>
<text text-anchor="start" x="352.5" y="-14.25" font-family="Helvetica,sans-Serif" font-size="10.00">border thickness ∝ fan&#45;in</text>
<polygon fill="none" stroke="#bbbbbb" points="343.5,-4 343.5,-252 732.5,-252 732.5,-4 343.5,-4"/>
</g>
</g>
</svg>
