<?xml version="1.0" encoding="UTF-8" standalone="no"?>
<!DOCTYPE svg PUBLIC "-//W3C//DTD SVG 1.1//EN"
 "http://www.w3.org/Graphics/SVG/1.1/DTD/svg11.dtd">
<!-- Generated by graphviz version 12.1.2 (20240928.0832)
 -->
<!-- Title: SSB_T2_BuildUp Pages: 1 -->
<svg width="1310pt" height="574pt"
 viewBox="0.00 0.00 1310.03 573.66" xmlns="http://www.w3.org/2000/svg" xmlns:xlink="http://www.w3.org/1999/xlink">
<g id="graph0" class="graph" transform="scale(1 1) rotate(0) translate(36 537.66)">
<title>SSB_T2_BuildUp</title>
<polygon fill="#fafafa" stroke="none" points="-36,36 -36,-537.66 1274.03,-537.66 1274.03,36 -36,36"/>
<!-- tier_def -->
<g id="node1" class="node">
<title>tier_def</title>
<path fill="lightgrey" stroke="none" d="M69.78,-133.54C69.78,-133.54 12,-133.54 12,-133.54 6,-133.54 0,-127.54 0,-121.54 0,-121.54 0,-109.54 0,-109.54 0,-103.54 6,-97.54 12,-97.54 12,-97.54 69.78,-97.54 69.78,-97.54 75.78,-97.54 81.78,-103.54 81.78,-109.54 81.78,-109.54 81.78,-121.54 81.78,-121.54 81.78,-127.54 75.78,-133.54 69.78,-133.54"/>
<text text-anchor="start" x="8.64" y="-112.67" font-family="Helvetica,sans-Serif" font-weight="bold" font-size="10.00" fill="#666666">DEFINITIONS</text>
</g>
<!-- tier_lemma -->
<g id="node2" class="node">
<title>tier_lemma</title>
<path fill="lightgrey" stroke="none" d="M55.9,-348.37C55.9,-348.37 25.87,-348.37 25.87,-348.37 19.87,-348.37 13.87,-342.37 13.87,-336.37 13.87,-336.37 13.87,-324.37 13.87,-324.37 13.87,-318.37 19.87,-312.37 25.87,-312.37 25.87,-312.37 55.9,-312.37 55.9,-312.37 61.9,-312.37 67.9,-318.37 67.9,-324.37 67.9,-324.37 67.9,-336.37 67.9,-336.37 67.9,-342.37 61.9,-348.37 55.9,-348.37"/>
<text text-anchor="start" x="22.51" y="-327.5" font-family="Helvetica,sans-Serif" font-weight="bold" font-size="10.00" fill="#666666">LEMMA</text>
</g>
<!-- tier_def&#45;&gt;tier_lemma -->
<!-- tier_thm -->
<g id="node3" class="node">
<title>tier_thm</title>
<path fill="lightgrey" stroke="none" d="M62.65,-483.66C62.65,-483.66 19.12,-483.66 19.12,-483.66 13.12,-483.66 7.12,-477.66 7.12,-471.66 7.12,-471.66 7.12,-459.66 7.12,-459.66 7.12,-453.66 13.12,-447.66 19.12,-447.66 19.12,-447.66 62.65,-447.66 62.65,-447.66 68.65,-447.66 74.65,-453.66 74.65,-459.66 74.65,-459.66 74.65,-471.66 74.65,-471.66 74.65,-477.66 68.65,-483.66 62.65,-483.66"/>
<text text-anchor="start" x="15.76" y="-462.79" font-family="Helvetica,sans-Serif" font-weight="bold" font-size="10.00" fill="#666666">THEOREM</text>
</g>
<!-- tier_lemma&#45;&gt;tier_thm -->
<!-- AOTree -->
<g id="node4" class="node">
<title>AOTree</title>
<path fill="#cfe2f3" stroke="#1f4e79" d="M277.55,-121.39C277.55,-121.39 255.94,-133.44 255.94,-133.44 250.7,-136.36 239.46,-139.28 233.46,-139.28 233.46,-139.28 172.32,-139.28 172.32,-139.28 166.32,-139.28 155.08,-136.36 149.84,-133.44 149.84,-133.44 128.23,-121.39 128.23,-121.39 122.99,-118.46 122.99,-112.62 128.23,-109.69 128.23,-109.69 149.84,-97.64 149.84,-97.64 155.08,-94.72 166.32,-91.8 172.32,-91.8 172.32,-91.8 233.46,-91.8 233.46,-91.8 239.46,-91.8 250.7,-94.72 255.94,-97.64 255.94,-97.64 277.55,-109.69 277.55,-109.69 282.79,-112.62 282.79,-118.46 277.55,-121.39"/>
<text text-anchor="start" x="159.39" y="-116.54" font-family="Helvetica,sans-Serif" font-weight="bold" font-size="10.00">AND&#45;OR hypertree</text>
<text text-anchor="start" x="183.39" y="-107.49" font-family="Helvetica,sans-Serif" font-size="9.00" fill="#666666">AOTree α</text>
</g>
<!-- lemma_mono -->
<g id="node8" class="node">
<title>lemma_mono</title>
<path fill="#fff2cc" stroke="#996600" d="M644.03,-350.41C644.03,-350.41 401.75,-350.41 401.75,-350.41 395.75,-350.41 389.75,-344.41 389.75,-338.41 389.75,-338.41 389.75,-322.33 389.75,-322.33 389.75,-316.33 395.75,-310.33 401.75,-310.33 401.75,-310.33 644.03,-310.33 644.03,-310.33 650.03,-310.33 656.03,-316.33 656.03,-322.33 656.03,-322.33 656.03,-338.41 656.03,-338.41 656.03,-344.41 650.03,-350.41 644.03,-350.41"/>
<text text-anchor="start" x="398.39" y="-335.92" font-family="Helvetica,sans-Serif" font-weight="bold" font-size="11.00">Lemma 2.1: success prob is monotone in policy</text>
<text text-anchor="start" x="448.26" y="-325.87" font-family="Helvetica,sans-Serif" font-size="10.00">π ≼ π&#39; ⇒ &#160;sp(π,t,nid) &#160;≤ &#160;sp(π&#39;,t,nid)</text>
<text text-anchor="start" x="482.39" y="-316.82" font-family="Helvetica,sans-Serif" font-size="9.00" fill="#666666">successProb_mono</text>
</g>
<!-- AOTree&#45;&gt;lemma_mono -->
<g id="edge3" class="edge">
<title>AOTree&#45;&gt;lemma_mono</title>
<path fill="none" stroke="#1f4e79" stroke-width="1.4" d="M218.85,-139.33C237.39,-164.48 270.07,-204.86 305.89,-231.08 351.35,-264.36 409.87,-290.05 454.69,-306.81"/>
<polygon fill="#1f4e79" stroke="#1f4e79" stroke-width="1.4" points="453.77,-309.08 461.18,-309.2 455.46,-304.48 453.77,-309.08"/>
</g>
<!-- successProb -->
<g id="node5" class="node">
<title>successProb</title>
<path fill="#cfe2f3" stroke="#1f4e79" d="M489.78,-133.54C489.78,-133.54 336,-133.54 336,-133.54 330,-133.54 324,-127.54 324,-121.54 324,-121.54 324,-109.54 324,-109.54 324,-103.54 330,-97.54 336,-97.54 336,-97.54 489.78,-97.54 489.78,-97.54 495.78,-97.54 501.78,-103.54 501.78,-109.54 501.78,-109.54 501.78,-121.54 501.78,-121.54 501.78,-127.54 495.78,-133.54 489.78,-133.54"/>
<text text-anchor="start" x="332.64" y="-116.54" font-family="Helvetica,sans-Serif" font-weight="bold" font-size="10.00">success probability under policy π</text>
<text text-anchor="start" x="373.14" y="-107.49" font-family="Helvetica,sans-Serif" font-size="9.00" fill="#666666">successProb π t nid</text>
</g>
<!-- successProb&#45;&gt;lemma_mono -->
<g id="edge4" class="edge">
<title>successProb&#45;&gt;lemma_mono</title>
<path fill="none" stroke="#1f4e79" stroke-width="1.4" d="M421.89,-133.96C440.98,-170.89 485.65,-257.32 508.65,-301.82"/>
<polygon fill="#1f4e79" stroke="#1f4e79" stroke-width="1.4" points="506.45,-302.9 511.84,-307.99 510.8,-300.65 506.45,-302.9"/>
</g>
<!-- weightedSum -->
<g id="node6" class="node">
<title>weightedSum</title>
<path fill="#cfe2f3" stroke="#1f4e79" d="M717.9,-134.58C717.9,-134.58 549.88,-134.58 549.88,-134.58 543.88,-134.58 537.88,-128.58 537.88,-122.58 537.88,-122.58 537.88,-108.5 537.88,-108.5 537.88,-102.5 543.88,-96.5 549.88,-96.5 549.88,-96.5 717.9,-96.5 717.9,-96.5 723.9,-96.5 729.9,-102.5 729.9,-108.5 729.9,-108.5 729.9,-122.58 729.9,-122.58 729.9,-128.58 723.9,-134.58 717.9,-134.58"/>
<text text-anchor="start" x="546.51" y="-121.04" font-family="Helvetica,sans-Serif" font-weight="bold" font-size="10.00">weighted&#45;sum monotonicity (NNReal)</text>
<text text-anchor="start" x="559.64" y="-111.99" font-family="Helvetica,sans-Serif" font-size="9.00">shift weight to good indices ⇒ sum ↑</text>
<text text-anchor="start" x="572.01" y="-102.99" font-family="Helvetica,sans-Serif" font-size="9.00" fill="#666666">NNReal.weighted_sum_mono</text>
</g>
<!-- weightedSum&#45;&gt;lemma_mono -->
<g id="edge6" class="edge">
<title>weightedSum&#45;&gt;lemma_mono</title>
<path fill="none" stroke="#990000" stroke-width="2.8" d="M624.23,-135.05C604.9,-172.13 561.29,-255.74 538.09,-300.23"/>
<polygon fill="#990000" stroke="#990000" stroke-width="2.8" points="535.95,-299.04 534.88,-306.38 540.29,-301.3 535.95,-299.04"/>
<text text-anchor="middle" x="590.56" y="-266.83" font-family="Times,serif" font-size="10.00" fill="#990000"> &#160;applied in proof</text>
</g>
<!-- PolicyDom -->
<g id="node7" class="node">
<title>PolicyDom</title>
<path fill="#fff2cc" stroke="#996600" d="M1007.3,-120.84C1007.3,-120.84 965.74,-141.33 965.74,-141.33 960.36,-143.98 948.98,-146.63 942.98,-146.63 942.98,-146.63 840.8,-146.63 840.8,-146.63 834.8,-146.63 823.42,-143.98 818.04,-141.33 818.04,-141.33 776.48,-120.84 776.48,-120.84 771.1,-118.19 771.1,-112.89 776.48,-110.24 776.48,-110.24 818.04,-89.75 818.04,-89.75 823.42,-87.1 834.8,-84.45 840.8,-84.45 840.8,-84.45 942.98,-84.45 942.98,-84.45 948.98,-84.45 960.36,-87.1 965.74,-89.75 965.74,-89.75 1007.3,-110.24 1007.3,-110.24 1012.68,-112.89 1012.68,-118.19 1007.3,-120.84"/>
<text text-anchor="start" x="849.51" y="-121.04" font-family="Helvetica,sans-Serif" font-weight="bold" font-size="10.00">policy domination</text>
<text text-anchor="start" x="823.26" y="-111.99" font-family="Helvetica,sans-Serif" font-size="9.00">π&#39; dominates π on correct children</text>
<text text-anchor="start" x="829.26" y="-102.99" font-family="Helvetica,sans-Serif" font-size="9.00" fill="#666666">PolicyDominates (T2 structure)</text>
</g>
<!-- PolicyDom&#45;&gt;lemma_mono -->
<g id="edge5" class="edge">
<title>PolicyDom&#45;&gt;lemma_mono</title>
<path fill="none" stroke="#996600" stroke-width="1.4" d="M858.82,-146.98C830.76,-171.76 788.67,-206.53 747.89,-231.08 696.15,-262.23 632.76,-289.01 586.47,-306.71"/>
<polygon fill="#996600" stroke="#996600" stroke-width="1.4" points="585.69,-304.38 580.01,-309.16 587.42,-308.97 585.69,-304.38"/>
</g>
<!-- thm_main -->
<g id="node9" class="node">
<title>thm_main</title>
<path fill="#fff2cc" stroke="#996600" stroke-width="3" d="M686.03,-501.66C686.03,-501.66 359.75,-501.66 359.75,-501.66 353.75,-501.66 347.75,-495.66 347.75,-489.66 347.75,-489.66 347.75,-441.66 347.75,-441.66 347.75,-435.66 353.75,-429.66 359.75,-429.66 359.75,-429.66 686.03,-429.66 686.03,-429.66 692.03,-429.66 698.03,-435.66 698.03,-441.66 698.03,-441.66 698.03,-489.66 698.03,-489.66 698.03,-495.66 692.03,-501.66 686.03,-501.66"/>
<text text-anchor="start" x="356.39" y="-470.81" font-family="Helvetica,sans-Serif" font-weight="bold" font-size="13.00">Theorem 2: policy improvement reduces hitting time</text>
<text text-anchor="start" x="458.01" y="-459.71" font-family="Helvetica,sans-Serif" font-size="11.00">1 / sp(π&#39;,t,0) &#160;≤ &#160;1 / sp(π,t,0)</text>
<text text-anchor="start" x="436.26" y="-450.61" font-family="Helvetica,sans-Serif" font-size="9.00" fill="#666666">policy_improvement_reduces_hitting_time</text>
</g>
<!-- lemma_mono&#45;&gt;thm_main -->
<g id="edge7" class="edge">
<title>lemma_mono&#45;&gt;thm_main</title>
<path fill="none" stroke="#990000" stroke-width="2.8" d="M522.89,-350.75C522.89,-368.19 522.89,-394.52 522.89,-417.47"/>
<polygon fill="#990000" stroke="#990000" stroke-width="2.8" points="520.44,-417.17 522.89,-424.17 525.34,-417.17 520.44,-417.17"/>
<text text-anchor="middle" x="557.76" y="-386.16" font-family="Times,serif" font-size="10.00" fill="#990000"> &#160;applied in proof</text>
</g>
<!-- legend -->
<g id="node10" class="node">
<title>legend</title>
<path fill="lightgrey" stroke="none" d="M1226.03,-231.08C1226.03,-231.08 1065.75,-231.08 1065.75,-231.08 1059.75,-231.08 1053.75,-225.08 1053.75,-219.08 1053.75,-219.08 1053.75,-12 1053.75,-12 1053.75,-6 1059.75,0 1065.75,0 1065.75,0 1226.03,0 1226.03,0 1232.03,0 1238.03,-6 1238.03,-12 1238.03,-12 1238.03,-219.08 1238.03,-219.08 1238.03,-225.08 1232.03,-231.08 1226.03,-231.08"/>
<polygon fill="#ffffff" stroke="none" points="1062.39,-5.04 1062.39,-226.04 1229.39,-226.04 1229.39,-5.04 1062.39,-5.04"/>
<text text-anchor="start" x="1069.39" y="-209.59" font-family="Helvetica,sans-Serif" font-weight="bold" font-size="11.00">Per&#45;theorem build&#45;up</text>
<text text-anchor="start" x="1069.39" y="-189.49" font-family="Helvetica,sans-Serif" font-size="9.00">read bottom → top</text>
<text text-anchor="start" x="1091.89" y="-169.49" font-family="Helvetica,sans-Serif" font-size="9.00">────────────</text>
<polygon fill="#cfe2f3" stroke="none" points="1066.39,-148.04 1066.39,-163.04 1098.39,-163.04 1098.39,-148.04 1066.39,-148.04"/>
<text text-anchor="start" x="1104.39" y="-151.49" font-family="Helvetica,sans-Serif" font-size="9.00">from Defs.lean</text>
<polygon fill="#fff2cc" stroke="none" points="1066.39,-130.04 1066.39,-145.04 1098.39,-145.04 1098.39,-130.04 1066.39,-130.04"/>
<text text-anchor="start" x="1104.39" y="-133.49" font-family="Helvetica,sans-Serif" font-size="9.00">from Theorem2.lean</text>
<text text-anchor="start" x="1091.89" y="-115.49" font-family="Helvetica,sans-Serif" font-size="9.00">────────────</text>
<text text-anchor="start" x="1069.39" y="-97.54" font-family="Helvetica,sans-Serif" font-weight="bold" font-size="10.00" fill="#990000">━━</text>
<text text-anchor="start" x="1104.39" y="-96.87" font-family="Helvetica,sans-Serif" font-size="9.00">proof&#45;step (lemma applied)</text>
<text text-anchor="start" x="1069.39" y="-77.54" font-family="Helvetica,sans-Serif" font-weight="bold" font-size="10.00" fill="#1f4e79">──</text>
<text text-anchor="start" x="1104.39" y="-76.87" font-family="Helvetica,sans-Serif" font-size="9.00">definitional dep</text>
<text text-anchor="start" x="1091.89" y="-57.49" font-family="Helvetica,sans-Serif" font-size="9.00">────────────</text>
<text text-anchor="start" x="1096.01" y="-40.49" font-family="Helvetica,sans-Serif" font-weight="bold" font-size="9.00">Note:</text>
<text text-anchor="start" x="1119.26" y="-40.49" font-family="Helvetica,sans-Serif" font-size="9.00"> the red edge from</text>
<text text-anchor="start" x="1069.39" y="-31.49" font-family="Helvetica,sans-Serif" font-size="9.00">Defs (NNReal.weighted_sum_mono)</text>
<text text-anchor="start" x="1104.64" y="-22.49" font-family="Helvetica,sans-Serif" font-size="9.00">is the </text>
<text text-anchor="start" x="1128.64" y="-22.49" font-family="Helvetica,sans-Serif" font-style="italic" font-size="9.00">only</text>
<text text-anchor="start" x="1145.89" y="-22.49" font-family="Helvetica,sans-Serif" font-size="9.00"> cross&#45;file</text>
<text text-anchor="start" x="1096.39" y="-13.49" font-family="Helvetica,sans-Serif" font-size="9.00">proof&#45;step edge in SSB.</text>
<polygon fill="none" stroke="#bbbbbb" points="1062.39,-5.04 1062.39,-226.04 1229.39,-226.04 1229.39,-5.04 1062.39,-5.04"/>
</g>
</g>
</svg>
