<?xml version="1.0" encoding="UTF-8" standalone="no"?>
<!DOCTYPE svg PUBLIC "-//W3C//DTD SVG 1.1//EN"
 "http://www.w3.org/Graphics/SVG/1.1/DTD/svg11.dtd">
<!-- Generated by graphviz version 12.1.2 (20240928.0832)
 -->
<!-- Title: SSB_Import Pages: 1 -->
<svg width="801pt" height="544pt"
 viewBox="0.00 0.00 801.38 543.80" xmlns="http://www.w3.org/2000/svg" xmlns:xlink="http://www.w3.org/1999/xlink">
<g id="graph0" class="graph" transform="scale(1 1) rotate(0) translate(36 507.8)">
<title>SSB_Import</title>
<polygon fill="#fafafa" stroke="none" points="-36,36 -36,-507.8 765.38,-507.8 765.38,36 -36,36"/>
<!-- Defs -->
<g id="node1" class="node">
<title>Defs</title>
<path fill="#cfe2f3" stroke="#1f4e79" stroke-width="4" d="M272.88,-471.8C272.88,-471.8 224.88,-471.8 224.88,-471.8 218.88,-471.8 212.88,-465.8 212.88,-459.8 212.88,-459.8 212.88,-433.4 212.88,-433.4 212.88,-427.4 218.88,-421.4 224.88,-421.4 224.88,-421.4 272.88,-421.4 272.88,-421.4 278.88,-421.4 284.88,-427.4 284.88,-433.4 284.88,-433.4 284.88,-459.8 284.88,-459.8 284.88,-465.8 278.88,-471.8 272.88,-471.8"/>
<text text-anchor="middle" x="248.88" y="-448.15" font-family="Helvetica,sans-Serif" font-size="11.00">Defs.lean</text>
<text text-anchor="middle" x="248.88" y="-436.15" font-family="Helvetica,sans-Serif" font-size="11.00">280 LOC</text>
</g>
<!-- T1 -->
<g id="node2" class="node">
<title>T1</title>
<path fill="#fff2cc" stroke="#996600" stroke-width="1.5" d="M116.62,-352.8C116.62,-352.8 75.12,-352.8 75.12,-352.8 69.12,-352.8 63.12,-346.8 63.12,-340.8 63.12,-340.8 63.12,-321.6 63.12,-321.6 63.12,-315.6 69.12,-309.6 75.12,-309.6 75.12,-309.6 116.62,-309.6 116.62,-309.6 122.62,-309.6 128.62,-315.6 128.62,-321.6 128.62,-321.6 128.62,-340.8 128.62,-340.8 128.62,-346.8 122.62,-352.8 116.62,-352.8"/>
<text text-anchor="middle" x="95.88" y="-332.75" font-family="Helvetica,sans-Serif" font-size="11.00">Theorem1</text>
<text text-anchor="middle" x="95.88" y="-320.75" font-family="Helvetica,sans-Serif" font-size="11.00">152 LOC</text>
</g>
<!-- T1&#45;&gt;Defs -->
<g id="edge1" class="edge">
<title>T1&#45;&gt;Defs</title>
<path fill="none" stroke="#666666" d="M124.29,-353.26C147.56,-370.51 180.8,-395.14 207.09,-414.63"/>
<polygon fill="#666666" stroke="#666666" points="205.32,-416.36 212.4,-418.56 208.23,-412.43 205.32,-416.36"/>
</g>
<!-- T2 -->
<g id="node3" class="node">
<title>T2</title>
<path fill="#fff2cc" stroke="#996600" d="M218.62,-352.8C218.62,-352.8 177.12,-352.8 177.12,-352.8 171.12,-352.8 165.12,-346.8 165.12,-340.8 165.12,-340.8 165.12,-321.6 165.12,-321.6 165.12,-315.6 171.12,-309.6 177.12,-309.6 177.12,-309.6 218.62,-309.6 218.62,-309.6 224.62,-309.6 230.62,-315.6 230.62,-321.6 230.62,-321.6 230.62,-340.8 230.62,-340.8 230.62,-346.8 224.62,-352.8 218.62,-352.8"/>
<text text-anchor="middle" x="197.88" y="-332.75" font-family="Helvetica,sans-Serif" font-size="11.00">Theorem2</text>
<text text-anchor="middle" x="197.88" y="-320.75" font-family="Helvetica,sans-Serif" font-size="11.00">154 LOC</text>
</g>
<!-- T2&#45;&gt;Defs -->
<g id="edge2" class="edge">
<title>T2&#45;&gt;Defs</title>
<path fill="none" stroke="#666666" d="M207.35,-353.26C214.74,-369.7 225.16,-392.86 233.71,-411.87"/>
<polygon fill="#666666" stroke="#666666" points="231.4,-412.71 236.5,-418.09 235.86,-410.7 231.4,-412.71"/>
</g>
<!-- T3 -->
<g id="node4" class="node">
<title>T3</title>
<path fill="#fff2cc" stroke="#996600" d="M320.62,-349.2C320.62,-349.2 279.12,-349.2 279.12,-349.2 273.12,-349.2 267.12,-343.2 267.12,-337.2 267.12,-337.2 267.12,-325.2 267.12,-325.2 267.12,-319.2 273.12,-313.2 279.12,-313.2 279.12,-313.2 320.62,-313.2 320.62,-313.2 326.62,-313.2 332.62,-319.2 332.62,-325.2 332.62,-325.2 332.62,-337.2 332.62,-337.2 332.62,-343.2 326.62,-349.2 320.62,-349.2"/>
<text text-anchor="middle" x="299.88" y="-332.75" font-family="Helvetica,sans-Serif" font-size="11.00">Theorem3</text>
<text text-anchor="middle" x="299.88" y="-320.75" font-family="Helvetica,sans-Serif" font-size="11.00">121 LOC</text>
</g>
<!-- T3&#45;&gt;Defs -->
<g id="edge3" class="edge">
<title>T3&#45;&gt;Defs</title>
<path fill="none" stroke="#666666" d="M292.13,-349.42C284.67,-366.02 273.18,-391.56 263.92,-412.16"/>
<polygon fill="#666666" stroke="#666666" points="261.75,-411.01 261.11,-418.4 266.21,-413.02 261.75,-411.01"/>
</g>
<!-- T4 -->
<g id="node5" class="node">
<title>T4</title>
<path fill="#fff2cc" stroke="#996600" stroke-width="1.5" d="M502.88,-356.4C502.88,-356.4 454.88,-356.4 454.88,-356.4 448.88,-356.4 442.88,-350.4 442.88,-344.4 442.88,-344.4 442.88,-318 442.88,-318 442.88,-312 448.88,-306 454.88,-306 454.88,-306 502.88,-306 502.88,-306 508.88,-306 514.88,-312 514.88,-318 514.88,-318 514.88,-344.4 514.88,-344.4 514.88,-350.4 508.88,-356.4 502.88,-356.4"/>
<text text-anchor="middle" x="478.88" y="-332.75" font-family="Helvetica,sans-Serif" font-size="11.00">Theorem4</text>
<text text-anchor="middle" x="478.88" y="-320.75" font-family="Helvetica,sans-Serif" font-size="11.00">275 LOC</text>
</g>
<!-- T4&#45;&gt;Defs -->
<g id="edge4" class="edge">
<title>T4&#45;&gt;Defs</title>
<path fill="none" stroke="#666666" d="M442.43,-350.17C402.28,-369.96 337.66,-401.82 294.26,-423.22"/>
<polygon fill="#666666" stroke="#666666" points="293.23,-421 288.04,-426.29 295.4,-425.39 293.23,-421"/>
</g>
<!-- T1S -->
<g id="node6" class="node">
<title>T1S</title>
<path fill="#fff2cc" stroke="#996600" d="M91.75,-138.5C91.75,-138.5 12,-138.5 12,-138.5 6,-138.5 0,-132.5 0,-126.5 0,-126.5 0,-114.5 0,-114.5 0,-108.5 6,-102.5 12,-102.5 12,-102.5 91.75,-102.5 91.75,-102.5 97.75,-102.5 103.75,-108.5 103.75,-114.5 103.75,-114.5 103.75,-126.5 103.75,-126.5 103.75,-132.5 97.75,-138.5 91.75,-138.5"/>
<text text-anchor="middle" x="51.88" y="-122.05" font-family="Helvetica,sans-Serif" font-size="11.00">Theorem1_Strong</text>
<text text-anchor="middle" x="51.88" y="-110.05" font-family="Helvetica,sans-Serif" font-size="11.00">101 LOC</text>
</g>
<!-- T1S&#45;&gt;Defs -->
<g id="edge5" class="edge">
<title>T1S&#45;&gt;Defs</title>
<path fill="none" stroke="#666666" d="M45.16,-138.93C30.35,-180.52 -0.35,-287.26 44.88,-356.4 79.78,-409.76 154.4,-431.39 203.07,-440.03"/>
<polygon fill="#666666" stroke="#666666" points="202.44,-442.4 209.75,-441.15 203.25,-437.57 202.44,-442.4"/>
</g>
<!-- T1S&#45;&gt;T1 -->
<g id="edge6" class="edge">
<title>T1S&#45;&gt;T1</title>
<path fill="none" stroke="#666666" d="M55.55,-138.93C63.1,-174.75 80.43,-256.95 89.72,-301.02"/>
<polygon fill="#666666" stroke="#666666" points="87.32,-301.48 91.16,-307.82 92.11,-300.47 87.32,-301.48"/>
</g>
<!-- T4S -->
<g id="node7" class="node">
<title>T4S</title>
<path fill="#fff2cc" stroke="#996600" d="M472.75,-138.5C472.75,-138.5 393,-138.5 393,-138.5 387,-138.5 381,-132.5 381,-126.5 381,-126.5 381,-114.5 381,-114.5 381,-108.5 387,-102.5 393,-102.5 393,-102.5 472.75,-102.5 472.75,-102.5 478.75,-102.5 484.75,-108.5 484.75,-114.5 484.75,-114.5 484.75,-126.5 484.75,-126.5 484.75,-132.5 478.75,-138.5 472.75,-138.5"/>
<text text-anchor="middle" x="432.88" y="-122.05" font-family="Helvetica,sans-Serif" font-size="11.00">Theorem4_Strong</text>
<text text-anchor="middle" x="432.88" y="-110.05" font-family="Helvetica,sans-Serif" font-size="11.00">108 LOC</text>
</g>
<!-- T4S&#45;&gt;Defs -->
<g id="edge7" class="edge">
<title>T4S&#45;&gt;Defs</title>
<path fill="none" stroke="#666666" d="M429.99,-138.79C422.53,-179.64 399.71,-284.1 350.88,-356.4 335.61,-378.99 313.27,-399.41 293.37,-414.99"/>
<polygon fill="#666666" stroke="#666666" points="292,-412.96 287.94,-419.17 294.98,-416.85 292,-412.96"/>
</g>
<!-- T4S&#45;&gt;T4 -->
<g id="edge8" class="edge">
<title>T4S&#45;&gt;T4</title>
<path fill="none" stroke="#666666" d="M436.72,-138.93C444.41,-173.82 461.79,-252.68 471.66,-297.49"/>
<polygon fill="#666666" stroke="#666666" points="469.25,-297.92 473.15,-304.22 474.04,-296.86 469.25,-297.92"/>
</g>
<!-- legend -->
<g id="node8" class="node">
<title>legend</title>
<path fill="lightgrey" stroke="none" d="M717.38,-241C717.38,-241 532.38,-241 532.38,-241 526.38,-241 520.38,-235 520.38,-229 520.38,-229 520.38,-12 520.38,-12 520.38,-6 526.38,0 532.38,0 532.38,0 717.38,0 717.38,0 723.38,0 729.38,-6 729.38,-12 729.38,-12 729.38,-229 729.38,-229 729.38,-235 723.38,-241 717.38,-241"/>
<polygon fill="#ffffff" stroke="none" points="528.38,-4 528.38,-237 721.38,-237 721.38,-4 528.38,-4"/>
<text text-anchor="start" x="537.38" y="-218.55" font-family="Helvetica,sans-Serif" font-weight="bold" font-size="11.00">Legend</text>
<polygon fill="#f4cccc" stroke="none" points="533.38,-188 533.38,-208 560.38,-208 560.38,-188 533.38,-188"/>
<text text-anchor="start" x="568.38" y="-193.55" font-family="Helvetica,sans-Serif" font-size="11.00">god&#45;module (multi&#45;cluster)</text>
<polygon fill="#cfe2f3" stroke="none" points="533.38,-164 533.38,-184 560.38,-184 560.38,-164 533.38,-164"/>
<text text-anchor="start" x="568.38" y="-169.55" font-family="Helvetica,sans-Serif" font-size="11.00">foundation (heavy fan&#45;in)</text>
<polygon fill="#fff2cc" stroke="none" points="533.38,-140 533.38,-160 560.38,-160 560.38,-140 533.38,-140"/>
<text text-anchor="start" x="568.38" y="-145.55" font-family="Helvetica,sans-Serif" font-size="11.00">synthesis (headline / glue)</text>
<polygon fill="#efefef" stroke="none" points="533.38,-116 533.38,-136 560.38,-136 560.38,-116 533.38,-116"/>
<text text-anchor="start" x="568.38" y="-121.55" font-family="Helvetica,sans-Serif" font-size="11.00">helper (single&#45;cluster lemmas)</text>
<polygon fill="#ffffff" stroke="none" points="533.38,-89 533.38,-112 560.38,-112 560.38,-89 533.38,-89"/>
<text text-anchor="start" x="537.12" y="-98.5" font-family="Helvetica,sans-Serif" font-size="10.00">┄┄</text>
<text text-anchor="start" x="568.38" y="-96.05" font-family="Helvetica,sans-Serif" font-size="11.00">orphan / stub (check intent)</text>
<text text-anchor="start" x="566.38" y="-71.5" font-family="Helvetica,sans-Serif" font-size="10.00">────────────</text>
<text text-anchor="start" x="537.38" y="-48.5" font-family="Helvetica,sans-Serif" font-size="10.00">node size ∝ LOC</text>
<text text-anchor="start" x="550.12" y="-25.5" font-family="Helvetica,sans-Serif" font-size="10.00">border thickness ∝ fan&#45;in</text>
<text text-anchor="start" x="537.38" y="-14.25" font-family="Helvetica,sans-Serif" font-size="10.00">(downstream invalidation cost)</text>
<polygon fill="none" stroke="#bbbbbb" points="528.38,-4 528.38,-237 721.38,-237 721.38,-4 528.38,-4"/>
</g>
</g>
</svg>
