<?xml version="1.0" encoding="UTF-8" standalone="no"?>
<!DOCTYPE svg PUBLIC "-//W3C//DTD SVG 1.1//EN"
 "http://www.w3.org/Graphics/SVG/1.1/DTD/svg11.dtd">
<!-- Generated by graphviz version 12.1.2 (20240928.0832)
 -->
<!-- Title: JEPA_ClusterSummary Pages: 1 -->
<svg width="955pt" height="1365pt"
 viewBox="0.00 0.00 954.98 1365.31" xmlns="http://www.w3.org/2000/svg" xmlns:xlink="http://www.w3.org/1999/xlink">
<g id="graph0" class="graph" transform="scale(1 1) rotate(0) translate(43.2 1322.11)">
<title>JEPA_ClusterSummary</title>
<polygon fill="#fafafa" stroke="none" points="-43.2,43.2 -43.2,-1322.11 911.78,-1322.11 911.78,43.2 -43.2,43.2"/>
<!-- Core -->
<g id="node1" class="node">
<title>Core</title>
<path fill="#cfe2f3" stroke="#1f4e79" stroke-width="4" d="M440.45,-1278.91C440.45,-1278.91 347.55,-1278.91 347.55,-1278.91 341.55,-1278.91 335.55,-1272.91 335.55,-1266.91 335.55,-1266.91 335.55,-1226.11 335.55,-1226.11 335.55,-1220.11 341.55,-1214.11 347.55,-1214.11 347.55,-1214.11 440.45,-1214.11 440.45,-1214.11 446.45,-1214.11 452.45,-1220.11 452.45,-1226.11 452.45,-1226.11 452.45,-1266.91 452.45,-1266.91 452.45,-1272.91 446.45,-1278.91 440.45,-1278.91"/>
<text text-anchor="start" x="381.25" y="-1252.06" font-family="Helvetica,sans-Serif" font-weight="bold" font-size="11.00">Core</text>
<text text-anchor="start" x="345.62" y="-1242.01" font-family="Helvetica,sans-Serif" font-size="10.00">definitions + operators</text>
<text text-anchor="start" x="353.12" y="-1232.96" font-family="Helvetica,sans-Serif" font-size="9.00" fill="#666666">13 decls · ~110 LOC</text>
</g>
<!-- QuasiStatic -->
<g id="node2" class="node">
<title>QuasiStatic</title>
<path fill="#d9ead3" stroke="#38761d" d="M431.08,-1118.36C431.08,-1118.36 356.92,-1118.36 356.92,-1118.36 350.92,-1118.36 344.92,-1112.36 344.92,-1106.36 344.92,-1106.36 344.92,-1087.16 344.92,-1087.16 344.92,-1081.16 350.92,-1075.16 356.92,-1075.16 356.92,-1075.16 431.08,-1075.16 431.08,-1075.16 437.08,-1075.16 443.08,-1081.16 443.08,-1087.16 443.08,-1087.16 443.08,-1106.36 443.08,-1106.36 443.08,-1112.36 437.08,-1118.36 431.08,-1118.36"/>
<text text-anchor="start" x="364" y="-1097.31" font-family="Helvetica,sans-Serif" font-weight="bold" font-size="11.00">QuasiStatic</text>
<text text-anchor="start" x="355" y="-1088.21" font-family="Helvetica,sans-Serif" font-size="9.00" fill="#666666">4 decls · ~235 LOC</text>
</g>
<!-- QuasiStatic&#45;&gt;Core -->
<g id="edge5" class="edge">
<title>QuasiStatic&#45;&gt;Core</title>
<path fill="none" stroke="#7ba6c9" stroke-width="1.3" d="M394,-1118.62C394,-1140.58 394,-1175.76 394,-1203.51"/>
<polygon fill="#7ba6c9" stroke="#7ba6c9" stroke-width="1.3" points="391.55,-1203.27 394,-1210.27 396.45,-1203.27 391.55,-1203.27"/>
<text text-anchor="middle" x="396.62" y="-1162.56" font-family="Helvetica,sans-Serif" font-size="9.00">4</text>
</g>
<!-- CriticalTime -->
<g id="node3" class="node">
<title>CriticalTime</title>
<path fill="#fff2cc" stroke="#996600" d="M114.45,-889.61C114.45,-889.61 45.55,-889.61 45.55,-889.61 39.55,-889.61 33.55,-883.61 33.55,-877.61 33.55,-877.61 33.55,-865.61 33.55,-865.61 33.55,-859.61 39.55,-853.61 45.55,-853.61 45.55,-853.61 114.45,-853.61 114.45,-853.61 120.45,-853.61 126.45,-859.61 126.45,-865.61 126.45,-865.61 126.45,-877.61 126.45,-877.61 126.45,-883.61 120.45,-889.61 114.45,-889.61"/>
<text text-anchor="start" x="48.5" y="-872.16" font-family="Helvetica,sans-Serif" font-weight="bold" font-size="11.00">CriticalTime</text>
<text text-anchor="start" x="43.62" y="-863.06" font-family="Helvetica,sans-Serif" font-size="9.00" fill="#666666">2 decls · ~90 LOC</text>
</g>
<!-- CriticalTime&#45;&gt;Core -->
<g id="edge6" class="edge">
<title>CriticalTime&#45;&gt;Core</title>
<path fill="none" stroke="#7ba6c9" stroke-width="0.9" d="M82.99,-889.83C88.99,-920.67 104.75,-986.38 136.75,-1032.16 188.82,-1106.65 273.47,-1169.85 331.35,-1207.7"/>
<polygon fill="#7ba6c9" stroke="#7ba6c9" stroke-width="0.9" points="329.92,-1209.69 337.13,-1211.45 332.59,-1205.58 329.92,-1209.69"/>
<text text-anchor="middle" x="139.38" y="-1023.61" font-family="Helvetica,sans-Serif" font-size="9.00">2</text>
</g>
<!-- Bernoulli -->
<g id="node4" class="node">
<title>Bernoulli</title>
<path fill="#fce5cd" stroke="#b45f06" d="M606.08,-503.91C606.08,-503.91 531.92,-503.91 531.92,-503.91 525.92,-503.91 519.92,-497.91 519.92,-491.91 519.92,-491.91 519.92,-472.71 519.92,-472.71 519.92,-466.71 525.92,-460.71 531.92,-460.71 531.92,-460.71 606.08,-460.71 606.08,-460.71 612.08,-460.71 618.08,-466.71 618.08,-472.71 618.08,-472.71 618.08,-491.91 618.08,-491.91 618.08,-497.91 612.08,-503.91 606.08,-503.91"/>
<text text-anchor="start" x="545" y="-482.86" font-family="Helvetica,sans-Serif" font-weight="bold" font-size="11.00">Bernoulli</text>
<text text-anchor="start" x="530" y="-473.76" font-family="Helvetica,sans-Serif" font-size="9.00" fill="#666666">8 decls · ~195 LOC</text>
</g>
<!-- Bernoulli&#45;&gt;Core -->
<g id="edge7" class="edge">
<title>Bernoulli&#45;&gt;Core</title>
<path fill="none" stroke="#7ba6c9" stroke-width="0.7" d="M575.26,-504.13C583.24,-532.54 596,-585.17 596,-631.06 596,-631.06 596,-631.06 596,-1097.76 596,-1165.78 520.46,-1205.86 461.76,-1226.74"/>
<polygon fill="#7ba6c9" stroke="#7ba6c9" stroke-width="0.7" points="461.15,-1224.36 455.33,-1228.97 462.75,-1228.99 461.15,-1224.36"/>
<text text-anchor="middle" x="598.62" y="-867.93" font-family="Helvetica,sans-Serif" font-size="9.00">1</text>
</g>
<!-- OffDiagFinal -->
<g id="node8" class="node">
<title>OffDiagFinal</title>
<path fill="#ffe599" stroke="#7f6000" stroke-width="3" d="M367.83,-664.46C367.83,-664.46 244.17,-664.46 244.17,-664.46 238.17,-664.46 232.17,-658.46 232.17,-652.46 232.17,-652.46 232.17,-611.66 232.17,-611.66 232.17,-605.66 238.17,-599.66 244.17,-599.66 244.17,-599.66 367.83,-599.66 367.83,-599.66 373.83,-599.66 379.83,-605.66 379.83,-611.66 379.83,-611.66 379.83,-652.46 379.83,-652.46 379.83,-658.46 373.83,-664.46 367.83,-664.46"/>
<text text-anchor="start" x="273.38" y="-637.61" font-family="Helvetica,sans-Serif" font-weight="bold" font-size="11.00">OffDiagFinal</text>
<text text-anchor="start" x="242.25" y="-627.56" font-family="Helvetica,sans-Serif" font-size="10.00">JEPA_rho_ordering (headline)</text>
<text text-anchor="start" x="267" y="-618.51" font-family="Helvetica,sans-Serif" font-size="9.00" fill="#666666">6 decls · ~494 LOC</text>
</g>
<!-- Bernoulli&#45;&gt;OffDiagFinal -->
<g id="edge20" class="edge">
<title>Bernoulli&#45;&gt;OffDiagFinal</title>
<path fill="none" stroke="#444444" stroke-width="0.7" stroke-dasharray="5,2" d="M543.98,-504.18C524.55,-519.78 496.55,-541.04 470,-556.66 444.27,-571.8 414.93,-585.99 388.24,-597.84"/>
<polygon fill="#444444" stroke="#444444" stroke-width="0.7" points="387.54,-595.47 382.12,-600.53 389.52,-599.95 387.54,-595.47"/>
<text text-anchor="middle" x="486.87" y="-548.11" font-family="Helvetica,sans-Serif" font-size="9.00">1</text>
</g>
<!-- DiagAmpODE -->
<g id="node5" class="node">
<title>DiagAmpODE</title>
<path fill="#f4cccc" stroke="#990000" d="M606.08,-204.08C606.08,-204.08 531.92,-204.08 531.92,-204.08 525.92,-204.08 519.92,-198.08 519.92,-192.08 519.92,-192.08 519.92,-172.88 519.92,-172.88 519.92,-166.88 525.92,-160.88 531.92,-160.88 531.92,-160.88 606.08,-160.88 606.08,-160.88 612.08,-160.88 618.08,-166.88 618.08,-172.88 618.08,-172.88 618.08,-192.08 618.08,-192.08 618.08,-198.08 612.08,-204.08 606.08,-204.08"/>
<text text-anchor="start" x="532.62" y="-183.03" font-family="Helvetica,sans-Serif" font-weight="bold" font-size="11.00">DiagAmpODE</text>
<text text-anchor="start" x="530" y="-173.93" font-family="Helvetica,sans-Serif" font-size="9.00" fill="#666666">3 decls · ~250 LOC</text>
</g>
<!-- DiagAmpODE&#45;&gt;Core -->
<g id="edge3" class="edge">
<title>DiagAmpODE&#45;&gt;Core</title>
<path fill="none" stroke="#7ba6c9" stroke-width="2.3" d="M573.29,-204.32C581.43,-240.06 601.83,-314.08 640,-364.96 690.84,-432.73 791,-396.59 791,-481.31 791,-481.31 791,-481.31 791,-1097.76 791,-1166.65 578.38,-1213.84 464.34,-1234.19"/>
<polygon fill="#7ba6c9" stroke="#7ba6c9" stroke-width="2.3" points="464.19,-1231.73 457.72,-1235.36 465.04,-1236.56 464.19,-1231.73"/>
<text text-anchor="middle" x="796.25" y="-781.73" font-family="Helvetica,sans-Serif" font-size="9.00">10</text>
</g>
<!-- DiagAmpODE&#45;&gt;QuasiStatic -->
<g id="edge14" class="edge">
<title>DiagAmpODE&#45;&gt;QuasiStatic</title>
<path fill="none" stroke="#444444" stroke-width="0.7" d="M577.2,-204.3C603.34,-270.76 683,-473.9 683,-481.31 683,-481.31 683,-481.31 683,-957.01 683,-1058.78 535.56,-1085.95 451.3,-1093.18"/>
<polygon fill="#444444" stroke="#444444" stroke-width="0.7" points="451.19,-1090.73 444.41,-1093.73 451.58,-1095.61 451.19,-1090.73"/>
<text text-anchor="middle" x="685.62" y="-708.66" font-family="Helvetica,sans-Serif" font-size="9.00">1</text>
</g>
<!-- DiagAmpODE&#45;&gt;Bernoulli -->
<g id="edge11" class="edge">
<title>DiagAmpODE&#45;&gt;Bernoulli</title>
<path fill="none" stroke="#444444" stroke-width="1.2" d="M569,-204.42C569,-256.44 569,-391.63 569,-451.75"/>
<polygon fill="#444444" stroke="#444444" stroke-width="1.2" points="566.55,-451.57 569,-458.57 571.45,-451.57 566.55,-451.57"/>
<text text-anchor="middle" x="571.62" y="-409.16" font-family="Helvetica,sans-Serif" font-size="9.00">3</text>
</g>
<!-- EncoderConvergence -->
<g id="node7" class="node">
<title>EncoderConvergence</title>
<path fill="#d9d2e9" stroke="#351c75" d="M486.08,-810.61C486.08,-810.61 375.92,-810.61 375.92,-810.61 369.92,-810.61 363.92,-804.61 363.92,-798.61 363.92,-798.61 363.92,-772.21 363.92,-772.21 363.92,-766.21 369.92,-760.21 375.92,-760.21 375.92,-760.21 486.08,-760.21 486.08,-760.21 492.08,-760.21 498.08,-766.21 498.08,-772.21 498.08,-772.21 498.08,-798.61 498.08,-798.61 498.08,-804.61 492.08,-810.61 486.08,-810.61"/>
<text text-anchor="start" x="374" y="-785.96" font-family="Helvetica,sans-Serif" font-weight="bold" font-size="11.00">EncoderConvergence</text>
<text text-anchor="start" x="392" y="-776.86" font-family="Helvetica,sans-Serif" font-size="9.00" fill="#666666">7 decls · ~378 LOC</text>
</g>
<!-- DiagAmpODE&#45;&gt;EncoderConvergence -->
<g id="edge16" class="edge">
<title>DiagAmpODE&#45;&gt;EncoderConvergence</title>
<path fill="none" stroke="#444444" stroke-width="0.7" d="M561.31,-204.45C541.35,-259.69 487.54,-414.06 459.75,-546.91 444.59,-619.39 436.6,-706.11 433.15,-752.08"/>
<polygon fill="#444444" stroke="#444444" stroke-width="0.7" points="430.72,-751.69 432.65,-758.85 435.61,-752.05 430.72,-751.69"/>
<text text-anchor="middle" x="462.38" y="-548.11" font-family="Helvetica,sans-Serif" font-size="9.00">1</text>
</g>
<!-- DiagAmpODE&#45;&gt;OffDiagFinal -->
<g id="edge15" class="edge">
<title>DiagAmpODE&#45;&gt;OffDiagFinal</title>
<path fill="none" stroke="#444444" stroke-width="0.7" stroke-dasharray="5,2" d="M554.43,-204.42C527.37,-243.64 467.99,-331.14 423,-407.96 386.18,-470.83 347.73,-546.35 325.37,-591.43"/>
<polygon fill="#444444" stroke="#444444" stroke-width="0.7" points="323.3,-590.09 322.39,-597.45 327.69,-592.26 323.3,-590.09"/>
<text text-anchor="middle" x="395.44" y="-478.63" font-family="Helvetica,sans-Serif" font-size="9.00">1</text>
</g>
<!-- FrobeniusHelpers -->
<g id="node6" class="node">
<title>FrobeniusHelpers</title>
<path fill="#ead1dc" stroke="#741b47" d="M340.95,-979.41C340.95,-979.41 251.05,-979.41 251.05,-979.41 245.05,-979.41 239.05,-973.41 239.05,-967.41 239.05,-967.41 239.05,-944.61 239.05,-944.61 239.05,-938.61 245.05,-932.61 251.05,-932.61 251.05,-932.61 340.95,-932.61 340.95,-932.61 346.95,-932.61 352.95,-938.61 352.95,-944.61 352.95,-944.61 352.95,-967.41 352.95,-967.41 352.95,-973.41 346.95,-979.41 340.95,-979.41"/>
<text text-anchor="start" x="249.12" y="-956.56" font-family="Helvetica,sans-Serif" font-weight="bold" font-size="11.00">FrobeniusHelpers</text>
<text text-anchor="start" x="257" y="-947.46" font-family="Helvetica,sans-Serif" font-size="9.00" fill="#666666">9 decls · ~210 LOC</text>
</g>
<!-- FrobeniusHelpers&#45;&gt;Core -->
<g id="edge4" class="edge">
<title>FrobeniusHelpers&#45;&gt;Core</title>
<path fill="none" stroke="#7ba6c9" stroke-width="2.1" d="M296.2,-979.86C297.12,-1011.75 301.16,-1071.01 317.75,-1118.36 328.49,-1149 347.15,-1180.31 363.33,-1204.2"/>
<polygon fill="#7ba6c9" stroke="#7ba6c9" stroke-width="2.1" points="361.14,-1205.33 367.13,-1209.7 365.17,-1202.55 361.14,-1205.33"/>
<text text-anchor="middle" x="320.38" y="-1093.08" font-family="Helvetica,sans-Serif" font-size="9.00">9</text>
</g>
<!-- FrobeniusHelpers&#45;&gt;QuasiStatic -->
<g id="edge17" class="edge">
<title>FrobeniusHelpers&#45;&gt;QuasiStatic</title>
<path fill="none" stroke="#444444" stroke-width="0.7" d="M311.96,-979.61C329.16,-1003.96 356.53,-1042.71 374.87,-1068.67"/>
<polygon fill="#444444" stroke="#444444" stroke-width="0.7" points="372.67,-1069.81 378.71,-1074.12 376.68,-1066.99 372.67,-1069.81"/>
<text text-anchor="middle" x="350.56" y="-1023.61" font-family="Helvetica,sans-Serif" font-size="9.00">1</text>
</g>
<!-- FrobeniusHelpers&#45;&gt;OffDiagFinal -->
<g id="edge18" class="edge">
<title>FrobeniusHelpers&#45;&gt;OffDiagFinal</title>
<path fill="none" stroke="#444444" stroke-width="0.7" stroke-dasharray="5,2" d="M296.71,-932.12C298.39,-878.11 302.61,-742.12 304.74,-673.7"/>
<polygon fill="#444444" stroke="#444444" stroke-width="0.7" points="307.18,-673.83 304.95,-666.76 302.29,-673.68 307.18,-673.83"/>
<text text-anchor="middle" x="304.62" y="-781.73" font-family="Helvetica,sans-Serif" font-size="9.00">1</text>
</g>
<!-- EncoderConvergence&#45;&gt;Core -->
<g id="edge2" class="edge">
<title>EncoderConvergence&#45;&gt;Core</title>
<path fill="none" stroke="#7ba6c9" stroke-width="2.5" d="M440.73,-810.9C445.28,-823.46 450.29,-839.13 453,-853.61 474.7,-969.38 494.67,-1004.37 465,-1118.36 457.07,-1148.84 440.04,-1179.77 424.65,-1203.49"/>
<polygon fill="#7ba6c9" stroke="#7ba6c9" stroke-width="2.5" points="422.78,-1201.87 420.95,-1209.06 426.86,-1204.59 422.78,-1201.87"/>
<text text-anchor="middle" x="484.42" y="-1023.61" font-family="Helvetica,sans-Serif" font-size="9.00">11</text>
</g>
<!-- EncoderConvergence&#45;&gt;QuasiStatic -->
<g id="edge9" class="edge">
<title>EncoderConvergence&#45;&gt;QuasiStatic</title>
<path fill="none" stroke="#444444" stroke-width="1.4" d="M428.07,-810.94C421.34,-867.22 404.81,-1005.41 397.53,-1066.22"/>
<polygon fill="#444444" stroke="#444444" stroke-width="1.4" points="395.14,-1065.61 396.74,-1072.85 400,-1066.19 395.14,-1065.61"/>
<text text-anchor="middle" x="415.74" y="-952.33" font-family="Helvetica,sans-Serif" font-size="9.00">4</text>
</g>
<!-- EncoderConvergence&#45;&gt;FrobeniusHelpers -->
<g id="edge8" class="edge">
<title>EncoderConvergence&#45;&gt;FrobeniusHelpers</title>
<path fill="none" stroke="#444444" stroke-width="3" d="M411.37,-810.93C387.51,-840.73 347.2,-891.07 321.1,-923.66"/>
<polygon fill="#444444" stroke="#444444" stroke-width="3" points="319.44,-921.81 316.98,-928.81 323.27,-924.88 319.44,-921.81"/>
<text text-anchor="middle" x="385.72" y="-868.31" font-family="Helvetica,sans-Serif" font-size="9.00" fill="#cc0000">11 ⚠</text>
</g>
<!-- EncoderConvergence&#45;&gt;OffDiagFinal -->
<g id="edge19" class="edge">
<title>EncoderConvergence&#45;&gt;OffDiagFinal</title>
<path fill="none" stroke="#444444" stroke-width="0.7" stroke-dasharray="5,2" d="M414.31,-759.94C403.53,-744.54 388.96,-724.43 375,-707.46 365.09,-695.41 353.78,-682.8 343.22,-671.45"/>
<polygon fill="#444444" stroke="#444444" stroke-width="0.7" points="345.08,-669.84 338.5,-666.41 341.5,-673.19 345.08,-669.84"/>
<text text-anchor="middle" x="384.1" y="-708.66" font-family="Helvetica,sans-Serif" font-size="9.00">1</text>
</g>
<!-- OffDiagFinal&#45;&gt;Core -->
<g id="edge1" class="edge">
<title>OffDiagFinal&#45;&gt;Core</title>
<path fill="none" stroke="#7ba6c9" stroke-width="3.5" d="M230.75,-638.09C140.15,-648.71 0,-681.73 0,-784.41 0,-784.41 0,-784.41 0,-1097.76 0,-1165.69 207.93,-1212.9 321.69,-1233.64"/>
<polygon fill="#7ba6c9" stroke="#7ba6c9" stroke-width="3.5" points="321.19,-1236.04 328.52,-1234.87 322.06,-1231.22 321.19,-1236.04"/>
<text text-anchor="middle" x="5.25" y="-952.33" font-family="Helvetica,sans-Serif" font-size="9.00">20</text>
</g>
<!-- OffDiagFinal&#45;&gt;QuasiStatic -->
<g id="edge10" class="edge">
<title>OffDiagFinal&#45;&gt;QuasiStatic</title>
<path fill="none" stroke="#444444" stroke-width="1.4" d="M282.99,-665.51C240.93,-729.16 161,-873.4 218,-979.41 242.91,-1025.74 295.26,-1056.7 336.42,-1074.96"/>
<polygon fill="#444444" stroke="#444444" stroke-width="1.4" points="335.41,-1077.2 342.81,-1077.72 337.35,-1072.7 335.41,-1077.2"/>
<text text-anchor="middle" x="204.46" y="-867.93" font-family="Helvetica,sans-Serif" font-size="9.00">4</text>
</g>
<!-- OffDiagFinal&#45;&gt;CriticalTime -->
<g id="edge12" class="edge">
<title>OffDiagFinal&#45;&gt;CriticalTime</title>
<path fill="none" stroke="#444444" d="M230.89,-651.38C198.17,-662.73 161.69,-680.46 136.75,-707.46 100.64,-746.56 87.32,-809.85 82.55,-845"/>
<polygon fill="#444444" stroke="#444444" points="80.14,-844.55 81.7,-851.8 85,-845.16 80.14,-844.55"/>
<text text-anchor="middle" x="139.38" y="-708.66" font-family="Helvetica,sans-Serif" font-size="9.00">2</text>
</g>
<!-- OffDiagFinal&#45;&gt;EncoderConvergence -->
<g id="edge13" class="edge">
<title>OffDiagFinal&#45;&gt;EncoderConvergence</title>
<path fill="none" stroke="#444444" d="M330.85,-665.78C342.97,-681.51 357.89,-700.52 371.75,-717.21 381.81,-729.33 393.18,-742.37 403.25,-753.71"/>
<polygon fill="#444444" stroke="#444444" points="401.2,-755.1 407.69,-758.69 404.86,-751.84 401.2,-755.1"/>
<text text-anchor="middle" x="374.38" y="-708.66" font-family="Helvetica,sans-Serif" font-size="9.00">2</text>
</g>
<!-- legend -->
<g id="node9" class="node">
<title>legend</title>
<path fill="lightgrey" stroke="none" d="M856.58,-364.96C856.58,-364.96 673.42,-364.96 673.42,-364.96 667.42,-364.96 661.42,-358.96 661.42,-352.96 661.42,-352.96 661.42,-12 661.42,-12 661.42,-6 667.42,0 673.42,0 673.42,0 856.58,0 856.58,0 862.58,0 868.58,-6 868.58,-12 868.58,-12 868.58,-352.96 868.58,-352.96 868.58,-358.96 862.58,-364.96 856.58,-364.96"/>
<polygon fill="#ffffff" stroke="none" points="671.5,-6.48 671.5,-358.48 858.5,-358.48 858.5,-6.48 671.5,-6.48"/>
<text text-anchor="start" x="680.5" y="-340.03" font-family="Helvetica,sans-Serif" font-weight="bold" font-size="11.00">If JEPA.lean were split…</text>
<text text-anchor="start" x="683.88" y="-316.93" font-family="Helvetica,sans-Serif" font-size="9.00">…this is the import graph it would</text>
<text text-anchor="start" x="685" y="-307.18" font-family="Helvetica,sans-Serif" font-size="9.00">produce. Node size ∝ LOC, edge</text>
<text text-anchor="start" x="680.5" y="-297.43" font-family="Helvetica,sans-Serif" font-size="9.00">thickness ∝ # math edges crossing.</text>
<text text-anchor="start" x="711" y="-275.93" font-family="Helvetica,sans-Serif" font-size="9.00">────────────</text>
<text text-anchor="start" x="680.5" y="-254.98" font-family="Helvetica,sans-Serif" font-weight="bold" font-size="10.00" fill="#7ba6c9">━━</text>
<text text-anchor="start" x="721.5" y="-254.31" font-family="Helvetica,sans-Serif" font-size="9.00">into Core (foundation pull)</text>
<text text-anchor="start" x="680.5" y="-231.98" font-family="Helvetica,sans-Serif" font-weight="bold" font-size="10.00" fill="#444444">━━</text>
<text text-anchor="start" x="721.5" y="-231.31" font-family="Helvetica,sans-Serif" font-size="9.00">non&#45;Core coupling</text>
<text text-anchor="start" x="680.5" y="-208.93" font-family="Helvetica,sans-Serif" font-size="9.00">┄┄</text>
<text text-anchor="start" x="721.5" y="-207.31" font-family="Helvetica,sans-Serif" font-size="9.00">single&#45;edge (probably noise)</text>
<text text-anchor="start" x="711" y="-183.93" font-family="Helvetica,sans-Serif" font-size="9.00">────────────</text>
<text text-anchor="start" x="680.5" y="-163.93" font-family="Helvetica,sans-Serif" font-weight="bold" font-size="9.00">Verdict:</text>
<text text-anchor="start" x="680.5" y="-142.88" font-family="Helvetica,sans-Serif" font-size="8.00">• Core is the natural foundation (heavy fan&#45;in)</text>
<text text-anchor="start" x="680.5" y="-121.88" font-family="Helvetica,sans-Serif" font-size="8.00">• EncoderConvergence ↔ FrobeniusHelpers</text>
<text text-anchor="start" x="680.5" y="-101.88" font-family="Helvetica,sans-Serif" font-size="8.00"> &#160;are </text>
<text text-anchor="start" x="699.25" y="-101.88" font-family="Helvetica,sans-Serif" font-weight="bold" font-size="8.00">tightly coupled (11 edges)</text>
<text text-anchor="start" x="802.75" y="-101.88" font-family="Helvetica,sans-Serif" font-size="8.00"> — consider</text>
<text text-anchor="start" x="680.5" y="-79.88" font-family="Helvetica,sans-Serif" font-size="8.00"> &#160;merging into one file</text>
<text text-anchor="start" x="680.5" y="-58.88" font-family="Helvetica,sans-Serif" font-size="8.00">• Other couplings ≤ 4 edges — clean splits</text>
<text text-anchor="start" x="680.5" y="-37.88" font-family="Helvetica,sans-Serif" font-size="8.00">• OffDiagFinal (494 LOC, headline) still large</text>
<text text-anchor="start" x="680.5" y="-16.88" font-family="Helvetica,sans-Serif" font-size="8.00"> &#160;even after split — proof itself is long</text>
<polygon fill="none" stroke="#bbbbbb" points="671.5,-6.48 671.5,-358.48 858.5,-358.48 858.5,-6.48 671.5,-6.48"/>
</g>
</g>
</svg>
