<?xml version="1.0" encoding="UTF-8" standalone="no"?>
<!DOCTYPE svg PUBLIC "-//W3C//DTD SVG 1.1//EN"
 "http://www.w3.org/Graphics/SVG/1.1/DTD/svg11.dtd">
<!-- Generated by graphviz version 12.1.2 (20240928.0832)
 -->
<!-- Title: JEPA_LearningOrder_Import_PostMigration Pages: 1 -->
<svg width="2253pt" height="1013pt"
 viewBox="0.00 0.00 2253.00 1012.80" xmlns="http://www.w3.org/2000/svg" xmlns:xlink="http://www.w3.org/1999/xlink">
<g id="graph0" class="graph" transform="scale(1 1) rotate(0) translate(36 976.8)">
<title>JEPA_LearningOrder_Import_PostMigration</title>
<polygon fill="#fafafa" stroke="none" points="-36,36 -36,-976.8 2217,-976.8 2217,36 -36,36"/>
<g id="clust1" class="cluster">
<title>cluster_jepa</title>
<path fill="#fafafa" stroke="#999999" stroke-dasharray="5,2" d="M20,-402C20,-402 457,-402 457,-402 463,-402 469,-408 469,-414 469,-414 469,-920.8 469,-920.8 469,-926.8 463,-932.8 457,-932.8 457,-932.8 20,-932.8 20,-932.8 14,-932.8 8,-926.8 8,-920.8 8,-920.8 8,-414 8,-414 8,-408 14,-402 20,-402"/>
<text text-anchor="middle" x="238.5" y="-407.55" font-family="Helvetica,sans-Serif" font-size="11.00">JEPA/ &#160;(session 95 split, sub&#45;modules now directly importable)</text>
</g>
<!-- Lemmas -->
<g id="node1" class="node">
<title>Lemmas</title>
<path fill="#cfe2f3" stroke="#1f4e79" stroke-width="4" d="M830.25,-932C830.25,-932 773.75,-932 773.75,-932 767.75,-932 761.75,-926 761.75,-920 761.75,-920 761.75,-893.6 761.75,-893.6 761.75,-887.6 767.75,-881.6 773.75,-881.6 773.75,-881.6 830.25,-881.6 830.25,-881.6 836.25,-881.6 842.25,-887.6 842.25,-893.6 842.25,-893.6 842.25,-920 842.25,-920 842.25,-926 836.25,-932 830.25,-932"/>
<text text-anchor="middle" x="802" y="-908.35" font-family="Helvetica,sans-Serif" font-size="11.00">Lemmas.lean</text>
<text text-anchor="middle" x="802" y="-896.35" font-family="Helvetica,sans-Serif" font-size="11.00">498 LOC</text>
</g>
<!-- Basic -->
<g id="node2" class="node">
<title>Basic</title>
<path fill="#ffffff" stroke="#999999" stroke-dasharray="5,2" d="M1529.28,-137.4C1529.28,-137.4 1480.72,-137.4 1480.72,-137.4 1475.92,-137.4 1471.12,-132.6 1471.12,-127.8 1471.12,-127.8 1471.12,-118.2 1471.12,-118.2 1471.12,-113.4 1475.92,-108.6 1480.72,-108.6 1480.72,-108.6 1529.28,-108.6 1529.28,-108.6 1534.08,-108.6 1538.88,-113.4 1538.88,-118.2 1538.88,-118.2 1538.88,-127.8 1538.88,-127.8 1538.88,-132.6 1534.08,-137.4 1529.28,-137.4"/>
<text text-anchor="middle" x="1505" y="-124.2" font-family="Helvetica,sans-Serif" font-size="9.00">Basic.lean</text>
<text text-anchor="middle" x="1505" y="-114.45" font-family="Helvetica,sans-Serif" font-size="9.00">1 LOC (stub)</text>
</g>
<!-- GronwallIntegral -->
<g id="node3" class="node">
<title>GronwallIntegral</title>
<path fill="#ffffff" stroke="#999999" stroke-dasharray="5,2" d="M1670.75,-141C1670.75,-141 1587.25,-141 1587.25,-141 1581.25,-141 1575.25,-135 1575.25,-129 1575.25,-129 1575.25,-117 1575.25,-117 1575.25,-111 1581.25,-105 1587.25,-105 1587.25,-105 1670.75,-105 1670.75,-105 1676.75,-105 1682.75,-111 1682.75,-117 1682.75,-117 1682.75,-129 1682.75,-129 1682.75,-135 1676.75,-141 1670.75,-141"/>
<text text-anchor="middle" x="1629" y="-124.75" font-family="Helvetica,sans-Serif" font-size="10.00">GronwallIntegral.lean</text>
<text text-anchor="middle" x="1629" y="-113.5" font-family="Helvetica,sans-Serif" font-size="10.00">136 LOC (unused)</text>
</g>
<!-- CounterexampleVerification -->
<g id="node4" class="node">
<title>CounterexampleVerification</title>
<path fill="#ffffff" stroke="#999999" stroke-dasharray="5,2" d="M1843,-144.6C1843,-144.6 1731,-144.6 1731,-144.6 1725,-144.6 1719,-138.6 1719,-132.6 1719,-132.6 1719,-113.4 1719,-113.4 1719,-107.4 1725,-101.4 1731,-101.4 1731,-101.4 1843,-101.4 1843,-101.4 1849,-101.4 1855,-107.4 1855,-113.4 1855,-113.4 1855,-132.6 1855,-132.6 1855,-138.6 1849,-144.6 1843,-144.6"/>
<text text-anchor="middle" x="1787" y="-130.38" font-family="Helvetica,sans-Serif" font-size="10.00">CounterexampleVerification</text>
<text text-anchor="middle" x="1787" y="-119.12" font-family="Helvetica,sans-Serif" font-size="10.00">84 LOC</text>
<text text-anchor="middle" x="1787" y="-107.88" font-family="Helvetica,sans-Serif" font-size="10.00">(intentional orphan)</text>
</g>
<!-- JEPA_Core -->
<g id="node5" class="node">
<title>JEPA_Core</title>
<path fill="#cfe2f3" stroke="#1f4e79" stroke-width="4" d="M449.25,-924.8C449.25,-924.8 380.75,-924.8 380.75,-924.8 374.75,-924.8 368.75,-918.8 368.75,-912.8 368.75,-912.8 368.75,-900.8 368.75,-900.8 368.75,-894.8 374.75,-888.8 380.75,-888.8 380.75,-888.8 449.25,-888.8 449.25,-888.8 455.25,-888.8 461.25,-894.8 461.25,-900.8 461.25,-900.8 461.25,-912.8 461.25,-912.8 461.25,-918.8 455.25,-924.8 449.25,-924.8"/>
<text text-anchor="middle" x="415" y="-908.35" font-family="Helvetica,sans-Serif" font-size="11.00">JEPA/Core.lean</text>
<text text-anchor="middle" x="415" y="-896.35" font-family="Helvetica,sans-Serif" font-size="11.00">129 LOC</text>
</g>
<!-- JEPA_Core&#45;&gt;Lemmas -->
<g id="edge1" class="edge">
<title>JEPA_Core&#45;&gt;Lemmas</title>
<path fill="none" stroke="#666666" d="M463,-906.8C559.18,-906.8 655.36,-906.8 751.55,-906.8"/>
<polygon fill="#666666" stroke="#666666" points="751.44,-909.25 758.44,-906.8 751.44,-904.35 751.44,-909.25"/>
</g>
<!-- JEPA_QuasiStatic -->
<g id="node6" class="node">
<title>JEPA_QuasiStatic</title>
<path fill="#efefef" stroke="#666666" stroke-width="2" d="M371.62,-816.6C371.62,-816.6 272.38,-816.6 272.38,-816.6 266.38,-816.6 260.38,-810.6 260.38,-804.6 260.38,-804.6 260.38,-792.6 260.38,-792.6 260.38,-786.6 266.38,-780.6 272.38,-780.6 272.38,-780.6 371.62,-780.6 371.62,-780.6 377.62,-780.6 383.62,-786.6 383.62,-792.6 383.62,-792.6 383.62,-804.6 383.62,-804.6 383.62,-810.6 377.62,-816.6 371.62,-816.6"/>
<text text-anchor="middle" x="322" y="-800.15" font-family="Helvetica,sans-Serif" font-size="11.00">JEPA/QuasiStatic.lean</text>
<text text-anchor="middle" x="322" y="-788.15" font-family="Helvetica,sans-Serif" font-size="11.00">245 LOC</text>
</g>
<!-- JEPA_QuasiStatic&#45;&gt;Lemmas -->
<g id="edge2" class="edge">
<title>JEPA_QuasiStatic&#45;&gt;Lemmas</title>
<path fill="none" stroke="#666666" d="M384.26,-813.37C480.47,-834.66 663.36,-875.13 751.73,-894.68"/>
<polygon fill="#666666" stroke="#666666" points="751.14,-897.06 758.5,-896.18 752.19,-892.27 751.14,-897.06"/>
</g>
<!-- JEPA_QuasiStatic&#45;&gt;JEPA_Core -->
<g id="edge3" class="edge">
<title>JEPA_QuasiStatic&#45;&gt;JEPA_Core</title>
<path fill="none" stroke="#666666" d="M337.36,-817.14C352.47,-834.39 375.7,-860.92 392.81,-880.46"/>
<polygon fill="#666666" stroke="#666666" points="390.91,-882.01 397.37,-885.66 394.6,-878.78 390.91,-882.01"/>
</g>
<!-- JEPA_Bernoulli -->
<g id="node7" class="node">
<title>JEPA_Bernoulli</title>
<path fill="#efefef" stroke="#666666" stroke-width="2" d="M266.25,-708.4C266.25,-708.4 179.75,-708.4 179.75,-708.4 173.75,-708.4 167.75,-702.4 167.75,-696.4 167.75,-696.4 167.75,-684.4 167.75,-684.4 167.75,-678.4 173.75,-672.4 179.75,-672.4 179.75,-672.4 266.25,-672.4 266.25,-672.4 272.25,-672.4 278.25,-678.4 278.25,-684.4 278.25,-684.4 278.25,-696.4 278.25,-696.4 278.25,-702.4 272.25,-708.4 266.25,-708.4"/>
<text text-anchor="middle" x="223" y="-691.95" font-family="Helvetica,sans-Serif" font-size="11.00">JEPA/Bernoulli.lean</text>
<text text-anchor="middle" x="223" y="-679.95" font-family="Helvetica,sans-Serif" font-size="11.00">310 LOC</text>
</g>
<!-- JEPA_Bernoulli&#45;&gt;Lemmas -->
<g id="edge4" class="edge">
<title>JEPA_Bernoulli&#45;&gt;Lemmas</title>
<path fill="none" stroke="#666666" d="M271.41,-709.34C337.03,-733.65 457.86,-778.41 561,-816.6 626.99,-841.03 703.14,-869.22 751.89,-887.26"/>
<polygon fill="#666666" stroke="#666666" points="750.94,-889.52 758.35,-889.65 752.64,-884.92 750.94,-889.52"/>
</g>
<!-- JEPA_Bernoulli&#45;&gt;JEPA_Core -->
<g id="edge5" class="edge">
<title>JEPA_Bernoulli&#45;&gt;JEPA_Core</title>
<path fill="none" stroke="#666666" d="M220.96,-709.02C218.9,-735.07 218.79,-784.28 242,-816.6 269.99,-855.59 320.17,-878.77 359.31,-891.69"/>
<polygon fill="#666666" stroke="#666666" points="358.12,-893.88 365.54,-893.67 359.61,-889.21 358.12,-893.88"/>
</g>
<!-- JEPA_Bernoulli&#45;&gt;JEPA_QuasiStatic -->
<g id="edge6" class="edge">
<title>JEPA_Bernoulli&#45;&gt;JEPA_QuasiStatic</title>
<path fill="none" stroke="#666666" d="M239.35,-708.94C255.8,-726.59 281.3,-753.94 299.62,-773.59"/>
<polygon fill="#666666" stroke="#666666" points="297.7,-775.13 304.26,-778.58 301.28,-771.78 297.7,-775.13"/>
</g>
<!-- JEPA_DiagAmpODE -->
<g id="node8" class="node">
<title>JEPA_DiagAmpODE</title>
<path fill="#efefef" stroke="#666666" stroke-width="2" d="M278.75,-600.2C278.75,-600.2 165.25,-600.2 165.25,-600.2 159.25,-600.2 153.25,-594.2 153.25,-588.2 153.25,-588.2 153.25,-568.2 153.25,-568.2 153.25,-562.2 159.25,-556.2 165.25,-556.2 165.25,-556.2 278.75,-556.2 278.75,-556.2 284.75,-556.2 290.75,-562.2 290.75,-568.2 290.75,-568.2 290.75,-588.2 290.75,-588.2 290.75,-594.2 284.75,-600.2 278.75,-600.2"/>
<text text-anchor="middle" x="222" y="-585.75" font-family="Helvetica,sans-Serif" font-size="11.00">JEPA/DiagAmpODE.lean</text>
<text text-anchor="middle" x="222" y="-573.75" font-family="Helvetica,sans-Serif" font-size="11.00">278 LOC</text>
<text text-anchor="middle" x="222" y="-561.75" font-family="Helvetica,sans-Serif" font-size="11.00">(2 sorries quarantined)</text>
</g>
<!-- JEPA_DiagAmpODE&#45;&gt;Lemmas -->
<g id="edge7" class="edge">
<title>JEPA_DiagAmpODE&#45;&gt;Lemmas</title>
<path fill="none" stroke="#666666" d="M291.5,-596.01C344.63,-610.37 418.75,-633.71 479,-665.2 593.57,-725.08 711.12,-823.95 767.59,-874.27"/>
<polygon fill="#666666" stroke="#666666" points="765.86,-876.01 772.71,-878.86 769.13,-872.36 765.86,-876.01"/>
</g>
<!-- JEPA_DiagAmpODE&#45;&gt;JEPA_Core -->
<g id="edge8" class="edge">
<title>JEPA_DiagAmpODE&#45;&gt;JEPA_Core</title>
<path fill="none" stroke="#666666" d="M188.29,-601.12C168.1,-616.37 144.25,-638.7 133,-665.2 124.25,-685.82 125.38,-694.53 133,-715.6 168.13,-812.79 287.02,-865.99 358.73,-889.92"/>
<polygon fill="#666666" stroke="#666666" points="357.95,-892.24 365.36,-892.08 359.47,-887.58 357.95,-892.24"/>
</g>
<!-- JEPA_DiagAmpODE&#45;&gt;JEPA_QuasiStatic -->
<g id="edge9" class="edge">
<title>JEPA_DiagAmpODE&#45;&gt;JEPA_QuasiStatic</title>
<path fill="none" stroke="#666666" d="M195.89,-601.04C166.37,-628.47 125.42,-676.65 150,-715.6 172.33,-750.99 214.59,-771.43 251.64,-783.05"/>
<polygon fill="#666666" stroke="#666666" points="250.59,-785.29 258,-784.96 252,-780.6 250.59,-785.29"/>
</g>
<!-- JEPA_DiagAmpODE&#45;&gt;JEPA_Bernoulli -->
<g id="edge10" class="edge">
<title>JEPA_DiagAmpODE&#45;&gt;JEPA_Bernoulli</title>
<path fill="none" stroke="#666666" d="M222.2,-600.97C222.36,-618.84 222.59,-644.2 222.76,-663.19"/>
<polygon fill="#666666" stroke="#666666" points="220.31,-663.18 222.83,-670.16 225.21,-663.13 220.31,-663.18"/>
</g>
<!-- JEPA_EncoderHelpers -->
<g id="node9" class="node">
<title>JEPA_EncoderHelpers</title>
<path fill="#efefef" stroke="#666666" stroke-width="2" d="M449.25,-715.6C449.25,-715.6 326.75,-715.6 326.75,-715.6 320.75,-715.6 314.75,-709.6 314.75,-703.6 314.75,-703.6 314.75,-677.2 314.75,-677.2 314.75,-671.2 320.75,-665.2 326.75,-665.2 326.75,-665.2 449.25,-665.2 449.25,-665.2 455.25,-665.2 461.25,-671.2 461.25,-677.2 461.25,-677.2 461.25,-703.6 461.25,-703.6 461.25,-709.6 455.25,-715.6 449.25,-715.6"/>
<text text-anchor="middle" x="388" y="-697.95" font-family="Helvetica,sans-Serif" font-size="11.00">JEPA/EncoderHelpers.lean</text>
<text text-anchor="middle" x="388" y="-685.95" font-family="Helvetica,sans-Serif" font-size="11.00">606 LOC</text>
<text text-anchor="middle" x="388" y="-673.95" font-family="Helvetica,sans-Serif" font-size="11.00">(11&#45;edge bond merge)</text>
</g>
<!-- JEPA_EncoderHelpers&#45;&gt;Lemmas -->
<g id="edge11" class="edge">
<title>JEPA_EncoderHelpers&#45;&gt;Lemmas</title>
<path fill="none" stroke="#666666" d="M436.3,-716.41C515.54,-757.45 672.33,-838.65 752.41,-880.12"/>
<polygon fill="#666666" stroke="#666666" points="751.23,-882.27 758.57,-883.31 753.48,-877.91 751.23,-882.27"/>
</g>
<!-- JEPA_EncoderHelpers&#45;&gt;JEPA_Core -->
<g id="edge13" class="edge">
<title>JEPA_EncoderHelpers&#45;&gt;JEPA_Core</title>
<path fill="none" stroke="#666666" d="M392.27,-716.34C395.24,-734.2 399.16,-758.84 402,-780.6 406.39,-814.33 410.25,-853.33 412.6,-878.72"/>
<polygon fill="#666666" stroke="#666666" points="410.15,-878.84 413.23,-885.59 415.03,-878.4 410.15,-878.84"/>
</g>
<!-- JEPA_EncoderHelpers&#45;&gt;JEPA_QuasiStatic -->
<g id="edge14" class="edge">
<title>JEPA_EncoderHelpers&#45;&gt;JEPA_QuasiStatic</title>
<path fill="none" stroke="#666666" d="M372.36,-716.57C361.75,-733.64 347.8,-756.08 337.27,-773.02"/>
<polygon fill="#666666" stroke="#666666" points="335.4,-771.39 333.79,-778.63 339.56,-773.98 335.4,-771.39"/>
</g>
<!-- OffDiagHelpers -->
<g id="node12" class="node">
<title>OffDiagHelpers</title>
<path fill="#efefef" stroke="#666666" stroke-width="2.5" d="M1300.58,-813.85C1300.58,-813.85 1237.42,-813.85 1237.42,-813.85 1232.33,-813.85 1227.25,-808.77 1227.25,-803.68 1227.25,-803.68 1227.25,-793.52 1227.25,-793.52 1227.25,-788.43 1232.33,-783.35 1237.42,-783.35 1237.42,-783.35 1300.58,-783.35 1300.58,-783.35 1305.67,-783.35 1310.75,-788.43 1310.75,-793.52 1310.75,-793.52 1310.75,-803.68 1310.75,-803.68 1310.75,-808.77 1305.67,-813.85 1300.58,-813.85"/>
<text text-anchor="middle" x="1269" y="-800.35" font-family="Helvetica,sans-Serif" font-size="10.00">OffDiagHelpers</text>
<text text-anchor="middle" x="1269" y="-789.1" font-family="Helvetica,sans-Serif" font-size="10.00">37 LOC</text>
</g>
<!-- JEPA_EncoderHelpers&#45;&gt;OffDiagHelpers -->
<g id="edge12" class="edge">
<title>JEPA_EncoderHelpers&#45;&gt;OffDiagHelpers</title>
<path fill="none" stroke="#666666" d="M462.24,-700.08C596.52,-715.83 888.7,-750.27 1135,-780.6 1162.5,-783.99 1193.15,-787.87 1218.2,-791.07"/>
<polygon fill="#666666" stroke="#666666" points="1217.71,-793.47 1224.96,-791.93 1218.33,-788.61 1217.71,-793.47"/>
</g>
<!-- JEPA_OffDiagFinal -->
<g id="node10" class="node">
<title>JEPA_OffDiagFinal</title>
<path fill="#fff2cc" stroke="#996600" stroke-width="2.5" d="M425.38,-487.6C425.38,-487.6 288.62,-487.6 288.62,-487.6 282.62,-487.6 276.62,-481.6 276.62,-475.6 276.62,-475.6 276.62,-442 276.62,-442 276.62,-436 282.62,-430 288.62,-430 288.62,-430 425.38,-430 425.38,-430 431.38,-430 437.38,-436 437.38,-442 437.38,-442 437.38,-475.6 437.38,-475.6 437.38,-481.6 431.38,-487.6 425.38,-487.6"/>
<text text-anchor="middle" x="357" y="-466.35" font-family="Helvetica,sans-Serif" font-size="11.00">JEPA/OffDiagFinal.lean</text>
<text text-anchor="middle" x="357" y="-454.35" font-family="Helvetica,sans-Serif" font-size="11.00">539 LOC</text>
<text text-anchor="middle" x="357" y="-442.35" font-family="Helvetica,sans-Serif" font-size="11.00">(headline JEPA_rho_ordering)</text>
</g>
<!-- JEPA_OffDiagFinal&#45;&gt;Lemmas -->
<g id="edge15" class="edge">
<title>JEPA_OffDiagFinal&#45;&gt;Lemmas</title>
<path fill="none" stroke="#666666" d="M438.15,-474.02C493.82,-487.29 566.49,-511.94 617,-556.2 718.24,-644.92 772.91,-802.76 792.97,-871.84"/>
<polygon fill="#666666" stroke="#666666" points="790.55,-872.3 794.83,-878.36 795.26,-870.96 790.55,-872.3"/>
</g>
<!-- JEPA_OffDiagFinal&#45;&gt;JEPA_Core -->
<g id="edge17" class="edge">
<title>JEPA_OffDiagFinal&#45;&gt;JEPA_Core</title>
<path fill="none" stroke="#666666" d="M275.67,-467.32C217.27,-477.42 142.2,-501.03 103,-556.2 61.96,-613.96 80.25,-647.55 100,-715.6 114.81,-766.64 122.47,-783.44 164,-816.6 221.41,-862.43 304.21,-885.73 358.79,-896.81"/>
<polygon fill="#666666" stroke="#666666" points="358.14,-899.18 365.48,-898.13 359.09,-894.37 358.14,-899.18"/>
</g>
<!-- JEPA_OffDiagFinal&#45;&gt;JEPA_QuasiStatic -->
<g id="edge18" class="edge">
<title>JEPA_OffDiagFinal&#45;&gt;JEPA_QuasiStatic</title>
<path fill="none" stroke="#666666" d="M275.69,-472.59C226.11,-485.01 166.43,-509.23 135,-556.2 95.6,-615.08 94.13,-656.36 133,-715.6 159.18,-755.49 209.4,-776.08 251.49,-786.64"/>
<polygon fill="#666666" stroke="#666666" points="250.67,-788.96 258.05,-788.21 251.81,-784.2 250.67,-788.96"/>
</g>
<!-- JEPA_OffDiagFinal&#45;&gt;JEPA_Bernoulli -->
<g id="edge19" class="edge">
<title>JEPA_OffDiagFinal&#45;&gt;JEPA_Bernoulli</title>
<path fill="none" stroke="#666666" d="M351.07,-488.56C344.11,-518.11 330.68,-564.7 309,-600.2 293.49,-625.6 269.62,-649.6 250.96,-666.29"/>
<polygon fill="#666666" stroke="#666666" points="249.63,-664.2 245.99,-670.67 252.87,-667.88 249.63,-664.2"/>
</g>
<!-- JEPA_OffDiagFinal&#45;&gt;JEPA_DiagAmpODE -->
<g id="edge20" class="edge">
<title>JEPA_OffDiagFinal&#45;&gt;JEPA_DiagAmpODE</title>
<path fill="none" stroke="#666666" d="M323.98,-488.52C302.47,-507.22 274.58,-531.47 253.41,-549.89"/>
<polygon fill="#666666" stroke="#666666" points="251.88,-547.97 248.21,-554.41 255.1,-551.66 251.88,-547.97"/>
</g>
<!-- JEPA_OffDiagFinal&#45;&gt;JEPA_EncoderHelpers -->
<g id="edge21" class="edge">
<title>JEPA_OffDiagFinal&#45;&gt;JEPA_EncoderHelpers</title>
<path fill="none" stroke="#666666" d="M360.86,-488.41C366.61,-530.99 377.39,-610.84 383.49,-656.02"/>
<polygon fill="#666666" stroke="#666666" points="381.04,-656.19 384.41,-662.8 385.9,-655.54 381.04,-656.19"/>
</g>
<!-- JEPA_OffDiagFinal&#45;&gt;OffDiagHelpers -->
<g id="edge16" class="edge">
<title>JEPA_OffDiagFinal&#45;&gt;OffDiagHelpers</title>
<path fill="none" stroke="#666666" d="M438.33,-474.99C563.74,-498.63 793.69,-542.87 830,-556.2 994.64,-616.66 1172.3,-731.65 1240.31,-777.75"/>
<polygon fill="#666666" stroke="#666666" points="1238.88,-779.75 1246.05,-781.66 1241.64,-775.7 1238.88,-779.75"/>
</g>
<!-- JEPA_shim -->
<g id="node11" class="node">
<title>JEPA_shim</title>
<path fill="#ffffff" stroke="#999999" stroke-dasharray="5,2" d="M711.38,-357.8C711.38,-357.8 616.62,-357.8 616.62,-357.8 610.62,-357.8 604.62,-351.8 604.62,-345.8 604.62,-345.8 604.62,-326.6 604.62,-326.6 604.62,-320.6 610.62,-314.6 616.62,-314.6 616.62,-314.6 711.38,-314.6 711.38,-314.6 717.38,-314.6 723.38,-320.6 723.38,-326.6 723.38,-326.6 723.38,-345.8 723.38,-345.8 723.38,-351.8 717.38,-357.8 711.38,-357.8"/>
<text text-anchor="middle" x="664" y="-343.57" font-family="Helvetica,sans-Serif" font-size="10.00">JEPA.lean</text>
<text text-anchor="middle" x="664" y="-332.32" font-family="Helvetica,sans-Serif" font-size="10.00">20 LOC (vestigial shim,</text>
<text text-anchor="middle" x="664" y="-321.07" font-family="Helvetica,sans-Serif" font-size="10.00">umbrella&#45;only)</text>
</g>
<!-- JEPA_shim&#45;&gt;JEPA_Core -->
<g id="edge22" class="edge">
<title>JEPA_shim&#45;&gt;JEPA_Core</title>
<path fill="none" stroke="#bbbbbb" stroke-dasharray="5,2" d="M711.95,-358.13C729.76,-368.55 748.05,-383.05 758,-402 799.17,-480.38 779.75,-522.13 738,-600.2 668.13,-730.84 521.5,-837.35 452.46,-882.49"/>
<polygon fill="#bbbbbb" stroke="#bbbbbb" points="451.44,-880.24 446.9,-886.1 454.1,-884.35 451.44,-880.24"/>
</g>
<!-- JEPA_shim&#45;&gt;JEPA_QuasiStatic -->
<g id="edge23" class="edge">
<title>JEPA_shim&#45;&gt;JEPA_QuasiStatic</title>
<path fill="none" stroke="#bbbbbb" stroke-dasharray="5,2" d="M689.06,-358.19C700.87,-369.74 713.72,-385.14 720,-402 750.95,-485.16 749.66,-529.53 696,-600.2 619.87,-700.47 477.94,-754.98 392.5,-780.04"/>
<polygon fill="#bbbbbb" stroke="#bbbbbb" points="391.92,-777.66 385.87,-781.96 393.28,-782.37 391.92,-777.66"/>
</g>
<!-- JEPA_shim&#45;&gt;JEPA_Bernoulli -->
<g id="edge24" class="edge">
<title>JEPA_shim&#45;&gt;JEPA_Bernoulli</title>
<path fill="none" stroke="#bbbbbb" stroke-dasharray="5,2" d="M610.71,-358.17C586.08,-369.23 557.21,-384.2 534,-402 491.98,-434.23 492.59,-453.9 455,-491.2 402.68,-543.12 386.09,-552.38 330,-600.2 303.48,-622.81 272.92,-648.23 251.26,-666.13"/>
<polygon fill="#bbbbbb" stroke="#bbbbbb" points="249.85,-664.12 246.01,-670.47 252.97,-667.9 249.85,-664.12"/>
</g>
<!-- JEPA_shim&#45;&gt;JEPA_DiagAmpODE -->
<g id="edge25" class="edge">
<title>JEPA_shim&#45;&gt;JEPA_DiagAmpODE</title>
<path fill="none" stroke="#bbbbbb" stroke-dasharray="5,2" d="M604.52,-338.69C504.22,-342.47 307.61,-355.73 259,-402 219.64,-439.46 216.78,-507.43 218.92,-546.8"/>
<polygon fill="#bbbbbb" stroke="#bbbbbb" points="216.47,-546.88 219.38,-553.7 221.36,-546.55 216.47,-546.88"/>
</g>
<!-- JEPA_shim&#45;&gt;JEPA_EncoderHelpers -->
<g id="edge26" class="edge">
<title>JEPA_shim&#45;&gt;JEPA_EncoderHelpers</title>
<path fill="none" stroke="#bbbbbb" stroke-dasharray="5,2" d="M673.03,-358.06C677.94,-370.54 683.5,-386.88 686,-402 700.56,-490.18 714.45,-536.26 652,-600.2 604.05,-649.28 528.2,-671.36 470.08,-681.29"/>
<polygon fill="#bbbbbb" stroke="#bbbbbb" points="470.01,-678.82 463.5,-682.37 470.8,-683.65 470.01,-678.82"/>
</g>
<!-- JEPA_shim&#45;&gt;JEPA_OffDiagFinal -->
<g id="edge27" class="edge">
<title>JEPA_shim&#45;&gt;JEPA_OffDiagFinal</title>
<path fill="none" stroke="#bbbbbb" stroke-dasharray="5,2" d="M604.42,-353.65C564.15,-365.47 510.11,-382.67 464,-402 447.89,-408.75 430.93,-417.02 415.38,-425.11"/>
<polygon fill="#bbbbbb" stroke="#bbbbbb" points="414.26,-422.93 409.21,-428.35 416.54,-427.27 414.26,-422.93"/>
</g>
<!-- OffDiagHelpers&#45;&gt;Lemmas -->
<g id="edge28" class="edge">
<title>OffDiagHelpers&#45;&gt;Lemmas</title>
<path fill="none" stroke="#666666" d="M1226.34,-810.26C1217.63,-812.39 1208.53,-814.59 1200,-816.6 1075.13,-845.97 927.7,-878.44 852.15,-894.92"/>
<polygon fill="#666666" stroke="#666666" points="851.98,-892.44 845.67,-896.33 853.03,-897.23 851.98,-892.44"/>
</g>
<!-- PDLowerHelpers -->
<g id="node13" class="node">
<title>PDLowerHelpers</title>
<path fill="#efefef" stroke="#666666" stroke-width="2" d="M1425.12,-816.6C1425.12,-816.6 1358.88,-816.6 1358.88,-816.6 1352.88,-816.6 1346.88,-810.6 1346.88,-804.6 1346.88,-804.6 1346.88,-792.6 1346.88,-792.6 1346.88,-786.6 1352.88,-780.6 1358.88,-780.6 1358.88,-780.6 1425.12,-780.6 1425.12,-780.6 1431.12,-780.6 1437.12,-786.6 1437.12,-792.6 1437.12,-792.6 1437.12,-804.6 1437.12,-804.6 1437.12,-810.6 1431.12,-816.6 1425.12,-816.6"/>
<text text-anchor="middle" x="1392" y="-800.35" font-family="Helvetica,sans-Serif" font-size="10.00">PDLowerHelpers</text>
<text text-anchor="middle" x="1392" y="-789.1" font-family="Helvetica,sans-Serif" font-size="10.00">194 LOC</text>
</g>
<!-- PDLowerHelpers&#45;&gt;Lemmas -->
<g id="edge29" class="edge">
<title>PDLowerHelpers&#45;&gt;Lemmas</title>
<path fill="none" stroke="#666666" d="M1346.02,-812.55C1340.31,-814 1334.53,-815.39 1329,-816.6 1155.22,-854.66 946.17,-885.74 852.13,-898.95"/>
<polygon fill="#666666" stroke="#666666" points="852.03,-896.49 845.43,-899.89 852.71,-901.34 852.03,-896.49"/>
</g>
<!-- PDLowerHelpers&#45;&gt;JEPA_Core -->
<g id="edge30" class="edge">
<title>PDLowerHelpers&#45;&gt;JEPA_Core</title>
<path fill="none" stroke="#666666" d="M1346.1,-812.93C1340.37,-814.32 1334.57,-815.58 1329,-816.6 1162.61,-846.95 644.21,-888.26 471.57,-901.52"/>
<polygon fill="#666666" stroke="#666666" points="471.43,-899.07 464.64,-902.05 471.81,-903.96 471.43,-899.07"/>
</g>
<!-- LaurentHelpers -->
<g id="node14" class="node">
<title>LaurentHelpers</title>
<path fill="#efefef" stroke="#666666" stroke-width="1.5" d="M1106.83,-813.85C1106.83,-813.85 1045.17,-813.85 1045.17,-813.85 1040.08,-813.85 1035,-808.77 1035,-803.68 1035,-803.68 1035,-793.52 1035,-793.52 1035,-788.43 1040.08,-783.35 1045.17,-783.35 1045.17,-783.35 1106.83,-783.35 1106.83,-783.35 1111.92,-783.35 1117,-788.43 1117,-793.52 1117,-793.52 1117,-803.68 1117,-803.68 1117,-808.77 1111.92,-813.85 1106.83,-813.85"/>
<text text-anchor="middle" x="1076" y="-800.35" font-family="Helvetica,sans-Serif" font-size="10.00">LaurentHelpers</text>
<text text-anchor="middle" x="1076" y="-789.1" font-family="Helvetica,sans-Serif" font-size="10.00">65 LOC</text>
</g>
<!-- LaurentHelpers&#45;&gt;JEPA_Core -->
<g id="edge31" class="edge">
<title>LaurentHelpers&#45;&gt;JEPA_Core</title>
<path fill="none" stroke="#666666" d="M1034.79,-810.57C1025.98,-812.73 1016.71,-814.86 1008,-816.6 812.18,-855.71 576.9,-886.29 471.22,-899.16"/>
<polygon fill="#666666" stroke="#666666" points="471.08,-896.71 464.43,-899.99 471.67,-901.58 471.08,-896.71"/>
</g>
<!-- SaxeAsymptoticHelpers -->
<g id="node15" class="node">
<title>SaxeAsymptoticHelpers</title>
<path fill="#efefef" stroke="#666666" stroke-width="1.5" d="M586.88,-599.8C586.88,-599.8 489.12,-599.8 489.12,-599.8 483.12,-599.8 477.12,-593.8 477.12,-587.8 477.12,-587.8 477.12,-568.6 477.12,-568.6 477.12,-562.6 483.12,-556.6 489.12,-556.6 489.12,-556.6 586.88,-556.6 586.88,-556.6 592.88,-556.6 598.88,-562.6 598.88,-568.6 598.88,-568.6 598.88,-587.8 598.88,-587.8 598.88,-593.8 592.88,-599.8 586.88,-599.8"/>
<text text-anchor="middle" x="538" y="-579.95" font-family="Helvetica,sans-Serif" font-size="10.00">SaxeAsymptoticHelpers</text>
<text text-anchor="middle" x="538" y="-568.7" font-family="Helvetica,sans-Serif" font-size="10.00">363 LOC</text>
</g>
<!-- SaxeAsymptoticHelpers&#45;&gt;JEPA_Bernoulli -->
<g id="edge32" class="edge">
<title>SaxeAsymptoticHelpers&#45;&gt;JEPA_Bernoulli</title>
<path fill="none" stroke="#666666" d="M478.01,-600.19C421.75,-619.87 338.12,-649.13 282.14,-668.71"/>
<polygon fill="#666666" stroke="#666666" points="281.66,-666.28 275.86,-670.91 283.27,-670.91 281.66,-666.28"/>
</g>
<!-- BootstrapLemmas -->
<g id="node16" class="node">
<title>BootstrapLemmas</title>
<path fill="#fff2cc" stroke="#996600" stroke-width="1.5" d="M1359.88,-361.4C1359.88,-361.4 1280.12,-361.4 1280.12,-361.4 1274.12,-361.4 1268.12,-355.4 1268.12,-349.4 1268.12,-349.4 1268.12,-323 1268.12,-323 1268.12,-317 1274.12,-311 1280.12,-311 1280.12,-311 1359.88,-311 1359.88,-311 1365.88,-311 1371.88,-317 1371.88,-323 1371.88,-323 1371.88,-349.4 1371.88,-349.4 1371.88,-355.4 1365.88,-361.4 1359.88,-361.4"/>
<text text-anchor="middle" x="1320" y="-337.75" font-family="Helvetica,sans-Serif" font-size="11.00">BootstrapLemmas</text>
<text text-anchor="middle" x="1320" y="-325.75" font-family="Helvetica,sans-Serif" font-size="11.00">552 LOC</text>
</g>
<!-- BootstrapLemmas&#45;&gt;Lemmas -->
<g id="edge33" class="edge">
<title>BootstrapLemmas&#45;&gt;Lemmas</title>
<path fill="none" stroke="#666666" d="M1340.61,-361.76C1402.63,-438.67 1575.95,-678 1455,-816.6 1415.35,-862.03 998.23,-893.13 852.17,-902.69"/>
<polygon fill="#666666" stroke="#666666" points="852.11,-900.24 845.28,-903.14 852.43,-905.13 852.11,-900.24"/>
</g>
<!-- BootstrapLemmas&#45;&gt;JEPA_OffDiagFinal -->
<g id="edge35" class="edge">
<title>BootstrapLemmas&#45;&gt;JEPA_OffDiagFinal</title>
<path fill="none" stroke="#666666" d="M1267.95,-337.5C1141.17,-339.09 806.75,-348.46 534,-402 503.8,-407.93 471.49,-417.2 442.86,-426.5"/>
<polygon fill="#666666" stroke="#666666" points="442.21,-424.13 436.32,-428.64 443.74,-428.79 442.21,-424.13"/>
</g>
<!-- BootstrapLemmas&#45;&gt;OffDiagHelpers -->
<g id="edge34" class="edge">
<title>BootstrapLemmas&#45;&gt;OffDiagHelpers</title>
<path fill="none" stroke="#666666" d="M1306.98,-361.73C1301.34,-373.57 1295.28,-388.17 1292,-402 1259.23,-540.13 1264.34,-712.61 1267.56,-774.32"/>
<polygon fill="#666666" stroke="#666666" points="1265.1,-774.24 1267.93,-781.09 1270,-773.97 1265.1,-774.24"/>
</g>
<!-- BootstrapLemmas&#45;&gt;PDLowerHelpers -->
<g id="edge36" class="edge">
<title>BootstrapLemmas&#45;&gt;PDLowerHelpers</title>
<path fill="none" stroke="#666666" d="M1323.82,-361.63C1336.22,-440.91 1375.26,-690.58 1387.96,-771.8"/>
<polygon fill="#666666" stroke="#666666" points="1385.51,-771.96 1389.01,-778.49 1390.35,-771.2 1385.51,-771.96"/>
</g>
<!-- MainTheorem -->
<g id="node17" class="node">
<title>MainTheorem</title>
<path fill="#fff2cc" stroke="#996600" d="M1423.38,-144.6C1423.38,-144.6 1364.62,-144.6 1364.62,-144.6 1358.62,-144.6 1352.62,-138.6 1352.62,-132.6 1352.62,-132.6 1352.62,-113.4 1352.62,-113.4 1352.62,-107.4 1358.62,-101.4 1364.62,-101.4 1364.62,-101.4 1423.38,-101.4 1423.38,-101.4 1429.38,-101.4 1435.38,-107.4 1435.38,-113.4 1435.38,-113.4 1435.38,-132.6 1435.38,-132.6 1435.38,-138.6 1429.38,-144.6 1423.38,-144.6"/>
<text text-anchor="middle" x="1394" y="-124.55" font-family="Helvetica,sans-Serif" font-size="11.00">MainTheorem</text>
<text text-anchor="middle" x="1394" y="-112.55" font-family="Helvetica,sans-Serif" font-size="11.00">300 LOC</text>
</g>
<!-- MainTheorem&#45;&gt;Lemmas -->
<g id="edge41" class="edge">
<title>MainTheorem&#45;&gt;Lemmas</title>
<path fill="none" stroke="#666666" d="M1401,-144.93C1410.23,-170.51 1428.23,-214.3 1453,-246 1480.78,-281.56 1501.91,-276.5 1531,-311 1579.6,-368.64 1616,-382.41 1616,-457.8 1616,-457.8 1616,-457.8 1616,-691.4 1616,-769.09 1563.5,-781.88 1494,-816.6 1380.96,-873.07 992.56,-896.74 852.7,-903.57"/>
<polygon fill="#666666" stroke="#666666" points="852.63,-901.12 845.76,-903.9 852.87,-906.01 852.63,-901.12"/>
</g>
<!-- MainTheorem&#45;&gt;JEPA_OffDiagFinal -->
<g id="edge43" class="edge">
<title>MainTheorem&#45;&gt;JEPA_OffDiagFinal</title>
<path fill="none" stroke="#666666" d="M1352.16,-128.61C1230.1,-143.11 865.42,-193.98 587,-311 516.8,-340.51 444.08,-390.84 399.67,-424.21"/>
<polygon fill="#666666" stroke="#666666" points="398.38,-422.12 394.27,-428.3 401.33,-426.03 398.38,-422.12"/>
</g>
<!-- MainTheorem&#45;&gt;OffDiagHelpers -->
<g id="edge42" class="edge">
<title>MainTheorem&#45;&gt;OffDiagHelpers</title>
<path fill="none" stroke="#666666" d="M1394.86,-145.03C1396.3,-186.54 1398.27,-281.86 1390,-361.4 1373.09,-524.11 1303.68,-710.61 1278.33,-774.64"/>
<polygon fill="#666666" stroke="#666666" points="1276.07,-773.69 1275.75,-781.1 1280.62,-775.51 1276.07,-773.69"/>
</g>
<!-- MainTheorem&#45;&gt;PDLowerHelpers -->
<g id="edge44" class="edge">
<title>MainTheorem&#45;&gt;PDLowerHelpers</title>
<path fill="none" stroke="#666666" d="M1403,-144.72C1413.92,-169.34 1433.33,-211.44 1453,-246 1470.13,-276.1 1486.02,-277.83 1496,-311 1533.03,-434.08 1526.86,-475.43 1496,-600.2 1479.35,-667.53 1435.11,-737.25 1410.02,-773.07"/>
<polygon fill="#666666" stroke="#666666" points="1408.2,-771.41 1406.15,-778.54 1412.19,-774.24 1408.2,-771.41"/>
</g>
<!-- MainTheorem&#45;&gt;LaurentHelpers -->
<g id="edge46" class="edge">
<title>MainTheorem&#45;&gt;LaurentHelpers</title>
<path fill="none" stroke="#666666" d="M1374.32,-144.89C1344.08,-177.91 1285.94,-245.19 1250,-311 1158.48,-478.6 1098.86,-703.88 1081.36,-775.07"/>
<polygon fill="#666666" stroke="#666666" points="1079.07,-774.12 1079.8,-781.5 1083.83,-775.28 1079.07,-774.12"/>
</g>
<!-- MainTheorem&#45;&gt;BootstrapLemmas -->
<g id="edge45" class="edge">
<title>MainTheorem&#45;&gt;BootstrapLemmas</title>
<path fill="none" stroke="#666666" d="M1386.63,-145.02C1373.66,-182.05 1346.65,-259.13 1331.3,-302.94"/>
<polygon fill="#666666" stroke="#666666" points="1329.08,-301.87 1329.08,-309.28 1333.71,-303.49 1329.08,-301.87"/>
</g>
<!-- Corrected -->
<g id="node18" class="node">
<title>Corrected</title>
<path fill="#fff2cc" stroke="#996600" d="M655.88,-491.2C655.88,-491.2 564.12,-491.2 564.12,-491.2 558.12,-491.2 552.12,-485.2 552.12,-479.2 552.12,-479.2 552.12,-438.4 552.12,-438.4 552.12,-432.4 558.12,-426.4 564.12,-426.4 564.12,-426.4 655.88,-426.4 655.88,-426.4 661.88,-426.4 667.88,-432.4 667.88,-438.4 667.88,-438.4 667.88,-479.2 667.88,-479.2 667.88,-485.2 661.88,-491.2 655.88,-491.2"/>
<text text-anchor="middle" x="610" y="-466.35" font-family="Helvetica,sans-Serif" font-size="11.00">Corrected.lean</text>
<text text-anchor="middle" x="610" y="-454.35" font-family="Helvetica,sans-Serif" font-size="11.00">1066 LOC</text>
<text text-anchor="middle" x="610" y="-442.35" font-family="Helvetica,sans-Serif" font-size="11.00">(headline, hardened)</text>
</g>
<!-- Corrected&#45;&gt;Lemmas -->
<g id="edge39" class="edge">
<title>Corrected&#45;&gt;Lemmas</title>
<path fill="none" stroke="#666666" d="M668.32,-473.86C784.28,-505.43 1040.75,-594.25 1135,-780.6 1190.5,-890.34 958.23,-905.11 852.25,-906.26"/>
<polygon fill="#666666" stroke="#666666" points="852.42,-903.81 845.44,-906.31 852.46,-908.71 852.42,-903.81"/>
</g>
<!-- Corrected&#45;&gt;JEPA_DiagAmpODE -->
<g id="edge37" class="edge">
<title>Corrected&#45;&gt;JEPA_DiagAmpODE</title>
<path fill="none" stroke="#666666" d="M551.91,-477.38C484.81,-497.68 374.1,-531.18 299.65,-553.71"/>
<polygon fill="#666666" stroke="#666666" points="299.09,-551.31 293.1,-555.69 300.51,-556 299.09,-551.31"/>
</g>
<!-- Corrected&#45;&gt;JEPA_EncoderHelpers -->
<g id="edge38" class="edge">
<title>Corrected&#45;&gt;JEPA_EncoderHelpers</title>
<path fill="none" stroke="#666666" d="M621.77,-491.49C630.95,-522.06 638.83,-568.27 617,-600.2 584.26,-648.09 521.69,-670.27 470.22,-680.55"/>
<polygon fill="#666666" stroke="#666666" points="469.97,-678.1 463.55,-681.81 470.88,-682.91 469.97,-678.1"/>
</g>
<!-- Corrected&#45;&gt;SaxeAsymptoticHelpers -->
<g id="edge40" class="edge">
<title>Corrected&#45;&gt;SaxeAsymptoticHelpers</title>
<path fill="none" stroke="#666666" d="M590.52,-491.57C579.51,-509.51 565.88,-531.75 555.26,-549.06"/>
<polygon fill="#666666" stroke="#666666" points="553.27,-547.61 551.7,-554.86 557.45,-550.17 553.27,-547.61"/>
</g>
<!-- legend -->
<g id="node19" class="node">
<title>legend</title>
<path fill="lightgrey" stroke="none" d="M2169,-246C2169,-246 1903,-246 1903,-246 1897,-246 1891,-240 1891,-234 1891,-234 1891,-12 1891,-12 1891,-6 1897,0 1903,0 1903,0 2169,0 2169,0 2175,0 2181,-6 2181,-12 2181,-12 2181,-234 2181,-234 2181,-240 2175,-246 2169,-246"/>
<polygon fill="#ffffff" stroke="none" points="1899,-4 1899,-242 2173,-242 2173,-4 1899,-4"/>
<text text-anchor="start" x="1908" y="-223.55" font-family="Helvetica,sans-Serif" font-weight="bold" font-size="11.00">Legend (post&#45;migration)</text>
<polygon fill="#cfe2f3" stroke="none" points="1904,-193 1904,-213 1971,-213 1971,-193 1904,-193"/>
<text text-anchor="start" x="1979" y="-198.55" font-family="Helvetica,sans-Serif" font-size="11.00">foundation (heavy fan&#45;in)</text>
<polygon fill="#fff2cc" stroke="none" points="1904,-169 1904,-189 1971,-189 1971,-169 1904,-169"/>
<text text-anchor="start" x="1979" y="-174.55" font-family="Helvetica,sans-Serif" font-size="11.00">synthesis (headline / glue)</text>
<polygon fill="#efefef" stroke="none" points="1904,-145 1904,-165 1971,-165 1971,-145 1904,-145"/>
<text text-anchor="start" x="1979" y="-150.55" font-family="Helvetica,sans-Serif" font-size="11.00">helper (single&#45;cluster lemmas)</text>
<polygon fill="#ffffff" stroke="none" points="1904,-118 1904,-141 1971,-141 1971,-118 1904,-118"/>
<text text-anchor="start" x="1927.75" y="-127.5" font-family="Helvetica,sans-Serif" font-size="10.00">┄┄</text>
<text text-anchor="start" x="1979" y="-125.05" font-family="Helvetica,sans-Serif" font-size="11.00">orphan / stub / vestigial</text>
<text text-anchor="start" x="1977.5" y="-100.5" font-family="Helvetica,sans-Serif" font-size="10.00">────────────</text>
<text text-anchor="start" x="1923.75" y="-78.5" font-family="Helvetica,sans-Serif" font-weight="bold" font-size="10.00">Depth: 8</text>
<text text-anchor="start" x="1962.75" y="-78.5" font-family="Helvetica,sans-Serif" font-size="10.00"> (down from 9 — shim no longer in chain).</text>
<text text-anchor="start" x="1949.62" y="-68.5" font-family="Helvetica,sans-Serif" font-weight="bold" font-size="10.00">Shim fan&#45;in: 0 internal</text>
<text text-anchor="start" x="2053.12" y="-68.5" font-family="Helvetica,sans-Serif" font-size="10.00"> (down from 6).</text>
<text text-anchor="start" x="1935.38" y="-58.5" font-family="Helvetica,sans-Serif" font-size="10.00">Largest active file: EncoderHelpers 606 LOC.</text>
<text text-anchor="start" x="1908" y="-48.5" font-family="Helvetica,sans-Serif" font-size="10.00">JEPA_Core true fan&#45;in revealed: 6 (was masked by shim).</text>
<text text-anchor="start" x="1924.88" y="-25.5" font-family="Helvetica,sans-Serif" font-size="10.00">node size ∝ LOC</text>
<text text-anchor="start" x="1908" y="-14.25" font-family="Helvetica,sans-Serif" font-size="10.00">border thickness ∝ fan&#45;in</text>
<polygon fill="none" stroke="#bbbbbb" points="1899,-4 1899,-242 2173,-242 2173,-4 1899,-4"/>
</g>
</g>
</svg>
