<?xml version="1.0" encoding="UTF-8" standalone="no"?>
<!DOCTYPE svg PUBLIC "-//W3C//DTD SVG 1.1//EN"
 "http://www.w3.org/Graphics/SVG/1.1/DTD/svg11.dtd">
<!-- Generated by graphviz version 12.1.2 (20240928.0832)
 -->
<!-- Title: JEPA_LearningOrder_Import_PostSplit Pages: 1 -->
<svg width="1758pt" height="1128pt"
 viewBox="0.00 0.00 1757.50 1128.20" xmlns="http://www.w3.org/2000/svg" xmlns:xlink="http://www.w3.org/1999/xlink">
<g id="graph0" class="graph" transform="scale(1 1) rotate(0) translate(36 1092.2)">
<title>JEPA_LearningOrder_Import_PostSplit</title>
<polygon fill="#fafafa" stroke="none" points="-36,36 -36,-1092.2 1721.5,-1092.2 1721.5,36 -36,36"/>
<g id="clust1" class="cluster">
<title>cluster_jepa</title>
<path fill="#fafafa" stroke="#999999" stroke-dasharray="5,2" d="M141.5,-521C141.5,-521 577.5,-521 577.5,-521 583.5,-521 589.5,-527 589.5,-533 589.5,-533 589.5,-1036.2 589.5,-1036.2 589.5,-1042.2 583.5,-1048.2 577.5,-1048.2 577.5,-1048.2 141.5,-1048.2 141.5,-1048.2 135.5,-1048.2 129.5,-1042.2 129.5,-1036.2 129.5,-1036.2 129.5,-533 129.5,-533 129.5,-527 135.5,-521 141.5,-521"/>
<text text-anchor="middle" x="359.5" y="-526.55" font-family="Helvetica,sans-Serif" font-size="11.00">JEPA/ &#160;(session 95 split of former 2002&#45;LOC monolith)</text>
</g>
<!-- Lemmas -->
<g id="node1" class="node">
<title>Lemmas</title>
<path fill="#cfe2f3" stroke="#1f4e79" stroke-width="4" d="M738.75,-1047.4C738.75,-1047.4 682.25,-1047.4 682.25,-1047.4 676.25,-1047.4 670.25,-1041.4 670.25,-1035.4 670.25,-1035.4 670.25,-1009 670.25,-1009 670.25,-1003 676.25,-997 682.25,-997 682.25,-997 738.75,-997 738.75,-997 744.75,-997 750.75,-1003 750.75,-1009 750.75,-1009 750.75,-1035.4 750.75,-1035.4 750.75,-1041.4 744.75,-1047.4 738.75,-1047.4"/>
<text text-anchor="middle" x="710.5" y="-1023.75" font-family="Helvetica,sans-Serif" font-size="11.00">Lemmas.lean</text>
<text text-anchor="middle" x="710.5" y="-1011.75" font-family="Helvetica,sans-Serif" font-size="11.00">498 LOC</text>
</g>
<!-- Basic -->
<g id="node2" class="node">
<title>Basic</title>
<path fill="#ffffff" stroke="#999999" stroke-dasharray="5,2" d="M1087.78,-137.4C1087.78,-137.4 1039.22,-137.4 1039.22,-137.4 1034.42,-137.4 1029.62,-132.6 1029.62,-127.8 1029.62,-127.8 1029.62,-118.2 1029.62,-118.2 1029.62,-113.4 1034.42,-108.6 1039.22,-108.6 1039.22,-108.6 1087.78,-108.6 1087.78,-108.6 1092.58,-108.6 1097.38,-113.4 1097.38,-118.2 1097.38,-118.2 1097.38,-127.8 1097.38,-127.8 1097.38,-132.6 1092.58,-137.4 1087.78,-137.4"/>
<text text-anchor="middle" x="1063.5" y="-124.2" font-family="Helvetica,sans-Serif" font-size="9.00">Basic.lean</text>
<text text-anchor="middle" x="1063.5" y="-114.45" font-family="Helvetica,sans-Serif" font-size="9.00">1 LOC (stub)</text>
</g>
<!-- GronwallIntegral -->
<g id="node3" class="node">
<title>GronwallIntegral</title>
<path fill="#ffffff" stroke="#999999" stroke-dasharray="5,2" d="M1229.25,-141C1229.25,-141 1145.75,-141 1145.75,-141 1139.75,-141 1133.75,-135 1133.75,-129 1133.75,-129 1133.75,-117 1133.75,-117 1133.75,-111 1139.75,-105 1145.75,-105 1145.75,-105 1229.25,-105 1229.25,-105 1235.25,-105 1241.25,-111 1241.25,-117 1241.25,-117 1241.25,-129 1241.25,-129 1241.25,-135 1235.25,-141 1229.25,-141"/>
<text text-anchor="middle" x="1187.5" y="-124.75" font-family="Helvetica,sans-Serif" font-size="10.00">GronwallIntegral.lean</text>
<text text-anchor="middle" x="1187.5" y="-113.5" font-family="Helvetica,sans-Serif" font-size="10.00">136 LOC (unused)</text>
</g>
<!-- CounterexampleVerification -->
<g id="node4" class="node">
<title>CounterexampleVerification</title>
<path fill="#ffffff" stroke="#999999" stroke-dasharray="5,2" d="M1401.5,-141C1401.5,-141 1289.5,-141 1289.5,-141 1283.5,-141 1277.5,-135 1277.5,-129 1277.5,-129 1277.5,-117 1277.5,-117 1277.5,-111 1283.5,-105 1289.5,-105 1289.5,-105 1401.5,-105 1401.5,-105 1407.5,-105 1413.5,-111 1413.5,-117 1413.5,-117 1413.5,-129 1413.5,-129 1413.5,-135 1407.5,-141 1401.5,-141"/>
<text text-anchor="middle" x="1345.5" y="-124.75" font-family="Helvetica,sans-Serif" font-size="10.00">CounterexampleVerification</text>
<text text-anchor="middle" x="1345.5" y="-113.5" font-family="Helvetica,sans-Serif" font-size="10.00">84 LOC</text>
</g>
<!-- JEPA_Core -->
<g id="node5" class="node">
<title>JEPA_Core</title>
<path fill="#cfe2f3" stroke="#1f4e79" stroke-width="3" d="M268.75,-1040.2C268.75,-1040.2 200.25,-1040.2 200.25,-1040.2 194.25,-1040.2 188.25,-1034.2 188.25,-1028.2 188.25,-1028.2 188.25,-1016.2 188.25,-1016.2 188.25,-1010.2 194.25,-1004.2 200.25,-1004.2 200.25,-1004.2 268.75,-1004.2 268.75,-1004.2 274.75,-1004.2 280.75,-1010.2 280.75,-1016.2 280.75,-1016.2 280.75,-1028.2 280.75,-1028.2 280.75,-1034.2 274.75,-1040.2 268.75,-1040.2"/>
<text text-anchor="middle" x="234.5" y="-1023.75" font-family="Helvetica,sans-Serif" font-size="11.00">JEPA/Core.lean</text>
<text text-anchor="middle" x="234.5" y="-1011.75" font-family="Helvetica,sans-Serif" font-size="11.00">129 LOC</text>
</g>
<!-- JEPA_Core&#45;&gt;Lemmas -->
<g id="edge1" class="edge">
<title>JEPA_Core&#45;&gt;Lemmas</title>
<path fill="none" stroke="#666666" d="M281.91,-1022.2C408.06,-1022.2 534.2,-1022.2 660.34,-1022.2"/>
<polygon fill="#666666" stroke="#666666" points="660.13,-1024.65 667.13,-1022.2 660.13,-1019.75 660.13,-1024.65"/>
</g>
<!-- JEPA_QuasiStatic -->
<g id="node6" class="node">
<title>JEPA_QuasiStatic</title>
<path fill="#efefef" stroke="#666666" stroke-width="2" d="M383.12,-932C383.12,-932 283.88,-932 283.88,-932 277.88,-932 271.88,-926 271.88,-920 271.88,-920 271.88,-908 271.88,-908 271.88,-902 277.88,-896 283.88,-896 283.88,-896 383.12,-896 383.12,-896 389.12,-896 395.12,-902 395.12,-908 395.12,-908 395.12,-920 395.12,-920 395.12,-926 389.12,-932 383.12,-932"/>
<text text-anchor="middle" x="333.5" y="-915.55" font-family="Helvetica,sans-Serif" font-size="11.00">JEPA/QuasiStatic.lean</text>
<text text-anchor="middle" x="333.5" y="-903.55" font-family="Helvetica,sans-Serif" font-size="11.00">245 LOC</text>
</g>
<!-- JEPA_QuasiStatic&#45;&gt;Lemmas -->
<g id="edge2" class="edge">
<title>JEPA_QuasiStatic&#45;&gt;Lemmas</title>
<path fill="none" stroke="#666666" d="M395.75,-932.54C469.81,-953.4 591.98,-987.81 660.29,-1007.06"/>
<polygon fill="#666666" stroke="#666666" points="659.49,-1009.38 666.89,-1008.92 660.82,-1004.66 659.49,-1009.38"/>
</g>
<!-- JEPA_QuasiStatic&#45;&gt;JEPA_Core -->
<g id="edge3" class="edge">
<title>JEPA_QuasiStatic&#45;&gt;JEPA_Core</title>
<path fill="none" stroke="#666666" d="M317.15,-932.54C300.8,-950.08 275.51,-977.21 257.21,-996.84"/>
<polygon fill="#666666" stroke="#666666" points="255.55,-995.03 252.57,-1001.82 259.13,-998.37 255.55,-995.03"/>
</g>
<!-- JEPA_Bernoulli -->
<g id="node7" class="node">
<title>JEPA_Bernoulli</title>
<path fill="#efefef" stroke="#666666" stroke-width="1.5" d="M311.75,-823.8C311.75,-823.8 225.25,-823.8 225.25,-823.8 219.25,-823.8 213.25,-817.8 213.25,-811.8 213.25,-811.8 213.25,-799.8 213.25,-799.8 213.25,-793.8 219.25,-787.8 225.25,-787.8 225.25,-787.8 311.75,-787.8 311.75,-787.8 317.75,-787.8 323.75,-793.8 323.75,-799.8 323.75,-799.8 323.75,-811.8 323.75,-811.8 323.75,-817.8 317.75,-823.8 311.75,-823.8"/>
<text text-anchor="middle" x="268.5" y="-807.35" font-family="Helvetica,sans-Serif" font-size="11.00">JEPA/Bernoulli.lean</text>
<text text-anchor="middle" x="268.5" y="-795.35" font-family="Helvetica,sans-Serif" font-size="11.00">310 LOC</text>
</g>
<!-- JEPA_Bernoulli&#45;&gt;Lemmas -->
<g id="edge4" class="edge">
<title>JEPA_Bernoulli&#45;&gt;Lemmas</title>
<path fill="none" stroke="#666666" d="M304.3,-824.16C382.88,-862.28 570.63,-953.35 660.67,-997.03"/>
<polygon fill="#666666" stroke="#666666" points="659.56,-999.21 666.93,-1000.07 661.7,-994.81 659.56,-999.21"/>
</g>
<!-- JEPA_Bernoulli&#45;&gt;JEPA_Core -->
<g id="edge5" class="edge">
<title>JEPA_Bernoulli&#45;&gt;JEPA_Core</title>
<path fill="none" stroke="#666666" d="M265.49,-824.22C262.4,-842.19 257.49,-871.03 253.5,-896 248.06,-929.98 242.17,-969.22 238.41,-994.58"/>
<polygon fill="#666666" stroke="#666666" points="236,-994.16 237.4,-1001.44 240.85,-994.88 236,-994.16"/>
</g>
<!-- JEPA_Bernoulli&#45;&gt;JEPA_QuasiStatic -->
<g id="edge6" class="edge">
<title>JEPA_Bernoulli&#45;&gt;JEPA_QuasiStatic</title>
<path fill="none" stroke="#666666" d="M278.94,-823.86C289.57,-841.23 306.16,-868.33 318.25,-888.09"/>
<polygon fill="#666666" stroke="#666666" points="316.11,-889.29 321.86,-893.98 320.29,-886.73 316.11,-889.29"/>
</g>
<!-- JEPA_DiagAmpODE -->
<g id="node8" class="node">
<title>JEPA_DiagAmpODE</title>
<path fill="#efefef" stroke="#666666" stroke-width="1.5" d="M339.25,-715.6C339.25,-715.6 225.75,-715.6 225.75,-715.6 219.75,-715.6 213.75,-709.6 213.75,-703.6 213.75,-703.6 213.75,-683.6 213.75,-683.6 213.75,-677.6 219.75,-671.6 225.75,-671.6 225.75,-671.6 339.25,-671.6 339.25,-671.6 345.25,-671.6 351.25,-677.6 351.25,-683.6 351.25,-683.6 351.25,-703.6 351.25,-703.6 351.25,-709.6 345.25,-715.6 339.25,-715.6"/>
<text text-anchor="middle" x="282.5" y="-701.15" font-family="Helvetica,sans-Serif" font-size="11.00">JEPA/DiagAmpODE.lean</text>
<text text-anchor="middle" x="282.5" y="-689.15" font-family="Helvetica,sans-Serif" font-size="11.00">278 LOC</text>
<text text-anchor="middle" x="282.5" y="-677.15" font-family="Helvetica,sans-Serif" font-size="11.00">(2 sorries quarantined)</text>
</g>
<!-- JEPA_DiagAmpODE&#45;&gt;Lemmas -->
<g id="edge7" class="edge">
<title>JEPA_DiagAmpODE&#45;&gt;Lemmas</title>
<path fill="none" stroke="#666666" d="M351.44,-696.8C421.41,-702.48 529.17,-721.15 599.5,-780.6 632.89,-808.82 677.88,-927.75 698.85,-987.15"/>
<polygon fill="#666666" stroke="#666666" points="696.51,-987.9 701.14,-993.69 701.14,-986.28 696.51,-987.9"/>
</g>
<!-- JEPA_DiagAmpODE&#45;&gt;JEPA_Core -->
<g id="edge8" class="edge">
<title>JEPA_DiagAmpODE&#45;&gt;JEPA_Core</title>
<path fill="none" stroke="#666666" d="M250.41,-716C230.49,-731.34 206.63,-753.95 195.5,-780.6 164.73,-854.27 200.5,-950.04 221.44,-995.32"/>
<polygon fill="#666666" stroke="#666666" points="219.18,-996.26 224.39,-1001.54 223.61,-994.17 219.18,-996.26"/>
</g>
<!-- JEPA_DiagAmpODE&#45;&gt;JEPA_QuasiStatic -->
<g id="edge9" class="edge">
<title>JEPA_DiagAmpODE&#45;&gt;JEPA_QuasiStatic</title>
<path fill="none" stroke="#666666" d="M302.65,-715.96C316.57,-732.27 333.89,-756.04 341.5,-780.6 352.58,-816.32 346.38,-860.01 340.37,-887.18"/>
<polygon fill="#666666" stroke="#666666" points="338,-886.54 338.79,-893.92 342.77,-887.66 338,-886.54"/>
</g>
<!-- JEPA_DiagAmpODE&#45;&gt;JEPA_Bernoulli -->
<g id="edge10" class="edge">
<title>JEPA_DiagAmpODE&#45;&gt;JEPA_Bernoulli</title>
<path fill="none" stroke="#666666" d="M279.8,-715.85C277.5,-733.96 274.19,-760.05 271.74,-779.29"/>
<polygon fill="#666666" stroke="#666666" points="269.33,-778.84 270.88,-786.09 274.19,-779.46 269.33,-778.84"/>
</g>
<!-- JEPA_EncoderHelpers -->
<g id="node9" class="node">
<title>JEPA_EncoderHelpers</title>
<path fill="#efefef" stroke="#666666" stroke-width="1.5" d="M569.75,-831C569.75,-831 447.25,-831 447.25,-831 441.25,-831 435.25,-825 435.25,-819 435.25,-819 435.25,-792.6 435.25,-792.6 435.25,-786.6 441.25,-780.6 447.25,-780.6 447.25,-780.6 569.75,-780.6 569.75,-780.6 575.75,-780.6 581.75,-786.6 581.75,-792.6 581.75,-792.6 581.75,-819 581.75,-819 581.75,-825 575.75,-831 569.75,-831"/>
<text text-anchor="middle" x="508.5" y="-813.35" font-family="Helvetica,sans-Serif" font-size="11.00">JEPA/EncoderHelpers.lean</text>
<text text-anchor="middle" x="508.5" y="-801.35" font-family="Helvetica,sans-Serif" font-size="11.00">606 LOC</text>
<text text-anchor="middle" x="508.5" y="-789.35" font-family="Helvetica,sans-Serif" font-size="11.00">(11&#45;edge bond merge)</text>
</g>
<!-- JEPA_EncoderHelpers&#45;&gt;Lemmas -->
<g id="edge11" class="edge">
<title>JEPA_EncoderHelpers&#45;&gt;Lemmas</title>
<path fill="none" stroke="#666666" d="M526.1,-831.39C545.19,-857.43 577.16,-899.23 608.5,-932 628.07,-952.47 651.8,-973.41 671.44,-989.86"/>
<polygon fill="#666666" stroke="#666666" points="669.82,-991.7 676.76,-994.29 672.95,-987.93 669.82,-991.7"/>
</g>
<!-- JEPA_EncoderHelpers&#45;&gt;JEPA_Core -->
<g id="edge13" class="edge">
<title>JEPA_EncoderHelpers&#45;&gt;JEPA_Core</title>
<path fill="none" stroke="#666666" d="M494.76,-831.13C478.32,-858.5 448.58,-902.93 413.5,-932 376.56,-962.61 327.35,-986.16 289.88,-1001.36"/>
<polygon fill="#666666" stroke="#666666" points="289.07,-999.05 283.47,-1003.91 290.88,-1003.6 289.07,-999.05"/>
</g>
<!-- JEPA_EncoderHelpers&#45;&gt;JEPA_QuasiStatic -->
<g id="edge14" class="edge">
<title>JEPA_EncoderHelpers&#45;&gt;JEPA_QuasiStatic</title>
<path fill="none" stroke="#666666" d="M467.91,-831.43C438.31,-849.39 398.54,-873.53 369.95,-890.88"/>
<polygon fill="#666666" stroke="#666666" points="368.95,-888.62 364.23,-894.35 371.49,-892.81 368.95,-888.62"/>
</g>
<!-- OffDiagHelpers -->
<g id="node12" class="node">
<title>OffDiagHelpers</title>
<path fill="#efefef" stroke="#666666" stroke-width="2.5" d="M839.08,-929.25C839.08,-929.25 775.92,-929.25 775.92,-929.25 770.83,-929.25 765.75,-924.17 765.75,-919.08 765.75,-919.08 765.75,-908.92 765.75,-908.92 765.75,-903.83 770.83,-898.75 775.92,-898.75 775.92,-898.75 839.08,-898.75 839.08,-898.75 844.17,-898.75 849.25,-903.83 849.25,-908.92 849.25,-908.92 849.25,-919.08 849.25,-919.08 849.25,-924.17 844.17,-929.25 839.08,-929.25"/>
<text text-anchor="middle" x="807.5" y="-915.75" font-family="Helvetica,sans-Serif" font-size="10.00">OffDiagHelpers</text>
<text text-anchor="middle" x="807.5" y="-904.5" font-family="Helvetica,sans-Serif" font-size="10.00">37 LOC</text>
</g>
<!-- JEPA_EncoderHelpers&#45;&gt;OffDiagHelpers -->
<g id="edge12" class="edge">
<title>JEPA_EncoderHelpers&#45;&gt;OffDiagHelpers</title>
<path fill="none" stroke="#666666" d="M577.85,-831.43C632.59,-850.88 707.7,-877.55 756.89,-895.02"/>
<polygon fill="#666666" stroke="#666666" points="756.02,-897.31 763.43,-897.35 757.66,-892.7 756.02,-897.31"/>
</g>
<!-- JEPA_OffDiagFinal -->
<g id="node10" class="node">
<title>JEPA_OffDiagFinal</title>
<path fill="#fff2cc" stroke="#996600" stroke-width="2" d="M475.88,-606.6C475.88,-606.6 339.12,-606.6 339.12,-606.6 333.12,-606.6 327.12,-600.6 327.12,-594.6 327.12,-594.6 327.12,-561 327.12,-561 327.12,-555 333.12,-549 339.12,-549 339.12,-549 475.88,-549 475.88,-549 481.88,-549 487.88,-555 487.88,-561 487.88,-561 487.88,-594.6 487.88,-594.6 487.88,-600.6 481.88,-606.6 475.88,-606.6"/>
<text text-anchor="middle" x="407.5" y="-585.35" font-family="Helvetica,sans-Serif" font-size="11.00">JEPA/OffDiagFinal.lean</text>
<text text-anchor="middle" x="407.5" y="-573.35" font-family="Helvetica,sans-Serif" font-size="11.00">539 LOC</text>
<text text-anchor="middle" x="407.5" y="-561.35" font-family="Helvetica,sans-Serif" font-size="11.00">(headline JEPA_rho_ordering)</text>
</g>
<!-- JEPA_OffDiagFinal&#45;&gt;Lemmas -->
<g id="edge15" class="edge">
<title>JEPA_OffDiagFinal&#45;&gt;Lemmas</title>
<path fill="none" stroke="#666666" d="M453.8,-607.58C506.62,-642.57 592.41,-706.24 644.5,-780.6 689.16,-844.35 703.64,-937.16 708.31,-986.82"/>
<polygon fill="#666666" stroke="#666666" points="705.87,-987.01 708.91,-993.77 710.75,-986.59 705.87,-987.01"/>
</g>
<!-- JEPA_OffDiagFinal&#45;&gt;JEPA_Core -->
<g id="edge17" class="edge">
<title>JEPA_OffDiagFinal&#45;&gt;JEPA_Core</title>
<path fill="none" stroke="#666666" d="M326.36,-591.92C279.56,-604.1 224.41,-627.38 195.5,-671.6 127.71,-775.27 191.82,-934.12 221.38,-995.63"/>
<polygon fill="#666666" stroke="#666666" points="219.03,-996.41 224.3,-1001.62 223.43,-994.26 219.03,-996.41"/>
</g>
<!-- JEPA_OffDiagFinal&#45;&gt;JEPA_QuasiStatic -->
<g id="edge18" class="edge">
<title>JEPA_OffDiagFinal&#45;&gt;JEPA_QuasiStatic</title>
<path fill="none" stroke="#666666" d="M404.94,-607.56C402.18,-635.39 397.13,-678.65 389.5,-715.6 376.57,-778.2 354.26,-850.02 342.06,-887.39"/>
<polygon fill="#666666" stroke="#666666" points="339.81,-886.4 339.95,-893.81 344.46,-887.93 339.81,-886.4"/>
</g>
<!-- JEPA_OffDiagFinal&#45;&gt;JEPA_Bernoulli -->
<g id="edge19" class="edge">
<title>JEPA_OffDiagFinal&#45;&gt;JEPA_Bernoulli</title>
<path fill="none" stroke="#666666" d="M404.38,-607.44C400.15,-636.52 390.55,-681.96 369.5,-715.6 352.41,-742.92 324.46,-766.66 302.3,-782.77"/>
<polygon fill="#666666" stroke="#666666" points="301.14,-780.59 296.86,-786.64 303.98,-784.58 301.14,-780.59"/>
</g>
<!-- JEPA_OffDiagFinal&#45;&gt;JEPA_DiagAmpODE -->
<g id="edge20" class="edge">
<title>JEPA_OffDiagFinal&#45;&gt;JEPA_DiagAmpODE</title>
<path fill="none" stroke="#666666" d="M375.96,-607.52C356.33,-625.38 331.26,-648.21 312.03,-665.72"/>
<polygon fill="#666666" stroke="#666666" points="310.39,-663.89 306.87,-670.42 313.69,-667.52 310.39,-663.89"/>
</g>
<!-- JEPA_OffDiagFinal&#45;&gt;JEPA_EncoderHelpers -->
<g id="edge21" class="edge">
<title>JEPA_OffDiagFinal&#45;&gt;JEPA_EncoderHelpers</title>
<path fill="none" stroke="#666666" d="M420.29,-607.42C439.17,-649.67 474.38,-728.46 494.13,-772.64"/>
<polygon fill="#666666" stroke="#666666" points="491.8,-773.44 496.89,-778.83 496.27,-771.44 491.8,-773.44"/>
</g>
<!-- JEPA_OffDiagFinal&#45;&gt;OffDiagHelpers -->
<g id="edge16" class="edge">
<title>JEPA_OffDiagFinal&#45;&gt;OffDiagHelpers</title>
<path fill="none" stroke="#666666" d="M488.63,-580.1C563.33,-585.71 672.29,-605.72 738.5,-671.6 799.02,-731.82 807.32,-841.21 807.89,-889.27"/>
<polygon fill="#666666" stroke="#666666" points="805.44,-889.27 807.9,-896.26 810.34,-889.25 805.44,-889.27"/>
</g>
<!-- JEPA_shim -->
<g id="node11" class="node">
<title>JEPA_shim</title>
<path fill="#ffffff" stroke="#666666" stroke-dasharray="5,2" d="M109,-595.8C109,-595.8 12,-595.8 12,-595.8 6,-595.8 0,-589.8 0,-583.8 0,-583.8 0,-571.8 0,-571.8 0,-565.8 6,-559.8 12,-559.8 12,-559.8 109,-559.8 109,-559.8 115,-559.8 121,-565.8 121,-571.8 121,-571.8 121,-583.8 121,-583.8 121,-589.8 115,-595.8 109,-595.8"/>
<text text-anchor="middle" x="60.5" y="-579.55" font-family="Helvetica,sans-Serif" font-size="10.00">JEPA.lean</text>
<text text-anchor="middle" x="60.5" y="-568.3" font-family="Helvetica,sans-Serif" font-size="10.00">20 LOC (re&#45;export shim)</text>
</g>
<!-- JEPA_shim&#45;&gt;JEPA_Core -->
<g id="edge22" class="edge">
<title>JEPA_shim&#45;&gt;JEPA_Core</title>
<path fill="none" stroke="#bbbbbb" stroke-dasharray="5,2" d="M53.95,-596.28C45.04,-622.49 31.34,-673.41 41.5,-715.6 69.97,-833.83 165.94,-948.19 210.9,-996.78"/>
<polygon fill="#bbbbbb" stroke="#bbbbbb" points="209.03,-998.37 215.6,-1001.82 212.61,-995.03 209.03,-998.37"/>
</g>
<!-- JEPA_shim&#45;&gt;JEPA_QuasiStatic -->
<g id="edge23" class="edge">
<title>JEPA_shim&#45;&gt;JEPA_QuasiStatic</title>
<path fill="none" stroke="#bbbbbb" stroke-dasharray="5,2" d="M56.24,-596.21C50.58,-623.2 43.24,-676.16 61.5,-715.6 103.34,-805.97 210.29,-863.58 276.93,-891.95"/>
<polygon fill="#bbbbbb" stroke="#bbbbbb" points="275.65,-894.07 283.06,-894.51 277.55,-889.55 275.65,-894.07"/>
</g>
<!-- JEPA_shim&#45;&gt;JEPA_Bernoulli -->
<g id="edge24" class="edge">
<title>JEPA_shim&#45;&gt;JEPA_Bernoulli</title>
<path fill="none" stroke="#bbbbbb" stroke-dasharray="5,2" d="M60.08,-595.89C60.28,-623.87 64.48,-679.92 92.5,-715.6 120.55,-751.32 166.75,-773.96 204.77,-787.5"/>
<polygon fill="#bbbbbb" stroke="#bbbbbb" points="203.91,-789.79 211.32,-789.75 205.5,-785.16 203.91,-789.79"/>
</g>
<!-- JEPA_shim&#45;&gt;JEPA_DiagAmpODE -->
<g id="edge25" class="edge">
<title>JEPA_shim&#45;&gt;JEPA_DiagAmpODE</title>
<path fill="none" stroke="#bbbbbb" stroke-dasharray="5,2" d="M94.22,-596.08C131.29,-615.09 191.2,-645.8 233.47,-667.47"/>
<polygon fill="#bbbbbb" stroke="#bbbbbb" points="232.19,-669.56 239.54,-670.58 234.42,-665.2 232.19,-669.56"/>
</g>
<!-- JEPA_shim&#45;&gt;JEPA_EncoderHelpers -->
<g id="edge26" class="edge">
<title>JEPA_shim&#45;&gt;JEPA_EncoderHelpers</title>
<path fill="none" stroke="#bbbbbb" stroke-dasharray="5,2" d="M72.59,-595.86C94.02,-624.84 141.53,-683.63 195.5,-715.6 267.41,-758.2 360.72,-781.35 426.69,-793.31"/>
<polygon fill="#bbbbbb" stroke="#bbbbbb" points="426.19,-795.71 433.51,-794.52 427.05,-790.88 426.19,-795.71"/>
</g>
<!-- JEPA_shim&#45;&gt;JEPA_OffDiagFinal -->
<g id="edge27" class="edge">
<title>JEPA_shim&#45;&gt;JEPA_OffDiagFinal</title>
<path fill="none" stroke="#bbbbbb" stroke-dasharray="5,2" d="M121.5,-577.8C186.94,-577.8 252.38,-577.8 317.83,-577.8"/>
<polygon fill="#bbbbbb" stroke="#bbbbbb" points="317.71,-580.25 324.71,-577.8 317.71,-575.35 317.71,-580.25"/>
</g>
<!-- OffDiagHelpers&#45;&gt;Lemmas -->
<g id="edge28" class="edge">
<title>OffDiagHelpers&#45;&gt;Lemmas</title>
<path fill="none" stroke="#666666" d="M793.6,-930.22C779.61,-945.53 757.6,-969.63 739.75,-989.18"/>
<polygon fill="#666666" stroke="#666666" points="738.05,-987.41 735.13,-994.23 741.66,-990.71 738.05,-987.41"/>
</g>
<!-- PDLowerHelpers -->
<g id="node13" class="node">
<title>PDLowerHelpers</title>
<path fill="#efefef" stroke="#666666" stroke-width="2" d="M939.62,-480.4C939.62,-480.4 873.38,-480.4 873.38,-480.4 867.38,-480.4 861.38,-474.4 861.38,-468.4 861.38,-468.4 861.38,-456.4 861.38,-456.4 861.38,-450.4 867.38,-444.4 873.38,-444.4 873.38,-444.4 939.62,-444.4 939.62,-444.4 945.62,-444.4 951.62,-450.4 951.62,-456.4 951.62,-456.4 951.62,-468.4 951.62,-468.4 951.62,-474.4 945.62,-480.4 939.62,-480.4"/>
<text text-anchor="middle" x="906.5" y="-464.15" font-family="Helvetica,sans-Serif" font-size="10.00">PDLowerHelpers</text>
<text text-anchor="middle" x="906.5" y="-452.9" font-family="Helvetica,sans-Serif" font-size="10.00">194 LOC</text>
</g>
<!-- PDLowerHelpers&#45;&gt;Lemmas -->
<g id="edge29" class="edge">
<title>PDLowerHelpers&#45;&gt;Lemmas</title>
<path fill="none" stroke="#666666" d="M916.27,-481.2C951.37,-547.78 1063.6,-785.75 960.5,-932 915.33,-996.08 819.78,-1014.38 760.76,-1019.45"/>
<polygon fill="#666666" stroke="#666666" points="760.63,-1017.01 753.84,-1019.99 761.01,-1021.89 760.63,-1017.01"/>
</g>
<!-- PDLowerHelpers&#45;&gt;JEPA_shim -->
<g id="edge30" class="edge">
<title>PDLowerHelpers&#45;&gt;JEPA_shim</title>
<path fill="none" stroke="#666666" d="M860.38,-478.26C851.85,-480.53 842.96,-482.59 834.5,-484 678.88,-509.98 271.97,-462.37 125.5,-521 108.22,-527.92 92.29,-541.41 80.53,-553.4"/>
<polygon fill="#666666" stroke="#666666" points="78.85,-551.62 75.82,-558.39 82.41,-554.98 78.85,-551.62"/>
</g>
<!-- LaurentHelpers -->
<g id="node14" class="node">
<title>LaurentHelpers</title>
<path fill="#efefef" stroke="#666666" stroke-width="1.5" d="M119.33,-358.65C119.33,-358.65 57.67,-358.65 57.67,-358.65 52.58,-358.65 47.5,-353.57 47.5,-348.48 47.5,-348.48 47.5,-338.32 47.5,-338.32 47.5,-333.23 52.58,-328.15 57.67,-328.15 57.67,-328.15 119.33,-328.15 119.33,-328.15 124.42,-328.15 129.5,-333.23 129.5,-338.32 129.5,-338.32 129.5,-348.48 129.5,-348.48 129.5,-353.57 124.42,-358.65 119.33,-358.65"/>
<text text-anchor="middle" x="88.5" y="-345.15" font-family="Helvetica,sans-Serif" font-size="10.00">LaurentHelpers</text>
<text text-anchor="middle" x="88.5" y="-333.9" font-family="Helvetica,sans-Serif" font-size="10.00">65 LOC</text>
</g>
<!-- LaurentHelpers&#45;&gt;JEPA_shim -->
<g id="edge31" class="edge">
<title>LaurentHelpers&#45;&gt;JEPA_shim</title>
<path fill="none" stroke="#666666" d="M86.75,-358.94C82.12,-397.39 69.5,-502.14 63.6,-551.03"/>
<polygon fill="#666666" stroke="#666666" points="61.17,-550.73 62.77,-557.98 66.04,-551.32 61.17,-550.73"/>
</g>
<!-- SaxeAsymptoticHelpers -->
<g id="node15" class="node">
<title>SaxeAsymptoticHelpers</title>
<path fill="#efefef" stroke="#666666" stroke-width="1.5" d="M299.38,-484C299.38,-484 201.62,-484 201.62,-484 195.62,-484 189.62,-478 189.62,-472 189.62,-472 189.62,-452.8 189.62,-452.8 189.62,-446.8 195.62,-440.8 201.62,-440.8 201.62,-440.8 299.38,-440.8 299.38,-440.8 305.38,-440.8 311.38,-446.8 311.38,-452.8 311.38,-452.8 311.38,-472 311.38,-472 311.38,-478 305.38,-484 299.38,-484"/>
<text text-anchor="middle" x="250.5" y="-464.15" font-family="Helvetica,sans-Serif" font-size="10.00">SaxeAsymptoticHelpers</text>
<text text-anchor="middle" x="250.5" y="-452.9" font-family="Helvetica,sans-Serif" font-size="10.00">363 LOC</text>
</g>
<!-- SaxeAsymptoticHelpers&#45;&gt;JEPA_shim -->
<g id="edge32" class="edge">
<title>SaxeAsymptoticHelpers&#45;&gt;JEPA_shim</title>
<path fill="none" stroke="#666666" d="M196.49,-484.38C173.81,-494.17 147.62,-506.8 125.5,-521 110.82,-530.42 95.95,-542.92 84.14,-553.7"/>
<polygon fill="#666666" stroke="#666666" points="82.49,-551.89 79.03,-558.45 85.82,-555.48 82.49,-551.89"/>
</g>
<!-- BootstrapLemmas -->
<g id="node16" class="node">
<title>BootstrapLemmas</title>
<path fill="#fff2cc" stroke="#996600" stroke-width="1.5" d="M1046.38,-368.6C1046.38,-368.6 966.62,-368.6 966.62,-368.6 960.62,-368.6 954.62,-362.6 954.62,-356.6 954.62,-356.6 954.62,-330.2 954.62,-330.2 954.62,-324.2 960.62,-318.2 966.62,-318.2 966.62,-318.2 1046.38,-318.2 1046.38,-318.2 1052.38,-318.2 1058.38,-324.2 1058.38,-330.2 1058.38,-330.2 1058.38,-356.6 1058.38,-356.6 1058.38,-362.6 1052.38,-368.6 1046.38,-368.6"/>
<text text-anchor="middle" x="1006.5" y="-344.95" font-family="Helvetica,sans-Serif" font-size="11.00">BootstrapLemmas</text>
<text text-anchor="middle" x="1006.5" y="-332.95" font-family="Helvetica,sans-Serif" font-size="11.00">552 LOC</text>
</g>
<!-- BootstrapLemmas&#45;&gt;Lemmas -->
<g id="edge33" class="edge">
<title>BootstrapLemmas&#45;&gt;Lemmas</title>
<path fill="none" stroke="#666666" d="M1016.41,-368.99C1050.93,-459.15 1155.57,-774.53 998.5,-932 934.38,-996.28 824.93,-1014.41 761.01,-1019.41"/>
<polygon fill="#666666" stroke="#666666" points="761,-1016.95 754.2,-1019.9 761.35,-1021.84 761,-1016.95"/>
</g>
<!-- BootstrapLemmas&#45;&gt;JEPA_shim -->
<g id="edge35" class="edge">
<title>BootstrapLemmas&#45;&gt;JEPA_shim</title>
<path fill="none" stroke="#666666" d="M965.52,-369.02C901.37,-407.34 782.31,-477.56 760.5,-484 624.94,-524.04 256.57,-468.07 125.5,-521 108.24,-527.97 92.31,-541.47 80.55,-553.44"/>
<polygon fill="#666666" stroke="#666666" points="78.87,-551.65 75.83,-558.42 82.42,-555.02 78.87,-551.65"/>
</g>
<!-- BootstrapLemmas&#45;&gt;OffDiagHelpers -->
<g id="edge34" class="edge">
<title>BootstrapLemmas&#45;&gt;OffDiagHelpers</title>
<path fill="none" stroke="#666666" d="M1000.77,-369.08C994.06,-397.15 982.24,-444.24 969.5,-484 918.93,-641.81 843.49,-826.62 817.06,-890.18"/>
<polygon fill="#666666" stroke="#666666" points="814.82,-889.2 814.39,-896.6 819.34,-891.08 814.82,-889.2"/>
</g>
<!-- BootstrapLemmas&#45;&gt;PDLowerHelpers -->
<g id="edge36" class="edge">
<title>BootstrapLemmas&#45;&gt;PDLowerHelpers</title>
<path fill="none" stroke="#666666" d="M985.54,-368.93C968.35,-389.03 944.16,-417.34 927.08,-437.32"/>
<polygon fill="#666666" stroke="#666666" points="925.25,-435.69 922.56,-442.61 928.97,-438.88 925.25,-435.69"/>
</g>
<!-- MainTheorem -->
<g id="node17" class="node">
<title>MainTheorem</title>
<path fill="#fff2cc" stroke="#996600" d="M981.88,-144.6C981.88,-144.6 923.12,-144.6 923.12,-144.6 917.12,-144.6 911.12,-138.6 911.12,-132.6 911.12,-132.6 911.12,-113.4 911.12,-113.4 911.12,-107.4 917.12,-101.4 923.12,-101.4 923.12,-101.4 981.88,-101.4 981.88,-101.4 987.88,-101.4 993.88,-107.4 993.88,-113.4 993.88,-113.4 993.88,-132.6 993.88,-132.6 993.88,-138.6 987.88,-144.6 981.88,-144.6"/>
<text text-anchor="middle" x="952.5" y="-124.55" font-family="Helvetica,sans-Serif" font-size="11.00">MainTheorem</text>
<text text-anchor="middle" x="952.5" y="-112.55" font-family="Helvetica,sans-Serif" font-size="11.00">300 LOC</text>
</g>
<!-- MainTheorem&#45;&gt;Lemmas -->
<g id="edge40" class="edge">
<title>MainTheorem&#45;&gt;Lemmas</title>
<path fill="none" stroke="#666666" d="M958.25,-144.84C966.39,-171.13 983.49,-216.47 1011.5,-246 1052.7,-289.45 1085.53,-270.36 1129.5,-311 1188.27,-365.32 1228.5,-381.37 1228.5,-461.4 1228.5,-461.4 1228.5,-461.4 1228.5,-806.8 1228.5,-907.4 890.76,-985.33 760.71,-1011.6"/>
<polygon fill="#666666" stroke="#666666" points="760.32,-1009.18 753.94,-1012.96 761.28,-1013.99 760.32,-1009.18"/>
</g>
<!-- MainTheorem&#45;&gt;JEPA_shim -->
<g id="edge42" class="edge">
<title>MainTheorem&#45;&gt;JEPA_shim</title>
<path fill="none" stroke="#666666" d="M924.45,-145.04C839.72,-207.52 576.95,-393.2 329.5,-484 242.99,-515.74 208.7,-481.38 125.5,-521 109.03,-528.84 93.43,-541.97 81.64,-553.53"/>
<polygon fill="#666666" stroke="#666666" points="80.08,-551.62 76.9,-558.32 83.57,-555.06 80.08,-551.62"/>
</g>
<!-- MainTheorem&#45;&gt;OffDiagHelpers -->
<g id="edge41" class="edge">
<title>MainTheorem&#45;&gt;OffDiagHelpers</title>
<path fill="none" stroke="#666666" d="M960.16,-145.02C969.91,-170.3 988.33,-213.4 1011.5,-246 1035.17,-279.3 1052.37,-278.03 1076.5,-311 1120.98,-371.76 1154.5,-386.1 1154.5,-461.4 1154.5,-461.4 1154.5,-461.4 1154.5,-578.8 1154.5,-743.95 948.08,-853.15 853.65,-894.47"/>
<polygon fill="#666666" stroke="#666666" points="852.8,-892.16 847.35,-897.19 854.75,-896.66 852.8,-892.16"/>
</g>
<!-- MainTheorem&#45;&gt;PDLowerHelpers -->
<g id="edge43" class="edge">
<title>MainTheorem&#45;&gt;PDLowerHelpers</title>
<path fill="none" stroke="#666666" d="M949.66,-144.85C941.63,-203.7 918.83,-370.99 910.02,-435.55"/>
<polygon fill="#666666" stroke="#666666" points="907.65,-434.83 909.13,-442.1 912.5,-435.5 907.65,-434.83"/>
</g>
<!-- MainTheorem&#45;&gt;LaurentHelpers -->
<g id="edge45" class="edge">
<title>MainTheorem&#45;&gt;LaurentHelpers</title>
<path fill="none" stroke="#666666" d="M910.73,-132.29C793.48,-155.91 451.8,-227.35 174.5,-311 161.14,-315.03 146.83,-319.99 133.8,-324.76"/>
<polygon fill="#666666" stroke="#666666" points="132.99,-322.45 127.28,-327.18 134.7,-327.04 132.99,-322.45"/>
</g>
<!-- MainTheorem&#45;&gt;BootstrapLemmas -->
<g id="edge44" class="edge">
<title>MainTheorem&#45;&gt;BootstrapLemmas</title>
<path fill="none" stroke="#666666" d="M957.68,-144.94C967.12,-183.13 987.2,-264.35 998.45,-309.83"/>
<polygon fill="#666666" stroke="#666666" points="996.02,-310.21 1000.07,-316.41 1000.77,-309.03 996.02,-310.21"/>
</g>
<!-- Corrected -->
<g id="node18" class="node">
<title>Corrected</title>
<path fill="#fff2cc" stroke="#996600" d="M296.38,-375.8C296.38,-375.8 204.62,-375.8 204.62,-375.8 198.62,-375.8 192.62,-369.8 192.62,-363.8 192.62,-363.8 192.62,-323 192.62,-323 192.62,-317 198.62,-311 204.62,-311 204.62,-311 296.38,-311 296.38,-311 302.38,-311 308.38,-317 308.38,-323 308.38,-323 308.38,-363.8 308.38,-363.8 308.38,-369.8 302.38,-375.8 296.38,-375.8"/>
<text text-anchor="middle" x="250.5" y="-350.95" font-family="Helvetica,sans-Serif" font-size="11.00">Corrected.lean</text>
<text text-anchor="middle" x="250.5" y="-338.95" font-family="Helvetica,sans-Serif" font-size="11.00">1066 LOC</text>
<text text-anchor="middle" x="250.5" y="-326.95" font-family="Helvetica,sans-Serif" font-size="11.00">(headline, hardened)</text>
</g>
<!-- Corrected&#45;&gt;Lemmas -->
<g id="edge38" class="edge">
<title>Corrected&#45;&gt;Lemmas</title>
<path fill="none" stroke="#666666" d="M308.65,-363.56C418.76,-402.9 657.82,-503.52 782.5,-671.6 855.03,-769.38 928.74,-826.78 867.5,-932 844.53,-971.46 796.89,-994.89 760.07,-1007.76"/>
<polygon fill="#666666" stroke="#666666" points="759.68,-1005.31 753.83,-1009.87 761.24,-1009.95 759.68,-1005.31"/>
</g>
<!-- Corrected&#45;&gt;JEPA_shim -->
<g id="edge37" class="edge">
<title>Corrected&#45;&gt;JEPA_shim</title>
<path fill="none" stroke="#666666" d="M224.51,-376.08C209.09,-394.88 189.17,-419.19 171.5,-440.8 139.31,-480.17 101.92,-525.99 79.79,-553.13"/>
<polygon fill="#666666" stroke="#666666" points="77.99,-551.47 75.46,-558.44 81.79,-554.57 77.99,-551.47"/>
</g>
<!-- Corrected&#45;&gt;SaxeAsymptoticHelpers -->
<g id="edge39" class="edge">
<title>Corrected&#45;&gt;SaxeAsymptoticHelpers</title>
<path fill="none" stroke="#666666" d="M250.5,-376.06C250.5,-393.47 250.5,-414.92 250.5,-431.96"/>
<polygon fill="#666666" stroke="#666666" points="248.05,-431.91 250.5,-438.91 252.95,-431.91 248.05,-431.91"/>
</g>
<!-- legend -->
<g id="node19" class="node">
<title>legend</title>
<path fill="lightgrey" stroke="none" d="M1673.5,-246C1673.5,-246 1461.5,-246 1461.5,-246 1455.5,-246 1449.5,-240 1449.5,-234 1449.5,-234 1449.5,-12 1449.5,-12 1449.5,-6 1455.5,0 1461.5,0 1461.5,0 1673.5,0 1673.5,0 1679.5,0 1685.5,-6 1685.5,-12 1685.5,-12 1685.5,-234 1685.5,-234 1685.5,-240 1679.5,-246 1673.5,-246"/>
<polygon fill="#ffffff" stroke="none" points="1457.5,-4 1457.5,-242 1677.5,-242 1677.5,-4 1457.5,-4"/>
<text text-anchor="start" x="1466.5" y="-223.55" font-family="Helvetica,sans-Serif" font-weight="bold" font-size="11.00">Legend (post&#45;split)</text>
<polygon fill="#cfe2f3" stroke="none" points="1462.5,-193 1462.5,-213 1502.5,-213 1502.5,-193 1462.5,-193"/>
<text text-anchor="start" x="1510.5" y="-198.55" font-family="Helvetica,sans-Serif" font-size="11.00">foundation (heavy fan&#45;in)</text>
<polygon fill="#fff2cc" stroke="none" points="1462.5,-169 1462.5,-189 1502.5,-189 1502.5,-169 1462.5,-169"/>
<text text-anchor="start" x="1510.5" y="-174.55" font-family="Helvetica,sans-Serif" font-size="11.00">synthesis (headline / glue)</text>
<polygon fill="#efefef" stroke="none" points="1462.5,-145 1462.5,-165 1502.5,-165 1502.5,-145 1462.5,-145"/>
<text text-anchor="start" x="1510.5" y="-150.55" font-family="Helvetica,sans-Serif" font-size="11.00">helper (single&#45;cluster lemmas)</text>
<polygon fill="#ffffff" stroke="none" points="1462.5,-118 1462.5,-141 1502.5,-141 1502.5,-118 1462.5,-118"/>
<text text-anchor="start" x="1472.75" y="-127.5" font-family="Helvetica,sans-Serif" font-size="10.00">┄┄</text>
<text text-anchor="start" x="1510.5" y="-125.05" font-family="Helvetica,sans-Serif" font-size="11.00">orphan / stub / shim</text>
<text text-anchor="start" x="1509" y="-100.5" font-family="Helvetica,sans-Serif" font-size="10.00">────────────</text>
<text text-anchor="start" x="1502.5" y="-78.5" font-family="Helvetica,sans-Serif" font-weight="bold" font-size="10.00">No god&#45;module (red) node.</text>
<text text-anchor="start" x="1466.5" y="-68.5" font-family="Helvetica,sans-Serif" font-size="10.00">Largest active file: EncoderHelpers 606 LOC.</text>
<text text-anchor="start" x="1484.5" y="-58.5" font-family="Helvetica,sans-Serif" font-size="10.00">Corrected.lean 1066 LOC stays large</text>
<text text-anchor="start" x="1490.5" y="-48.5" font-family="Helvetica,sans-Serif" font-size="10.00">intentionally (deprecation siblings).</text>
<text text-anchor="start" x="1483.38" y="-25.5" font-family="Helvetica,sans-Serif" font-size="10.00">node size ∝ LOC</text>
<text text-anchor="start" x="1466.5" y="-14.25" font-family="Helvetica,sans-Serif" font-size="10.00">border thickness ∝ fan&#45;in</text>
<polygon fill="none" stroke="#bbbbbb" points="1457.5,-4 1457.5,-242 1677.5,-242 1677.5,-4 1457.5,-4"/>
</g>
</g>
</svg>
