<?xml version="1.0" encoding="UTF-8" standalone="no"?>
<!DOCTYPE svg PUBLIC "-//W3C//DTD SVG 1.1//EN"
 "http://www.w3.org/Graphics/SVG/1.1/DTD/svg11.dtd">
<!-- Generated by graphviz version 12.1.2 (20240928.0832)
 -->
<!-- Title: JEPA_RhoRecovery_Import Pages: 1 -->
<svg width="1486pt" height="663pt"
 viewBox="0.00 0.00 1485.79 663.40" xmlns="http://www.w3.org/2000/svg" xmlns:xlink="http://www.w3.org/1999/xlink">
<g id="graph0" class="graph" transform="scale(1 1) rotate(0) translate(36 627.4)">
<title>JEPA_RhoRecovery_Import</title>
<polygon fill="#fafafa" stroke="none" points="-36,36 -36,-627.4 1449.79,-627.4 1449.79,36 -36,36"/>
<!-- Basic -->
<g id="node1" class="node">
<title>Basic</title>
<path fill="#cfe2f3" stroke="#1f4e79" stroke-width="5" d="M955.38,-591.4C955.38,-591.4 907.38,-591.4 907.38,-591.4 901.38,-591.4 895.38,-585.4 895.38,-579.4 895.38,-579.4 895.38,-553 895.38,-553 895.38,-547 901.38,-541 907.38,-541 907.38,-541 955.38,-541 955.38,-541 961.38,-541 967.38,-547 967.38,-553 967.38,-553 967.38,-579.4 967.38,-579.4 967.38,-585.4 961.38,-591.4 955.38,-591.4"/>
<text text-anchor="middle" x="931.38" y="-567.75" font-family="Helvetica,sans-Serif" font-size="11.00">Basic.lean</text>
<text text-anchor="middle" x="931.38" y="-555.75" font-family="Helvetica,sans-Serif" font-size="11.00">125 LOC</text>
</g>
<!-- Inversion -->
<g id="node2" class="node">
<title>Inversion</title>
<path fill="#fff2cc" stroke="#996600" stroke-width="3" d="M1027.78,-474C1027.78,-474 986.98,-474 986.98,-474 980.98,-474 974.98,-468 974.98,-462 974.98,-462 974.98,-442.8 974.98,-442.8 974.98,-436.8 980.98,-430.8 986.98,-430.8 986.98,-430.8 1027.78,-430.8 1027.78,-430.8 1033.78,-430.8 1039.78,-436.8 1039.78,-442.8 1039.78,-442.8 1039.78,-462 1039.78,-462 1039.78,-468 1033.78,-474 1027.78,-474"/>
<text text-anchor="middle" x="1007.38" y="-453.95" font-family="Helvetica,sans-Serif" font-size="11.00">Inversion</text>
<text text-anchor="middle" x="1007.38" y="-441.95" font-family="Helvetica,sans-Serif" font-size="11.00">265 LOC</text>
</g>
<!-- Inversion&#45;&gt;Basic -->
<g id="edge4" class="edge">
<title>Inversion&#45;&gt;Basic</title>
<path fill="none" stroke="#666666" d="M992.36,-475.49C981.44,-491.56 966.46,-513.59 954.08,-531.8"/>
<polygon fill="#666666" stroke="#666666" points="952.06,-530.41 950.15,-537.58 956.11,-533.17 952.06,-530.41"/>
</g>
<!-- SignedODE -->
<g id="node3" class="node">
<title>SignedODE</title>
<path fill="#fff2cc" stroke="#996600" stroke-width="2.5" d="M875.25,-475.8C875.25,-475.8 825.5,-475.8 825.5,-475.8 819.5,-475.8 813.5,-469.8 813.5,-463.8 813.5,-463.8 813.5,-441 813.5,-441 813.5,-435 819.5,-429 825.5,-429 825.5,-429 875.25,-429 875.25,-429 881.25,-429 887.25,-435 887.25,-441 887.25,-441 887.25,-463.8 887.25,-463.8 887.25,-469.8 881.25,-475.8 875.25,-475.8"/>
<text text-anchor="middle" x="850.38" y="-453.95" font-family="Helvetica,sans-Serif" font-size="11.00">SignedODE</text>
<text text-anchor="middle" x="850.38" y="-441.95" font-family="Helvetica,sans-Serif" font-size="11.00">396 LOC</text>
</g>
<!-- SignedODE&#45;&gt;Basic -->
<g id="edge8" class="edge">
<title>SignedODE&#45;&gt;Basic</title>
<path fill="none" stroke="#666666" d="M867.16,-476.57C878.69,-492.49 894.19,-513.88 907.08,-531.66"/>
<polygon fill="#666666" stroke="#666666" points="905.07,-533.07 911.16,-537.3 909.04,-530.2 905.07,-533.07"/>
</g>
<!-- DiagonalODE -->
<g id="node4" class="node">
<title>DiagonalODE</title>
<path fill="#fff2cc" stroke="#996600" stroke-width="2" d="M772.38,-483C772.38,-483 706.38,-483 706.38,-483 700.38,-483 694.38,-477 694.38,-471 694.38,-471 694.38,-433.8 694.38,-433.8 694.38,-427.8 700.38,-421.8 706.38,-421.8 706.38,-421.8 772.38,-421.8 772.38,-421.8 778.38,-421.8 784.38,-427.8 784.38,-433.8 784.38,-433.8 784.38,-471 784.38,-471 784.38,-477 778.38,-483 772.38,-483"/>
<text text-anchor="middle" x="739.38" y="-453.95" font-family="Helvetica,sans-Serif" font-size="11.00">DiagonalODE</text>
<text text-anchor="middle" x="739.38" y="-441.95" font-family="Helvetica,sans-Serif" font-size="11.00">681 LOC</text>
</g>
<!-- DiagonalODE&#45;&gt;Basic -->
<g id="edge3" class="edge">
<title>DiagonalODE&#45;&gt;Basic</title>
<path fill="none" stroke="#666666" d="M785.36,-480.18C815.87,-497.94 855.72,-521.15 886.08,-538.82"/>
<polygon fill="#666666" stroke="#666666" points="884.6,-540.8 891.88,-542.2 887.06,-536.56 884.6,-540.8"/>
</g>
<!-- CriticalTime -->
<g id="node5" class="node">
<title>CriticalTime</title>
<path fill="#fff2cc" stroke="#996600" stroke-width="1.5" d="M594.5,-481.2C594.5,-481.2 528.25,-481.2 528.25,-481.2 522.25,-481.2 516.25,-475.2 516.25,-469.2 516.25,-469.2 516.25,-435.6 516.25,-435.6 516.25,-429.6 522.25,-423.6 528.25,-423.6 528.25,-423.6 594.5,-423.6 594.5,-423.6 600.5,-423.6 606.5,-429.6 606.5,-435.6 606.5,-435.6 606.5,-469.2 606.5,-469.2 606.5,-475.2 600.5,-481.2 594.5,-481.2"/>
<text text-anchor="middle" x="561.38" y="-459.95" font-family="Helvetica,sans-Serif" font-size="11.00">CriticalTime</text>
<text text-anchor="middle" x="561.38" y="-447.95" font-family="Helvetica,sans-Serif" font-size="11.00">626 LOC</text>
<text text-anchor="middle" x="561.38" y="-435.95" font-family="Helvetica,sans-Serif" font-size="11.00">(2 sub&#45;clusters)</text>
</g>
<!-- CriticalTime&#45;&gt;Basic -->
<g id="edge2" class="edge">
<title>CriticalTime&#45;&gt;Basic</title>
<path fill="none" stroke="#666666" d="M606.78,-474.56C613.93,-477.57 621.3,-480.49 628.38,-483 717.44,-514.55 824.81,-541.06 884.87,-554.89"/>
<polygon fill="#666666" stroke="#666666" points="884.17,-557.25 891.54,-556.42 885.27,-552.47 884.17,-557.25"/>
</g>
<!-- PlateauEstimator -->
<g id="node6" class="node">
<title>PlateauEstimator</title>
<path fill="#fff2cc" stroke="#996600" stroke-width="2" d="M1213.62,-479.4C1213.62,-479.4 1139.12,-479.4 1139.12,-479.4 1133.12,-479.4 1127.12,-473.4 1127.12,-467.4 1127.12,-467.4 1127.12,-437.4 1127.12,-437.4 1127.12,-431.4 1133.12,-425.4 1139.12,-425.4 1139.12,-425.4 1213.62,-425.4 1213.62,-425.4 1219.62,-425.4 1225.62,-431.4 1225.62,-437.4 1225.62,-437.4 1225.62,-467.4 1225.62,-467.4 1225.62,-473.4 1219.62,-479.4 1213.62,-479.4"/>
<text text-anchor="middle" x="1176.38" y="-453.95" font-family="Helvetica,sans-Serif" font-size="11.00">PlateauEstimator</text>
<text text-anchor="middle" x="1176.38" y="-441.95" font-family="Helvetica,sans-Serif" font-size="11.00">567 LOC</text>
</g>
<!-- PlateauEstimator&#45;&gt;Basic -->
<g id="edge5" class="edge">
<title>PlateauEstimator&#45;&gt;Basic</title>
<path fill="none" stroke="#666666" d="M1126.2,-476.29C1082.58,-496.2 1019.89,-524.81 977.5,-544.15"/>
<polygon fill="#666666" stroke="#666666" points="976.56,-541.89 971.21,-547.02 978.59,-546.35 976.56,-541.89"/>
</g>
<!-- QuasiStatic -->
<g id="node7" class="node">
<title>QuasiStatic</title>
<path fill="#fff2cc" stroke="#996600" stroke-width="2" d="M58.75,-472.2C58.75,-472.2 12,-472.2 12,-472.2 6,-472.2 0,-466.2 0,-460.2 0,-460.2 0,-444.6 0,-444.6 0,-438.6 6,-432.6 12,-432.6 12,-432.6 58.75,-432.6 58.75,-432.6 64.75,-432.6 70.75,-438.6 70.75,-444.6 70.75,-444.6 70.75,-460.2 70.75,-460.2 70.75,-466.2 64.75,-472.2 58.75,-472.2"/>
<text text-anchor="middle" x="35.38" y="-453.95" font-family="Helvetica,sans-Serif" font-size="11.00">QuasiStatic</text>
<text text-anchor="middle" x="35.38" y="-441.95" font-family="Helvetica,sans-Serif" font-size="11.00">153 LOC</text>
</g>
<!-- QuasiStatic&#45;&gt;Basic -->
<g id="edge6" class="edge">
<title>QuasiStatic&#45;&gt;Basic</title>
<path fill="none" stroke="#666666" d="M63.96,-473.19C70.72,-477.04 78.09,-480.62 85.38,-483 236.13,-532.24 730.1,-556.74 884.69,-563.33"/>
<polygon fill="#666666" stroke="#666666" points="884.48,-565.78 891.58,-563.63 884.69,-560.88 884.48,-565.78"/>
</g>
<!-- SampleNoise -->
<g id="node8" class="node">
<title>SampleNoise</title>
<path fill="#fff2cc" stroke="#996600" stroke-width="2.5" d="M1323.62,-472.2C1323.62,-472.2 1267.12,-472.2 1267.12,-472.2 1261.12,-472.2 1255.12,-466.2 1255.12,-460.2 1255.12,-460.2 1255.12,-444.6 1255.12,-444.6 1255.12,-438.6 1261.12,-432.6 1267.12,-432.6 1267.12,-432.6 1323.62,-432.6 1323.62,-432.6 1329.62,-432.6 1335.62,-438.6 1335.62,-444.6 1335.62,-444.6 1335.62,-460.2 1335.62,-460.2 1335.62,-466.2 1329.62,-472.2 1323.62,-472.2"/>
<text text-anchor="middle" x="1295.38" y="-453.95" font-family="Helvetica,sans-Serif" font-size="11.00">SampleNoise</text>
<text text-anchor="middle" x="1295.38" y="-441.95" font-family="Helvetica,sans-Serif" font-size="11.00">143 LOC</text>
</g>
<!-- SampleNoise&#45;&gt;Basic -->
<g id="edge7" class="edge">
<title>SampleNoise&#45;&gt;Basic</title>
<path fill="none" stroke="#666666" d="M1261.64,-473.15C1254.74,-476.73 1247.43,-480.21 1240.38,-483 1150.41,-518.61 1039.71,-543.83 978.21,-556.31"/>
<polygon fill="#666666" stroke="#666666" points="977.73,-553.9 971.35,-557.68 978.7,-558.71 977.73,-553.9"/>
</g>
<!-- FiniteSample -->
<g id="node9" class="node">
<title>FiniteSample</title>
<path fill="#fff2cc" stroke="#996600" stroke-width="1.5" d="M1119.88,-353C1119.88,-353 1064.88,-353 1064.88,-353 1058.88,-353 1052.88,-347 1052.88,-341 1052.88,-341 1052.88,-321.8 1052.88,-321.8 1052.88,-315.8 1058.88,-309.8 1064.88,-309.8 1064.88,-309.8 1119.88,-309.8 1119.88,-309.8 1125.88,-309.8 1131.88,-315.8 1131.88,-321.8 1131.88,-321.8 1131.88,-341 1131.88,-341 1131.88,-347 1125.88,-353 1119.88,-353"/>
<text text-anchor="middle" x="1092.38" y="-332.95" font-family="Helvetica,sans-Serif" font-size="11.00">FiniteSample</text>
<text text-anchor="middle" x="1092.38" y="-320.95" font-family="Helvetica,sans-Serif" font-size="11.00">274 LOC</text>
</g>
<!-- FiniteSample&#45;&gt;Basic -->
<g id="edge14" class="edge">
<title>FiniteSample&#45;&gt;Basic</title>
<path fill="none" stroke="#666666" d="M1091.75,-353.34C1089.86,-384.35 1082.51,-443.12 1054.38,-483 1035.02,-510.43 1003.37,-531.28 977.01,-545.12"/>
<polygon fill="#666666" stroke="#666666" points="976.21,-542.78 971.09,-548.14 978.43,-547.14 976.21,-542.78"/>
</g>
<!-- FiniteSample&#45;&gt;Inversion -->
<g id="edge16" class="edge">
<title>FiniteSample&#45;&gt;Inversion</title>
<path fill="none" stroke="#666666" d="M1077.37,-353.4C1063.61,-372.67 1043.11,-401.37 1027.85,-422.74"/>
<polygon fill="#666666" stroke="#666666" points="1026.04,-421.05 1023.97,-428.17 1030.03,-423.9 1026.04,-421.05"/>
</g>
<!-- FiniteSample&#45;&gt;PlateauEstimator -->
<g id="edge17" class="edge">
<title>FiniteSample&#45;&gt;PlateauEstimator</title>
<path fill="none" stroke="#666666" d="M1107.2,-353.4C1119.81,-371.27 1138.15,-397.24 1152.77,-417.97"/>
<polygon fill="#666666" stroke="#666666" points="1150.67,-419.23 1156.71,-423.54 1154.67,-416.4 1150.67,-419.23"/>
</g>
<!-- FiniteSample&#45;&gt;SampleNoise -->
<g id="edge15" class="edge">
<title>FiniteSample&#45;&gt;SampleNoise</title>
<path fill="none" stroke="#666666" d="M1128.2,-353.4C1163.63,-374.17 1217.76,-405.9 1254.77,-427.59"/>
<polygon fill="#666666" stroke="#666666" points="1253.34,-429.6 1260.62,-431.03 1255.82,-425.37 1253.34,-429.6"/>
</g>
<!-- MixedOrdering -->
<g id="node10" class="node">
<title>MixedOrdering</title>
<path fill="#fff2cc" stroke="#996600" stroke-width="1.5" d="M952.62,-351.2C952.62,-351.2 890.12,-351.2 890.12,-351.2 884.12,-351.2 878.12,-345.2 878.12,-339.2 878.12,-339.2 878.12,-323.6 878.12,-323.6 878.12,-317.6 884.12,-311.6 890.12,-311.6 890.12,-311.6 952.62,-311.6 952.62,-311.6 958.62,-311.6 964.62,-317.6 964.62,-323.6 964.62,-323.6 964.62,-339.2 964.62,-339.2 964.62,-345.2 958.62,-351.2 952.62,-351.2"/>
<text text-anchor="middle" x="921.38" y="-332.95" font-family="Helvetica,sans-Serif" font-size="11.00">MixedOrdering</text>
<text text-anchor="middle" x="921.38" y="-320.95" font-family="Helvetica,sans-Serif" font-size="11.00">171 LOC</text>
</g>
<!-- MixedOrdering&#45;&gt;Basic -->
<g id="edge9" class="edge">
<title>MixedOrdering&#45;&gt;Basic</title>
<path fill="none" stroke="#666666" d="M922.19,-351.45C923.87,-390.56 927.73,-480.42 929.87,-530.27"/>
<polygon fill="#666666" stroke="#666666" points="927.42,-530.11 930.16,-537 932.31,-529.9 927.42,-530.11"/>
</g>
<!-- MixedOrdering&#45;&gt;Inversion -->
<g id="edge11" class="edge">
<title>MixedOrdering&#45;&gt;Inversion</title>
<path fill="none" stroke="#666666" d="M935.19,-351.52C949.07,-370.73 970.64,-400.57 986.58,-422.63"/>
<polygon fill="#666666" stroke="#666666" points="984.58,-424.03 990.66,-428.27 988.55,-421.16 984.58,-424.03"/>
</g>
<!-- MixedOrdering&#45;&gt;SignedODE -->
<g id="edge10" class="edge">
<title>MixedOrdering&#45;&gt;SignedODE</title>
<path fill="none" stroke="#666666" d="M909.97,-351.52C898.77,-370.29 881.51,-399.21 868.45,-421.11"/>
<polygon fill="#666666" stroke="#666666" points="866.45,-419.68 864.97,-426.95 870.66,-422.19 866.45,-419.68"/>
</g>
<!-- NegBranchHelpers -->
<g id="node11" class="node">
<title>NegBranchHelpers</title>
<path fill="#efefef" stroke="#666666" stroke-width="1.5" d="M336.5,-472.2C336.5,-472.2 252.25,-472.2 252.25,-472.2 246.25,-472.2 240.25,-466.2 240.25,-460.2 240.25,-460.2 240.25,-444.6 240.25,-444.6 240.25,-438.6 246.25,-432.6 252.25,-432.6 252.25,-432.6 336.5,-432.6 336.5,-432.6 342.5,-432.6 348.5,-438.6 348.5,-444.6 348.5,-444.6 348.5,-460.2 348.5,-460.2 348.5,-466.2 342.5,-472.2 336.5,-472.2"/>
<text text-anchor="middle" x="294.38" y="-453.95" font-family="Helvetica,sans-Serif" font-size="11.00">NegBranchHelpers</text>
<text text-anchor="middle" x="294.38" y="-441.95" font-family="Helvetica,sans-Serif" font-size="11.00">176 LOC</text>
</g>
<!-- EarlySlopeGronwall -->
<g id="node12" class="node">
<title>EarlySlopeGronwall</title>
<path fill="#efefef" stroke="#666666" stroke-width="1.5" d="M199,-474C199,-474 111.75,-474 111.75,-474 105.75,-474 99.75,-468 99.75,-462 99.75,-462 99.75,-442.8 99.75,-442.8 99.75,-436.8 105.75,-430.8 111.75,-430.8 111.75,-430.8 199,-430.8 199,-430.8 205,-430.8 211,-436.8 211,-442.8 211,-442.8 211,-462 211,-462 211,-468 205,-474 199,-474"/>
<text text-anchor="middle" x="155.38" y="-453.95" font-family="Helvetica,sans-Serif" font-size="11.00">EarlySlopeGronwall</text>
<text text-anchor="middle" x="155.38" y="-441.95" font-family="Helvetica,sans-Serif" font-size="11.00">327 LOC</text>
</g>
<!-- SignedRecovery -->
<g id="node13" class="node">
<title>SignedRecovery</title>
<path fill="#fff2cc" stroke="#996600" stroke-width="1.5" d="M688.77,-363.8C688.77,-363.8 611.98,-363.8 611.98,-363.8 605.98,-363.8 599.98,-357.8 599.98,-351.8 599.98,-351.8 599.98,-311 599.98,-311 599.98,-305 605.98,-299 611.98,-299 611.98,-299 688.77,-299 688.77,-299 694.77,-299 700.77,-305 700.77,-311 700.77,-311 700.77,-351.8 700.77,-351.8 700.77,-357.8 694.77,-363.8 688.77,-363.8"/>
<text text-anchor="middle" x="650.38" y="-338.95" font-family="Helvetica,sans-Serif" font-size="11.00">SignedRecovery</text>
<text text-anchor="middle" x="650.38" y="-326.95" font-family="Helvetica,sans-Serif" font-size="11.00">798 LOC</text>
<text text-anchor="middle" x="650.38" y="-314.95" font-family="Helvetica,sans-Serif" font-size="11.00">(headline)</text>
</g>
<!-- SignedRecovery&#45;&gt;Basic -->
<g id="edge18" class="edge">
<title>SignedRecovery&#45;&gt;Basic</title>
<path fill="none" stroke="#666666" d="M647.97,-364.1C647.21,-397.68 651.37,-450.29 680.38,-483 732.61,-541.9 827.67,-558.77 884.63,-563.49"/>
<polygon fill="#666666" stroke="#666666" points="884.41,-565.93 891.58,-564.01 884.78,-561.05 884.41,-565.93"/>
</g>
<!-- SignedRecovery&#45;&gt;Inversion -->
<g id="edge20" class="edge">
<title>SignedRecovery&#45;&gt;Inversion</title>
<path fill="none" stroke="#666666" d="M701.15,-349.32C772.36,-373.06 900.55,-415.79 966.19,-437.67"/>
<polygon fill="#666666" stroke="#666666" points="965.03,-439.87 972.44,-439.76 966.58,-435.22 965.03,-439.87"/>
</g>
<!-- SignedRecovery&#45;&gt;SignedODE -->
<g id="edge21" class="edge">
<title>SignedRecovery&#45;&gt;SignedODE</title>
<path fill="none" stroke="#666666" d="M701.1,-362.58C733.24,-381.71 774.44,-406.22 805.41,-424.64"/>
<polygon fill="#666666" stroke="#666666" points="804.08,-426.7 811.35,-428.18 806.58,-422.49 804.08,-426.7"/>
</g>
<!-- SignedRecovery&#45;&gt;DiagonalODE -->
<g id="edge22" class="edge">
<title>SignedRecovery&#45;&gt;DiagonalODE</title>
<path fill="none" stroke="#666666" d="M674.23,-364.29C685.76,-379.71 699.67,-398.31 711.67,-414.36"/>
<polygon fill="#666666" stroke="#666666" points="709.63,-415.71 715.78,-419.85 713.55,-412.78 709.63,-415.71"/>
</g>
<!-- SignedRecovery&#45;&gt;CriticalTime -->
<g id="edge23" class="edge">
<title>SignedRecovery&#45;&gt;CriticalTime</title>
<path fill="none" stroke="#666666" d="M626.52,-364.29C614.34,-380.58 599.51,-400.41 587.07,-417.04"/>
<polygon fill="#666666" stroke="#666666" points="585.4,-415.19 583.17,-422.26 589.32,-418.13 585.4,-415.19"/>
</g>
<!-- SignedRecovery&#45;&gt;QuasiStatic -->
<g id="edge19" class="edge">
<title>SignedRecovery&#45;&gt;QuasiStatic</title>
<path fill="none" stroke="#666666" d="M599.5,-337.97C479.18,-351.53 180.09,-387.68 85.38,-421.8 80.88,-423.42 76.33,-425.46 71.9,-427.7"/>
<polygon fill="#666666" stroke="#666666" points="70.94,-425.43 65.94,-430.91 73.27,-429.75 70.94,-425.43"/>
</g>
<!-- SignedRecovery&#45;&gt;NegBranchHelpers -->
<g id="edge24" class="edge">
<title>SignedRecovery&#45;&gt;NegBranchHelpers</title>
<path fill="none" stroke="#666666" d="M599.56,-346.51C541.78,-362.94 444.89,-391.71 363.38,-421.8 357.36,-424.02 351.1,-426.48 344.92,-429.01"/>
<polygon fill="#666666" stroke="#666666" points="344.09,-426.71 338.56,-431.65 345.97,-431.23 344.09,-426.71"/>
</g>
<!-- SignedRecovery&#45;&gt;EarlySlopeGronwall -->
<g id="edge25" class="edge">
<title>SignedRecovery&#45;&gt;EarlySlopeGronwall</title>
<path fill="none" stroke="#666666" d="M599.52,-339.84C518.96,-352.35 357.58,-380.37 225.38,-421.8 220.13,-423.44 214.74,-425.34 209.39,-427.35"/>
<polygon fill="#666666" stroke="#666666" points="208.64,-425.01 203.01,-429.83 210.42,-429.58 208.64,-425.01"/>
</g>
<!-- Main -->
<g id="node14" class="node">
<title>Main</title>
<path fill="#fff2cc" stroke="#996600" d="M986.58,-142.1C986.58,-142.1 942.17,-142.1 942.17,-142.1 936.17,-142.1 930.17,-136.1 930.17,-130.1 930.17,-130.1 930.17,-110.9 930.17,-110.9 930.17,-104.9 936.17,-98.9 942.17,-98.9 942.17,-98.9 986.58,-98.9 986.58,-98.9 992.58,-98.9 998.58,-104.9 998.58,-110.9 998.58,-110.9 998.58,-130.1 998.58,-130.1 998.58,-136.1 992.58,-142.1 986.58,-142.1"/>
<text text-anchor="middle" x="964.38" y="-122.05" font-family="Helvetica,sans-Serif" font-size="11.00">Main</text>
<text text-anchor="middle" x="964.38" y="-110.05" font-family="Helvetica,sans-Serif" font-size="11.00">332 LOC</text>
</g>
<!-- Main&#45;&gt;Basic -->
<g id="edge26" class="edge">
<title>Main&#45;&gt;Basic</title>
<path fill="none" stroke="#666666" d="M966.71,-142.55C970.93,-169.85 982.48,-216.8 1013.38,-241 1151.68,-349.33 1289.63,-165.97 1404.38,-299 1423.19,-320.81 1407.12,-335.13 1404.38,-363.8 1399.24,-417.51 1419.72,-445.04 1381.38,-483 1324.9,-538.91 1081.73,-557.64 978.26,-563.15"/>
<polygon fill="#666666" stroke="#666666" points="978.25,-560.7 971.38,-563.51 978.5,-565.59 978.25,-560.7"/>
</g>
<!-- Main&#45;&gt;Inversion -->
<g id="edge29" class="edge">
<title>Main&#45;&gt;Inversion</title>
<path fill="none" stroke="#666666" d="M967.1,-142.39C974.47,-198.91 994.82,-355.06 1003.44,-421.19"/>
<polygon fill="#666666" stroke="#666666" points="1000.99,-421.41 1004.33,-428.03 1005.85,-420.77 1000.99,-421.41"/>
</g>
<!-- Main&#45;&gt;SignedODE -->
<g id="edge30" class="edge">
<title>Main&#45;&gt;SignedODE</title>
<path fill="none" stroke="#666666" d="M948.35,-142.5C925.02,-174.36 882.41,-237.71 863.38,-299 850.85,-339.33 848.87,-388.37 849.16,-419.74"/>
<polygon fill="#666666" stroke="#666666" points="846.71,-419.62 849.28,-426.58 851.61,-419.54 846.71,-419.62"/>
</g>
<!-- Main&#45;&gt;DiagonalODE -->
<g id="edge28" class="edge">
<title>Main&#45;&gt;DiagonalODE</title>
<path fill="none" stroke="#666666" d="M950.13,-142.39C912.87,-197.02 812.12,-344.74 764.7,-414.27"/>
<polygon fill="#666666" stroke="#666666" points="762.78,-412.73 760.86,-419.9 766.83,-415.49 762.78,-412.73"/>
</g>
<!-- Main&#45;&gt;PlateauEstimator -->
<g id="edge32" class="edge">
<title>Main&#45;&gt;PlateauEstimator</title>
<path fill="none" stroke="#666666" d="M967.93,-142.29C973.41,-168.44 986.25,-213.27 1013.38,-241 1058.47,-287.1 1105.98,-248.73 1146.38,-299 1173.16,-332.33 1178.27,-382.84 1178.29,-416.46"/>
<polygon fill="#666666" stroke="#666666" points="1175.84,-416.08 1178.21,-423.11 1180.74,-416.14 1175.84,-416.08"/>
</g>
<!-- Main&#45;&gt;QuasiStatic -->
<g id="edge27" class="edge">
<title>Main&#45;&gt;QuasiStatic</title>
<path fill="none" stroke="#666666" d="M929.87,-130.52C810.01,-162.45 401.72,-276 85.38,-421.8 81.58,-423.55 77.7,-425.51 73.87,-427.56"/>
<polygon fill="#666666" stroke="#666666" points="72.84,-425.33 67.91,-430.87 75.22,-429.61 72.84,-425.33"/>
</g>
<!-- Main&#45;&gt;SampleNoise -->
<g id="edge34" class="edge">
<title>Main&#45;&gt;SampleNoise</title>
<path fill="none" stroke="#666666" d="M967.5,-142.19C972.55,-168.64 984.99,-214.23 1013.38,-241 1071.15,-295.49 1118.29,-252.11 1182.38,-299 1228.46,-332.72 1263.96,-390.68 1282.07,-424.57"/>
<polygon fill="#666666" stroke="#666666" points="1279.75,-425.42 1285.17,-430.48 1284.09,-423.15 1279.75,-425.42"/>
</g>
<!-- Main&#45;&gt;FiniteSample -->
<g id="edge35" class="edge">
<title>Main&#45;&gt;FiniteSample</title>
<path fill="none" stroke="#666666" d="M970.57,-142.37C978.42,-167.05 993.36,-208.82 1013.38,-241 1027.7,-264.03 1048.03,-286.88 1064.48,-303.72"/>
<polygon fill="#666666" stroke="#666666" points="1062.62,-305.32 1069.29,-308.57 1066.1,-301.87 1062.62,-305.32"/>
</g>
<!-- Main&#45;&gt;MixedOrdering -->
<g id="edge33" class="edge">
<title>Main&#45;&gt;MixedOrdering</title>
<path fill="none" stroke="#666666" d="M960.09,-142.29C952.28,-180.24 935.72,-260.69 927.01,-303.03"/>
<polygon fill="#666666" stroke="#666666" points="924.64,-302.38 925.63,-309.73 929.44,-303.37 924.64,-302.38"/>
</g>
<!-- Main&#45;&gt;SignedRecovery -->
<g id="edge31" class="edge">
<title>Main&#45;&gt;SignedRecovery</title>
<path fill="none" stroke="#666666" d="M932.83,-142.49C879.56,-177.93 771.15,-250.05 705.22,-293.91"/>
<polygon fill="#666666" stroke="#666666" points="703.92,-291.83 699.45,-297.75 706.63,-295.91 703.92,-291.83"/>
</g>
<!-- Corrected -->
<g id="node15" class="node">
<title>Corrected</title>
<path fill="#fff2cc" stroke="#996600" d="M475.25,-477.6C475.25,-477.6 389.5,-477.6 389.5,-477.6 383.5,-477.6 377.5,-471.6 377.5,-465.6 377.5,-465.6 377.5,-439.2 377.5,-439.2 377.5,-433.2 383.5,-427.2 389.5,-427.2 389.5,-427.2 475.25,-427.2 475.25,-427.2 481.25,-427.2 487.25,-433.2 487.25,-439.2 487.25,-439.2 487.25,-465.6 487.25,-465.6 487.25,-471.6 481.25,-477.6 475.25,-477.6"/>
<text text-anchor="middle" x="432.38" y="-459.95" font-family="Helvetica,sans-Serif" font-size="11.00">Corrected</text>
<text text-anchor="middle" x="432.38" y="-447.95" font-family="Helvetica,sans-Serif" font-size="11.00">302 LOC</text>
<text text-anchor="middle" x="432.38" y="-435.95" font-family="Helvetica,sans-Serif" font-size="11.00">(deprecation policy)</text>
</g>
<!-- Corrected&#45;&gt;Basic -->
<g id="edge1" class="edge">
<title>Corrected&#45;&gt;Basic</title>
<path fill="none" stroke="#666666" d="M486.96,-478.08C491.79,-479.88 496.64,-481.55 501.38,-483 637.58,-524.7 804.83,-549.4 884.66,-559.64"/>
<polygon fill="#666666" stroke="#666666" points="884.28,-562.06 891.53,-560.51 884.89,-557.2 884.28,-562.06"/>
</g>
<!-- Concentration -->
<g id="node16" class="node">
<title>Concentration</title>
<path fill="#ffffff" stroke="#999999" stroke-dasharray="5,2" d="M1377.75,-353C1377.75,-353 1307,-353 1307,-353 1301,-353 1295,-347 1295,-341 1295,-341 1295,-321.8 1295,-321.8 1295,-315.8 1301,-309.8 1307,-309.8 1307,-309.8 1377.75,-309.8 1377.75,-309.8 1383.75,-309.8 1389.75,-315.8 1389.75,-321.8 1389.75,-321.8 1389.75,-341 1389.75,-341 1389.75,-347 1383.75,-353 1377.75,-353"/>
<text text-anchor="middle" x="1342.38" y="-337.47" font-family="Helvetica,sans-Serif" font-size="9.00">Concentration</text>
<text text-anchor="middle" x="1342.38" y="-327.72" font-family="Helvetica,sans-Serif" font-size="9.00">79 LOC</text>
<text text-anchor="middle" x="1342.38" y="-317.97" font-family="Helvetica,sans-Serif" font-size="9.00">(staged — paper 3)</text>
</g>
<!-- Concentration&#45;&gt;Basic -->
<g id="edge12" class="edge">
<title>Concentration&#45;&gt;Basic</title>
<path fill="none" stroke="#666666" d="M1351.48,-353.39C1363.74,-385.28 1380.74,-446.1 1350.38,-483 1303.58,-539.87 1076.98,-557.98 977.91,-563.24"/>
<polygon fill="#666666" stroke="#666666" points="977.95,-560.78 971.09,-563.59 978.2,-565.67 977.95,-560.78"/>
</g>
<!-- Concentration&#45;&gt;SampleNoise -->
<g id="edge13" class="edge">
<title>Concentration&#45;&gt;SampleNoise</title>
<path fill="none" stroke="#666666" d="M1334.08,-353.4C1326.32,-373.04 1314.69,-402.5 1306.2,-423.98"/>
<polygon fill="#666666" stroke="#666666" points="1303.97,-422.97 1303.67,-430.39 1308.52,-424.78 1303.97,-422.97"/>
</g>
<!-- legend -->
<g id="node17" class="node">
<title>legend</title>
<path fill="lightgrey" stroke="none" d="M1224.88,-241C1224.88,-241 1039.88,-241 1039.88,-241 1033.88,-241 1027.88,-235 1027.88,-229 1027.88,-229 1027.88,-12 1027.88,-12 1027.88,-6 1033.88,0 1039.88,0 1039.88,0 1224.88,0 1224.88,0 1230.88,0 1236.88,-6 1236.88,-12 1236.88,-12 1236.88,-229 1236.88,-229 1236.88,-235 1230.88,-241 1224.88,-241"/>
<polygon fill="#ffffff" stroke="none" points="1035.88,-4 1035.88,-237 1228.88,-237 1228.88,-4 1035.88,-4"/>
<text text-anchor="start" x="1044.88" y="-218.55" font-family="Helvetica,sans-Serif" font-weight="bold" font-size="11.00">Legend</text>
<polygon fill="#f4cccc" stroke="none" points="1040.88,-188 1040.88,-208 1067.88,-208 1067.88,-188 1040.88,-188"/>
<text text-anchor="start" x="1075.88" y="-193.55" font-family="Helvetica,sans-Serif" font-size="11.00">god&#45;module (multi&#45;cluster)</text>
<polygon fill="#cfe2f3" stroke="none" points="1040.88,-164 1040.88,-184 1067.88,-184 1067.88,-164 1040.88,-164"/>
<text text-anchor="start" x="1075.88" y="-169.55" font-family="Helvetica,sans-Serif" font-size="11.00">foundation (heavy fan&#45;in)</text>
<polygon fill="#fff2cc" stroke="none" points="1040.88,-140 1040.88,-160 1067.88,-160 1067.88,-140 1040.88,-140"/>
<text text-anchor="start" x="1075.88" y="-145.55" font-family="Helvetica,sans-Serif" font-size="11.00">synthesis (headline / glue)</text>
<polygon fill="#efefef" stroke="none" points="1040.88,-116 1040.88,-136 1067.88,-136 1067.88,-116 1040.88,-116"/>
<text text-anchor="start" x="1075.88" y="-121.55" font-family="Helvetica,sans-Serif" font-size="11.00">helper (single&#45;cluster lemmas)</text>
<polygon fill="#ffffff" stroke="none" points="1040.88,-89 1040.88,-112 1067.88,-112 1067.88,-89 1040.88,-89"/>
<text text-anchor="start" x="1044.62" y="-98.5" font-family="Helvetica,sans-Serif" font-size="10.00">┄┄</text>
<text text-anchor="start" x="1075.88" y="-96.05" font-family="Helvetica,sans-Serif" font-size="11.00">orphan / stub (check intent)</text>
<text text-anchor="start" x="1073.88" y="-71.5" font-family="Helvetica,sans-Serif" font-size="10.00">────────────</text>
<text text-anchor="start" x="1044.88" y="-48.5" font-family="Helvetica,sans-Serif" font-size="10.00">node size ∝ LOC</text>
<text text-anchor="start" x="1057.62" y="-25.5" font-family="Helvetica,sans-Serif" font-size="10.00">border thickness ∝ fan&#45;in</text>
<text text-anchor="start" x="1044.88" y="-14.25" font-family="Helvetica,sans-Serif" font-size="10.00">(downstream invalidation cost)</text>
<polygon fill="none" stroke="#bbbbbb" points="1035.88,-4 1035.88,-237 1228.88,-237 1228.88,-4 1035.88,-4"/>
</g>
</g>
</svg>
