<?xml version="1.0" encoding="UTF-8" standalone="no"?>
<!DOCTYPE svg PUBLIC "-//W3C//DTD SVG 1.1//EN"
 "http://www.w3.org/Graphics/SVG/1.1/DTD/svg11.dtd">
<!-- Generated by graphviz version 12.1.2 (20240928.0832)
 -->
<!-- Title: JEPA_LearningOrder_Import Pages: 1 -->
<svg width="901pt" height="921pt"
 viewBox="0.00 0.00 901.05 920.50" xmlns="http://www.w3.org/2000/svg" xmlns:xlink="http://www.w3.org/1999/xlink">
<g id="graph0" class="graph" transform="scale(1 1) rotate(0) translate(36 884.5)">
<title>JEPA_LearningOrder_Import</title>
<polygon fill="#fafafa" stroke="none" points="-36,36 -36,-884.5 865.05,-884.5 865.05,36 -36,36"/>
<!-- Lemmas -->
<g id="node1" class="node">
<title>Lemmas</title>
<path fill="#cfe2f3" stroke="#1f4e79" stroke-width="4" d="M369.3,-848.5C369.3,-848.5 312.8,-848.5 312.8,-848.5 306.8,-848.5 300.8,-842.5 300.8,-836.5 300.8,-836.5 300.8,-810.1 300.8,-810.1 300.8,-804.1 306.8,-798.1 312.8,-798.1 312.8,-798.1 369.3,-798.1 369.3,-798.1 375.3,-798.1 381.3,-804.1 381.3,-810.1 381.3,-810.1 381.3,-836.5 381.3,-836.5 381.3,-842.5 375.3,-848.5 369.3,-848.5"/>
<text text-anchor="middle" x="341.05" y="-824.85" font-family="Helvetica,sans-Serif" font-size="11.00">Lemmas.lean</text>
<text text-anchor="middle" x="341.05" y="-812.85" font-family="Helvetica,sans-Serif" font-size="11.00">498 LOC</text>
</g>
<!-- Basic -->
<g id="node2" class="node">
<title>Basic</title>
<path fill="#ffffff" stroke="#999999" stroke-dasharray="5,2" d="M429.32,-134.9C429.32,-134.9 380.77,-134.9 380.77,-134.9 375.97,-134.9 371.17,-130.1 371.17,-125.3 371.17,-125.3 371.17,-115.7 371.17,-115.7 371.17,-110.9 375.97,-106.1 380.77,-106.1 380.77,-106.1 429.32,-106.1 429.32,-106.1 434.12,-106.1 438.92,-110.9 438.92,-115.7 438.92,-115.7 438.92,-125.3 438.92,-125.3 438.92,-130.1 434.12,-134.9 429.32,-134.9"/>
<text text-anchor="middle" x="405.05" y="-121.7" font-family="Helvetica,sans-Serif" font-size="9.00">Basic.lean</text>
<text text-anchor="middle" x="405.05" y="-111.95" font-family="Helvetica,sans-Serif" font-size="9.00">1 LOC (stub)</text>
</g>
<!-- GronwallIntegral -->
<g id="node3" class="node">
<title>GronwallIntegral</title>
<path fill="#ffffff" stroke="#999999" stroke-dasharray="5,2" d="M570.8,-138.5C570.8,-138.5 487.3,-138.5 487.3,-138.5 481.3,-138.5 475.3,-132.5 475.3,-126.5 475.3,-126.5 475.3,-114.5 475.3,-114.5 475.3,-108.5 481.3,-102.5 487.3,-102.5 487.3,-102.5 570.8,-102.5 570.8,-102.5 576.8,-102.5 582.8,-108.5 582.8,-114.5 582.8,-114.5 582.8,-126.5 582.8,-126.5 582.8,-132.5 576.8,-138.5 570.8,-138.5"/>
<text text-anchor="middle" x="529.05" y="-122.25" font-family="Helvetica,sans-Serif" font-size="10.00">GronwallIntegral.lean</text>
<text text-anchor="middle" x="529.05" y="-111" font-family="Helvetica,sans-Serif" font-size="10.00">136 LOC (unused)</text>
</g>
<!-- JEPA -->
<g id="node4" class="node">
<title>JEPA</title>
<path fill="#f4cccc" stroke="#990000" stroke-width="4" d="M480.05,-637.6C480.05,-637.6 324.05,-637.6 324.05,-637.6 318.05,-637.6 312.05,-631.6 312.05,-625.6 312.05,-625.6 312.05,-548.8 312.05,-548.8 312.05,-542.8 318.05,-536.8 324.05,-536.8 324.05,-536.8 480.05,-536.8 480.05,-536.8 486.05,-536.8 492.05,-542.8 492.05,-548.8 492.05,-548.8 492.05,-625.6 492.05,-625.6 492.05,-631.6 486.05,-637.6 480.05,-637.6"/>
<text text-anchor="middle" x="402.05" y="-595.85" font-family="Helvetica,sans-Serif" font-size="13.00">JEPA.lean</text>
<text text-anchor="middle" x="402.05" y="-582.35" font-family="Helvetica,sans-Serif" font-size="13.00">2002 LOC ⚠</text>
<text text-anchor="middle" x="402.05" y="-567.35" font-family="Helvetica,sans-Serif" font-size="13.00">(4 internal clusters)</text>
</g>
<!-- JEPA&#45;&gt;Lemmas -->
<g id="edge2" class="edge">
<title>JEPA&#45;&gt;Lemmas</title>
<path fill="none" stroke="#666666" d="M388.66,-639.57C376.87,-684.81 360.04,-749.39 349.87,-788.43"/>
<polygon fill="#666666" stroke="#666666" points="347.58,-787.5 348.19,-794.9 352.32,-788.74 347.58,-787.5"/>
</g>
<!-- OffDiagHelpers -->
<g id="node5" class="node">
<title>OffDiagHelpers</title>
<path fill="#efefef" stroke="#666666" stroke-width="2.5" d="M300.63,-733.1C300.63,-733.1 237.46,-733.1 237.46,-733.1 232.38,-733.1 227.3,-728.02 227.3,-722.93 227.3,-722.93 227.3,-712.77 227.3,-712.77 227.3,-707.68 232.38,-702.6 237.46,-702.6 237.46,-702.6 300.63,-702.6 300.63,-702.6 305.71,-702.6 310.8,-707.68 310.8,-712.77 310.8,-712.77 310.8,-722.93 310.8,-722.93 310.8,-728.02 305.71,-733.1 300.63,-733.1"/>
<text text-anchor="middle" x="269.05" y="-719.6" font-family="Helvetica,sans-Serif" font-size="10.00">OffDiagHelpers</text>
<text text-anchor="middle" x="269.05" y="-708.35" font-family="Helvetica,sans-Serif" font-size="10.00">37 LOC</text>
</g>
<!-- JEPA&#45;&gt;OffDiagHelpers -->
<g id="edge3" class="edge">
<title>JEPA&#45;&gt;OffDiagHelpers</title>
<path fill="none" stroke="#666666" d="M349.1,-639.42C328.64,-659.21 306.38,-680.74 290.55,-696.05"/>
<polygon fill="#666666" stroke="#666666" points="289.01,-694.13 285.68,-700.76 292.42,-697.65 289.01,-694.13"/>
</g>
<!-- OffDiagHelpers&#45;&gt;Lemmas -->
<g id="edge1" class="edge">
<title>OffDiagHelpers&#45;&gt;Lemmas</title>
<path fill="none" stroke="#666666" d="M279.36,-733.67C289.47,-748.2 305.23,-770.84 318.28,-789.59"/>
<polygon fill="#666666" stroke="#666666" points="316.08,-790.72 322.09,-795.07 320.1,-787.92 316.08,-790.72"/>
</g>
<!-- PDLowerHelpers -->
<g id="node6" class="node">
<title>PDLowerHelpers</title>
<path fill="#efefef" stroke="#666666" stroke-width="2" d="M116.17,-468.2C116.17,-468.2 49.92,-468.2 49.92,-468.2 43.92,-468.2 37.92,-462.2 37.92,-456.2 37.92,-456.2 37.92,-444.2 37.92,-444.2 37.92,-438.2 43.92,-432.2 49.92,-432.2 49.92,-432.2 116.17,-432.2 116.17,-432.2 122.17,-432.2 128.17,-438.2 128.17,-444.2 128.17,-444.2 128.17,-456.2 128.17,-456.2 128.17,-462.2 122.17,-468.2 116.17,-468.2"/>
<text text-anchor="middle" x="83.05" y="-451.95" font-family="Helvetica,sans-Serif" font-size="10.00">PDLowerHelpers</text>
<text text-anchor="middle" x="83.05" y="-440.7" font-family="Helvetica,sans-Serif" font-size="10.00">194 LOC</text>
</g>
<!-- PDLowerHelpers&#45;&gt;Lemmas -->
<g id="edge4" class="edge">
<title>PDLowerHelpers&#45;&gt;Lemmas</title>
<path fill="none" stroke="#666666" d="M87.29,-468.89C99.35,-516.25 137.69,-648.12 209.05,-733.1 231.74,-760.13 264.6,-782.37 291.86,-797.89"/>
<polygon fill="#666666" stroke="#666666" points="290.4,-799.88 297.7,-801.15 292.78,-795.6 290.4,-799.88"/>
</g>
<!-- PDLowerHelpers&#45;&gt;JEPA -->
<g id="edge5" class="edge">
<title>PDLowerHelpers&#45;&gt;JEPA</title>
<path fill="none" stroke="#666666" d="M125.41,-469.13C170.35,-488.15 242.94,-518.86 302.48,-544.06"/>
<polygon fill="#666666" stroke="#666666" points="301.25,-546.2 308.65,-546.68 303.16,-541.69 301.25,-546.2"/>
</g>
<!-- LaurentHelpers -->
<g id="node7" class="node">
<title>LaurentHelpers</title>
<path fill="#efefef" stroke="#666666" stroke-width="1.5" d="M457.88,-465.45C457.88,-465.45 396.21,-465.45 396.21,-465.45 391.13,-465.45 386.05,-460.37 386.05,-455.28 386.05,-455.28 386.05,-445.12 386.05,-445.12 386.05,-440.03 391.13,-434.95 396.21,-434.95 396.21,-434.95 457.88,-434.95 457.88,-434.95 462.96,-434.95 468.05,-440.03 468.05,-445.12 468.05,-445.12 468.05,-455.28 468.05,-455.28 468.05,-460.37 462.96,-465.45 457.88,-465.45"/>
<text text-anchor="middle" x="427.05" y="-451.95" font-family="Helvetica,sans-Serif" font-size="10.00">LaurentHelpers</text>
<text text-anchor="middle" x="427.05" y="-440.7" font-family="Helvetica,sans-Serif" font-size="10.00">65 LOC</text>
</g>
<!-- LaurentHelpers&#45;&gt;JEPA -->
<g id="edge6" class="edge">
<title>LaurentHelpers&#45;&gt;JEPA</title>
<path fill="none" stroke="#666666" d="M424.32,-465.9C421.6,-480.63 417.22,-504.28 413.06,-526.72"/>
<polygon fill="#666666" stroke="#666666" points="410.68,-526.1 411.82,-533.43 415.5,-527 410.68,-526.1"/>
</g>
<!-- SaxeAsymptoticHelpers -->
<g id="node8" class="node">
<title>SaxeAsymptoticHelpers</title>
<path fill="#efefef" stroke="#666666" stroke-width="1.5" d="M687.92,-471.8C687.92,-471.8 590.17,-471.8 590.17,-471.8 584.17,-471.8 578.17,-465.8 578.17,-459.8 578.17,-459.8 578.17,-440.6 578.17,-440.6 578.17,-434.6 584.17,-428.6 590.17,-428.6 590.17,-428.6 687.92,-428.6 687.92,-428.6 693.92,-428.6 699.92,-434.6 699.92,-440.6 699.92,-440.6 699.92,-459.8 699.92,-459.8 699.92,-465.8 693.92,-471.8 687.92,-471.8"/>
<text text-anchor="middle" x="639.05" y="-451.95" font-family="Helvetica,sans-Serif" font-size="10.00">SaxeAsymptoticHelpers</text>
<text text-anchor="middle" x="639.05" y="-440.7" font-family="Helvetica,sans-Serif" font-size="10.00">363 LOC</text>
</g>
<!-- SaxeAsymptoticHelpers&#45;&gt;JEPA -->
<g id="edge7" class="edge">
<title>SaxeAsymptoticHelpers&#45;&gt;JEPA</title>
<path fill="none" stroke="#666666" d="M602.02,-472.29C574.49,-487.97 535.61,-510.12 499.43,-530.73"/>
<polygon fill="#666666" stroke="#666666" points="498.42,-528.48 493.55,-534.08 500.85,-532.74 498.42,-528.48"/>
</g>
<!-- BootstrapLemmas -->
<g id="node9" class="node">
<title>BootstrapLemmas</title>
<path fill="#fff2cc" stroke="#996600" stroke-width="1.5" d="M115.92,-360C115.92,-360 36.17,-360 36.17,-360 30.17,-360 24.17,-354 24.17,-348 24.17,-348 24.17,-321.6 24.17,-321.6 24.17,-315.6 30.17,-309.6 36.17,-309.6 36.17,-309.6 115.92,-309.6 115.92,-309.6 121.92,-309.6 127.92,-315.6 127.92,-321.6 127.92,-321.6 127.92,-348 127.92,-348 127.92,-354 121.92,-360 115.92,-360"/>
<text text-anchor="middle" x="76.05" y="-336.35" font-family="Helvetica,sans-Serif" font-size="11.00">BootstrapLemmas</text>
<text text-anchor="middle" x="76.05" y="-324.35" font-family="Helvetica,sans-Serif" font-size="11.00">552 LOC</text>
</g>
<!-- BootstrapLemmas&#45;&gt;Lemmas -->
<g id="edge8" class="edge">
<title>BootstrapLemmas&#45;&gt;Lemmas</title>
<path fill="none" stroke="#666666" d="M50.42,-360.32C34.26,-377.65 14.83,-402.38 6.05,-428.6 -16.04,-494.57 30.53,-605.91 52.05,-637.6 110.86,-724.23 225.24,-779 291.1,-804.8"/>
<polygon fill="#666666" stroke="#666666" points="290.06,-807.02 297.47,-807.26 291.82,-802.45 290.06,-807.02"/>
</g>
<!-- BootstrapLemmas&#45;&gt;JEPA -->
<g id="edge10" class="edge">
<title>BootstrapLemmas&#45;&gt;JEPA</title>
<path fill="none" stroke="#666666" d="M108.2,-360.49C159.08,-399.58 259.49,-476.7 328.66,-529.83"/>
<polygon fill="#666666" stroke="#666666" points="327.01,-531.65 334.05,-533.97 329.99,-527.77 327.01,-531.65"/>
</g>
<!-- BootstrapLemmas&#45;&gt;OffDiagHelpers -->
<g id="edge9" class="edge">
<title>BootstrapLemmas&#45;&gt;OffDiagHelpers</title>
<path fill="none" stroke="#666666" d="M53.68,-360.41C31.74,-387.68 3.77,-432.94 20.05,-471.8 64.43,-577.75 179.43,-661.06 236.27,-697.24"/>
<polygon fill="#666666" stroke="#666666" points="234.72,-699.16 241.95,-700.81 237.33,-695.01 234.72,-699.16"/>
</g>
<!-- BootstrapLemmas&#45;&gt;PDLowerHelpers -->
<g id="edge11" class="edge">
<title>BootstrapLemmas&#45;&gt;PDLowerHelpers</title>
<path fill="none" stroke="#666666" d="M77.57,-360.41C78.7,-378.85 80.26,-404.05 81.42,-422.9"/>
<polygon fill="#666666" stroke="#666666" points="78.97,-422.97 81.85,-429.81 83.86,-422.67 78.97,-422.97"/>
</g>
<!-- MainTheorem -->
<g id="node10" class="node">
<title>MainTheorem</title>
<path fill="#fff2cc" stroke="#996600" d="M323.42,-142.1C323.42,-142.1 264.67,-142.1 264.67,-142.1 258.67,-142.1 252.67,-136.1 252.67,-130.1 252.67,-130.1 252.67,-110.9 252.67,-110.9 252.67,-104.9 258.67,-98.9 264.67,-98.9 264.67,-98.9 323.42,-98.9 323.42,-98.9 329.42,-98.9 335.42,-104.9 335.42,-110.9 335.42,-110.9 335.42,-130.1 335.42,-130.1 335.42,-136.1 329.42,-142.1 323.42,-142.1"/>
<text text-anchor="middle" x="294.05" y="-122.05" font-family="Helvetica,sans-Serif" font-size="11.00">MainTheorem</text>
<text text-anchor="middle" x="294.05" y="-110.05" font-family="Helvetica,sans-Serif" font-size="11.00">300 LOC</text>
</g>
<!-- MainTheorem&#45;&gt;Lemmas -->
<g id="edge15" class="edge">
<title>MainTheorem&#45;&gt;Lemmas</title>
<path fill="none" stroke="#666666" d="M298.31,-142.51C305,-169.75 320.69,-216.66 353.05,-241 483.68,-339.26 574.68,-222.23 715.05,-306 784.9,-347.69 829.05,-367.85 829.05,-449.2 829.05,-449.2 829.05,-449.2 829.05,-588.2 829.05,-780.87 516,-815.08 391.36,-821.07"/>
<polygon fill="#666666" stroke="#666666" points="391.47,-818.61 384.59,-821.37 391.69,-823.51 391.47,-818.61"/>
</g>
<!-- MainTheorem&#45;&gt;JEPA -->
<g id="edge17" class="edge">
<title>MainTheorem&#45;&gt;JEPA</title>
<path fill="none" stroke="#666666" d="M297.88,-142.56C307.97,-197.23 336.63,-347.99 368.05,-471.8 372.62,-489.83 378.17,-509.27 383.44,-526.93"/>
<polygon fill="#666666" stroke="#666666" points="381.04,-527.46 385.41,-533.46 385.73,-526.05 381.04,-527.46"/>
</g>
<!-- MainTheorem&#45;&gt;OffDiagHelpers -->
<g id="edge16" class="edge">
<title>MainTheorem&#45;&gt;OffDiagHelpers</title>
<path fill="none" stroke="#666666" d="M293.17,-142.34C289.35,-233.45 274.1,-596.55 270.04,-693.14"/>
<polygon fill="#666666" stroke="#666666" points="267.59,-693.03 269.75,-700.13 272.49,-693.24 267.59,-693.03"/>
</g>
<!-- MainTheorem&#45;&gt;PDLowerHelpers -->
<g id="edge18" class="edge">
<title>MainTheorem&#45;&gt;PDLowerHelpers</title>
<path fill="none" stroke="#666666" d="M282.15,-142.28C257.75,-184.62 199.76,-283.66 146.05,-363.6 131.78,-384.83 114.5,-408.16 101.64,-425.1"/>
<polygon fill="#666666" stroke="#666666" points="99.99,-423.23 97.69,-430.28 103.89,-426.2 99.99,-423.23"/>
</g>
<!-- MainTheorem&#45;&gt;LaurentHelpers -->
<g id="edge20" class="edge">
<title>MainTheorem&#45;&gt;LaurentHelpers</title>
<path fill="none" stroke="#666666" d="M302.57,-142.5C326.39,-201.19 393.51,-366.58 417.98,-426.86"/>
<polygon fill="#666666" stroke="#666666" points="415.67,-427.68 420.57,-433.24 420.21,-425.84 415.67,-427.68"/>
</g>
<!-- MainTheorem&#45;&gt;BootstrapLemmas -->
<g id="edge19" class="edge">
<title>MainTheorem&#45;&gt;BootstrapLemmas</title>
<path fill="none" stroke="#666666" d="M272.75,-142.24C234.07,-179.91 152.14,-259.7 107.18,-303.48"/>
<polygon fill="#666666" stroke="#666666" points="105.48,-301.71 102.18,-308.35 108.9,-305.22 105.48,-301.71"/>
</g>
<!-- Corrected -->
<g id="node11" class="node">
<title>Corrected</title>
<path fill="#fff2cc" stroke="#996600" d="M684.92,-363.6C684.92,-363.6 593.17,-363.6 593.17,-363.6 587.17,-363.6 581.17,-357.6 581.17,-351.6 581.17,-351.6 581.17,-318 581.17,-318 581.17,-312 587.17,-306 593.17,-306 593.17,-306 684.92,-306 684.92,-306 690.92,-306 696.92,-312 696.92,-318 696.92,-318 696.92,-351.6 696.92,-351.6 696.92,-357.6 690.92,-363.6 684.92,-363.6"/>
<text text-anchor="middle" x="639.05" y="-342.35" font-family="Helvetica,sans-Serif" font-size="11.00">Corrected.lean</text>
<text text-anchor="middle" x="639.05" y="-330.35" font-family="Helvetica,sans-Serif" font-size="11.00">894 LOC</text>
<text text-anchor="middle" x="639.05" y="-318.35" font-family="Helvetica,sans-Serif" font-size="11.00">(headline, hardened)</text>
</g>
<!-- Corrected&#45;&gt;Lemmas -->
<g id="edge13" class="edge">
<title>Corrected&#45;&gt;Lemmas</title>
<path fill="none" stroke="#666666" d="M673.58,-363.97C702,-390.79 735.06,-432.75 718.05,-471.8 650.41,-627.04 476.37,-744.49 390.48,-795.05"/>
<polygon fill="#666666" stroke="#666666" points="389.32,-792.89 384.51,-798.53 391.79,-797.12 389.32,-792.89"/>
</g>
<!-- Corrected&#45;&gt;JEPA -->
<g id="edge12" class="edge">
<title>Corrected&#45;&gt;JEPA</title>
<path fill="none" stroke="#666666" d="M612.32,-364.04C574.63,-403.86 505.02,-477.4 456.25,-528.93"/>
<polygon fill="#666666" stroke="#666666" points="454.49,-527.23 451.45,-534 458.05,-530.6 454.49,-527.23"/>
</g>
<!-- Corrected&#45;&gt;SaxeAsymptoticHelpers -->
<g id="edge14" class="edge">
<title>Corrected&#45;&gt;SaxeAsymptoticHelpers</title>
<path fill="none" stroke="#666666" d="M639.05,-363.83C639.05,-380.97 639.05,-402.84 639.05,-420.16"/>
<polygon fill="#666666" stroke="#666666" points="636.6,-419.74 639.05,-426.74 641.5,-419.74 636.6,-419.74"/>
</g>
<!-- legend -->
<g id="node12" class="node">
<title>legend</title>
<path fill="lightgrey" stroke="none" d="M815.55,-241C815.55,-241 630.55,-241 630.55,-241 624.55,-241 618.55,-235 618.55,-229 618.55,-229 618.55,-12 618.55,-12 618.55,-6 624.55,0 630.55,0 630.55,0 815.55,0 815.55,0 821.55,0 827.55,-6 827.55,-12 827.55,-12 827.55,-229 827.55,-229 827.55,-235 821.55,-241 815.55,-241"/>
<polygon fill="#ffffff" stroke="none" points="626.55,-4 626.55,-237 819.55,-237 819.55,-4 626.55,-4"/>
<text text-anchor="start" x="635.55" y="-218.55" font-family="Helvetica,sans-Serif" font-weight="bold" font-size="11.00">Legend</text>
<polygon fill="#f4cccc" stroke="none" points="631.55,-188 631.55,-208 658.55,-208 658.55,-188 631.55,-188"/>
<text text-anchor="start" x="666.55" y="-193.55" font-family="Helvetica,sans-Serif" font-size="11.00">god&#45;module (multi&#45;cluster)</text>
<polygon fill="#cfe2f3" stroke="none" points="631.55,-164 631.55,-184 658.55,-184 658.55,-164 631.55,-164"/>
<text text-anchor="start" x="666.55" y="-169.55" font-family="Helvetica,sans-Serif" font-size="11.00">foundation (heavy fan&#45;in)</text>
<polygon fill="#fff2cc" stroke="none" points="631.55,-140 631.55,-160 658.55,-160 658.55,-140 631.55,-140"/>
<text text-anchor="start" x="666.55" y="-145.55" font-family="Helvetica,sans-Serif" font-size="11.00">synthesis (headline / glue)</text>
<polygon fill="#efefef" stroke="none" points="631.55,-116 631.55,-136 658.55,-136 658.55,-116 631.55,-116"/>
<text text-anchor="start" x="666.55" y="-121.55" font-family="Helvetica,sans-Serif" font-size="11.00">helper (single&#45;cluster lemmas)</text>
<polygon fill="#ffffff" stroke="none" points="631.55,-89 631.55,-112 658.55,-112 658.55,-89 631.55,-89"/>
<text text-anchor="start" x="635.3" y="-98.5" font-family="Helvetica,sans-Serif" font-size="10.00">┄┄</text>
<text text-anchor="start" x="666.55" y="-96.05" font-family="Helvetica,sans-Serif" font-size="11.00">orphan / stub (check intent)</text>
<text text-anchor="start" x="664.55" y="-71.5" font-family="Helvetica,sans-Serif" font-size="10.00">────────────</text>
<text text-anchor="start" x="635.55" y="-48.5" font-family="Helvetica,sans-Serif" font-size="10.00">node size ∝ LOC</text>
<text text-anchor="start" x="648.3" y="-25.5" font-family="Helvetica,sans-Serif" font-size="10.00">border thickness ∝ fan&#45;in</text>
<text text-anchor="start" x="635.55" y="-14.25" font-family="Helvetica,sans-Serif" font-size="10.00">(downstream invalidation cost)</text>
<polygon fill="none" stroke="#bbbbbb" points="626.55,-4 626.55,-237 819.55,-237 819.55,-4 626.55,-4"/>
</g>
</g>
</svg>
